M48
; DRILL file {KiCad 9.0.6} date 2025-12-01T20:52:56-0500
; FORMAT={-:-/ absolute / metric / decimal}
; #@! TF.CreationDate,2025-12-01T20:52:56-05:00
; #@! TF.GenerationSoftware,Kicad,Pcbnew,9.0.6
; #@! TF.FileFunction,Plated,1,2,PTH
FMAT,2
METRIC
; #@! TA.AperFunction,Plated,PTH,ViaDrill
T1C0.300
; #@! TA.AperFunction,Plated,PTH,ComponentDrill
T2C0.800
; #@! TA.AperFunction,Plated,PTH,ComponentDrill
T3C1.000
%
G90
G05
T1
X75.825Y-78.2
X77.45Y-67.075
X77.5Y-51.225
X79.875Y-60.975
X79.9Y-58.45
X80.0Y-62.325
X80.575Y-69.325
X81.575Y-77.025
X82.575Y-58.2
X83.275Y-62.575
X83.375Y-73.55
X85.7Y-69.25
X85.9Y-64.9
X86.175Y-64.0
X88.175Y-74.0
X88.5Y-72.975
X89.5Y-75.05
X90.25Y-55.85
X90.925Y-65.875
X91.625Y-71.225
X93.75Y-62.4
X95.275Y-65.0
X95.675Y-66.85
X96.15Y-78.875
X96.7Y-55.325
X97.55Y-70.225
X97.7Y-61.525
X98.325Y-75.909
X100.825Y-74.4
X101.5Y-59.325
X102.225Y-51.775
X102.825Y-64.65
X104.425Y-59.825
X106.3Y-68.475
X106.378Y-59.898
X107.4Y-57.225
X109.8Y-56.85
X110.75Y-70.05
X111.025Y-67.025
X111.375Y-65.15
X111.75Y-63.2
X113.4Y-63.025
X115.8Y-63.0
X115.85Y-56.45
X115.9Y-54.675
X116.85Y-77.225
X117.125Y-73.225
X117.475Y-75.05
X118.125Y-69.125
X119.65Y-71.275
X119.7Y-66.175
X120.225Y-69.375
X124.35Y-73.4
X128.1Y-56.45
X130.65Y-56.475
X130.775Y-76.4
X138.6Y-66.0
X140.95Y-78.475
X141.0Y-66.625
X141.05Y-58.35
X143.45Y-78.925
T2
X122.805Y-57.29
X122.805Y-59.83
X122.805Y-62.37
X122.805Y-64.91
X122.805Y-67.45
X123.015Y-54.75
X123.015Y-69.99
X125.555Y-54.75
X125.555Y-69.99
X128.095Y-54.75
X128.095Y-69.99
X130.635Y-54.75
X130.635Y-69.99
X133.175Y-54.75
X133.175Y-69.99
X135.715Y-54.75
X135.715Y-69.99
X138.255Y-54.75
X138.255Y-69.99
X140.795Y-54.75
X140.795Y-69.99
X143.335Y-54.71
X143.335Y-69.99
T3
X77.875Y-54.4
X77.875Y-56.94
X77.875Y-59.48
X77.875Y-62.02
X77.875Y-64.56
X85.425Y-78.475
X87.965Y-78.475
X90.505Y-78.475
X93.045Y-78.475
X99.75Y-78.475
X102.29Y-78.475
X104.83Y-78.475
X107.37Y-78.475
X127.7Y-78.475
X130.24Y-78.475
X132.78Y-78.475
X135.32Y-78.475
M30
