%TF.GenerationSoftware,KiCad,Pcbnew,9.0.6*%
%TF.CreationDate,2025-12-01T20:52:41-05:00*%
%TF.ProjectId,Pico 2HP,5069636f-2032-4485-902e-6b696361645f,rev?*%
%TF.SameCoordinates,Original*%
%TF.FileFunction,Legend,Top*%
%TF.FilePolarity,Positive*%
%FSLAX46Y46*%
G04 Gerber Fmt 4.6, Leading zero omitted, Abs format (unit mm)*
G04 Created by KiCad (PCBNEW 9.0.6) date 2025-12-01 20:52:41*
%MOMM*%
%LPD*%
G01*
G04 APERTURE LIST*
G04 Aperture macros list*
%AMRoundRect*
0 Rectangle with rounded corners*
0 $1 Rounding radius*
0 $2 $3 $4 $5 $6 $7 $8 $9 X,Y pos of 4 corners*
0 Add a 4 corners polygon primitive as box body*
4,1,4,$2,$3,$4,$5,$6,$7,$8,$9,$2,$3,0*
0 Add four circle primitives for the rounded corners*
1,1,$1+$1,$2,$3*
1,1,$1+$1,$4,$5*
1,1,$1+$1,$6,$7*
1,1,$1+$1,$8,$9*
0 Add four rect primitives between the rounded corners*
20,1,$1+$1,$2,$3,$4,$5,0*
20,1,$1+$1,$4,$5,$6,$7,0*
20,1,$1+$1,$6,$7,$8,$9,0*
20,1,$1+$1,$8,$9,$2,$3,0*%
G04 Aperture macros list end*
%ADD10C,0.100000*%
%ADD11C,0.150000*%
%ADD12C,0.120000*%
%ADD13RoundRect,0.150000X-0.825000X-0.150000X0.825000X-0.150000X0.825000X0.150000X-0.825000X0.150000X0*%
%ADD14RoundRect,0.237500X-0.250000X-0.237500X0.250000X-0.237500X0.250000X0.237500X-0.250000X0.237500X0*%
%ADD15R,1.700000X1.700000*%
%ADD16C,1.700000*%
%ADD17RoundRect,0.250000X-0.550000X1.250000X-0.550000X-1.250000X0.550000X-1.250000X0.550000X1.250000X0*%
%ADD18RoundRect,0.150000X0.825000X0.150000X-0.825000X0.150000X-0.825000X-0.150000X0.825000X-0.150000X0*%
%ADD19RoundRect,0.237500X0.250000X0.237500X-0.250000X0.237500X-0.250000X-0.237500X0.250000X-0.237500X0*%
%ADD20RoundRect,0.237500X-0.300000X-0.237500X0.300000X-0.237500X0.300000X0.237500X-0.300000X0.237500X0*%
%ADD21RoundRect,0.237500X0.237500X-0.300000X0.237500X0.300000X-0.237500X0.300000X-0.237500X-0.300000X0*%
%ADD22RoundRect,0.237500X0.300000X0.237500X-0.300000X0.237500X-0.300000X-0.237500X0.300000X-0.237500X0*%
%ADD23RoundRect,0.250000X-0.400000X-0.625000X0.400000X-0.625000X0.400000X0.625000X-0.400000X0.625000X0*%
%ADD24R,1.200000X1.200000*%
%ADD25R,1.600000X1.500000*%
%ADD26RoundRect,0.150000X0.587500X0.150000X-0.587500X0.150000X-0.587500X-0.150000X0.587500X-0.150000X0*%
%ADD27RoundRect,0.150000X0.512500X0.150000X-0.512500X0.150000X-0.512500X-0.150000X0.512500X-0.150000X0*%
%ADD28RoundRect,0.237500X-0.237500X0.300000X-0.237500X-0.300000X0.237500X-0.300000X0.237500X0.300000X0*%
%ADD29RoundRect,0.225000X0.225000X0.375000X-0.225000X0.375000X-0.225000X-0.375000X0.225000X-0.375000X0*%
%ADD30RoundRect,0.237500X-0.237500X0.250000X-0.237500X-0.250000X0.237500X-0.250000X0.237500X0.250000X0*%
%ADD31RoundRect,0.237500X0.237500X-0.250000X0.237500X0.250000X-0.237500X0.250000X-0.237500X-0.250000X0*%
%ADD32RoundRect,0.400000X-0.400000X0.900000X-0.400000X-0.900000X0.400000X-0.900000X0.400000X0.900000X0*%
%ADD33RoundRect,0.400050X-0.400050X0.899950X-0.400050X-0.899950X0.400050X-0.899950X0.400050X0.899950X0*%
%ADD34RoundRect,0.400000X-0.900000X0.400000X-0.900000X-0.400000X0.900000X-0.400000X0.900000X0.400000X0*%
%ADD35RoundRect,0.393700X-0.906300X0.393700X-0.906300X-0.393700X0.906300X-0.393700X0.906300X0.393700X0*%
%ADD36RoundRect,0.375000X-0.625000X-0.375000X0.625000X-0.375000X0.625000X0.375000X-0.625000X0.375000X0*%
%ADD37RoundRect,0.500000X-0.500000X-1.400000X0.500000X-1.400000X0.500000X1.400000X-0.500000X1.400000X0*%
%ADD38RoundRect,0.225000X-0.225000X-0.375000X0.225000X-0.375000X0.225000X0.375000X-0.225000X0.375000X0*%
G04 APERTURE END LIST*
D10*
X113225000Y-74050000D02*
X112800000Y-74075000D01*
X112800000Y-74075000D02*
X112800000Y-75450000D01*
X75903884Y-79947419D02*
X75903884Y-78947419D01*
X75903884Y-78947419D02*
X76141979Y-78947419D01*
X76141979Y-78947419D02*
X76284836Y-78995038D01*
X76284836Y-78995038D02*
X76380074Y-79090276D01*
X76380074Y-79090276D02*
X76427693Y-79185514D01*
X76427693Y-79185514D02*
X76475312Y-79375990D01*
X76475312Y-79375990D02*
X76475312Y-79518847D01*
X76475312Y-79518847D02*
X76427693Y-79709323D01*
X76427693Y-79709323D02*
X76380074Y-79804561D01*
X76380074Y-79804561D02*
X76284836Y-79899800D01*
X76284836Y-79899800D02*
X76141979Y-79947419D01*
X76141979Y-79947419D02*
X75903884Y-79947419D01*
X76856265Y-79661704D02*
X77332455Y-79661704D01*
X76761027Y-79947419D02*
X77094360Y-78947419D01*
X77094360Y-78947419D02*
X77427693Y-79947419D01*
X78332455Y-79852180D02*
X78284836Y-79899800D01*
X78284836Y-79899800D02*
X78141979Y-79947419D01*
X78141979Y-79947419D02*
X78046741Y-79947419D01*
X78046741Y-79947419D02*
X77903884Y-79899800D01*
X77903884Y-79899800D02*
X77808646Y-79804561D01*
X77808646Y-79804561D02*
X77761027Y-79709323D01*
X77761027Y-79709323D02*
X77713408Y-79518847D01*
X77713408Y-79518847D02*
X77713408Y-79375990D01*
X77713408Y-79375990D02*
X77761027Y-79185514D01*
X77761027Y-79185514D02*
X77808646Y-79090276D01*
X77808646Y-79090276D02*
X77903884Y-78995038D01*
X77903884Y-78995038D02*
X78046741Y-78947419D01*
X78046741Y-78947419D02*
X78141979Y-78947419D01*
X78141979Y-78947419D02*
X78284836Y-78995038D01*
X78284836Y-78995038D02*
X78332455Y-79042657D01*
X79380075Y-78947419D02*
X79951503Y-78947419D01*
X79665789Y-79947419D02*
X79665789Y-78947419D01*
X80284837Y-79947419D02*
X80284837Y-79280752D01*
X80284837Y-79471228D02*
X80332456Y-79375990D01*
X80332456Y-79375990D02*
X80380075Y-79328371D01*
X80380075Y-79328371D02*
X80475313Y-79280752D01*
X80475313Y-79280752D02*
X80570551Y-79280752D01*
X80903885Y-79947419D02*
X80903885Y-79280752D01*
X80903885Y-78947419D02*
X80856266Y-78995038D01*
X80856266Y-78995038D02*
X80903885Y-79042657D01*
X80903885Y-79042657D02*
X80951504Y-78995038D01*
X80951504Y-78995038D02*
X80903885Y-78947419D01*
X80903885Y-78947419D02*
X80903885Y-79042657D01*
X81380075Y-79947419D02*
X81380075Y-79280752D01*
X81380075Y-79375990D02*
X81427694Y-79328371D01*
X81427694Y-79328371D02*
X81522932Y-79280752D01*
X81522932Y-79280752D02*
X81665789Y-79280752D01*
X81665789Y-79280752D02*
X81761027Y-79328371D01*
X81761027Y-79328371D02*
X81808646Y-79423609D01*
X81808646Y-79423609D02*
X81808646Y-79947419D01*
X81808646Y-79423609D02*
X81856265Y-79328371D01*
X81856265Y-79328371D02*
X81951503Y-79280752D01*
X81951503Y-79280752D02*
X82094360Y-79280752D01*
X82094360Y-79280752D02*
X82189599Y-79328371D01*
X82189599Y-79328371D02*
X82237218Y-79423609D01*
X82237218Y-79423609D02*
X82237218Y-79947419D01*
D11*
X91738095Y-60854819D02*
X91738095Y-61664342D01*
X91738095Y-61664342D02*
X91785714Y-61759580D01*
X91785714Y-61759580D02*
X91833333Y-61807200D01*
X91833333Y-61807200D02*
X91928571Y-61854819D01*
X91928571Y-61854819D02*
X92119047Y-61854819D01*
X92119047Y-61854819D02*
X92214285Y-61807200D01*
X92214285Y-61807200D02*
X92261904Y-61759580D01*
X92261904Y-61759580D02*
X92309523Y-61664342D01*
X92309523Y-61664342D02*
X92309523Y-60854819D01*
X92690476Y-60854819D02*
X93357142Y-60854819D01*
X93357142Y-60854819D02*
X92928571Y-61854819D01*
X80083333Y-67629819D02*
X79750000Y-67153628D01*
X79511905Y-67629819D02*
X79511905Y-66629819D01*
X79511905Y-66629819D02*
X79892857Y-66629819D01*
X79892857Y-66629819D02*
X79988095Y-66677438D01*
X79988095Y-66677438D02*
X80035714Y-66725057D01*
X80035714Y-66725057D02*
X80083333Y-66820295D01*
X80083333Y-66820295D02*
X80083333Y-66963152D01*
X80083333Y-66963152D02*
X80035714Y-67058390D01*
X80035714Y-67058390D02*
X79988095Y-67106009D01*
X79988095Y-67106009D02*
X79892857Y-67153628D01*
X79892857Y-67153628D02*
X79511905Y-67153628D01*
X80464286Y-66725057D02*
X80511905Y-66677438D01*
X80511905Y-66677438D02*
X80607143Y-66629819D01*
X80607143Y-66629819D02*
X80845238Y-66629819D01*
X80845238Y-66629819D02*
X80940476Y-66677438D01*
X80940476Y-66677438D02*
X80988095Y-66725057D01*
X80988095Y-66725057D02*
X81035714Y-66820295D01*
X81035714Y-66820295D02*
X81035714Y-66915533D01*
X81035714Y-66915533D02*
X80988095Y-67058390D01*
X80988095Y-67058390D02*
X80416667Y-67629819D01*
X80416667Y-67629819D02*
X81035714Y-67629819D01*
X115357142Y-72954819D02*
X115023809Y-72478628D01*
X114785714Y-72954819D02*
X114785714Y-71954819D01*
X114785714Y-71954819D02*
X115166666Y-71954819D01*
X115166666Y-71954819D02*
X115261904Y-72002438D01*
X115261904Y-72002438D02*
X115309523Y-72050057D01*
X115309523Y-72050057D02*
X115357142Y-72145295D01*
X115357142Y-72145295D02*
X115357142Y-72288152D01*
X115357142Y-72288152D02*
X115309523Y-72383390D01*
X115309523Y-72383390D02*
X115261904Y-72431009D01*
X115261904Y-72431009D02*
X115166666Y-72478628D01*
X115166666Y-72478628D02*
X114785714Y-72478628D01*
X116309523Y-72954819D02*
X115738095Y-72954819D01*
X116023809Y-72954819D02*
X116023809Y-71954819D01*
X116023809Y-71954819D02*
X115928571Y-72097676D01*
X115928571Y-72097676D02*
X115833333Y-72192914D01*
X115833333Y-72192914D02*
X115738095Y-72240533D01*
X117166666Y-72288152D02*
X117166666Y-72954819D01*
X116928571Y-71907200D02*
X116690476Y-72621485D01*
X116690476Y-72621485D02*
X117309523Y-72621485D01*
X96824819Y-78808333D02*
X97539104Y-78808333D01*
X97539104Y-78808333D02*
X97681961Y-78855952D01*
X97681961Y-78855952D02*
X97777200Y-78951190D01*
X97777200Y-78951190D02*
X97824819Y-79094047D01*
X97824819Y-79094047D02*
X97824819Y-79189285D01*
X96920057Y-78379761D02*
X96872438Y-78332142D01*
X96872438Y-78332142D02*
X96824819Y-78236904D01*
X96824819Y-78236904D02*
X96824819Y-77998809D01*
X96824819Y-77998809D02*
X96872438Y-77903571D01*
X96872438Y-77903571D02*
X96920057Y-77855952D01*
X96920057Y-77855952D02*
X97015295Y-77808333D01*
X97015295Y-77808333D02*
X97110533Y-77808333D01*
X97110533Y-77808333D02*
X97253390Y-77855952D01*
X97253390Y-77855952D02*
X97824819Y-78427380D01*
X97824819Y-78427380D02*
X97824819Y-77808333D01*
X103834580Y-51641666D02*
X103882200Y-51689285D01*
X103882200Y-51689285D02*
X103929819Y-51832142D01*
X103929819Y-51832142D02*
X103929819Y-51927380D01*
X103929819Y-51927380D02*
X103882200Y-52070237D01*
X103882200Y-52070237D02*
X103786961Y-52165475D01*
X103786961Y-52165475D02*
X103691723Y-52213094D01*
X103691723Y-52213094D02*
X103501247Y-52260713D01*
X103501247Y-52260713D02*
X103358390Y-52260713D01*
X103358390Y-52260713D02*
X103167914Y-52213094D01*
X103167914Y-52213094D02*
X103072676Y-52165475D01*
X103072676Y-52165475D02*
X102977438Y-52070237D01*
X102977438Y-52070237D02*
X102929819Y-51927380D01*
X102929819Y-51927380D02*
X102929819Y-51832142D01*
X102929819Y-51832142D02*
X102977438Y-51689285D01*
X102977438Y-51689285D02*
X103025057Y-51641666D01*
X102929819Y-50784523D02*
X102929819Y-50974999D01*
X102929819Y-50974999D02*
X102977438Y-51070237D01*
X102977438Y-51070237D02*
X103025057Y-51117856D01*
X103025057Y-51117856D02*
X103167914Y-51213094D01*
X103167914Y-51213094D02*
X103358390Y-51260713D01*
X103358390Y-51260713D02*
X103739342Y-51260713D01*
X103739342Y-51260713D02*
X103834580Y-51213094D01*
X103834580Y-51213094D02*
X103882200Y-51165475D01*
X103882200Y-51165475D02*
X103929819Y-51070237D01*
X103929819Y-51070237D02*
X103929819Y-50879761D01*
X103929819Y-50879761D02*
X103882200Y-50784523D01*
X103882200Y-50784523D02*
X103834580Y-50736904D01*
X103834580Y-50736904D02*
X103739342Y-50689285D01*
X103739342Y-50689285D02*
X103501247Y-50689285D01*
X103501247Y-50689285D02*
X103406009Y-50736904D01*
X103406009Y-50736904D02*
X103358390Y-50784523D01*
X103358390Y-50784523D02*
X103310771Y-50879761D01*
X103310771Y-50879761D02*
X103310771Y-51070237D01*
X103310771Y-51070237D02*
X103358390Y-51165475D01*
X103358390Y-51165475D02*
X103406009Y-51213094D01*
X103406009Y-51213094D02*
X103501247Y-51260713D01*
X110738095Y-73079819D02*
X110738095Y-73889342D01*
X110738095Y-73889342D02*
X110785714Y-73984580D01*
X110785714Y-73984580D02*
X110833333Y-74032200D01*
X110833333Y-74032200D02*
X110928571Y-74079819D01*
X110928571Y-74079819D02*
X111119047Y-74079819D01*
X111119047Y-74079819D02*
X111214285Y-74032200D01*
X111214285Y-74032200D02*
X111261904Y-73984580D01*
X111261904Y-73984580D02*
X111309523Y-73889342D01*
X111309523Y-73889342D02*
X111309523Y-73079819D01*
X112214285Y-73079819D02*
X112023809Y-73079819D01*
X112023809Y-73079819D02*
X111928571Y-73127438D01*
X111928571Y-73127438D02*
X111880952Y-73175057D01*
X111880952Y-73175057D02*
X111785714Y-73317914D01*
X111785714Y-73317914D02*
X111738095Y-73508390D01*
X111738095Y-73508390D02*
X111738095Y-73889342D01*
X111738095Y-73889342D02*
X111785714Y-73984580D01*
X111785714Y-73984580D02*
X111833333Y-74032200D01*
X111833333Y-74032200D02*
X111928571Y-74079819D01*
X111928571Y-74079819D02*
X112119047Y-74079819D01*
X112119047Y-74079819D02*
X112214285Y-74032200D01*
X112214285Y-74032200D02*
X112261904Y-73984580D01*
X112261904Y-73984580D02*
X112309523Y-73889342D01*
X112309523Y-73889342D02*
X112309523Y-73651247D01*
X112309523Y-73651247D02*
X112261904Y-73556009D01*
X112261904Y-73556009D02*
X112214285Y-73508390D01*
X112214285Y-73508390D02*
X112119047Y-73460771D01*
X112119047Y-73460771D02*
X111928571Y-73460771D01*
X111928571Y-73460771D02*
X111833333Y-73508390D01*
X111833333Y-73508390D02*
X111785714Y-73556009D01*
X111785714Y-73556009D02*
X111738095Y-73651247D01*
X107032142Y-76354819D02*
X106698809Y-75878628D01*
X106460714Y-76354819D02*
X106460714Y-75354819D01*
X106460714Y-75354819D02*
X106841666Y-75354819D01*
X106841666Y-75354819D02*
X106936904Y-75402438D01*
X106936904Y-75402438D02*
X106984523Y-75450057D01*
X106984523Y-75450057D02*
X107032142Y-75545295D01*
X107032142Y-75545295D02*
X107032142Y-75688152D01*
X107032142Y-75688152D02*
X106984523Y-75783390D01*
X106984523Y-75783390D02*
X106936904Y-75831009D01*
X106936904Y-75831009D02*
X106841666Y-75878628D01*
X106841666Y-75878628D02*
X106460714Y-75878628D01*
X107984523Y-76354819D02*
X107413095Y-76354819D01*
X107698809Y-76354819D02*
X107698809Y-75354819D01*
X107698809Y-75354819D02*
X107603571Y-75497676D01*
X107603571Y-75497676D02*
X107508333Y-75592914D01*
X107508333Y-75592914D02*
X107413095Y-75640533D01*
X108460714Y-76354819D02*
X108651190Y-76354819D01*
X108651190Y-76354819D02*
X108746428Y-76307200D01*
X108746428Y-76307200D02*
X108794047Y-76259580D01*
X108794047Y-76259580D02*
X108889285Y-76116723D01*
X108889285Y-76116723D02*
X108936904Y-75926247D01*
X108936904Y-75926247D02*
X108936904Y-75545295D01*
X108936904Y-75545295D02*
X108889285Y-75450057D01*
X108889285Y-75450057D02*
X108841666Y-75402438D01*
X108841666Y-75402438D02*
X108746428Y-75354819D01*
X108746428Y-75354819D02*
X108555952Y-75354819D01*
X108555952Y-75354819D02*
X108460714Y-75402438D01*
X108460714Y-75402438D02*
X108413095Y-75450057D01*
X108413095Y-75450057D02*
X108365476Y-75545295D01*
X108365476Y-75545295D02*
X108365476Y-75783390D01*
X108365476Y-75783390D02*
X108413095Y-75878628D01*
X108413095Y-75878628D02*
X108460714Y-75926247D01*
X108460714Y-75926247D02*
X108555952Y-75973866D01*
X108555952Y-75973866D02*
X108746428Y-75973866D01*
X108746428Y-75973866D02*
X108841666Y-75926247D01*
X108841666Y-75926247D02*
X108889285Y-75878628D01*
X108889285Y-75878628D02*
X108936904Y-75783390D01*
X119934580Y-67767857D02*
X119982200Y-67815476D01*
X119982200Y-67815476D02*
X120029819Y-67958333D01*
X120029819Y-67958333D02*
X120029819Y-68053571D01*
X120029819Y-68053571D02*
X119982200Y-68196428D01*
X119982200Y-68196428D02*
X119886961Y-68291666D01*
X119886961Y-68291666D02*
X119791723Y-68339285D01*
X119791723Y-68339285D02*
X119601247Y-68386904D01*
X119601247Y-68386904D02*
X119458390Y-68386904D01*
X119458390Y-68386904D02*
X119267914Y-68339285D01*
X119267914Y-68339285D02*
X119172676Y-68291666D01*
X119172676Y-68291666D02*
X119077438Y-68196428D01*
X119077438Y-68196428D02*
X119029819Y-68053571D01*
X119029819Y-68053571D02*
X119029819Y-67958333D01*
X119029819Y-67958333D02*
X119077438Y-67815476D01*
X119077438Y-67815476D02*
X119125057Y-67767857D01*
X120029819Y-66815476D02*
X120029819Y-67386904D01*
X120029819Y-67101190D02*
X119029819Y-67101190D01*
X119029819Y-67101190D02*
X119172676Y-67196428D01*
X119172676Y-67196428D02*
X119267914Y-67291666D01*
X119267914Y-67291666D02*
X119315533Y-67386904D01*
X119029819Y-65910714D02*
X119029819Y-66386904D01*
X119029819Y-66386904D02*
X119506009Y-66434523D01*
X119506009Y-66434523D02*
X119458390Y-66386904D01*
X119458390Y-66386904D02*
X119410771Y-66291666D01*
X119410771Y-66291666D02*
X119410771Y-66053571D01*
X119410771Y-66053571D02*
X119458390Y-65958333D01*
X119458390Y-65958333D02*
X119506009Y-65910714D01*
X119506009Y-65910714D02*
X119601247Y-65863095D01*
X119601247Y-65863095D02*
X119839342Y-65863095D01*
X119839342Y-65863095D02*
X119934580Y-65910714D01*
X119934580Y-65910714D02*
X119982200Y-65958333D01*
X119982200Y-65958333D02*
X120029819Y-66053571D01*
X120029819Y-66053571D02*
X120029819Y-66291666D01*
X120029819Y-66291666D02*
X119982200Y-66386904D01*
X119982200Y-66386904D02*
X119934580Y-66434523D01*
X115757142Y-69579819D02*
X115423809Y-69103628D01*
X115185714Y-69579819D02*
X115185714Y-68579819D01*
X115185714Y-68579819D02*
X115566666Y-68579819D01*
X115566666Y-68579819D02*
X115661904Y-68627438D01*
X115661904Y-68627438D02*
X115709523Y-68675057D01*
X115709523Y-68675057D02*
X115757142Y-68770295D01*
X115757142Y-68770295D02*
X115757142Y-68913152D01*
X115757142Y-68913152D02*
X115709523Y-69008390D01*
X115709523Y-69008390D02*
X115661904Y-69056009D01*
X115661904Y-69056009D02*
X115566666Y-69103628D01*
X115566666Y-69103628D02*
X115185714Y-69103628D01*
X116709523Y-69579819D02*
X116138095Y-69579819D01*
X116423809Y-69579819D02*
X116423809Y-68579819D01*
X116423809Y-68579819D02*
X116328571Y-68722676D01*
X116328571Y-68722676D02*
X116233333Y-68817914D01*
X116233333Y-68817914D02*
X116138095Y-68865533D01*
X117566666Y-68579819D02*
X117376190Y-68579819D01*
X117376190Y-68579819D02*
X117280952Y-68627438D01*
X117280952Y-68627438D02*
X117233333Y-68675057D01*
X117233333Y-68675057D02*
X117138095Y-68817914D01*
X117138095Y-68817914D02*
X117090476Y-69008390D01*
X117090476Y-69008390D02*
X117090476Y-69389342D01*
X117090476Y-69389342D02*
X117138095Y-69484580D01*
X117138095Y-69484580D02*
X117185714Y-69532200D01*
X117185714Y-69532200D02*
X117280952Y-69579819D01*
X117280952Y-69579819D02*
X117471428Y-69579819D01*
X117471428Y-69579819D02*
X117566666Y-69532200D01*
X117566666Y-69532200D02*
X117614285Y-69484580D01*
X117614285Y-69484580D02*
X117661904Y-69389342D01*
X117661904Y-69389342D02*
X117661904Y-69151247D01*
X117661904Y-69151247D02*
X117614285Y-69056009D01*
X117614285Y-69056009D02*
X117566666Y-69008390D01*
X117566666Y-69008390D02*
X117471428Y-68960771D01*
X117471428Y-68960771D02*
X117280952Y-68960771D01*
X117280952Y-68960771D02*
X117185714Y-69008390D01*
X117185714Y-69008390D02*
X117138095Y-69056009D01*
X117138095Y-69056009D02*
X117090476Y-69151247D01*
X114344642Y-77784819D02*
X114011309Y-77308628D01*
X113773214Y-77784819D02*
X113773214Y-76784819D01*
X113773214Y-76784819D02*
X114154166Y-76784819D01*
X114154166Y-76784819D02*
X114249404Y-76832438D01*
X114249404Y-76832438D02*
X114297023Y-76880057D01*
X114297023Y-76880057D02*
X114344642Y-76975295D01*
X114344642Y-76975295D02*
X114344642Y-77118152D01*
X114344642Y-77118152D02*
X114297023Y-77213390D01*
X114297023Y-77213390D02*
X114249404Y-77261009D01*
X114249404Y-77261009D02*
X114154166Y-77308628D01*
X114154166Y-77308628D02*
X113773214Y-77308628D01*
X114725595Y-76880057D02*
X114773214Y-76832438D01*
X114773214Y-76832438D02*
X114868452Y-76784819D01*
X114868452Y-76784819D02*
X115106547Y-76784819D01*
X115106547Y-76784819D02*
X115201785Y-76832438D01*
X115201785Y-76832438D02*
X115249404Y-76880057D01*
X115249404Y-76880057D02*
X115297023Y-76975295D01*
X115297023Y-76975295D02*
X115297023Y-77070533D01*
X115297023Y-77070533D02*
X115249404Y-77213390D01*
X115249404Y-77213390D02*
X114677976Y-77784819D01*
X114677976Y-77784819D02*
X115297023Y-77784819D01*
X116249404Y-77784819D02*
X115677976Y-77784819D01*
X115963690Y-77784819D02*
X115963690Y-76784819D01*
X115963690Y-76784819D02*
X115868452Y-76927676D01*
X115868452Y-76927676D02*
X115773214Y-77022914D01*
X115773214Y-77022914D02*
X115677976Y-77070533D01*
X113407142Y-63579819D02*
X113073809Y-63103628D01*
X112835714Y-63579819D02*
X112835714Y-62579819D01*
X112835714Y-62579819D02*
X113216666Y-62579819D01*
X113216666Y-62579819D02*
X113311904Y-62627438D01*
X113311904Y-62627438D02*
X113359523Y-62675057D01*
X113359523Y-62675057D02*
X113407142Y-62770295D01*
X113407142Y-62770295D02*
X113407142Y-62913152D01*
X113407142Y-62913152D02*
X113359523Y-63008390D01*
X113359523Y-63008390D02*
X113311904Y-63056009D01*
X113311904Y-63056009D02*
X113216666Y-63103628D01*
X113216666Y-63103628D02*
X112835714Y-63103628D01*
X114359523Y-63579819D02*
X113788095Y-63579819D01*
X114073809Y-63579819D02*
X114073809Y-62579819D01*
X114073809Y-62579819D02*
X113978571Y-62722676D01*
X113978571Y-62722676D02*
X113883333Y-62817914D01*
X113883333Y-62817914D02*
X113788095Y-62865533D01*
X114692857Y-62579819D02*
X115311904Y-62579819D01*
X115311904Y-62579819D02*
X114978571Y-62960771D01*
X114978571Y-62960771D02*
X115121428Y-62960771D01*
X115121428Y-62960771D02*
X115216666Y-63008390D01*
X115216666Y-63008390D02*
X115264285Y-63056009D01*
X115264285Y-63056009D02*
X115311904Y-63151247D01*
X115311904Y-63151247D02*
X115311904Y-63389342D01*
X115311904Y-63389342D02*
X115264285Y-63484580D01*
X115264285Y-63484580D02*
X115216666Y-63532200D01*
X115216666Y-63532200D02*
X115121428Y-63579819D01*
X115121428Y-63579819D02*
X114835714Y-63579819D01*
X114835714Y-63579819D02*
X114740476Y-63532200D01*
X114740476Y-63532200D02*
X114692857Y-63484580D01*
X124159580Y-75742857D02*
X124207200Y-75790476D01*
X124207200Y-75790476D02*
X124254819Y-75933333D01*
X124254819Y-75933333D02*
X124254819Y-76028571D01*
X124254819Y-76028571D02*
X124207200Y-76171428D01*
X124207200Y-76171428D02*
X124111961Y-76266666D01*
X124111961Y-76266666D02*
X124016723Y-76314285D01*
X124016723Y-76314285D02*
X123826247Y-76361904D01*
X123826247Y-76361904D02*
X123683390Y-76361904D01*
X123683390Y-76361904D02*
X123492914Y-76314285D01*
X123492914Y-76314285D02*
X123397676Y-76266666D01*
X123397676Y-76266666D02*
X123302438Y-76171428D01*
X123302438Y-76171428D02*
X123254819Y-76028571D01*
X123254819Y-76028571D02*
X123254819Y-75933333D01*
X123254819Y-75933333D02*
X123302438Y-75790476D01*
X123302438Y-75790476D02*
X123350057Y-75742857D01*
X124254819Y-74790476D02*
X124254819Y-75361904D01*
X124254819Y-75076190D02*
X123254819Y-75076190D01*
X123254819Y-75076190D02*
X123397676Y-75171428D01*
X123397676Y-75171428D02*
X123492914Y-75266666D01*
X123492914Y-75266666D02*
X123540533Y-75361904D01*
X123254819Y-73933333D02*
X123254819Y-74123809D01*
X123254819Y-74123809D02*
X123302438Y-74219047D01*
X123302438Y-74219047D02*
X123350057Y-74266666D01*
X123350057Y-74266666D02*
X123492914Y-74361904D01*
X123492914Y-74361904D02*
X123683390Y-74409523D01*
X123683390Y-74409523D02*
X124064342Y-74409523D01*
X124064342Y-74409523D02*
X124159580Y-74361904D01*
X124159580Y-74361904D02*
X124207200Y-74314285D01*
X124207200Y-74314285D02*
X124254819Y-74219047D01*
X124254819Y-74219047D02*
X124254819Y-74028571D01*
X124254819Y-74028571D02*
X124207200Y-73933333D01*
X124207200Y-73933333D02*
X124159580Y-73885714D01*
X124159580Y-73885714D02*
X124064342Y-73838095D01*
X124064342Y-73838095D02*
X123826247Y-73838095D01*
X123826247Y-73838095D02*
X123731009Y-73885714D01*
X123731009Y-73885714D02*
X123683390Y-73933333D01*
X123683390Y-73933333D02*
X123635771Y-74028571D01*
X123635771Y-74028571D02*
X123635771Y-74219047D01*
X123635771Y-74219047D02*
X123683390Y-74314285D01*
X123683390Y-74314285D02*
X123731009Y-74361904D01*
X123731009Y-74361904D02*
X123826247Y-74409523D01*
X119884580Y-64742857D02*
X119932200Y-64790476D01*
X119932200Y-64790476D02*
X119979819Y-64933333D01*
X119979819Y-64933333D02*
X119979819Y-65028571D01*
X119979819Y-65028571D02*
X119932200Y-65171428D01*
X119932200Y-65171428D02*
X119836961Y-65266666D01*
X119836961Y-65266666D02*
X119741723Y-65314285D01*
X119741723Y-65314285D02*
X119551247Y-65361904D01*
X119551247Y-65361904D02*
X119408390Y-65361904D01*
X119408390Y-65361904D02*
X119217914Y-65314285D01*
X119217914Y-65314285D02*
X119122676Y-65266666D01*
X119122676Y-65266666D02*
X119027438Y-65171428D01*
X119027438Y-65171428D02*
X118979819Y-65028571D01*
X118979819Y-65028571D02*
X118979819Y-64933333D01*
X118979819Y-64933333D02*
X119027438Y-64790476D01*
X119027438Y-64790476D02*
X119075057Y-64742857D01*
X119979819Y-63790476D02*
X119979819Y-64361904D01*
X119979819Y-64076190D02*
X118979819Y-64076190D01*
X118979819Y-64076190D02*
X119122676Y-64171428D01*
X119122676Y-64171428D02*
X119217914Y-64266666D01*
X119217914Y-64266666D02*
X119265533Y-64361904D01*
X119979819Y-62838095D02*
X119979819Y-63409523D01*
X119979819Y-63123809D02*
X118979819Y-63123809D01*
X118979819Y-63123809D02*
X119122676Y-63219047D01*
X119122676Y-63219047D02*
X119217914Y-63314285D01*
X119217914Y-63314285D02*
X119265533Y-63409523D01*
X110582142Y-76029819D02*
X110248809Y-75553628D01*
X110010714Y-76029819D02*
X110010714Y-75029819D01*
X110010714Y-75029819D02*
X110391666Y-75029819D01*
X110391666Y-75029819D02*
X110486904Y-75077438D01*
X110486904Y-75077438D02*
X110534523Y-75125057D01*
X110534523Y-75125057D02*
X110582142Y-75220295D01*
X110582142Y-75220295D02*
X110582142Y-75363152D01*
X110582142Y-75363152D02*
X110534523Y-75458390D01*
X110534523Y-75458390D02*
X110486904Y-75506009D01*
X110486904Y-75506009D02*
X110391666Y-75553628D01*
X110391666Y-75553628D02*
X110010714Y-75553628D01*
X111534523Y-76029819D02*
X110963095Y-76029819D01*
X111248809Y-76029819D02*
X111248809Y-75029819D01*
X111248809Y-75029819D02*
X111153571Y-75172676D01*
X111153571Y-75172676D02*
X111058333Y-75267914D01*
X111058333Y-75267914D02*
X110963095Y-75315533D01*
X112105952Y-75458390D02*
X112010714Y-75410771D01*
X112010714Y-75410771D02*
X111963095Y-75363152D01*
X111963095Y-75363152D02*
X111915476Y-75267914D01*
X111915476Y-75267914D02*
X111915476Y-75220295D01*
X111915476Y-75220295D02*
X111963095Y-75125057D01*
X111963095Y-75125057D02*
X112010714Y-75077438D01*
X112010714Y-75077438D02*
X112105952Y-75029819D01*
X112105952Y-75029819D02*
X112296428Y-75029819D01*
X112296428Y-75029819D02*
X112391666Y-75077438D01*
X112391666Y-75077438D02*
X112439285Y-75125057D01*
X112439285Y-75125057D02*
X112486904Y-75220295D01*
X112486904Y-75220295D02*
X112486904Y-75267914D01*
X112486904Y-75267914D02*
X112439285Y-75363152D01*
X112439285Y-75363152D02*
X112391666Y-75410771D01*
X112391666Y-75410771D02*
X112296428Y-75458390D01*
X112296428Y-75458390D02*
X112105952Y-75458390D01*
X112105952Y-75458390D02*
X112010714Y-75506009D01*
X112010714Y-75506009D02*
X111963095Y-75553628D01*
X111963095Y-75553628D02*
X111915476Y-75648866D01*
X111915476Y-75648866D02*
X111915476Y-75839342D01*
X111915476Y-75839342D02*
X111963095Y-75934580D01*
X111963095Y-75934580D02*
X112010714Y-75982200D01*
X112010714Y-75982200D02*
X112105952Y-76029819D01*
X112105952Y-76029819D02*
X112296428Y-76029819D01*
X112296428Y-76029819D02*
X112391666Y-75982200D01*
X112391666Y-75982200D02*
X112439285Y-75934580D01*
X112439285Y-75934580D02*
X112486904Y-75839342D01*
X112486904Y-75839342D02*
X112486904Y-75648866D01*
X112486904Y-75648866D02*
X112439285Y-75553628D01*
X112439285Y-75553628D02*
X112391666Y-75506009D01*
X112391666Y-75506009D02*
X112296428Y-75458390D01*
X84183333Y-59104819D02*
X83850000Y-58628628D01*
X83611905Y-59104819D02*
X83611905Y-58104819D01*
X83611905Y-58104819D02*
X83992857Y-58104819D01*
X83992857Y-58104819D02*
X84088095Y-58152438D01*
X84088095Y-58152438D02*
X84135714Y-58200057D01*
X84135714Y-58200057D02*
X84183333Y-58295295D01*
X84183333Y-58295295D02*
X84183333Y-58438152D01*
X84183333Y-58438152D02*
X84135714Y-58533390D01*
X84135714Y-58533390D02*
X84088095Y-58581009D01*
X84088095Y-58581009D02*
X83992857Y-58628628D01*
X83992857Y-58628628D02*
X83611905Y-58628628D01*
X85135714Y-59104819D02*
X84564286Y-59104819D01*
X84850000Y-59104819D02*
X84850000Y-58104819D01*
X84850000Y-58104819D02*
X84754762Y-58247676D01*
X84754762Y-58247676D02*
X84659524Y-58342914D01*
X84659524Y-58342914D02*
X84564286Y-58390533D01*
X88845833Y-60549819D02*
X88512500Y-60073628D01*
X88274405Y-60549819D02*
X88274405Y-59549819D01*
X88274405Y-59549819D02*
X88655357Y-59549819D01*
X88655357Y-59549819D02*
X88750595Y-59597438D01*
X88750595Y-59597438D02*
X88798214Y-59645057D01*
X88798214Y-59645057D02*
X88845833Y-59740295D01*
X88845833Y-59740295D02*
X88845833Y-59883152D01*
X88845833Y-59883152D02*
X88798214Y-59978390D01*
X88798214Y-59978390D02*
X88750595Y-60026009D01*
X88750595Y-60026009D02*
X88655357Y-60073628D01*
X88655357Y-60073628D02*
X88274405Y-60073628D01*
X89702976Y-59883152D02*
X89702976Y-60549819D01*
X89464881Y-59502200D02*
X89226786Y-60216485D01*
X89226786Y-60216485D02*
X89845833Y-60216485D01*
X95984580Y-51966666D02*
X96032200Y-52014285D01*
X96032200Y-52014285D02*
X96079819Y-52157142D01*
X96079819Y-52157142D02*
X96079819Y-52252380D01*
X96079819Y-52252380D02*
X96032200Y-52395237D01*
X96032200Y-52395237D02*
X95936961Y-52490475D01*
X95936961Y-52490475D02*
X95841723Y-52538094D01*
X95841723Y-52538094D02*
X95651247Y-52585713D01*
X95651247Y-52585713D02*
X95508390Y-52585713D01*
X95508390Y-52585713D02*
X95317914Y-52538094D01*
X95317914Y-52538094D02*
X95222676Y-52490475D01*
X95222676Y-52490475D02*
X95127438Y-52395237D01*
X95127438Y-52395237D02*
X95079819Y-52252380D01*
X95079819Y-52252380D02*
X95079819Y-52157142D01*
X95079819Y-52157142D02*
X95127438Y-52014285D01*
X95127438Y-52014285D02*
X95175057Y-51966666D01*
X95079819Y-51633332D02*
X95079819Y-51014285D01*
X95079819Y-51014285D02*
X95460771Y-51347618D01*
X95460771Y-51347618D02*
X95460771Y-51204761D01*
X95460771Y-51204761D02*
X95508390Y-51109523D01*
X95508390Y-51109523D02*
X95556009Y-51061904D01*
X95556009Y-51061904D02*
X95651247Y-51014285D01*
X95651247Y-51014285D02*
X95889342Y-51014285D01*
X95889342Y-51014285D02*
X95984580Y-51061904D01*
X95984580Y-51061904D02*
X96032200Y-51109523D01*
X96032200Y-51109523D02*
X96079819Y-51204761D01*
X96079819Y-51204761D02*
X96079819Y-51490475D01*
X96079819Y-51490475D02*
X96032200Y-51585713D01*
X96032200Y-51585713D02*
X95984580Y-51633332D01*
X99807142Y-74779819D02*
X99473809Y-74303628D01*
X99235714Y-74779819D02*
X99235714Y-73779819D01*
X99235714Y-73779819D02*
X99616666Y-73779819D01*
X99616666Y-73779819D02*
X99711904Y-73827438D01*
X99711904Y-73827438D02*
X99759523Y-73875057D01*
X99759523Y-73875057D02*
X99807142Y-73970295D01*
X99807142Y-73970295D02*
X99807142Y-74113152D01*
X99807142Y-74113152D02*
X99759523Y-74208390D01*
X99759523Y-74208390D02*
X99711904Y-74256009D01*
X99711904Y-74256009D02*
X99616666Y-74303628D01*
X99616666Y-74303628D02*
X99235714Y-74303628D01*
X100759523Y-74779819D02*
X100188095Y-74779819D01*
X100473809Y-74779819D02*
X100473809Y-73779819D01*
X100473809Y-73779819D02*
X100378571Y-73922676D01*
X100378571Y-73922676D02*
X100283333Y-74017914D01*
X100283333Y-74017914D02*
X100188095Y-74065533D01*
X101664285Y-73779819D02*
X101188095Y-73779819D01*
X101188095Y-73779819D02*
X101140476Y-74256009D01*
X101140476Y-74256009D02*
X101188095Y-74208390D01*
X101188095Y-74208390D02*
X101283333Y-74160771D01*
X101283333Y-74160771D02*
X101521428Y-74160771D01*
X101521428Y-74160771D02*
X101616666Y-74208390D01*
X101616666Y-74208390D02*
X101664285Y-74256009D01*
X101664285Y-74256009D02*
X101711904Y-74351247D01*
X101711904Y-74351247D02*
X101711904Y-74589342D01*
X101711904Y-74589342D02*
X101664285Y-74684580D01*
X101664285Y-74684580D02*
X101616666Y-74732200D01*
X101616666Y-74732200D02*
X101521428Y-74779819D01*
X101521428Y-74779819D02*
X101283333Y-74779819D01*
X101283333Y-74779819D02*
X101188095Y-74732200D01*
X101188095Y-74732200D02*
X101140476Y-74684580D01*
X76429819Y-76620238D02*
X75953628Y-76953571D01*
X76429819Y-77191666D02*
X75429819Y-77191666D01*
X75429819Y-77191666D02*
X75429819Y-76810714D01*
X75429819Y-76810714D02*
X75477438Y-76715476D01*
X75477438Y-76715476D02*
X75525057Y-76667857D01*
X75525057Y-76667857D02*
X75620295Y-76620238D01*
X75620295Y-76620238D02*
X75763152Y-76620238D01*
X75763152Y-76620238D02*
X75858390Y-76667857D01*
X75858390Y-76667857D02*
X75906009Y-76715476D01*
X75906009Y-76715476D02*
X75953628Y-76810714D01*
X75953628Y-76810714D02*
X75953628Y-77191666D01*
X75429819Y-76334523D02*
X76429819Y-76001190D01*
X76429819Y-76001190D02*
X75429819Y-75667857D01*
X76429819Y-74810714D02*
X76429819Y-75382142D01*
X76429819Y-75096428D02*
X75429819Y-75096428D01*
X75429819Y-75096428D02*
X75572676Y-75191666D01*
X75572676Y-75191666D02*
X75667914Y-75286904D01*
X75667914Y-75286904D02*
X75715533Y-75382142D01*
X76338095Y-71854819D02*
X76338095Y-72664342D01*
X76338095Y-72664342D02*
X76385714Y-72759580D01*
X76385714Y-72759580D02*
X76433333Y-72807200D01*
X76433333Y-72807200D02*
X76528571Y-72854819D01*
X76528571Y-72854819D02*
X76719047Y-72854819D01*
X76719047Y-72854819D02*
X76814285Y-72807200D01*
X76814285Y-72807200D02*
X76861904Y-72759580D01*
X76861904Y-72759580D02*
X76909523Y-72664342D01*
X76909523Y-72664342D02*
X76909523Y-71854819D01*
X77814285Y-72188152D02*
X77814285Y-72854819D01*
X77576190Y-71807200D02*
X77338095Y-72521485D01*
X77338095Y-72521485D02*
X77957142Y-72521485D01*
X109707142Y-58254819D02*
X109373809Y-57778628D01*
X109135714Y-58254819D02*
X109135714Y-57254819D01*
X109135714Y-57254819D02*
X109516666Y-57254819D01*
X109516666Y-57254819D02*
X109611904Y-57302438D01*
X109611904Y-57302438D02*
X109659523Y-57350057D01*
X109659523Y-57350057D02*
X109707142Y-57445295D01*
X109707142Y-57445295D02*
X109707142Y-57588152D01*
X109707142Y-57588152D02*
X109659523Y-57683390D01*
X109659523Y-57683390D02*
X109611904Y-57731009D01*
X109611904Y-57731009D02*
X109516666Y-57778628D01*
X109516666Y-57778628D02*
X109135714Y-57778628D01*
X110659523Y-58254819D02*
X110088095Y-58254819D01*
X110373809Y-58254819D02*
X110373809Y-57254819D01*
X110373809Y-57254819D02*
X110278571Y-57397676D01*
X110278571Y-57397676D02*
X110183333Y-57492914D01*
X110183333Y-57492914D02*
X110088095Y-57540533D01*
X111278571Y-57254819D02*
X111373809Y-57254819D01*
X111373809Y-57254819D02*
X111469047Y-57302438D01*
X111469047Y-57302438D02*
X111516666Y-57350057D01*
X111516666Y-57350057D02*
X111564285Y-57445295D01*
X111564285Y-57445295D02*
X111611904Y-57635771D01*
X111611904Y-57635771D02*
X111611904Y-57873866D01*
X111611904Y-57873866D02*
X111564285Y-58064342D01*
X111564285Y-58064342D02*
X111516666Y-58159580D01*
X111516666Y-58159580D02*
X111469047Y-58207200D01*
X111469047Y-58207200D02*
X111373809Y-58254819D01*
X111373809Y-58254819D02*
X111278571Y-58254819D01*
X111278571Y-58254819D02*
X111183333Y-58207200D01*
X111183333Y-58207200D02*
X111135714Y-58159580D01*
X111135714Y-58159580D02*
X111088095Y-58064342D01*
X111088095Y-58064342D02*
X111040476Y-57873866D01*
X111040476Y-57873866D02*
X111040476Y-57635771D01*
X111040476Y-57635771D02*
X111088095Y-57445295D01*
X111088095Y-57445295D02*
X111135714Y-57350057D01*
X111135714Y-57350057D02*
X111183333Y-57302438D01*
X111183333Y-57302438D02*
X111278571Y-57254819D01*
X91258333Y-69479819D02*
X90925000Y-69003628D01*
X90686905Y-69479819D02*
X90686905Y-68479819D01*
X90686905Y-68479819D02*
X91067857Y-68479819D01*
X91067857Y-68479819D02*
X91163095Y-68527438D01*
X91163095Y-68527438D02*
X91210714Y-68575057D01*
X91210714Y-68575057D02*
X91258333Y-68670295D01*
X91258333Y-68670295D02*
X91258333Y-68813152D01*
X91258333Y-68813152D02*
X91210714Y-68908390D01*
X91210714Y-68908390D02*
X91163095Y-68956009D01*
X91163095Y-68956009D02*
X91067857Y-69003628D01*
X91067857Y-69003628D02*
X90686905Y-69003628D01*
X91734524Y-69479819D02*
X91925000Y-69479819D01*
X91925000Y-69479819D02*
X92020238Y-69432200D01*
X92020238Y-69432200D02*
X92067857Y-69384580D01*
X92067857Y-69384580D02*
X92163095Y-69241723D01*
X92163095Y-69241723D02*
X92210714Y-69051247D01*
X92210714Y-69051247D02*
X92210714Y-68670295D01*
X92210714Y-68670295D02*
X92163095Y-68575057D01*
X92163095Y-68575057D02*
X92115476Y-68527438D01*
X92115476Y-68527438D02*
X92020238Y-68479819D01*
X92020238Y-68479819D02*
X91829762Y-68479819D01*
X91829762Y-68479819D02*
X91734524Y-68527438D01*
X91734524Y-68527438D02*
X91686905Y-68575057D01*
X91686905Y-68575057D02*
X91639286Y-68670295D01*
X91639286Y-68670295D02*
X91639286Y-68908390D01*
X91639286Y-68908390D02*
X91686905Y-69003628D01*
X91686905Y-69003628D02*
X91734524Y-69051247D01*
X91734524Y-69051247D02*
X91829762Y-69098866D01*
X91829762Y-69098866D02*
X92020238Y-69098866D01*
X92020238Y-69098866D02*
X92115476Y-69051247D01*
X92115476Y-69051247D02*
X92163095Y-69003628D01*
X92163095Y-69003628D02*
X92210714Y-68908390D01*
X82009580Y-77292857D02*
X82057200Y-77340476D01*
X82057200Y-77340476D02*
X82104819Y-77483333D01*
X82104819Y-77483333D02*
X82104819Y-77578571D01*
X82104819Y-77578571D02*
X82057200Y-77721428D01*
X82057200Y-77721428D02*
X81961961Y-77816666D01*
X81961961Y-77816666D02*
X81866723Y-77864285D01*
X81866723Y-77864285D02*
X81676247Y-77911904D01*
X81676247Y-77911904D02*
X81533390Y-77911904D01*
X81533390Y-77911904D02*
X81342914Y-77864285D01*
X81342914Y-77864285D02*
X81247676Y-77816666D01*
X81247676Y-77816666D02*
X81152438Y-77721428D01*
X81152438Y-77721428D02*
X81104819Y-77578571D01*
X81104819Y-77578571D02*
X81104819Y-77483333D01*
X81104819Y-77483333D02*
X81152438Y-77340476D01*
X81152438Y-77340476D02*
X81200057Y-77292857D01*
X82104819Y-76340476D02*
X82104819Y-76911904D01*
X82104819Y-76626190D02*
X81104819Y-76626190D01*
X81104819Y-76626190D02*
X81247676Y-76721428D01*
X81247676Y-76721428D02*
X81342914Y-76816666D01*
X81342914Y-76816666D02*
X81390533Y-76911904D01*
X81200057Y-75959523D02*
X81152438Y-75911904D01*
X81152438Y-75911904D02*
X81104819Y-75816666D01*
X81104819Y-75816666D02*
X81104819Y-75578571D01*
X81104819Y-75578571D02*
X81152438Y-75483333D01*
X81152438Y-75483333D02*
X81200057Y-75435714D01*
X81200057Y-75435714D02*
X81295295Y-75388095D01*
X81295295Y-75388095D02*
X81390533Y-75388095D01*
X81390533Y-75388095D02*
X81533390Y-75435714D01*
X81533390Y-75435714D02*
X82104819Y-76007142D01*
X82104819Y-76007142D02*
X82104819Y-75388095D01*
X116207142Y-59179819D02*
X115873809Y-58703628D01*
X115635714Y-59179819D02*
X115635714Y-58179819D01*
X115635714Y-58179819D02*
X116016666Y-58179819D01*
X116016666Y-58179819D02*
X116111904Y-58227438D01*
X116111904Y-58227438D02*
X116159523Y-58275057D01*
X116159523Y-58275057D02*
X116207142Y-58370295D01*
X116207142Y-58370295D02*
X116207142Y-58513152D01*
X116207142Y-58513152D02*
X116159523Y-58608390D01*
X116159523Y-58608390D02*
X116111904Y-58656009D01*
X116111904Y-58656009D02*
X116016666Y-58703628D01*
X116016666Y-58703628D02*
X115635714Y-58703628D01*
X117159523Y-59179819D02*
X116588095Y-59179819D01*
X116873809Y-59179819D02*
X116873809Y-58179819D01*
X116873809Y-58179819D02*
X116778571Y-58322676D01*
X116778571Y-58322676D02*
X116683333Y-58417914D01*
X116683333Y-58417914D02*
X116588095Y-58465533D01*
X117540476Y-58275057D02*
X117588095Y-58227438D01*
X117588095Y-58227438D02*
X117683333Y-58179819D01*
X117683333Y-58179819D02*
X117921428Y-58179819D01*
X117921428Y-58179819D02*
X118016666Y-58227438D01*
X118016666Y-58227438D02*
X118064285Y-58275057D01*
X118064285Y-58275057D02*
X118111904Y-58370295D01*
X118111904Y-58370295D02*
X118111904Y-58465533D01*
X118111904Y-58465533D02*
X118064285Y-58608390D01*
X118064285Y-58608390D02*
X117492857Y-59179819D01*
X117492857Y-59179819D02*
X118111904Y-59179819D01*
X118882142Y-77304819D02*
X118548809Y-76828628D01*
X118310714Y-77304819D02*
X118310714Y-76304819D01*
X118310714Y-76304819D02*
X118691666Y-76304819D01*
X118691666Y-76304819D02*
X118786904Y-76352438D01*
X118786904Y-76352438D02*
X118834523Y-76400057D01*
X118834523Y-76400057D02*
X118882142Y-76495295D01*
X118882142Y-76495295D02*
X118882142Y-76638152D01*
X118882142Y-76638152D02*
X118834523Y-76733390D01*
X118834523Y-76733390D02*
X118786904Y-76781009D01*
X118786904Y-76781009D02*
X118691666Y-76828628D01*
X118691666Y-76828628D02*
X118310714Y-76828628D01*
X119263095Y-76400057D02*
X119310714Y-76352438D01*
X119310714Y-76352438D02*
X119405952Y-76304819D01*
X119405952Y-76304819D02*
X119644047Y-76304819D01*
X119644047Y-76304819D02*
X119739285Y-76352438D01*
X119739285Y-76352438D02*
X119786904Y-76400057D01*
X119786904Y-76400057D02*
X119834523Y-76495295D01*
X119834523Y-76495295D02*
X119834523Y-76590533D01*
X119834523Y-76590533D02*
X119786904Y-76733390D01*
X119786904Y-76733390D02*
X119215476Y-77304819D01*
X119215476Y-77304819D02*
X119834523Y-77304819D01*
X120453571Y-76304819D02*
X120548809Y-76304819D01*
X120548809Y-76304819D02*
X120644047Y-76352438D01*
X120644047Y-76352438D02*
X120691666Y-76400057D01*
X120691666Y-76400057D02*
X120739285Y-76495295D01*
X120739285Y-76495295D02*
X120786904Y-76685771D01*
X120786904Y-76685771D02*
X120786904Y-76923866D01*
X120786904Y-76923866D02*
X120739285Y-77114342D01*
X120739285Y-77114342D02*
X120691666Y-77209580D01*
X120691666Y-77209580D02*
X120644047Y-77257200D01*
X120644047Y-77257200D02*
X120548809Y-77304819D01*
X120548809Y-77304819D02*
X120453571Y-77304819D01*
X120453571Y-77304819D02*
X120358333Y-77257200D01*
X120358333Y-77257200D02*
X120310714Y-77209580D01*
X120310714Y-77209580D02*
X120263095Y-77114342D01*
X120263095Y-77114342D02*
X120215476Y-76923866D01*
X120215476Y-76923866D02*
X120215476Y-76685771D01*
X120215476Y-76685771D02*
X120263095Y-76495295D01*
X120263095Y-76495295D02*
X120310714Y-76400057D01*
X120310714Y-76400057D02*
X120358333Y-76352438D01*
X120358333Y-76352438D02*
X120453571Y-76304819D01*
X103007142Y-59829819D02*
X102673809Y-59353628D01*
X102435714Y-59829819D02*
X102435714Y-58829819D01*
X102435714Y-58829819D02*
X102816666Y-58829819D01*
X102816666Y-58829819D02*
X102911904Y-58877438D01*
X102911904Y-58877438D02*
X102959523Y-58925057D01*
X102959523Y-58925057D02*
X103007142Y-59020295D01*
X103007142Y-59020295D02*
X103007142Y-59163152D01*
X103007142Y-59163152D02*
X102959523Y-59258390D01*
X102959523Y-59258390D02*
X102911904Y-59306009D01*
X102911904Y-59306009D02*
X102816666Y-59353628D01*
X102816666Y-59353628D02*
X102435714Y-59353628D01*
X103959523Y-59829819D02*
X103388095Y-59829819D01*
X103673809Y-59829819D02*
X103673809Y-58829819D01*
X103673809Y-58829819D02*
X103578571Y-58972676D01*
X103578571Y-58972676D02*
X103483333Y-59067914D01*
X103483333Y-59067914D02*
X103388095Y-59115533D01*
X104911904Y-59829819D02*
X104340476Y-59829819D01*
X104626190Y-59829819D02*
X104626190Y-58829819D01*
X104626190Y-58829819D02*
X104530952Y-58972676D01*
X104530952Y-58972676D02*
X104435714Y-59067914D01*
X104435714Y-59067914D02*
X104340476Y-59115533D01*
X94329819Y-76061904D02*
X95139342Y-76061904D01*
X95139342Y-76061904D02*
X95234580Y-76014285D01*
X95234580Y-76014285D02*
X95282200Y-75966666D01*
X95282200Y-75966666D02*
X95329819Y-75871428D01*
X95329819Y-75871428D02*
X95329819Y-75680952D01*
X95329819Y-75680952D02*
X95282200Y-75585714D01*
X95282200Y-75585714D02*
X95234580Y-75538095D01*
X95234580Y-75538095D02*
X95139342Y-75490476D01*
X95139342Y-75490476D02*
X94329819Y-75490476D01*
X95329819Y-74490476D02*
X95329819Y-75061904D01*
X95329819Y-74776190D02*
X94329819Y-74776190D01*
X94329819Y-74776190D02*
X94472676Y-74871428D01*
X94472676Y-74871428D02*
X94567914Y-74966666D01*
X94567914Y-74966666D02*
X94615533Y-75061904D01*
X94357142Y-59609580D02*
X94309523Y-59657200D01*
X94309523Y-59657200D02*
X94166666Y-59704819D01*
X94166666Y-59704819D02*
X94071428Y-59704819D01*
X94071428Y-59704819D02*
X93928571Y-59657200D01*
X93928571Y-59657200D02*
X93833333Y-59561961D01*
X93833333Y-59561961D02*
X93785714Y-59466723D01*
X93785714Y-59466723D02*
X93738095Y-59276247D01*
X93738095Y-59276247D02*
X93738095Y-59133390D01*
X93738095Y-59133390D02*
X93785714Y-58942914D01*
X93785714Y-58942914D02*
X93833333Y-58847676D01*
X93833333Y-58847676D02*
X93928571Y-58752438D01*
X93928571Y-58752438D02*
X94071428Y-58704819D01*
X94071428Y-58704819D02*
X94166666Y-58704819D01*
X94166666Y-58704819D02*
X94309523Y-58752438D01*
X94309523Y-58752438D02*
X94357142Y-58800057D01*
X95309523Y-59704819D02*
X94738095Y-59704819D01*
X95023809Y-59704819D02*
X95023809Y-58704819D01*
X95023809Y-58704819D02*
X94928571Y-58847676D01*
X94928571Y-58847676D02*
X94833333Y-58942914D01*
X94833333Y-58942914D02*
X94738095Y-58990533D01*
X95642857Y-58704819D02*
X96261904Y-58704819D01*
X96261904Y-58704819D02*
X95928571Y-59085771D01*
X95928571Y-59085771D02*
X96071428Y-59085771D01*
X96071428Y-59085771D02*
X96166666Y-59133390D01*
X96166666Y-59133390D02*
X96214285Y-59181009D01*
X96214285Y-59181009D02*
X96261904Y-59276247D01*
X96261904Y-59276247D02*
X96261904Y-59514342D01*
X96261904Y-59514342D02*
X96214285Y-59609580D01*
X96214285Y-59609580D02*
X96166666Y-59657200D01*
X96166666Y-59657200D02*
X96071428Y-59704819D01*
X96071428Y-59704819D02*
X95785714Y-59704819D01*
X95785714Y-59704819D02*
X95690476Y-59657200D01*
X95690476Y-59657200D02*
X95642857Y-59609580D01*
X85295833Y-61304580D02*
X85248214Y-61352200D01*
X85248214Y-61352200D02*
X85105357Y-61399819D01*
X85105357Y-61399819D02*
X85010119Y-61399819D01*
X85010119Y-61399819D02*
X84867262Y-61352200D01*
X84867262Y-61352200D02*
X84772024Y-61256961D01*
X84772024Y-61256961D02*
X84724405Y-61161723D01*
X84724405Y-61161723D02*
X84676786Y-60971247D01*
X84676786Y-60971247D02*
X84676786Y-60828390D01*
X84676786Y-60828390D02*
X84724405Y-60637914D01*
X84724405Y-60637914D02*
X84772024Y-60542676D01*
X84772024Y-60542676D02*
X84867262Y-60447438D01*
X84867262Y-60447438D02*
X85010119Y-60399819D01*
X85010119Y-60399819D02*
X85105357Y-60399819D01*
X85105357Y-60399819D02*
X85248214Y-60447438D01*
X85248214Y-60447438D02*
X85295833Y-60495057D01*
X85676786Y-60495057D02*
X85724405Y-60447438D01*
X85724405Y-60447438D02*
X85819643Y-60399819D01*
X85819643Y-60399819D02*
X86057738Y-60399819D01*
X86057738Y-60399819D02*
X86152976Y-60447438D01*
X86152976Y-60447438D02*
X86200595Y-60495057D01*
X86200595Y-60495057D02*
X86248214Y-60590295D01*
X86248214Y-60590295D02*
X86248214Y-60685533D01*
X86248214Y-60685533D02*
X86200595Y-60828390D01*
X86200595Y-60828390D02*
X85629167Y-61399819D01*
X85629167Y-61399819D02*
X86248214Y-61399819D01*
X119704819Y-57536904D02*
X120514342Y-57536904D01*
X120514342Y-57536904D02*
X120609580Y-57489285D01*
X120609580Y-57489285D02*
X120657200Y-57441666D01*
X120657200Y-57441666D02*
X120704819Y-57346428D01*
X120704819Y-57346428D02*
X120704819Y-57155952D01*
X120704819Y-57155952D02*
X120657200Y-57060714D01*
X120657200Y-57060714D02*
X120609580Y-57013095D01*
X120609580Y-57013095D02*
X120514342Y-56965476D01*
X120514342Y-56965476D02*
X119704819Y-56965476D01*
X119704819Y-56013095D02*
X119704819Y-56489285D01*
X119704819Y-56489285D02*
X120181009Y-56536904D01*
X120181009Y-56536904D02*
X120133390Y-56489285D01*
X120133390Y-56489285D02*
X120085771Y-56394047D01*
X120085771Y-56394047D02*
X120085771Y-56155952D01*
X120085771Y-56155952D02*
X120133390Y-56060714D01*
X120133390Y-56060714D02*
X120181009Y-56013095D01*
X120181009Y-56013095D02*
X120276247Y-55965476D01*
X120276247Y-55965476D02*
X120514342Y-55965476D01*
X120514342Y-55965476D02*
X120609580Y-56013095D01*
X120609580Y-56013095D02*
X120657200Y-56060714D01*
X120657200Y-56060714D02*
X120704819Y-56155952D01*
X120704819Y-56155952D02*
X120704819Y-56394047D01*
X120704819Y-56394047D02*
X120657200Y-56489285D01*
X120657200Y-56489285D02*
X120609580Y-56536904D01*
X109258333Y-63509580D02*
X109210714Y-63557200D01*
X109210714Y-63557200D02*
X109067857Y-63604819D01*
X109067857Y-63604819D02*
X108972619Y-63604819D01*
X108972619Y-63604819D02*
X108829762Y-63557200D01*
X108829762Y-63557200D02*
X108734524Y-63461961D01*
X108734524Y-63461961D02*
X108686905Y-63366723D01*
X108686905Y-63366723D02*
X108639286Y-63176247D01*
X108639286Y-63176247D02*
X108639286Y-63033390D01*
X108639286Y-63033390D02*
X108686905Y-62842914D01*
X108686905Y-62842914D02*
X108734524Y-62747676D01*
X108734524Y-62747676D02*
X108829762Y-62652438D01*
X108829762Y-62652438D02*
X108972619Y-62604819D01*
X108972619Y-62604819D02*
X109067857Y-62604819D01*
X109067857Y-62604819D02*
X109210714Y-62652438D01*
X109210714Y-62652438D02*
X109258333Y-62700057D01*
X109829762Y-63033390D02*
X109734524Y-62985771D01*
X109734524Y-62985771D02*
X109686905Y-62938152D01*
X109686905Y-62938152D02*
X109639286Y-62842914D01*
X109639286Y-62842914D02*
X109639286Y-62795295D01*
X109639286Y-62795295D02*
X109686905Y-62700057D01*
X109686905Y-62700057D02*
X109734524Y-62652438D01*
X109734524Y-62652438D02*
X109829762Y-62604819D01*
X109829762Y-62604819D02*
X110020238Y-62604819D01*
X110020238Y-62604819D02*
X110115476Y-62652438D01*
X110115476Y-62652438D02*
X110163095Y-62700057D01*
X110163095Y-62700057D02*
X110210714Y-62795295D01*
X110210714Y-62795295D02*
X110210714Y-62842914D01*
X110210714Y-62842914D02*
X110163095Y-62938152D01*
X110163095Y-62938152D02*
X110115476Y-62985771D01*
X110115476Y-62985771D02*
X110020238Y-63033390D01*
X110020238Y-63033390D02*
X109829762Y-63033390D01*
X109829762Y-63033390D02*
X109734524Y-63081009D01*
X109734524Y-63081009D02*
X109686905Y-63128628D01*
X109686905Y-63128628D02*
X109639286Y-63223866D01*
X109639286Y-63223866D02*
X109639286Y-63414342D01*
X109639286Y-63414342D02*
X109686905Y-63509580D01*
X109686905Y-63509580D02*
X109734524Y-63557200D01*
X109734524Y-63557200D02*
X109829762Y-63604819D01*
X109829762Y-63604819D02*
X110020238Y-63604819D01*
X110020238Y-63604819D02*
X110115476Y-63557200D01*
X110115476Y-63557200D02*
X110163095Y-63509580D01*
X110163095Y-63509580D02*
X110210714Y-63414342D01*
X110210714Y-63414342D02*
X110210714Y-63223866D01*
X110210714Y-63223866D02*
X110163095Y-63128628D01*
X110163095Y-63128628D02*
X110115476Y-63081009D01*
X110115476Y-63081009D02*
X110020238Y-63033390D01*
X119289580Y-61805357D02*
X119337200Y-61852976D01*
X119337200Y-61852976D02*
X119384819Y-61995833D01*
X119384819Y-61995833D02*
X119384819Y-62091071D01*
X119384819Y-62091071D02*
X119337200Y-62233928D01*
X119337200Y-62233928D02*
X119241961Y-62329166D01*
X119241961Y-62329166D02*
X119146723Y-62376785D01*
X119146723Y-62376785D02*
X118956247Y-62424404D01*
X118956247Y-62424404D02*
X118813390Y-62424404D01*
X118813390Y-62424404D02*
X118622914Y-62376785D01*
X118622914Y-62376785D02*
X118527676Y-62329166D01*
X118527676Y-62329166D02*
X118432438Y-62233928D01*
X118432438Y-62233928D02*
X118384819Y-62091071D01*
X118384819Y-62091071D02*
X118384819Y-61995833D01*
X118384819Y-61995833D02*
X118432438Y-61852976D01*
X118432438Y-61852976D02*
X118480057Y-61805357D01*
X119384819Y-60852976D02*
X119384819Y-61424404D01*
X119384819Y-61138690D02*
X118384819Y-61138690D01*
X118384819Y-61138690D02*
X118527676Y-61233928D01*
X118527676Y-61233928D02*
X118622914Y-61329166D01*
X118622914Y-61329166D02*
X118670533Y-61424404D01*
X118384819Y-60233928D02*
X118384819Y-60138690D01*
X118384819Y-60138690D02*
X118432438Y-60043452D01*
X118432438Y-60043452D02*
X118480057Y-59995833D01*
X118480057Y-59995833D02*
X118575295Y-59948214D01*
X118575295Y-59948214D02*
X118765771Y-59900595D01*
X118765771Y-59900595D02*
X119003866Y-59900595D01*
X119003866Y-59900595D02*
X119194342Y-59948214D01*
X119194342Y-59948214D02*
X119289580Y-59995833D01*
X119289580Y-59995833D02*
X119337200Y-60043452D01*
X119337200Y-60043452D02*
X119384819Y-60138690D01*
X119384819Y-60138690D02*
X119384819Y-60233928D01*
X119384819Y-60233928D02*
X119337200Y-60329166D01*
X119337200Y-60329166D02*
X119289580Y-60376785D01*
X119289580Y-60376785D02*
X119194342Y-60424404D01*
X119194342Y-60424404D02*
X119003866Y-60472023D01*
X119003866Y-60472023D02*
X118765771Y-60472023D01*
X118765771Y-60472023D02*
X118575295Y-60424404D01*
X118575295Y-60424404D02*
X118480057Y-60376785D01*
X118480057Y-60376785D02*
X118432438Y-60329166D01*
X118432438Y-60329166D02*
X118384819Y-60233928D01*
X81686905Y-52304819D02*
X81686905Y-51304819D01*
X81686905Y-51304819D02*
X81925000Y-51304819D01*
X81925000Y-51304819D02*
X82067857Y-51352438D01*
X82067857Y-51352438D02*
X82163095Y-51447676D01*
X82163095Y-51447676D02*
X82210714Y-51542914D01*
X82210714Y-51542914D02*
X82258333Y-51733390D01*
X82258333Y-51733390D02*
X82258333Y-51876247D01*
X82258333Y-51876247D02*
X82210714Y-52066723D01*
X82210714Y-52066723D02*
X82163095Y-52161961D01*
X82163095Y-52161961D02*
X82067857Y-52257200D01*
X82067857Y-52257200D02*
X81925000Y-52304819D01*
X81925000Y-52304819D02*
X81686905Y-52304819D01*
X82639286Y-51400057D02*
X82686905Y-51352438D01*
X82686905Y-51352438D02*
X82782143Y-51304819D01*
X82782143Y-51304819D02*
X83020238Y-51304819D01*
X83020238Y-51304819D02*
X83115476Y-51352438D01*
X83115476Y-51352438D02*
X83163095Y-51400057D01*
X83163095Y-51400057D02*
X83210714Y-51495295D01*
X83210714Y-51495295D02*
X83210714Y-51590533D01*
X83210714Y-51590533D02*
X83163095Y-51733390D01*
X83163095Y-51733390D02*
X82591667Y-52304819D01*
X82591667Y-52304819D02*
X83210714Y-52304819D01*
X102133333Y-63484580D02*
X102085714Y-63532200D01*
X102085714Y-63532200D02*
X101942857Y-63579819D01*
X101942857Y-63579819D02*
X101847619Y-63579819D01*
X101847619Y-63579819D02*
X101704762Y-63532200D01*
X101704762Y-63532200D02*
X101609524Y-63436961D01*
X101609524Y-63436961D02*
X101561905Y-63341723D01*
X101561905Y-63341723D02*
X101514286Y-63151247D01*
X101514286Y-63151247D02*
X101514286Y-63008390D01*
X101514286Y-63008390D02*
X101561905Y-62817914D01*
X101561905Y-62817914D02*
X101609524Y-62722676D01*
X101609524Y-62722676D02*
X101704762Y-62627438D01*
X101704762Y-62627438D02*
X101847619Y-62579819D01*
X101847619Y-62579819D02*
X101942857Y-62579819D01*
X101942857Y-62579819D02*
X102085714Y-62627438D01*
X102085714Y-62627438D02*
X102133333Y-62675057D01*
X102609524Y-63579819D02*
X102800000Y-63579819D01*
X102800000Y-63579819D02*
X102895238Y-63532200D01*
X102895238Y-63532200D02*
X102942857Y-63484580D01*
X102942857Y-63484580D02*
X103038095Y-63341723D01*
X103038095Y-63341723D02*
X103085714Y-63151247D01*
X103085714Y-63151247D02*
X103085714Y-62770295D01*
X103085714Y-62770295D02*
X103038095Y-62675057D01*
X103038095Y-62675057D02*
X102990476Y-62627438D01*
X102990476Y-62627438D02*
X102895238Y-62579819D01*
X102895238Y-62579819D02*
X102704762Y-62579819D01*
X102704762Y-62579819D02*
X102609524Y-62627438D01*
X102609524Y-62627438D02*
X102561905Y-62675057D01*
X102561905Y-62675057D02*
X102514286Y-62770295D01*
X102514286Y-62770295D02*
X102514286Y-63008390D01*
X102514286Y-63008390D02*
X102561905Y-63103628D01*
X102561905Y-63103628D02*
X102609524Y-63151247D01*
X102609524Y-63151247D02*
X102704762Y-63198866D01*
X102704762Y-63198866D02*
X102895238Y-63198866D01*
X102895238Y-63198866D02*
X102990476Y-63151247D01*
X102990476Y-63151247D02*
X103038095Y-63103628D01*
X103038095Y-63103628D02*
X103085714Y-63008390D01*
X77541666Y-51474819D02*
X77541666Y-52189104D01*
X77541666Y-52189104D02*
X77494047Y-52331961D01*
X77494047Y-52331961D02*
X77398809Y-52427200D01*
X77398809Y-52427200D02*
X77255952Y-52474819D01*
X77255952Y-52474819D02*
X77160714Y-52474819D01*
X78446428Y-51808152D02*
X78446428Y-52474819D01*
X78208333Y-51427200D02*
X77970238Y-52141485D01*
X77970238Y-52141485D02*
X78589285Y-52141485D01*
X101304819Y-64516666D02*
X100828628Y-64849999D01*
X101304819Y-65088094D02*
X100304819Y-65088094D01*
X100304819Y-65088094D02*
X100304819Y-64707142D01*
X100304819Y-64707142D02*
X100352438Y-64611904D01*
X100352438Y-64611904D02*
X100400057Y-64564285D01*
X100400057Y-64564285D02*
X100495295Y-64516666D01*
X100495295Y-64516666D02*
X100638152Y-64516666D01*
X100638152Y-64516666D02*
X100733390Y-64564285D01*
X100733390Y-64564285D02*
X100781009Y-64611904D01*
X100781009Y-64611904D02*
X100828628Y-64707142D01*
X100828628Y-64707142D02*
X100828628Y-65088094D01*
X100733390Y-63945237D02*
X100685771Y-64040475D01*
X100685771Y-64040475D02*
X100638152Y-64088094D01*
X100638152Y-64088094D02*
X100542914Y-64135713D01*
X100542914Y-64135713D02*
X100495295Y-64135713D01*
X100495295Y-64135713D02*
X100400057Y-64088094D01*
X100400057Y-64088094D02*
X100352438Y-64040475D01*
X100352438Y-64040475D02*
X100304819Y-63945237D01*
X100304819Y-63945237D02*
X100304819Y-63754761D01*
X100304819Y-63754761D02*
X100352438Y-63659523D01*
X100352438Y-63659523D02*
X100400057Y-63611904D01*
X100400057Y-63611904D02*
X100495295Y-63564285D01*
X100495295Y-63564285D02*
X100542914Y-63564285D01*
X100542914Y-63564285D02*
X100638152Y-63611904D01*
X100638152Y-63611904D02*
X100685771Y-63659523D01*
X100685771Y-63659523D02*
X100733390Y-63754761D01*
X100733390Y-63754761D02*
X100733390Y-63945237D01*
X100733390Y-63945237D02*
X100781009Y-64040475D01*
X100781009Y-64040475D02*
X100828628Y-64088094D01*
X100828628Y-64088094D02*
X100923866Y-64135713D01*
X100923866Y-64135713D02*
X101114342Y-64135713D01*
X101114342Y-64135713D02*
X101209580Y-64088094D01*
X101209580Y-64088094D02*
X101257200Y-64040475D01*
X101257200Y-64040475D02*
X101304819Y-63945237D01*
X101304819Y-63945237D02*
X101304819Y-63754761D01*
X101304819Y-63754761D02*
X101257200Y-63659523D01*
X101257200Y-63659523D02*
X101209580Y-63611904D01*
X101209580Y-63611904D02*
X101114342Y-63564285D01*
X101114342Y-63564285D02*
X100923866Y-63564285D01*
X100923866Y-63564285D02*
X100828628Y-63611904D01*
X100828628Y-63611904D02*
X100781009Y-63659523D01*
X100781009Y-63659523D02*
X100733390Y-63754761D01*
X111904819Y-55066666D02*
X111428628Y-55399999D01*
X111904819Y-55638094D02*
X110904819Y-55638094D01*
X110904819Y-55638094D02*
X110904819Y-55257142D01*
X110904819Y-55257142D02*
X110952438Y-55161904D01*
X110952438Y-55161904D02*
X111000057Y-55114285D01*
X111000057Y-55114285D02*
X111095295Y-55066666D01*
X111095295Y-55066666D02*
X111238152Y-55066666D01*
X111238152Y-55066666D02*
X111333390Y-55114285D01*
X111333390Y-55114285D02*
X111381009Y-55161904D01*
X111381009Y-55161904D02*
X111428628Y-55257142D01*
X111428628Y-55257142D02*
X111428628Y-55638094D01*
X110904819Y-54733332D02*
X110904819Y-54114285D01*
X110904819Y-54114285D02*
X111285771Y-54447618D01*
X111285771Y-54447618D02*
X111285771Y-54304761D01*
X111285771Y-54304761D02*
X111333390Y-54209523D01*
X111333390Y-54209523D02*
X111381009Y-54161904D01*
X111381009Y-54161904D02*
X111476247Y-54114285D01*
X111476247Y-54114285D02*
X111714342Y-54114285D01*
X111714342Y-54114285D02*
X111809580Y-54161904D01*
X111809580Y-54161904D02*
X111857200Y-54209523D01*
X111857200Y-54209523D02*
X111904819Y-54304761D01*
X111904819Y-54304761D02*
X111904819Y-54590475D01*
X111904819Y-54590475D02*
X111857200Y-54685713D01*
X111857200Y-54685713D02*
X111809580Y-54733332D01*
X113108333Y-52084580D02*
X113060714Y-52132200D01*
X113060714Y-52132200D02*
X112917857Y-52179819D01*
X112917857Y-52179819D02*
X112822619Y-52179819D01*
X112822619Y-52179819D02*
X112679762Y-52132200D01*
X112679762Y-52132200D02*
X112584524Y-52036961D01*
X112584524Y-52036961D02*
X112536905Y-51941723D01*
X112536905Y-51941723D02*
X112489286Y-51751247D01*
X112489286Y-51751247D02*
X112489286Y-51608390D01*
X112489286Y-51608390D02*
X112536905Y-51417914D01*
X112536905Y-51417914D02*
X112584524Y-51322676D01*
X112584524Y-51322676D02*
X112679762Y-51227438D01*
X112679762Y-51227438D02*
X112822619Y-51179819D01*
X112822619Y-51179819D02*
X112917857Y-51179819D01*
X112917857Y-51179819D02*
X113060714Y-51227438D01*
X113060714Y-51227438D02*
X113108333Y-51275057D01*
X113441667Y-51179819D02*
X114108333Y-51179819D01*
X114108333Y-51179819D02*
X113679762Y-52179819D01*
X82499819Y-78808333D02*
X83214104Y-78808333D01*
X83214104Y-78808333D02*
X83356961Y-78855952D01*
X83356961Y-78855952D02*
X83452200Y-78951190D01*
X83452200Y-78951190D02*
X83499819Y-79094047D01*
X83499819Y-79094047D02*
X83499819Y-79189285D01*
X83499819Y-77808333D02*
X83499819Y-78379761D01*
X83499819Y-78094047D02*
X82499819Y-78094047D01*
X82499819Y-78094047D02*
X82642676Y-78189285D01*
X82642676Y-78189285D02*
X82737914Y-78284523D01*
X82737914Y-78284523D02*
X82785533Y-78379761D01*
X133470180Y-60274761D02*
X133946371Y-59941428D01*
X133470180Y-59703333D02*
X134470180Y-59703333D01*
X134470180Y-59703333D02*
X134470180Y-60084285D01*
X134470180Y-60084285D02*
X134422561Y-60179523D01*
X134422561Y-60179523D02*
X134374942Y-60227142D01*
X134374942Y-60227142D02*
X134279704Y-60274761D01*
X134279704Y-60274761D02*
X134136847Y-60274761D01*
X134136847Y-60274761D02*
X134041609Y-60227142D01*
X134041609Y-60227142D02*
X133993990Y-60179523D01*
X133993990Y-60179523D02*
X133946371Y-60084285D01*
X133946371Y-60084285D02*
X133946371Y-59703333D01*
X133470180Y-60703333D02*
X134470180Y-60703333D01*
X134470180Y-60703333D02*
X134470180Y-61084285D01*
X134470180Y-61084285D02*
X134422561Y-61179523D01*
X134422561Y-61179523D02*
X134374942Y-61227142D01*
X134374942Y-61227142D02*
X134279704Y-61274761D01*
X134279704Y-61274761D02*
X134136847Y-61274761D01*
X134136847Y-61274761D02*
X134041609Y-61227142D01*
X134041609Y-61227142D02*
X133993990Y-61179523D01*
X133993990Y-61179523D02*
X133946371Y-61084285D01*
X133946371Y-61084285D02*
X133946371Y-60703333D01*
X134374942Y-61655714D02*
X134422561Y-61703333D01*
X134422561Y-61703333D02*
X134470180Y-61798571D01*
X134470180Y-61798571D02*
X134470180Y-62036666D01*
X134470180Y-62036666D02*
X134422561Y-62131904D01*
X134422561Y-62131904D02*
X134374942Y-62179523D01*
X134374942Y-62179523D02*
X134279704Y-62227142D01*
X134279704Y-62227142D02*
X134184466Y-62227142D01*
X134184466Y-62227142D02*
X134041609Y-62179523D01*
X134041609Y-62179523D02*
X133470180Y-61608095D01*
X133470180Y-61608095D02*
X133470180Y-62227142D01*
X134470180Y-62560476D02*
X134470180Y-63179523D01*
X134470180Y-63179523D02*
X134089228Y-62846190D01*
X134089228Y-62846190D02*
X134089228Y-62989047D01*
X134089228Y-62989047D02*
X134041609Y-63084285D01*
X134041609Y-63084285D02*
X133993990Y-63131904D01*
X133993990Y-63131904D02*
X133898752Y-63179523D01*
X133898752Y-63179523D02*
X133660657Y-63179523D01*
X133660657Y-63179523D02*
X133565419Y-63131904D01*
X133565419Y-63131904D02*
X133517800Y-63084285D01*
X133517800Y-63084285D02*
X133470180Y-62989047D01*
X133470180Y-62989047D02*
X133470180Y-62703333D01*
X133470180Y-62703333D02*
X133517800Y-62608095D01*
X133517800Y-62608095D02*
X133565419Y-62560476D01*
X134470180Y-64084285D02*
X134470180Y-63608095D01*
X134470180Y-63608095D02*
X133993990Y-63560476D01*
X133993990Y-63560476D02*
X134041609Y-63608095D01*
X134041609Y-63608095D02*
X134089228Y-63703333D01*
X134089228Y-63703333D02*
X134089228Y-63941428D01*
X134089228Y-63941428D02*
X134041609Y-64036666D01*
X134041609Y-64036666D02*
X133993990Y-64084285D01*
X133993990Y-64084285D02*
X133898752Y-64131904D01*
X133898752Y-64131904D02*
X133660657Y-64131904D01*
X133660657Y-64131904D02*
X133565419Y-64084285D01*
X133565419Y-64084285D02*
X133517800Y-64036666D01*
X133517800Y-64036666D02*
X133470180Y-63941428D01*
X133470180Y-63941428D02*
X133470180Y-63703333D01*
X133470180Y-63703333D02*
X133517800Y-63608095D01*
X133517800Y-63608095D02*
X133565419Y-63560476D01*
X134470180Y-64750952D02*
X134470180Y-64846190D01*
X134470180Y-64846190D02*
X134422561Y-64941428D01*
X134422561Y-64941428D02*
X134374942Y-64989047D01*
X134374942Y-64989047D02*
X134279704Y-65036666D01*
X134279704Y-65036666D02*
X134089228Y-65084285D01*
X134089228Y-65084285D02*
X133851133Y-65084285D01*
X133851133Y-65084285D02*
X133660657Y-65036666D01*
X133660657Y-65036666D02*
X133565419Y-64989047D01*
X133565419Y-64989047D02*
X133517800Y-64941428D01*
X133517800Y-64941428D02*
X133470180Y-64846190D01*
X133470180Y-64846190D02*
X133470180Y-64750952D01*
X133470180Y-64750952D02*
X133517800Y-64655714D01*
X133517800Y-64655714D02*
X133565419Y-64608095D01*
X133565419Y-64608095D02*
X133660657Y-64560476D01*
X133660657Y-64560476D02*
X133851133Y-64512857D01*
X133851133Y-64512857D02*
X134089228Y-64512857D01*
X134089228Y-64512857D02*
X134279704Y-64560476D01*
X134279704Y-64560476D02*
X134374942Y-64608095D01*
X134374942Y-64608095D02*
X134422561Y-64655714D01*
X134422561Y-64655714D02*
X134470180Y-64750952D01*
X88079819Y-76136904D02*
X88889342Y-76136904D01*
X88889342Y-76136904D02*
X88984580Y-76089285D01*
X88984580Y-76089285D02*
X89032200Y-76041666D01*
X89032200Y-76041666D02*
X89079819Y-75946428D01*
X89079819Y-75946428D02*
X89079819Y-75755952D01*
X89079819Y-75755952D02*
X89032200Y-75660714D01*
X89032200Y-75660714D02*
X88984580Y-75613095D01*
X88984580Y-75613095D02*
X88889342Y-75565476D01*
X88889342Y-75565476D02*
X88079819Y-75565476D01*
X88175057Y-75136904D02*
X88127438Y-75089285D01*
X88127438Y-75089285D02*
X88079819Y-74994047D01*
X88079819Y-74994047D02*
X88079819Y-74755952D01*
X88079819Y-74755952D02*
X88127438Y-74660714D01*
X88127438Y-74660714D02*
X88175057Y-74613095D01*
X88175057Y-74613095D02*
X88270295Y-74565476D01*
X88270295Y-74565476D02*
X88365533Y-74565476D01*
X88365533Y-74565476D02*
X88508390Y-74613095D01*
X88508390Y-74613095D02*
X89079819Y-75184523D01*
X89079819Y-75184523D02*
X89079819Y-74565476D01*
X90838095Y-58729819D02*
X90838095Y-59539342D01*
X90838095Y-59539342D02*
X90885714Y-59634580D01*
X90885714Y-59634580D02*
X90933333Y-59682200D01*
X90933333Y-59682200D02*
X91028571Y-59729819D01*
X91028571Y-59729819D02*
X91219047Y-59729819D01*
X91219047Y-59729819D02*
X91314285Y-59682200D01*
X91314285Y-59682200D02*
X91361904Y-59634580D01*
X91361904Y-59634580D02*
X91409523Y-59539342D01*
X91409523Y-59539342D02*
X91409523Y-58729819D01*
X91790476Y-58729819D02*
X92409523Y-58729819D01*
X92409523Y-58729819D02*
X92076190Y-59110771D01*
X92076190Y-59110771D02*
X92219047Y-59110771D01*
X92219047Y-59110771D02*
X92314285Y-59158390D01*
X92314285Y-59158390D02*
X92361904Y-59206009D01*
X92361904Y-59206009D02*
X92409523Y-59301247D01*
X92409523Y-59301247D02*
X92409523Y-59539342D01*
X92409523Y-59539342D02*
X92361904Y-59634580D01*
X92361904Y-59634580D02*
X92314285Y-59682200D01*
X92314285Y-59682200D02*
X92219047Y-59729819D01*
X92219047Y-59729819D02*
X91933333Y-59729819D01*
X91933333Y-59729819D02*
X91838095Y-59682200D01*
X91838095Y-59682200D02*
X91790476Y-59634580D01*
X100383333Y-60154819D02*
X100050000Y-59678628D01*
X99811905Y-60154819D02*
X99811905Y-59154819D01*
X99811905Y-59154819D02*
X100192857Y-59154819D01*
X100192857Y-59154819D02*
X100288095Y-59202438D01*
X100288095Y-59202438D02*
X100335714Y-59250057D01*
X100335714Y-59250057D02*
X100383333Y-59345295D01*
X100383333Y-59345295D02*
X100383333Y-59488152D01*
X100383333Y-59488152D02*
X100335714Y-59583390D01*
X100335714Y-59583390D02*
X100288095Y-59631009D01*
X100288095Y-59631009D02*
X100192857Y-59678628D01*
X100192857Y-59678628D02*
X99811905Y-59678628D01*
X101288095Y-59154819D02*
X100811905Y-59154819D01*
X100811905Y-59154819D02*
X100764286Y-59631009D01*
X100764286Y-59631009D02*
X100811905Y-59583390D01*
X100811905Y-59583390D02*
X100907143Y-59535771D01*
X100907143Y-59535771D02*
X101145238Y-59535771D01*
X101145238Y-59535771D02*
X101240476Y-59583390D01*
X101240476Y-59583390D02*
X101288095Y-59631009D01*
X101288095Y-59631009D02*
X101335714Y-59726247D01*
X101335714Y-59726247D02*
X101335714Y-59964342D01*
X101335714Y-59964342D02*
X101288095Y-60059580D01*
X101288095Y-60059580D02*
X101240476Y-60107200D01*
X101240476Y-60107200D02*
X101145238Y-60154819D01*
X101145238Y-60154819D02*
X100907143Y-60154819D01*
X100907143Y-60154819D02*
X100811905Y-60107200D01*
X100811905Y-60107200D02*
X100764286Y-60059580D01*
X81945833Y-59854580D02*
X81898214Y-59902200D01*
X81898214Y-59902200D02*
X81755357Y-59949819D01*
X81755357Y-59949819D02*
X81660119Y-59949819D01*
X81660119Y-59949819D02*
X81517262Y-59902200D01*
X81517262Y-59902200D02*
X81422024Y-59806961D01*
X81422024Y-59806961D02*
X81374405Y-59711723D01*
X81374405Y-59711723D02*
X81326786Y-59521247D01*
X81326786Y-59521247D02*
X81326786Y-59378390D01*
X81326786Y-59378390D02*
X81374405Y-59187914D01*
X81374405Y-59187914D02*
X81422024Y-59092676D01*
X81422024Y-59092676D02*
X81517262Y-58997438D01*
X81517262Y-58997438D02*
X81660119Y-58949819D01*
X81660119Y-58949819D02*
X81755357Y-58949819D01*
X81755357Y-58949819D02*
X81898214Y-58997438D01*
X81898214Y-58997438D02*
X81945833Y-59045057D01*
X82898214Y-59949819D02*
X82326786Y-59949819D01*
X82612500Y-59949819D02*
X82612500Y-58949819D01*
X82612500Y-58949819D02*
X82517262Y-59092676D01*
X82517262Y-59092676D02*
X82422024Y-59187914D01*
X82422024Y-59187914D02*
X82326786Y-59235533D01*
X85808333Y-67704819D02*
X85475000Y-67228628D01*
X85236905Y-67704819D02*
X85236905Y-66704819D01*
X85236905Y-66704819D02*
X85617857Y-66704819D01*
X85617857Y-66704819D02*
X85713095Y-66752438D01*
X85713095Y-66752438D02*
X85760714Y-66800057D01*
X85760714Y-66800057D02*
X85808333Y-66895295D01*
X85808333Y-66895295D02*
X85808333Y-67038152D01*
X85808333Y-67038152D02*
X85760714Y-67133390D01*
X85760714Y-67133390D02*
X85713095Y-67181009D01*
X85713095Y-67181009D02*
X85617857Y-67228628D01*
X85617857Y-67228628D02*
X85236905Y-67228628D01*
X86141667Y-66704819D02*
X86808333Y-66704819D01*
X86808333Y-66704819D02*
X86379762Y-67704819D01*
X99732142Y-70654819D02*
X99398809Y-70178628D01*
X99160714Y-70654819D02*
X99160714Y-69654819D01*
X99160714Y-69654819D02*
X99541666Y-69654819D01*
X99541666Y-69654819D02*
X99636904Y-69702438D01*
X99636904Y-69702438D02*
X99684523Y-69750057D01*
X99684523Y-69750057D02*
X99732142Y-69845295D01*
X99732142Y-69845295D02*
X99732142Y-69988152D01*
X99732142Y-69988152D02*
X99684523Y-70083390D01*
X99684523Y-70083390D02*
X99636904Y-70131009D01*
X99636904Y-70131009D02*
X99541666Y-70178628D01*
X99541666Y-70178628D02*
X99160714Y-70178628D01*
X100684523Y-70654819D02*
X100113095Y-70654819D01*
X100398809Y-70654819D02*
X100398809Y-69654819D01*
X100398809Y-69654819D02*
X100303571Y-69797676D01*
X100303571Y-69797676D02*
X100208333Y-69892914D01*
X100208333Y-69892914D02*
X100113095Y-69940533D01*
X101017857Y-69654819D02*
X101684523Y-69654819D01*
X101684523Y-69654819D02*
X101255952Y-70654819D01*
X104257142Y-65634580D02*
X104209523Y-65682200D01*
X104209523Y-65682200D02*
X104066666Y-65729819D01*
X104066666Y-65729819D02*
X103971428Y-65729819D01*
X103971428Y-65729819D02*
X103828571Y-65682200D01*
X103828571Y-65682200D02*
X103733333Y-65586961D01*
X103733333Y-65586961D02*
X103685714Y-65491723D01*
X103685714Y-65491723D02*
X103638095Y-65301247D01*
X103638095Y-65301247D02*
X103638095Y-65158390D01*
X103638095Y-65158390D02*
X103685714Y-64967914D01*
X103685714Y-64967914D02*
X103733333Y-64872676D01*
X103733333Y-64872676D02*
X103828571Y-64777438D01*
X103828571Y-64777438D02*
X103971428Y-64729819D01*
X103971428Y-64729819D02*
X104066666Y-64729819D01*
X104066666Y-64729819D02*
X104209523Y-64777438D01*
X104209523Y-64777438D02*
X104257142Y-64825057D01*
X105209523Y-65729819D02*
X104638095Y-65729819D01*
X104923809Y-65729819D02*
X104923809Y-64729819D01*
X104923809Y-64729819D02*
X104828571Y-64872676D01*
X104828571Y-64872676D02*
X104733333Y-64967914D01*
X104733333Y-64967914D02*
X104638095Y-65015533D01*
X106066666Y-65063152D02*
X106066666Y-65729819D01*
X105828571Y-64682200D02*
X105590476Y-65396485D01*
X105590476Y-65396485D02*
X106209523Y-65396485D01*
X99807142Y-72634580D02*
X99759523Y-72682200D01*
X99759523Y-72682200D02*
X99616666Y-72729819D01*
X99616666Y-72729819D02*
X99521428Y-72729819D01*
X99521428Y-72729819D02*
X99378571Y-72682200D01*
X99378571Y-72682200D02*
X99283333Y-72586961D01*
X99283333Y-72586961D02*
X99235714Y-72491723D01*
X99235714Y-72491723D02*
X99188095Y-72301247D01*
X99188095Y-72301247D02*
X99188095Y-72158390D01*
X99188095Y-72158390D02*
X99235714Y-71967914D01*
X99235714Y-71967914D02*
X99283333Y-71872676D01*
X99283333Y-71872676D02*
X99378571Y-71777438D01*
X99378571Y-71777438D02*
X99521428Y-71729819D01*
X99521428Y-71729819D02*
X99616666Y-71729819D01*
X99616666Y-71729819D02*
X99759523Y-71777438D01*
X99759523Y-71777438D02*
X99807142Y-71825057D01*
X100759523Y-72729819D02*
X100188095Y-72729819D01*
X100473809Y-72729819D02*
X100473809Y-71729819D01*
X100473809Y-71729819D02*
X100378571Y-71872676D01*
X100378571Y-71872676D02*
X100283333Y-71967914D01*
X100283333Y-71967914D02*
X100188095Y-72015533D01*
X101092857Y-71729819D02*
X101759523Y-71729819D01*
X101759523Y-71729819D02*
X101330952Y-72729819D01*
X124774819Y-78808333D02*
X125489104Y-78808333D01*
X125489104Y-78808333D02*
X125631961Y-78855952D01*
X125631961Y-78855952D02*
X125727200Y-78951190D01*
X125727200Y-78951190D02*
X125774819Y-79094047D01*
X125774819Y-79094047D02*
X125774819Y-79189285D01*
X124774819Y-78427380D02*
X124774819Y-77808333D01*
X124774819Y-77808333D02*
X125155771Y-78141666D01*
X125155771Y-78141666D02*
X125155771Y-77998809D01*
X125155771Y-77998809D02*
X125203390Y-77903571D01*
X125203390Y-77903571D02*
X125251009Y-77855952D01*
X125251009Y-77855952D02*
X125346247Y-77808333D01*
X125346247Y-77808333D02*
X125584342Y-77808333D01*
X125584342Y-77808333D02*
X125679580Y-77855952D01*
X125679580Y-77855952D02*
X125727200Y-77903571D01*
X125727200Y-77903571D02*
X125774819Y-77998809D01*
X125774819Y-77998809D02*
X125774819Y-78284523D01*
X125774819Y-78284523D02*
X125727200Y-78379761D01*
X125727200Y-78379761D02*
X125679580Y-78427380D01*
X81511905Y-63254819D02*
X81511905Y-62254819D01*
X81511905Y-62254819D02*
X81750000Y-62254819D01*
X81750000Y-62254819D02*
X81892857Y-62302438D01*
X81892857Y-62302438D02*
X81988095Y-62397676D01*
X81988095Y-62397676D02*
X82035714Y-62492914D01*
X82035714Y-62492914D02*
X82083333Y-62683390D01*
X82083333Y-62683390D02*
X82083333Y-62826247D01*
X82083333Y-62826247D02*
X82035714Y-63016723D01*
X82035714Y-63016723D02*
X81988095Y-63111961D01*
X81988095Y-63111961D02*
X81892857Y-63207200D01*
X81892857Y-63207200D02*
X81750000Y-63254819D01*
X81750000Y-63254819D02*
X81511905Y-63254819D01*
X83035714Y-63254819D02*
X82464286Y-63254819D01*
X82750000Y-63254819D02*
X82750000Y-62254819D01*
X82750000Y-62254819D02*
X82654762Y-62397676D01*
X82654762Y-62397676D02*
X82559524Y-62492914D01*
X82559524Y-62492914D02*
X82464286Y-62540533D01*
X85458333Y-70884580D02*
X85410714Y-70932200D01*
X85410714Y-70932200D02*
X85267857Y-70979819D01*
X85267857Y-70979819D02*
X85172619Y-70979819D01*
X85172619Y-70979819D02*
X85029762Y-70932200D01*
X85029762Y-70932200D02*
X84934524Y-70836961D01*
X84934524Y-70836961D02*
X84886905Y-70741723D01*
X84886905Y-70741723D02*
X84839286Y-70551247D01*
X84839286Y-70551247D02*
X84839286Y-70408390D01*
X84839286Y-70408390D02*
X84886905Y-70217914D01*
X84886905Y-70217914D02*
X84934524Y-70122676D01*
X84934524Y-70122676D02*
X85029762Y-70027438D01*
X85029762Y-70027438D02*
X85172619Y-69979819D01*
X85172619Y-69979819D02*
X85267857Y-69979819D01*
X85267857Y-69979819D02*
X85410714Y-70027438D01*
X85410714Y-70027438D02*
X85458333Y-70075057D01*
X86315476Y-70313152D02*
X86315476Y-70979819D01*
X86077381Y-69932200D02*
X85839286Y-70646485D01*
X85839286Y-70646485D02*
X86458333Y-70646485D01*
X88758333Y-63454819D02*
X88425000Y-62978628D01*
X88186905Y-63454819D02*
X88186905Y-62454819D01*
X88186905Y-62454819D02*
X88567857Y-62454819D01*
X88567857Y-62454819D02*
X88663095Y-62502438D01*
X88663095Y-62502438D02*
X88710714Y-62550057D01*
X88710714Y-62550057D02*
X88758333Y-62645295D01*
X88758333Y-62645295D02*
X88758333Y-62788152D01*
X88758333Y-62788152D02*
X88710714Y-62883390D01*
X88710714Y-62883390D02*
X88663095Y-62931009D01*
X88663095Y-62931009D02*
X88567857Y-62978628D01*
X88567857Y-62978628D02*
X88186905Y-62978628D01*
X89615476Y-62454819D02*
X89425000Y-62454819D01*
X89425000Y-62454819D02*
X89329762Y-62502438D01*
X89329762Y-62502438D02*
X89282143Y-62550057D01*
X89282143Y-62550057D02*
X89186905Y-62692914D01*
X89186905Y-62692914D02*
X89139286Y-62883390D01*
X89139286Y-62883390D02*
X89139286Y-63264342D01*
X89139286Y-63264342D02*
X89186905Y-63359580D01*
X89186905Y-63359580D02*
X89234524Y-63407200D01*
X89234524Y-63407200D02*
X89329762Y-63454819D01*
X89329762Y-63454819D02*
X89520238Y-63454819D01*
X89520238Y-63454819D02*
X89615476Y-63407200D01*
X89615476Y-63407200D02*
X89663095Y-63359580D01*
X89663095Y-63359580D02*
X89710714Y-63264342D01*
X89710714Y-63264342D02*
X89710714Y-63026247D01*
X89710714Y-63026247D02*
X89663095Y-62931009D01*
X89663095Y-62931009D02*
X89615476Y-62883390D01*
X89615476Y-62883390D02*
X89520238Y-62835771D01*
X89520238Y-62835771D02*
X89329762Y-62835771D01*
X89329762Y-62835771D02*
X89234524Y-62883390D01*
X89234524Y-62883390D02*
X89186905Y-62931009D01*
X89186905Y-62931009D02*
X89139286Y-63026247D01*
D12*
%TO.C,U7*%
X93215000Y-62685000D02*
X97335000Y-62685000D01*
X93215000Y-62780000D02*
X93215000Y-62685000D01*
X93215000Y-67805000D02*
X93215000Y-67710000D01*
X97335000Y-62685000D02*
X97335000Y-62780000D01*
X97335000Y-67710000D02*
X97335000Y-67805000D01*
X97335000Y-67805000D02*
X93215000Y-67805000D01*
X92675000Y-62775000D02*
X92435000Y-62445000D01*
X92915000Y-62445000D01*
X92675000Y-62775000D01*
G36*
X92675000Y-62775000D02*
G01*
X92435000Y-62445000D01*
X92915000Y-62445000D01*
X92675000Y-62775000D01*
G37*
%TO.C,R2*%
X82807776Y-66977500D02*
X83317224Y-66977500D01*
X82807776Y-68022500D02*
X83317224Y-68022500D01*
%TO.C,R14*%
X119182776Y-72077500D02*
X119692224Y-72077500D01*
X119182776Y-73122500D02*
X119692224Y-73122500D01*
%TO.C,J2*%
X98370000Y-79855000D02*
X98370000Y-78475000D01*
X99750000Y-79855000D02*
X98370000Y-79855000D01*
X101020000Y-77095000D02*
X108750000Y-77095000D01*
X101020000Y-79855000D02*
X101020000Y-77095000D01*
X101020000Y-79855000D02*
X108750000Y-79855000D01*
X108750000Y-79855000D02*
X108750000Y-77095000D01*
%TO.C,C6*%
X103065000Y-53504437D02*
X103065000Y-57960000D01*
X103065000Y-57960000D02*
X104765000Y-57960000D01*
X104129437Y-52440000D02*
X103065000Y-53504437D01*
X104129437Y-52440000D02*
X104765000Y-52440000D01*
X107510000Y-51575000D02*
X107510000Y-52200000D01*
X107520563Y-52440000D02*
X106885000Y-52440000D01*
X107520563Y-52440000D02*
X108585000Y-53504437D01*
X107822500Y-51887500D02*
X107197500Y-51887500D01*
X108585000Y-53504437D02*
X108585000Y-57960000D01*
X108585000Y-57960000D02*
X106885000Y-57960000D01*
%TO.C,U6*%
X108565000Y-63950000D02*
X112685000Y-63950000D01*
X108565000Y-64015000D02*
X108565000Y-63950000D01*
X108565000Y-72820000D02*
X108565000Y-72755000D01*
X112685000Y-63950000D02*
X112685000Y-64015000D01*
X112685000Y-72755000D02*
X112685000Y-72820000D01*
X112685000Y-72820000D02*
X108565000Y-72820000D01*
X113465000Y-73085000D02*
X112985000Y-73085000D01*
X113225000Y-72755000D01*
X113465000Y-73085000D01*
G36*
X113465000Y-73085000D02*
G01*
X112985000Y-73085000D01*
X113225000Y-72755000D01*
X113465000Y-73085000D01*
G37*
%TO.C,R19*%
X107817224Y-73752500D02*
X107307776Y-73752500D01*
X107817224Y-74797500D02*
X107307776Y-74797500D01*
%TO.C,C15*%
X117016233Y-66215000D02*
X117308767Y-66215000D01*
X117016233Y-67235000D02*
X117308767Y-67235000D01*
%TO.C,R16*%
X117467224Y-70077500D02*
X116957776Y-70077500D01*
X117467224Y-71122500D02*
X116957776Y-71122500D01*
%TO.C,R21*%
X115242224Y-75377500D02*
X114732776Y-75377500D01*
X115242224Y-76422500D02*
X114732776Y-76422500D01*
%TO.C,R13*%
X113570276Y-61102500D02*
X114079724Y-61102500D01*
X113570276Y-62147500D02*
X114079724Y-62147500D01*
%TO.C,C16*%
X121890000Y-74358767D02*
X121890000Y-74066233D01*
X122910000Y-74358767D02*
X122910000Y-74066233D01*
%TO.C,C11*%
X117333767Y-63965000D02*
X117041233Y-63965000D01*
X117333767Y-64985000D02*
X117041233Y-64985000D01*
%TO.C,R18*%
X114807776Y-73527500D02*
X115317224Y-73527500D01*
X114807776Y-74572500D02*
X115317224Y-74572500D01*
%TO.C,R1*%
X81747936Y-55815000D02*
X83202064Y-55815000D01*
X81747936Y-57635000D02*
X83202064Y-57635000D01*
%TO.C,R4*%
X88757776Y-61002500D02*
X89267224Y-61002500D01*
X88757776Y-62047500D02*
X89267224Y-62047500D01*
%TO.C,C3*%
X95890000Y-53629437D02*
X95890000Y-58085000D01*
X95890000Y-58085000D02*
X97590000Y-58085000D01*
X96954437Y-52565000D02*
X95890000Y-53629437D01*
X96954437Y-52565000D02*
X97590000Y-52565000D01*
X100335000Y-51700000D02*
X100335000Y-52325000D01*
X100345563Y-52565000D02*
X99710000Y-52565000D01*
X100345563Y-52565000D02*
X101410000Y-53629437D01*
X100647500Y-52012500D02*
X100022500Y-52012500D01*
X101410000Y-53629437D02*
X101410000Y-58085000D01*
X101410000Y-58085000D02*
X99710000Y-58085000D01*
%TO.C,R15*%
X103632776Y-73777500D02*
X104142224Y-73777500D01*
X103632776Y-74822500D02*
X104142224Y-74822500D01*
%TO.C,RV1*%
X76675000Y-77925000D02*
X76675000Y-78625000D01*
X76675000Y-78625000D02*
X77375000Y-78625000D01*
X76875000Y-74125000D02*
X77475000Y-74125000D01*
X76875000Y-77025000D02*
X76875000Y-74125000D01*
X78275000Y-78125000D02*
X78675000Y-78125000D01*
X80075000Y-74125000D02*
X79475000Y-74125000D01*
X80075000Y-77025000D02*
X80075000Y-74125000D01*
%TO.C,U4*%
X77677500Y-68065000D02*
X79197500Y-68065000D01*
X77677500Y-69065000D02*
X77677500Y-68065000D01*
X77677500Y-71185000D02*
X77677500Y-70185000D01*
X79197500Y-68065000D02*
X79197500Y-68115000D01*
X79197500Y-69235000D02*
X79197500Y-70015000D01*
X79197500Y-71135000D02*
X79197500Y-71185000D01*
X79197500Y-71185000D02*
X77677500Y-71185000D01*
X79737500Y-70005000D02*
X79497500Y-69675000D01*
X79977500Y-69675000D01*
X79737500Y-70005000D01*
G36*
X79737500Y-70005000D02*
G01*
X79497500Y-69675000D01*
X79977500Y-69675000D01*
X79737500Y-70005000D01*
G37*
%TO.C,R10*%
X110217224Y-58752500D02*
X109707776Y-58752500D01*
X110217224Y-59797500D02*
X109707776Y-59797500D01*
%TO.C,R9*%
X88967224Y-68477500D02*
X88457776Y-68477500D01*
X88967224Y-69522500D02*
X88457776Y-69522500D01*
%TO.C,C12*%
X81190000Y-73558767D02*
X81190000Y-73266233D01*
X82210000Y-73558767D02*
X82210000Y-73266233D01*
%TO.C,R12*%
X113445276Y-58702500D02*
X113954724Y-58702500D01*
X113445276Y-59747500D02*
X113954724Y-59747500D01*
%TO.C,R20*%
X119282776Y-74527500D02*
X119792224Y-74527500D01*
X119282776Y-75572500D02*
X119792224Y-75572500D01*
%TO.C,R11*%
X104907776Y-60352500D02*
X105417224Y-60352500D01*
X104907776Y-61397500D02*
X105417224Y-61397500D01*
%TO.C,U1*%
X90927500Y-72365000D02*
X92747500Y-72365000D01*
X90927500Y-72415000D02*
X90927500Y-72365000D01*
X90927500Y-75485000D02*
X90927500Y-75435000D01*
X92747500Y-72365000D02*
X92747500Y-72415000D01*
X92747500Y-75435000D02*
X92747500Y-75485000D01*
X92747500Y-75485000D02*
X90927500Y-75485000D01*
X93527500Y-75765000D02*
X93047500Y-75765000D01*
X93287500Y-75435000D01*
X93527500Y-75765000D01*
G36*
X93527500Y-75765000D02*
G01*
X93047500Y-75765000D01*
X93287500Y-75435000D01*
X93527500Y-75765000D01*
G37*
%TO.C,C13*%
X96458767Y-60140000D02*
X96166233Y-60140000D01*
X96458767Y-61160000D02*
X96166233Y-61160000D01*
%TO.C,C2*%
X85316233Y-61865000D02*
X85608767Y-61865000D01*
X85316233Y-62885000D02*
X85608767Y-62885000D01*
%TO.C,U5*%
X113740000Y-52657500D02*
X117860000Y-52657500D01*
X113740000Y-52752500D02*
X113740000Y-52657500D01*
X113740000Y-57777500D02*
X113740000Y-57682500D01*
X117860000Y-52657500D02*
X117860000Y-52752500D01*
X117860000Y-57682500D02*
X117860000Y-57777500D01*
X117860000Y-57777500D02*
X113740000Y-57777500D01*
X118640000Y-58017500D02*
X118160000Y-58017500D01*
X118400000Y-57687500D01*
X118640000Y-58017500D01*
G36*
X118640000Y-58017500D02*
G01*
X118160000Y-58017500D01*
X118400000Y-57687500D01*
X118640000Y-58017500D01*
G37*
%TO.C,C8*%
X109733767Y-61165000D02*
X109441233Y-61165000D01*
X109733767Y-62185000D02*
X109441233Y-62185000D01*
%TO.C,C10*%
X116990000Y-61016233D02*
X116990000Y-61308767D01*
X118010000Y-61016233D02*
X118010000Y-61308767D01*
%TO.C,D2*%
X84810000Y-52925000D02*
X80800000Y-52925000D01*
X84810000Y-54925000D02*
X80800000Y-54925000D01*
X84810000Y-54925000D02*
X84810000Y-52925000D01*
%TO.C,C9*%
X105066233Y-62415000D02*
X105358767Y-62415000D01*
X105066233Y-63435000D02*
X105358767Y-63435000D01*
%TO.C,J4*%
X76495000Y-53020000D02*
X77875000Y-53020000D01*
X76495000Y-54400000D02*
X76495000Y-53020000D01*
X76495000Y-55670000D02*
X76495000Y-65940000D01*
X76495000Y-55670000D02*
X79255000Y-55670000D01*
X76495000Y-65940000D02*
X79255000Y-65940000D01*
X79255000Y-55670000D02*
X79255000Y-65940000D01*
%TO.C,R8*%
X100302500Y-66682776D02*
X100302500Y-67192224D01*
X101347500Y-66682776D02*
X101347500Y-67192224D01*
%TO.C,R3*%
X109327500Y-54617224D02*
X109327500Y-54107776D01*
X110372500Y-54617224D02*
X110372500Y-54107776D01*
%TO.C,C7*%
X110466233Y-51340000D02*
X110758767Y-51340000D01*
X110466233Y-52360000D02*
X110758767Y-52360000D01*
%TO.C,J1*%
X84045000Y-79855000D02*
X84045000Y-78475000D01*
X85425000Y-79855000D02*
X84045000Y-79855000D01*
X86695000Y-77095000D02*
X94425000Y-77095000D01*
X86695000Y-79855000D02*
X86695000Y-77095000D01*
X86695000Y-79855000D02*
X94425000Y-79855000D01*
X94425000Y-79855000D02*
X94425000Y-77095000D01*
%TO.C,RZ1*%
X121425000Y-53370000D02*
X121425000Y-71370000D01*
X121425000Y-71370000D02*
X144925000Y-71370000D01*
X144925000Y-53370000D02*
X121425000Y-53370000D01*
X144925000Y-71370000D02*
X144925000Y-53370000D01*
%TO.C,U2*%
X84927500Y-72365000D02*
X86747500Y-72365000D01*
X84927500Y-72415000D02*
X84927500Y-72365000D01*
X84927500Y-75485000D02*
X84927500Y-75435000D01*
X86747500Y-72365000D02*
X86747500Y-72415000D01*
X86747500Y-75435000D02*
X86747500Y-75485000D01*
X86747500Y-75485000D02*
X84927500Y-75485000D01*
X87527500Y-75765000D02*
X87047500Y-75765000D01*
X87287500Y-75435000D01*
X87527500Y-75765000D01*
G36*
X87527500Y-75765000D02*
G01*
X87047500Y-75765000D01*
X87287500Y-75435000D01*
X87527500Y-75765000D01*
G37*
%TO.C,U3*%
X88375000Y-51302500D02*
X92135000Y-51302500D01*
X88375000Y-58122500D02*
X92135000Y-58122500D01*
X92135000Y-51302500D02*
X92135000Y-52562500D01*
X92135000Y-58122500D02*
X92135000Y-56862500D01*
X87095000Y-51402500D02*
X86855000Y-51072500D01*
X87335000Y-51072500D01*
X87095000Y-51402500D01*
G36*
X87095000Y-51402500D02*
G01*
X86855000Y-51072500D01*
X87335000Y-51072500D01*
X87095000Y-51402500D01*
G37*
%TO.C,R5*%
X100132776Y-60602500D02*
X100642224Y-60602500D01*
X100132776Y-61647500D02*
X100642224Y-61647500D01*
%TO.C,C1*%
X81966233Y-60415000D02*
X82258767Y-60415000D01*
X81966233Y-61435000D02*
X82258767Y-61435000D01*
%TO.C,R7*%
X88942224Y-66377500D02*
X88432776Y-66377500D01*
X88942224Y-67422500D02*
X88432776Y-67422500D01*
%TO.C,R17*%
X103682776Y-69377500D02*
X104192224Y-69377500D01*
X103682776Y-70422500D02*
X104192224Y-70422500D01*
%TO.C,C14*%
X105083767Y-66265000D02*
X104791233Y-66265000D01*
X105083767Y-67285000D02*
X104791233Y-67285000D01*
%TO.C,C17*%
X103766233Y-71565000D02*
X104058767Y-71565000D01*
X103766233Y-72585000D02*
X104058767Y-72585000D01*
%TO.C,J3*%
X126320000Y-79855000D02*
X126320000Y-78475000D01*
X127700000Y-79855000D02*
X126320000Y-79855000D01*
X128970000Y-77095000D02*
X136700000Y-77095000D01*
X128970000Y-79855000D02*
X128970000Y-77095000D01*
X128970000Y-79855000D02*
X136700000Y-79855000D01*
X136700000Y-79855000D02*
X136700000Y-77095000D01*
%TO.C,D1*%
X80365000Y-63825000D02*
X80365000Y-65825000D01*
X80365000Y-63825000D02*
X84375000Y-63825000D01*
X80365000Y-65825000D02*
X84375000Y-65825000D01*
%TO.C,C4*%
X82678733Y-69890000D02*
X82971267Y-69890000D01*
X82678733Y-70910000D02*
X82971267Y-70910000D01*
%TO.C,R6*%
X89217224Y-63902500D02*
X88707776Y-63902500D01*
X89217224Y-64947500D02*
X88707776Y-64947500D01*
%TD*%
%LPC*%
D13*
%TO.C,U7*%
X92800000Y-63340000D03*
X92800000Y-64610000D03*
X92800000Y-65880000D03*
X92800000Y-67150000D03*
X97750000Y-67150000D03*
X97750000Y-65880000D03*
X97750000Y-64610000D03*
X97750000Y-63340000D03*
%TD*%
D14*
%TO.C,R2*%
X82150000Y-67500000D03*
X83975000Y-67500000D03*
%TD*%
%TO.C,R14*%
X118525000Y-72600000D03*
X120350000Y-72600000D03*
%TD*%
D15*
%TO.C,J2*%
X99750000Y-78475000D03*
D16*
X102290000Y-78475000D03*
X104830000Y-78475000D03*
X107370000Y-78475000D03*
%TD*%
D17*
%TO.C,C6*%
X105825000Y-53000000D03*
X105825000Y-57400000D03*
%TD*%
D18*
%TO.C,U6*%
X113100000Y-72195000D03*
X113100000Y-70925000D03*
X113100000Y-69655000D03*
X113100000Y-68385000D03*
X113100000Y-67115000D03*
X113100000Y-65845000D03*
X113100000Y-64575000D03*
X108150000Y-64575000D03*
X108150000Y-65845000D03*
X108150000Y-67115000D03*
X108150000Y-68385000D03*
X108150000Y-69655000D03*
X108150000Y-70925000D03*
X108150000Y-72195000D03*
%TD*%
D19*
%TO.C,R19*%
X108475000Y-74275000D03*
X106650000Y-74275000D03*
%TD*%
D20*
%TO.C,C15*%
X116300000Y-66725000D03*
X118025000Y-66725000D03*
%TD*%
D19*
%TO.C,R16*%
X118125000Y-70600000D03*
X116300000Y-70600000D03*
%TD*%
%TO.C,R21*%
X115900000Y-75900000D03*
X114075000Y-75900000D03*
%TD*%
D14*
%TO.C,R13*%
X112912500Y-61625000D03*
X114737500Y-61625000D03*
%TD*%
D21*
%TO.C,C16*%
X122400000Y-75075000D03*
X122400000Y-73350000D03*
%TD*%
D22*
%TO.C,C11*%
X118050000Y-64475000D03*
X116325000Y-64475000D03*
%TD*%
D14*
%TO.C,R18*%
X114150000Y-74050000D03*
X115975000Y-74050000D03*
%TD*%
D23*
%TO.C,R1*%
X80925000Y-56725000D03*
X84025000Y-56725000D03*
%TD*%
D14*
%TO.C,R4*%
X88100000Y-61525000D03*
X89925000Y-61525000D03*
%TD*%
D17*
%TO.C,C3*%
X98650000Y-53125000D03*
X98650000Y-57525000D03*
%TD*%
D14*
%TO.C,R15*%
X102975000Y-74300000D03*
X104800000Y-74300000D03*
%TD*%
D24*
%TO.C,RV1*%
X77475000Y-77825000D03*
D25*
X78475000Y-74575000D03*
D24*
X79475000Y-77825000D03*
%TD*%
D26*
%TO.C,U4*%
X79375000Y-70575000D03*
X79375000Y-68675000D03*
X77500000Y-69625000D03*
%TD*%
D19*
%TO.C,R10*%
X110875000Y-59275000D03*
X109050000Y-59275000D03*
%TD*%
%TO.C,R9*%
X89625000Y-69000000D03*
X87800000Y-69000000D03*
%TD*%
D21*
%TO.C,C12*%
X81700000Y-74275000D03*
X81700000Y-72550000D03*
%TD*%
D14*
%TO.C,R12*%
X112787500Y-59225000D03*
X114612500Y-59225000D03*
%TD*%
%TO.C,R20*%
X118625000Y-75050000D03*
X120450000Y-75050000D03*
%TD*%
%TO.C,R11*%
X104250000Y-60875000D03*
X106075000Y-60875000D03*
%TD*%
D27*
%TO.C,U1*%
X92975000Y-74875000D03*
X92975000Y-73925000D03*
X92975000Y-72975000D03*
X90700000Y-72975000D03*
X90700000Y-73925000D03*
X90700000Y-74875000D03*
%TD*%
D22*
%TO.C,C13*%
X97175000Y-60650000D03*
X95450000Y-60650000D03*
%TD*%
D20*
%TO.C,C2*%
X84600000Y-62375000D03*
X86325000Y-62375000D03*
%TD*%
D18*
%TO.C,U5*%
X118275000Y-57122500D03*
X118275000Y-55852500D03*
X118275000Y-54582500D03*
X118275000Y-53312500D03*
X113325000Y-53312500D03*
X113325000Y-54582500D03*
X113325000Y-55852500D03*
X113325000Y-57122500D03*
%TD*%
D22*
%TO.C,C8*%
X110450000Y-61675000D03*
X108725000Y-61675000D03*
%TD*%
D28*
%TO.C,C10*%
X117500000Y-60300000D03*
X117500000Y-62025000D03*
%TD*%
D29*
%TO.C,D2*%
X84100000Y-53925000D03*
X80800000Y-53925000D03*
%TD*%
D20*
%TO.C,C9*%
X104350000Y-62925000D03*
X106075000Y-62925000D03*
%TD*%
D15*
%TO.C,J4*%
X77875000Y-54400000D03*
D16*
X77875000Y-56940000D03*
X77875000Y-59480000D03*
X77875000Y-62020000D03*
X77875000Y-64560000D03*
%TD*%
D30*
%TO.C,R8*%
X100825000Y-66025000D03*
X100825000Y-67850000D03*
%TD*%
D31*
%TO.C,R3*%
X109850000Y-55275000D03*
X109850000Y-53450000D03*
%TD*%
D20*
%TO.C,C7*%
X109750000Y-51850000D03*
X111475000Y-51850000D03*
%TD*%
D15*
%TO.C,J1*%
X85425000Y-78475000D03*
D16*
X87965000Y-78475000D03*
X90505000Y-78475000D03*
X93045000Y-78475000D03*
%TD*%
D32*
%TO.C,RZ1*%
X143335000Y-70590000D03*
X140795000Y-70590000D03*
X138255000Y-70590000D03*
X135715000Y-70590000D03*
X133175000Y-70590000D03*
D33*
X130635000Y-70590000D03*
X128095000Y-70590000D03*
X125555000Y-70590000D03*
X123015000Y-70590000D03*
D34*
X122205000Y-67450000D03*
D35*
X122205000Y-64910000D03*
X122205000Y-62370000D03*
X122205000Y-59830000D03*
X122205000Y-57290000D03*
D33*
X123015000Y-54150000D03*
X125555000Y-54150000D03*
X128095000Y-54150000D03*
X130635000Y-54150000D03*
X133175000Y-54150000D03*
X135715000Y-54150000D03*
X138255000Y-54150000D03*
X140795000Y-54150000D03*
X143335000Y-54110000D03*
%TD*%
D27*
%TO.C,U2*%
X86975000Y-74875000D03*
X86975000Y-73925000D03*
X86975000Y-72975000D03*
X84700000Y-72975000D03*
X84700000Y-73925000D03*
X84700000Y-74875000D03*
%TD*%
D36*
%TO.C,U3*%
X87075000Y-52412500D03*
X87075000Y-54712500D03*
D37*
X93375000Y-54712500D03*
D36*
X87075000Y-57012500D03*
%TD*%
D14*
%TO.C,R5*%
X99475000Y-61125000D03*
X101300000Y-61125000D03*
%TD*%
D20*
%TO.C,C1*%
X81250000Y-60925000D03*
X82975000Y-60925000D03*
%TD*%
D19*
%TO.C,R7*%
X89600000Y-66900000D03*
X87775000Y-66900000D03*
%TD*%
D14*
%TO.C,R17*%
X103025000Y-69900000D03*
X104850000Y-69900000D03*
%TD*%
D22*
%TO.C,C14*%
X105800000Y-66775000D03*
X104075000Y-66775000D03*
%TD*%
D20*
%TO.C,C17*%
X103050000Y-72075000D03*
X104775000Y-72075000D03*
%TD*%
D15*
%TO.C,J3*%
X127700000Y-78475000D03*
D16*
X130240000Y-78475000D03*
X132780000Y-78475000D03*
X135320000Y-78475000D03*
%TD*%
D38*
%TO.C,D1*%
X81075000Y-64825000D03*
X84375000Y-64825000D03*
%TD*%
D20*
%TO.C,C4*%
X81962500Y-70400000D03*
X83687500Y-70400000D03*
%TD*%
D19*
%TO.C,R6*%
X89875000Y-64425000D03*
X88050000Y-64425000D03*
%TD*%
%LPD*%
M02*
