%TF.GenerationSoftware,KiCad,Pcbnew,9.0.6*%
%TF.CreationDate,2025-12-01T20:52:56-05:00*%
%TF.ProjectId,Pico 2HP,5069636f-2032-4485-902e-6b696361645f,rev?*%
%TF.SameCoordinates,Original*%
%TF.FileFunction,Drillmap*%
%TF.FilePolarity,Positive*%
%FSLAX45Y45*%
G04 Gerber Fmt 4.5, Leading zero omitted, Abs format (unit mm)*
G04 Created by KiCad (PCBNEW 9.0.6) date 2025-12-01 20:52:56*
%MOMM*%
%LPD*%
G01*
G04 APERTURE LIST*
%ADD10C,0.050000*%
%ADD11C,0.200000*%
G04 APERTURE END LIST*
D10*
X7502500Y-5027500D02*
X14500000Y-5027500D01*
X14500000Y-8052500D01*
X7502500Y-8052500D01*
X7502500Y-5027500D01*
D11*
X7760777Y-8366484D02*
X7760777Y-8166484D01*
X7760777Y-8166484D02*
X7808396Y-8166484D01*
X7808396Y-8166484D02*
X7836967Y-8176008D01*
X7836967Y-8176008D02*
X7856015Y-8195055D01*
X7856015Y-8195055D02*
X7865539Y-8214103D01*
X7865539Y-8214103D02*
X7875062Y-8252198D01*
X7875062Y-8252198D02*
X7875062Y-8280769D01*
X7875062Y-8280769D02*
X7865539Y-8318865D01*
X7865539Y-8318865D02*
X7856015Y-8337912D01*
X7856015Y-8337912D02*
X7836967Y-8356960D01*
X7836967Y-8356960D02*
X7808396Y-8366484D01*
X7808396Y-8366484D02*
X7760777Y-8366484D01*
X7960777Y-8366484D02*
X7960777Y-8233150D01*
X7960777Y-8271246D02*
X7970301Y-8252198D01*
X7970301Y-8252198D02*
X7979824Y-8242674D01*
X7979824Y-8242674D02*
X7998872Y-8233150D01*
X7998872Y-8233150D02*
X8017920Y-8233150D01*
X8084586Y-8366484D02*
X8084586Y-8233150D01*
X8084586Y-8166484D02*
X8075062Y-8176008D01*
X8075062Y-8176008D02*
X8084586Y-8185531D01*
X8084586Y-8185531D02*
X8094110Y-8176008D01*
X8094110Y-8176008D02*
X8084586Y-8166484D01*
X8084586Y-8166484D02*
X8084586Y-8185531D01*
X8208396Y-8366484D02*
X8189348Y-8356960D01*
X8189348Y-8356960D02*
X8179824Y-8337912D01*
X8179824Y-8337912D02*
X8179824Y-8166484D01*
X8313158Y-8366484D02*
X8294110Y-8356960D01*
X8294110Y-8356960D02*
X8284586Y-8337912D01*
X8284586Y-8337912D02*
X8284586Y-8166484D01*
X8541729Y-8366484D02*
X8541729Y-8166484D01*
X8541729Y-8166484D02*
X8608396Y-8309341D01*
X8608396Y-8309341D02*
X8675063Y-8166484D01*
X8675063Y-8166484D02*
X8675063Y-8366484D01*
X8856015Y-8366484D02*
X8856015Y-8261722D01*
X8856015Y-8261722D02*
X8846491Y-8242674D01*
X8846491Y-8242674D02*
X8827444Y-8233150D01*
X8827444Y-8233150D02*
X8789348Y-8233150D01*
X8789348Y-8233150D02*
X8770301Y-8242674D01*
X8856015Y-8356960D02*
X8836967Y-8366484D01*
X8836967Y-8366484D02*
X8789348Y-8366484D01*
X8789348Y-8366484D02*
X8770301Y-8356960D01*
X8770301Y-8356960D02*
X8760777Y-8337912D01*
X8760777Y-8337912D02*
X8760777Y-8318865D01*
X8760777Y-8318865D02*
X8770301Y-8299817D01*
X8770301Y-8299817D02*
X8789348Y-8290293D01*
X8789348Y-8290293D02*
X8836967Y-8290293D01*
X8836967Y-8290293D02*
X8856015Y-8280769D01*
X8951253Y-8233150D02*
X8951253Y-8433150D01*
X8951253Y-8242674D02*
X8970301Y-8233150D01*
X8970301Y-8233150D02*
X9008396Y-8233150D01*
X9008396Y-8233150D02*
X9027444Y-8242674D01*
X9027444Y-8242674D02*
X9036967Y-8252198D01*
X9036967Y-8252198D02*
X9046491Y-8271246D01*
X9046491Y-8271246D02*
X9046491Y-8328388D01*
X9046491Y-8328388D02*
X9036967Y-8347436D01*
X9036967Y-8347436D02*
X9027444Y-8356960D01*
X9027444Y-8356960D02*
X9008396Y-8366484D01*
X9008396Y-8366484D02*
X8970301Y-8366484D01*
X8970301Y-8366484D02*
X8951253Y-8356960D01*
X9132205Y-8347436D02*
X9141729Y-8356960D01*
X9141729Y-8356960D02*
X9132205Y-8366484D01*
X9132205Y-8366484D02*
X9122682Y-8356960D01*
X9122682Y-8356960D02*
X9132205Y-8347436D01*
X9132205Y-8347436D02*
X9132205Y-8366484D01*
X9132205Y-8242674D02*
X9141729Y-8252198D01*
X9141729Y-8252198D02*
X9132205Y-8261722D01*
X9132205Y-8261722D02*
X9122682Y-8252198D01*
X9122682Y-8252198D02*
X9132205Y-8242674D01*
X9132205Y-8242674D02*
X9132205Y-8261722D01*
M02*
