%TF.GenerationSoftware,KiCad,Pcbnew,9.0.6*%
%TF.CreationDate,2025-12-01T21:19:51-05:00*%
%TF.ProjectId,Pico 2HP Controls,5069636f-2032-4485-9020-436f6e74726f,rev?*%
%TF.SameCoordinates,Original*%
%TF.FileFunction,Soldermask,Top*%
%TF.FilePolarity,Negative*%
%FSLAX46Y46*%
G04 Gerber Fmt 4.6, Leading zero omitted, Abs format (unit mm)*
G04 Created by KiCad (PCBNEW 9.0.6) date 2025-12-01 21:19:51*
%MOMM*%
%LPD*%
G01*
G04 APERTURE LIST*
G04 Aperture macros list*
%AMRoundRect*
0 Rectangle with rounded corners*
0 $1 Rounding radius*
0 $2 $3 $4 $5 $6 $7 $8 $9 X,Y pos of 4 corners*
0 Add a 4 corners polygon primitive as box body*
4,1,4,$2,$3,$4,$5,$6,$7,$8,$9,$2,$3,0*
0 Add four circle primitives for the rounded corners*
1,1,$1+$1,$2,$3*
1,1,$1+$1,$4,$5*
1,1,$1+$1,$6,$7*
1,1,$1+$1,$8,$9*
0 Add four rect primitives between the rounded corners*
20,1,$1+$1,$2,$3,$4,$5,0*
20,1,$1+$1,$4,$5,$6,$7,0*
20,1,$1+$1,$6,$7,$8,$9,0*
20,1,$1+$1,$8,$9,$2,$3,0*%
G04 Aperture macros list end*
%ADD10C,0.100000*%
%ADD11R,1.700000X1.700000*%
%ADD12C,1.700000*%
%ADD13RoundRect,0.120000X-0.780000X-0.480000X0.780000X-0.480000X0.780000X0.480000X-0.780000X0.480000X0*%
%ADD14R,1.930000X1.830000*%
%ADD15C,2.130000*%
%ADD16R,1.800000X1.800000*%
%ADD17C,1.800000*%
%ADD18RoundRect,0.237500X0.300000X0.237500X-0.300000X0.237500X-0.300000X-0.237500X0.300000X-0.237500X0*%
%ADD19C,2.000000*%
G04 APERTURE END LIST*
%TO.C,RV4*%
D10*
X126060000Y-117165000D02*
X124720000Y-117165000D01*
X124720000Y-122365000D01*
X126060000Y-122365000D01*
X126060000Y-117165000D01*
G36*
X126060000Y-117165000D02*
G01*
X124720000Y-117165000D01*
X124720000Y-122365000D01*
X126060000Y-122365000D01*
X126060000Y-117165000D01*
G37*
X133260000Y-117135000D02*
X131870000Y-117135000D01*
X131870000Y-122405000D01*
X133260000Y-122405000D01*
X133260000Y-117135000D01*
G36*
X133260000Y-117135000D02*
G01*
X131870000Y-117135000D01*
X131870000Y-122405000D01*
X133260000Y-122405000D01*
X133260000Y-117135000D01*
G37*
%TO.C,RV2*%
X126060000Y-89165000D02*
X124720000Y-89165000D01*
X124720000Y-94365000D01*
X126060000Y-94365000D01*
X126060000Y-89165000D01*
G36*
X126060000Y-89165000D02*
G01*
X124720000Y-89165000D01*
X124720000Y-94365000D01*
X126060000Y-94365000D01*
X126060000Y-89165000D01*
G37*
X133260000Y-89135000D02*
X131870000Y-89135000D01*
X131870000Y-94405000D01*
X133260000Y-94405000D01*
X133260000Y-89135000D01*
G36*
X133260000Y-89135000D02*
G01*
X131870000Y-89135000D01*
X131870000Y-94405000D01*
X133260000Y-94405000D01*
X133260000Y-89135000D01*
G37*
%TO.C,RV3*%
X126060000Y-103165000D02*
X124720000Y-103165000D01*
X124720000Y-108365000D01*
X126060000Y-108365000D01*
X126060000Y-103165000D01*
G36*
X126060000Y-103165000D02*
G01*
X124720000Y-103165000D01*
X124720000Y-108365000D01*
X126060000Y-108365000D01*
X126060000Y-103165000D01*
G37*
X133260000Y-103135000D02*
X131870000Y-103135000D01*
X131870000Y-108405000D01*
X133260000Y-108405000D01*
X133260000Y-103135000D01*
G36*
X133260000Y-103135000D02*
G01*
X131870000Y-103135000D01*
X131870000Y-108405000D01*
X133260000Y-108405000D01*
X133260000Y-103135000D01*
G37*
%TO.C,RV1*%
X126060000Y-74890000D02*
X124720000Y-74890000D01*
X124720000Y-80090000D01*
X126060000Y-80090000D01*
X126060000Y-74890000D01*
G36*
X126060000Y-74890000D02*
G01*
X124720000Y-74890000D01*
X124720000Y-80090000D01*
X126060000Y-80090000D01*
X126060000Y-74890000D01*
G37*
X133260000Y-74860000D02*
X131870000Y-74860000D01*
X131870000Y-80130000D01*
X133260000Y-80130000D01*
X133260000Y-74860000D01*
G36*
X133260000Y-74860000D02*
G01*
X131870000Y-74860000D01*
X131870000Y-80130000D01*
X133260000Y-80130000D01*
X133260000Y-74860000D01*
G37*
%TD*%
D11*
%TO.C,J3*%
X130200000Y-115150000D03*
D12*
X130200000Y-117690000D03*
X130200000Y-120230000D03*
X130200000Y-122770000D03*
%TD*%
D13*
%TO.C,D1*%
X126440000Y-56880000D03*
X126430000Y-59080000D03*
X131620000Y-59090000D03*
X131620000Y-56870000D03*
%TD*%
D14*
%TO.C,J5*%
X129000000Y-138780000D03*
D15*
X129000000Y-127380000D03*
X129000000Y-135680000D03*
%TD*%
D11*
%TO.C,J1*%
X130175000Y-72875000D03*
D12*
X130175000Y-75415000D03*
X130175000Y-77955000D03*
X130175000Y-80495000D03*
%TD*%
D14*
%TO.C,J4*%
X129000000Y-54400000D03*
D15*
X129000000Y-43000000D03*
X129000000Y-51300000D03*
%TD*%
D16*
%TO.C,RV4*%
X131500000Y-112275000D03*
D17*
X129000000Y-112275000D03*
X126500000Y-112275000D03*
%TD*%
D11*
%TO.C,J2*%
X130175000Y-87200000D03*
D12*
X130175000Y-89740000D03*
X130175000Y-92280000D03*
X130175000Y-94820000D03*
%TD*%
D16*
%TO.C,RV2*%
X131500000Y-84275000D03*
D17*
X129000000Y-84275000D03*
X126500000Y-84275000D03*
%TD*%
D16*
%TO.C,RV3*%
X131500000Y-98275000D03*
D17*
X129000000Y-98275000D03*
X126500000Y-98275000D03*
%TD*%
D18*
%TO.C,C1*%
X126862500Y-54000000D03*
X125137500Y-54000000D03*
%TD*%
D16*
%TO.C,RV1*%
X131500000Y-70000000D03*
D17*
X129000000Y-70000000D03*
X126500000Y-70000000D03*
%TD*%
D14*
%TO.C,J6*%
X129000000Y-138720000D03*
D15*
X129000000Y-150120000D03*
X129000000Y-141820000D03*
%TD*%
D19*
%TO.C,SW1*%
X132250000Y-66250000D03*
X125750000Y-66250000D03*
X132250000Y-61750000D03*
X125750000Y-61750000D03*
%TD*%
M02*
