M48
; DRILL file {KiCad 9.0.6} date 2025-12-01T21:19:55-0500
; FORMAT={-:-/ absolute / metric / decimal}
; #@! TF.CreationDate,2025-12-01T21:19:55-05:00
; #@! TF.GenerationSoftware,Kicad,Pcbnew,9.0.6
; #@! TF.FileFunction,Plated,1,2,PTH
FMAT,2
METRIC
; #@! TA.AperFunction,Plated,PTH,ViaDrill
T1C0.300
; #@! TA.AperFunction,Plated,PTH,ComponentDrill
T2C1.000
; #@! TA.AperFunction,Plated,PTH,ComponentDrill
T3C1.100
; #@! TA.AperFunction,Plated,PTH,ComponentDrill
T4C1.220
; #@! TA.AperFunction,Plated,PTH,ComponentDrill
T5C1.420
; #@! TA.AperFunction,Plated,PTH,ComponentDrill
T6C1.430
%
G90
G05
T1
X126.9Y-119.475
X128.3Y-71.7
X129.36Y-60.77
T2
X126.5Y-70.0
X126.5Y-84.275
X126.5Y-98.275
X126.5Y-112.275
X129.0Y-70.0
X129.0Y-84.275
X129.0Y-98.275
X129.0Y-112.275
X130.175Y-72.875
X130.175Y-75.415
X130.175Y-77.955
X130.175Y-80.495
X130.175Y-87.2
X130.175Y-89.74
X130.175Y-92.28
X130.175Y-94.82
X130.2Y-115.15
X130.2Y-117.69
X130.2Y-120.23
X130.2Y-122.77
X131.5Y-70.0
X131.5Y-84.275
X131.5Y-98.275
X131.5Y-112.275
T3
X125.75Y-61.75
X125.75Y-66.25
X132.25Y-61.75
X132.25Y-66.25
T4
X129.0Y-54.4
X129.0Y-138.72
X129.0Y-138.78
T5
X129.0Y-51.3
X129.0Y-135.68
X129.0Y-141.82
T6
X129.0Y-43.0
X129.0Y-127.38
X129.0Y-150.12
M30
