%TF.GenerationSoftware,KiCad,Pcbnew,9.0.6*%
%TF.CreationDate,2025-12-01T21:19:55-05:00*%
%TF.ProjectId,Pico 2HP Controls,5069636f-2032-4485-9020-436f6e74726f,rev?*%
%TF.SameCoordinates,Original*%
%TF.FileFunction,Drillmap*%
%TF.FilePolarity,Positive*%
%FSLAX45Y45*%
G04 Gerber Fmt 4.5, Leading zero omitted, Abs format (unit mm)*
G04 Created by KiCad (PCBNEW 9.0.6) date 2025-12-01 21:19:55*
%MOMM*%
%LPD*%
G01*
G04 APERTURE LIST*
%ADD10C,0.050000*%
%ADD11C,0.200000*%
%ADD12C,0.100000*%
%ADD13C,0.110000*%
%ADD14C,0.122000*%
%ADD15C,0.142000*%
%ADD16C,0.143000*%
G04 APERTURE END LIST*
D10*
X13400000Y-9000000D02*
X13350000Y-9000000D01*
X13350000Y-10400000D02*
X13400000Y-10400000D01*
X12400000Y-15150000D02*
X12400000Y-12150000D01*
X13350000Y-7950000D02*
X13400000Y-7950000D01*
X12400000Y-12150000D02*
X12450000Y-12150000D01*
X13400000Y-15150000D02*
X12400000Y-15150000D01*
X12400000Y-4100000D02*
X13400000Y-4100000D01*
X12450000Y-12150000D02*
X12450000Y-11800000D01*
X12400000Y-10750000D02*
X12450000Y-10750000D01*
X12450000Y-9350000D02*
X12450000Y-9000000D01*
X12450000Y-7950000D02*
X12450000Y-7600000D01*
X13350000Y-10400000D02*
X13350000Y-10750000D01*
X13400000Y-4100000D02*
X13400000Y-7600000D01*
X12400000Y-9000000D02*
X12400000Y-7950000D01*
X12450000Y-10400000D02*
X12400000Y-10400000D01*
X13350000Y-9000000D02*
X13350000Y-9350000D01*
X13400000Y-10750000D02*
X13400000Y-11800000D01*
X13400000Y-7950000D02*
X13400000Y-8900000D01*
X12733000Y-5646000D02*
X13068000Y-5646000D01*
X13068000Y-5956000D01*
X12733000Y-5956000D01*
X12733000Y-5646000D01*
X13350000Y-7600000D02*
X13350000Y-7950000D01*
X13350000Y-10750000D02*
X13400000Y-10750000D01*
X12400000Y-10400000D02*
X12400000Y-9350000D01*
X13350000Y-9350000D02*
X13400000Y-9350000D01*
X12400000Y-11800000D02*
X12400000Y-10750000D01*
X13400000Y-12150000D02*
X13400000Y-15150000D01*
X12400000Y-7950000D02*
X12450000Y-7950000D01*
X13350000Y-11800000D02*
X13350000Y-12150000D01*
X13400000Y-9350000D02*
X13400000Y-10400000D01*
X13350000Y-12150000D02*
X13400000Y-12150000D01*
X12450000Y-10750000D02*
X12450000Y-10400000D01*
X12450000Y-9000000D02*
X12400000Y-9000000D01*
X12400000Y-7600000D02*
X12400000Y-4100000D01*
X12400000Y-9350000D02*
X12450000Y-9350000D01*
X12450000Y-7600000D02*
X12400000Y-7600000D01*
X13400000Y-11800000D02*
X13350000Y-11800000D01*
X13400000Y-8900000D02*
X13400000Y-9000000D01*
X13400000Y-7600000D02*
X13350000Y-7600000D01*
X12450000Y-11800000D02*
X12400000Y-11800000D01*
D11*
D12*
X12675000Y-11932500D02*
X12705000Y-11962500D01*
X12705000Y-11932500D02*
X12675000Y-11962500D01*
X12815000Y-7155000D02*
X12845000Y-7185000D01*
X12845000Y-7155000D02*
X12815000Y-7185000D01*
X12921000Y-6062000D02*
X12951000Y-6092000D01*
X12951000Y-6062000D02*
X12921000Y-6092000D01*
X12700000Y-7000000D02*
G75*
G02*
X12600000Y-7000000I-50000J0D01*
G01*
X12600000Y-7000000D02*
G75*
G02*
X12700000Y-7000000I50000J0D01*
G01*
X12700000Y-8427500D02*
G75*
G02*
X12600000Y-8427500I-50000J0D01*
G01*
X12600000Y-8427500D02*
G75*
G02*
X12700000Y-8427500I50000J0D01*
G01*
X12700000Y-9827500D02*
G75*
G02*
X12600000Y-9827500I-50000J0D01*
G01*
X12600000Y-9827500D02*
G75*
G02*
X12700000Y-9827500I50000J0D01*
G01*
X12700000Y-11227500D02*
G75*
G02*
X12600000Y-11227500I-50000J0D01*
G01*
X12600000Y-11227500D02*
G75*
G02*
X12700000Y-11227500I50000J0D01*
G01*
X12950000Y-7000000D02*
G75*
G02*
X12850000Y-7000000I-50000J0D01*
G01*
X12850000Y-7000000D02*
G75*
G02*
X12950000Y-7000000I50000J0D01*
G01*
X12950000Y-8427500D02*
G75*
G02*
X12850000Y-8427500I-50000J0D01*
G01*
X12850000Y-8427500D02*
G75*
G02*
X12950000Y-8427500I50000J0D01*
G01*
X12950000Y-9827500D02*
G75*
G02*
X12850000Y-9827500I-50000J0D01*
G01*
X12850000Y-9827500D02*
G75*
G02*
X12950000Y-9827500I50000J0D01*
G01*
X12950000Y-11227500D02*
G75*
G02*
X12850000Y-11227500I-50000J0D01*
G01*
X12850000Y-11227500D02*
G75*
G02*
X12950000Y-11227500I50000J0D01*
G01*
X13067500Y-7287500D02*
G75*
G02*
X12967500Y-7287500I-50000J0D01*
G01*
X12967500Y-7287500D02*
G75*
G02*
X13067500Y-7287500I50000J0D01*
G01*
X13067500Y-7541500D02*
G75*
G02*
X12967500Y-7541500I-50000J0D01*
G01*
X12967500Y-7541500D02*
G75*
G02*
X13067500Y-7541500I50000J0D01*
G01*
X13067500Y-7795500D02*
G75*
G02*
X12967500Y-7795500I-50000J0D01*
G01*
X12967500Y-7795500D02*
G75*
G02*
X13067500Y-7795500I50000J0D01*
G01*
X13067500Y-8049500D02*
G75*
G02*
X12967500Y-8049500I-50000J0D01*
G01*
X12967500Y-8049500D02*
G75*
G02*
X13067500Y-8049500I50000J0D01*
G01*
X13067500Y-8720000D02*
G75*
G02*
X12967500Y-8720000I-50000J0D01*
G01*
X12967500Y-8720000D02*
G75*
G02*
X13067500Y-8720000I50000J0D01*
G01*
X13067500Y-8974000D02*
G75*
G02*
X12967500Y-8974000I-50000J0D01*
G01*
X12967500Y-8974000D02*
G75*
G02*
X13067500Y-8974000I50000J0D01*
G01*
X13067500Y-9228000D02*
G75*
G02*
X12967500Y-9228000I-50000J0D01*
G01*
X12967500Y-9228000D02*
G75*
G02*
X13067500Y-9228000I50000J0D01*
G01*
X13067500Y-9482000D02*
G75*
G02*
X12967500Y-9482000I-50000J0D01*
G01*
X12967500Y-9482000D02*
G75*
G02*
X13067500Y-9482000I50000J0D01*
G01*
X13070000Y-11515000D02*
G75*
G02*
X12970000Y-11515000I-50000J0D01*
G01*
X12970000Y-11515000D02*
G75*
G02*
X13070000Y-11515000I50000J0D01*
G01*
X13070000Y-11769000D02*
G75*
G02*
X12970000Y-11769000I-50000J0D01*
G01*
X12970000Y-11769000D02*
G75*
G02*
X13070000Y-11769000I50000J0D01*
G01*
X13070000Y-12023000D02*
G75*
G02*
X12970000Y-12023000I-50000J0D01*
G01*
X12970000Y-12023000D02*
G75*
G02*
X13070000Y-12023000I50000J0D01*
G01*
X13070000Y-12277000D02*
G75*
G02*
X12970000Y-12277000I-50000J0D01*
G01*
X12970000Y-12277000D02*
G75*
G02*
X13070000Y-12277000I50000J0D01*
G01*
X13200000Y-7000000D02*
G75*
G02*
X13100000Y-7000000I-50000J0D01*
G01*
X13100000Y-7000000D02*
G75*
G02*
X13200000Y-7000000I50000J0D01*
G01*
X13200000Y-8427500D02*
G75*
G02*
X13100000Y-8427500I-50000J0D01*
G01*
X13100000Y-8427500D02*
G75*
G02*
X13200000Y-8427500I50000J0D01*
G01*
X13200000Y-9827500D02*
G75*
G02*
X13100000Y-9827500I-50000J0D01*
G01*
X13100000Y-9827500D02*
G75*
G02*
X13200000Y-9827500I50000J0D01*
G01*
X13200000Y-11227500D02*
G75*
G02*
X13100000Y-11227500I-50000J0D01*
G01*
X13100000Y-11227500D02*
G75*
G02*
X13200000Y-11227500I50000J0D01*
G01*
D13*
X12575000Y-6120000D02*
X12575000Y-6230000D01*
X12520000Y-6175000D02*
X12630000Y-6175000D01*
X12575000Y-6570000D02*
X12575000Y-6680000D01*
X12520000Y-6625000D02*
X12630000Y-6625000D01*
X13225000Y-6120000D02*
X13225000Y-6230000D01*
X13170000Y-6175000D02*
X13280000Y-6175000D01*
X13225000Y-6570000D02*
X13225000Y-6680000D01*
X13170000Y-6625000D02*
X13280000Y-6625000D01*
D14*
X12943134Y-5483134D02*
X12943134Y-5396866D01*
X12856866Y-5396866D01*
X12856866Y-5483134D01*
X12943134Y-5483134D01*
X12943134Y-13915134D02*
X12943134Y-13828866D01*
X12856866Y-13828866D01*
X12856866Y-13915134D01*
X12943134Y-13915134D01*
X12943134Y-13921134D02*
X12943134Y-13834866D01*
X12856866Y-13834866D01*
X12856866Y-13921134D01*
X12943134Y-13921134D01*
D15*
X12900000Y-5201000D02*
X12971000Y-5130000D01*
X12900000Y-5059000D01*
X12829000Y-5130000D01*
X12900000Y-5201000D01*
X12900000Y-13639000D02*
X12971000Y-13568000D01*
X12900000Y-13497000D01*
X12829000Y-13568000D01*
X12900000Y-13639000D01*
X12900000Y-14253000D02*
X12971000Y-14182000D01*
X12900000Y-14111000D01*
X12829000Y-14182000D01*
X12900000Y-14253000D01*
D16*
X12828500Y-4228500D02*
X12971500Y-4371500D01*
X12971500Y-4228500D02*
X12828500Y-4371500D01*
X12971500Y-4300000D02*
G75*
G02*
X12828500Y-4300000I-71500J0D01*
G01*
X12828500Y-4300000D02*
G75*
G02*
X12971500Y-4300000I71500J0D01*
G01*
X12828500Y-12666500D02*
X12971500Y-12809500D01*
X12971500Y-12666500D02*
X12828500Y-12809500D01*
X12971500Y-12738000D02*
G75*
G02*
X12828500Y-12738000I-71500J0D01*
G01*
X12828500Y-12738000D02*
G75*
G02*
X12971500Y-12738000I71500J0D01*
G01*
X12828500Y-14940500D02*
X12971500Y-15083500D01*
X12971500Y-14940500D02*
X12828500Y-15083500D01*
X12971500Y-15012000D02*
G75*
G02*
X12828500Y-15012000I-71500J0D01*
G01*
X12828500Y-15012000D02*
G75*
G02*
X12971500Y-15012000I71500J0D01*
G01*
D11*
X12658277Y-15463984D02*
X12658277Y-15263984D01*
X12658277Y-15263984D02*
X12705896Y-15263984D01*
X12705896Y-15263984D02*
X12734467Y-15273508D01*
X12734467Y-15273508D02*
X12753515Y-15292555D01*
X12753515Y-15292555D02*
X12763039Y-15311603D01*
X12763039Y-15311603D02*
X12772562Y-15349698D01*
X12772562Y-15349698D02*
X12772562Y-15378269D01*
X12772562Y-15378269D02*
X12763039Y-15416365D01*
X12763039Y-15416365D02*
X12753515Y-15435412D01*
X12753515Y-15435412D02*
X12734467Y-15454460D01*
X12734467Y-15454460D02*
X12705896Y-15463984D01*
X12705896Y-15463984D02*
X12658277Y-15463984D01*
X12858277Y-15463984D02*
X12858277Y-15330650D01*
X12858277Y-15368746D02*
X12867801Y-15349698D01*
X12867801Y-15349698D02*
X12877324Y-15340174D01*
X12877324Y-15340174D02*
X12896372Y-15330650D01*
X12896372Y-15330650D02*
X12915420Y-15330650D01*
X12982086Y-15463984D02*
X12982086Y-15330650D01*
X12982086Y-15263984D02*
X12972562Y-15273508D01*
X12972562Y-15273508D02*
X12982086Y-15283031D01*
X12982086Y-15283031D02*
X12991610Y-15273508D01*
X12991610Y-15273508D02*
X12982086Y-15263984D01*
X12982086Y-15263984D02*
X12982086Y-15283031D01*
X13105896Y-15463984D02*
X13086848Y-15454460D01*
X13086848Y-15454460D02*
X13077324Y-15435412D01*
X13077324Y-15435412D02*
X13077324Y-15263984D01*
X13210658Y-15463984D02*
X13191610Y-15454460D01*
X13191610Y-15454460D02*
X13182086Y-15435412D01*
X13182086Y-15435412D02*
X13182086Y-15263984D01*
X13439229Y-15463984D02*
X13439229Y-15263984D01*
X13439229Y-15263984D02*
X13505896Y-15406841D01*
X13505896Y-15406841D02*
X13572562Y-15263984D01*
X13572562Y-15263984D02*
X13572562Y-15463984D01*
X13753515Y-15463984D02*
X13753515Y-15359222D01*
X13753515Y-15359222D02*
X13743991Y-15340174D01*
X13743991Y-15340174D02*
X13724943Y-15330650D01*
X13724943Y-15330650D02*
X13686848Y-15330650D01*
X13686848Y-15330650D02*
X13667801Y-15340174D01*
X13753515Y-15454460D02*
X13734467Y-15463984D01*
X13734467Y-15463984D02*
X13686848Y-15463984D01*
X13686848Y-15463984D02*
X13667801Y-15454460D01*
X13667801Y-15454460D02*
X13658277Y-15435412D01*
X13658277Y-15435412D02*
X13658277Y-15416365D01*
X13658277Y-15416365D02*
X13667801Y-15397317D01*
X13667801Y-15397317D02*
X13686848Y-15387793D01*
X13686848Y-15387793D02*
X13734467Y-15387793D01*
X13734467Y-15387793D02*
X13753515Y-15378269D01*
X13848753Y-15330650D02*
X13848753Y-15530650D01*
X13848753Y-15340174D02*
X13867801Y-15330650D01*
X13867801Y-15330650D02*
X13905896Y-15330650D01*
X13905896Y-15330650D02*
X13924943Y-15340174D01*
X13924943Y-15340174D02*
X13934467Y-15349698D01*
X13934467Y-15349698D02*
X13943991Y-15368746D01*
X13943991Y-15368746D02*
X13943991Y-15425888D01*
X13943991Y-15425888D02*
X13934467Y-15444936D01*
X13934467Y-15444936D02*
X13924943Y-15454460D01*
X13924943Y-15454460D02*
X13905896Y-15463984D01*
X13905896Y-15463984D02*
X13867801Y-15463984D01*
X13867801Y-15463984D02*
X13848753Y-15454460D01*
X14029705Y-15444936D02*
X14039229Y-15454460D01*
X14039229Y-15454460D02*
X14029705Y-15463984D01*
X14029705Y-15463984D02*
X14020182Y-15454460D01*
X14020182Y-15454460D02*
X14029705Y-15444936D01*
X14029705Y-15444936D02*
X14029705Y-15463984D01*
X14029705Y-15340174D02*
X14039229Y-15349698D01*
X14039229Y-15349698D02*
X14029705Y-15359222D01*
X14029705Y-15359222D02*
X14020182Y-15349698D01*
X14020182Y-15349698D02*
X14029705Y-15340174D01*
X14029705Y-15340174D02*
X14029705Y-15359222D01*
D12*
X12367500Y-15777500D02*
X12397500Y-15807500D01*
X12397500Y-15777500D02*
X12367500Y-15807500D01*
D11*
X12696372Y-15683984D02*
X12715420Y-15683984D01*
X12715420Y-15683984D02*
X12734467Y-15693508D01*
X12734467Y-15693508D02*
X12743991Y-15703031D01*
X12743991Y-15703031D02*
X12753515Y-15722079D01*
X12753515Y-15722079D02*
X12763039Y-15760174D01*
X12763039Y-15760174D02*
X12763039Y-15807793D01*
X12763039Y-15807793D02*
X12753515Y-15845888D01*
X12753515Y-15845888D02*
X12743991Y-15864936D01*
X12743991Y-15864936D02*
X12734467Y-15874460D01*
X12734467Y-15874460D02*
X12715420Y-15883984D01*
X12715420Y-15883984D02*
X12696372Y-15883984D01*
X12696372Y-15883984D02*
X12677324Y-15874460D01*
X12677324Y-15874460D02*
X12667801Y-15864936D01*
X12667801Y-15864936D02*
X12658277Y-15845888D01*
X12658277Y-15845888D02*
X12648753Y-15807793D01*
X12648753Y-15807793D02*
X12648753Y-15760174D01*
X12648753Y-15760174D02*
X12658277Y-15722079D01*
X12658277Y-15722079D02*
X12667801Y-15703031D01*
X12667801Y-15703031D02*
X12677324Y-15693508D01*
X12677324Y-15693508D02*
X12696372Y-15683984D01*
X12848753Y-15864936D02*
X12858277Y-15874460D01*
X12858277Y-15874460D02*
X12848753Y-15883984D01*
X12848753Y-15883984D02*
X12839229Y-15874460D01*
X12839229Y-15874460D02*
X12848753Y-15864936D01*
X12848753Y-15864936D02*
X12848753Y-15883984D01*
X12924943Y-15683984D02*
X13048753Y-15683984D01*
X13048753Y-15683984D02*
X12982086Y-15760174D01*
X12982086Y-15760174D02*
X13010658Y-15760174D01*
X13010658Y-15760174D02*
X13029705Y-15769698D01*
X13029705Y-15769698D02*
X13039229Y-15779222D01*
X13039229Y-15779222D02*
X13048753Y-15798269D01*
X13048753Y-15798269D02*
X13048753Y-15845888D01*
X13048753Y-15845888D02*
X13039229Y-15864936D01*
X13039229Y-15864936D02*
X13029705Y-15874460D01*
X13029705Y-15874460D02*
X13010658Y-15883984D01*
X13010658Y-15883984D02*
X12953515Y-15883984D01*
X12953515Y-15883984D02*
X12934467Y-15874460D01*
X12934467Y-15874460D02*
X12924943Y-15864936D01*
X13172562Y-15683984D02*
X13191610Y-15683984D01*
X13191610Y-15683984D02*
X13210658Y-15693508D01*
X13210658Y-15693508D02*
X13220182Y-15703031D01*
X13220182Y-15703031D02*
X13229705Y-15722079D01*
X13229705Y-15722079D02*
X13239229Y-15760174D01*
X13239229Y-15760174D02*
X13239229Y-15807793D01*
X13239229Y-15807793D02*
X13229705Y-15845888D01*
X13229705Y-15845888D02*
X13220182Y-15864936D01*
X13220182Y-15864936D02*
X13210658Y-15874460D01*
X13210658Y-15874460D02*
X13191610Y-15883984D01*
X13191610Y-15883984D02*
X13172562Y-15883984D01*
X13172562Y-15883984D02*
X13153515Y-15874460D01*
X13153515Y-15874460D02*
X13143991Y-15864936D01*
X13143991Y-15864936D02*
X13134467Y-15845888D01*
X13134467Y-15845888D02*
X13124943Y-15807793D01*
X13124943Y-15807793D02*
X13124943Y-15760174D01*
X13124943Y-15760174D02*
X13134467Y-15722079D01*
X13134467Y-15722079D02*
X13143991Y-15703031D01*
X13143991Y-15703031D02*
X13153515Y-15693508D01*
X13153515Y-15693508D02*
X13172562Y-15683984D01*
X13363039Y-15683984D02*
X13382086Y-15683984D01*
X13382086Y-15683984D02*
X13401134Y-15693508D01*
X13401134Y-15693508D02*
X13410658Y-15703031D01*
X13410658Y-15703031D02*
X13420182Y-15722079D01*
X13420182Y-15722079D02*
X13429705Y-15760174D01*
X13429705Y-15760174D02*
X13429705Y-15807793D01*
X13429705Y-15807793D02*
X13420182Y-15845888D01*
X13420182Y-15845888D02*
X13410658Y-15864936D01*
X13410658Y-15864936D02*
X13401134Y-15874460D01*
X13401134Y-15874460D02*
X13382086Y-15883984D01*
X13382086Y-15883984D02*
X13363039Y-15883984D01*
X13363039Y-15883984D02*
X13343991Y-15874460D01*
X13343991Y-15874460D02*
X13334467Y-15864936D01*
X13334467Y-15864936D02*
X13324943Y-15845888D01*
X13324943Y-15845888D02*
X13315420Y-15807793D01*
X13315420Y-15807793D02*
X13315420Y-15760174D01*
X13315420Y-15760174D02*
X13324943Y-15722079D01*
X13324943Y-15722079D02*
X13334467Y-15703031D01*
X13334467Y-15703031D02*
X13343991Y-15693508D01*
X13343991Y-15693508D02*
X13363039Y-15683984D01*
X13515420Y-15883984D02*
X13515420Y-15750650D01*
X13515420Y-15769698D02*
X13524943Y-15760174D01*
X13524943Y-15760174D02*
X13543991Y-15750650D01*
X13543991Y-15750650D02*
X13572563Y-15750650D01*
X13572563Y-15750650D02*
X13591610Y-15760174D01*
X13591610Y-15760174D02*
X13601134Y-15779222D01*
X13601134Y-15779222D02*
X13601134Y-15883984D01*
X13601134Y-15779222D02*
X13610658Y-15760174D01*
X13610658Y-15760174D02*
X13629705Y-15750650D01*
X13629705Y-15750650D02*
X13658277Y-15750650D01*
X13658277Y-15750650D02*
X13677324Y-15760174D01*
X13677324Y-15760174D02*
X13686848Y-15779222D01*
X13686848Y-15779222D02*
X13686848Y-15883984D01*
X13782086Y-15883984D02*
X13782086Y-15750650D01*
X13782086Y-15769698D02*
X13791610Y-15760174D01*
X13791610Y-15760174D02*
X13810658Y-15750650D01*
X13810658Y-15750650D02*
X13839229Y-15750650D01*
X13839229Y-15750650D02*
X13858277Y-15760174D01*
X13858277Y-15760174D02*
X13867801Y-15779222D01*
X13867801Y-15779222D02*
X13867801Y-15883984D01*
X13867801Y-15779222D02*
X13877324Y-15760174D01*
X13877324Y-15760174D02*
X13896372Y-15750650D01*
X13896372Y-15750650D02*
X13924943Y-15750650D01*
X13924943Y-15750650D02*
X13943991Y-15760174D01*
X13943991Y-15760174D02*
X13953515Y-15779222D01*
X13953515Y-15779222D02*
X13953515Y-15883984D01*
X14343991Y-15674460D02*
X14172563Y-15931603D01*
X14601134Y-15683984D02*
X14620182Y-15683984D01*
X14620182Y-15683984D02*
X14639229Y-15693508D01*
X14639229Y-15693508D02*
X14648753Y-15703031D01*
X14648753Y-15703031D02*
X14658277Y-15722079D01*
X14658277Y-15722079D02*
X14667801Y-15760174D01*
X14667801Y-15760174D02*
X14667801Y-15807793D01*
X14667801Y-15807793D02*
X14658277Y-15845888D01*
X14658277Y-15845888D02*
X14648753Y-15864936D01*
X14648753Y-15864936D02*
X14639229Y-15874460D01*
X14639229Y-15874460D02*
X14620182Y-15883984D01*
X14620182Y-15883984D02*
X14601134Y-15883984D01*
X14601134Y-15883984D02*
X14582086Y-15874460D01*
X14582086Y-15874460D02*
X14572563Y-15864936D01*
X14572563Y-15864936D02*
X14563039Y-15845888D01*
X14563039Y-15845888D02*
X14553515Y-15807793D01*
X14553515Y-15807793D02*
X14553515Y-15760174D01*
X14553515Y-15760174D02*
X14563039Y-15722079D01*
X14563039Y-15722079D02*
X14572563Y-15703031D01*
X14572563Y-15703031D02*
X14582086Y-15693508D01*
X14582086Y-15693508D02*
X14601134Y-15683984D01*
X14753515Y-15864936D02*
X14763039Y-15874460D01*
X14763039Y-15874460D02*
X14753515Y-15883984D01*
X14753515Y-15883984D02*
X14743991Y-15874460D01*
X14743991Y-15874460D02*
X14753515Y-15864936D01*
X14753515Y-15864936D02*
X14753515Y-15883984D01*
X14886848Y-15683984D02*
X14905896Y-15683984D01*
X14905896Y-15683984D02*
X14924944Y-15693508D01*
X14924944Y-15693508D02*
X14934467Y-15703031D01*
X14934467Y-15703031D02*
X14943991Y-15722079D01*
X14943991Y-15722079D02*
X14953515Y-15760174D01*
X14953515Y-15760174D02*
X14953515Y-15807793D01*
X14953515Y-15807793D02*
X14943991Y-15845888D01*
X14943991Y-15845888D02*
X14934467Y-15864936D01*
X14934467Y-15864936D02*
X14924944Y-15874460D01*
X14924944Y-15874460D02*
X14905896Y-15883984D01*
X14905896Y-15883984D02*
X14886848Y-15883984D01*
X14886848Y-15883984D02*
X14867801Y-15874460D01*
X14867801Y-15874460D02*
X14858277Y-15864936D01*
X14858277Y-15864936D02*
X14848753Y-15845888D01*
X14848753Y-15845888D02*
X14839229Y-15807793D01*
X14839229Y-15807793D02*
X14839229Y-15760174D01*
X14839229Y-15760174D02*
X14848753Y-15722079D01*
X14848753Y-15722079D02*
X14858277Y-15703031D01*
X14858277Y-15703031D02*
X14867801Y-15693508D01*
X14867801Y-15693508D02*
X14886848Y-15683984D01*
X15143991Y-15883984D02*
X15029706Y-15883984D01*
X15086848Y-15883984D02*
X15086848Y-15683984D01*
X15086848Y-15683984D02*
X15067801Y-15712555D01*
X15067801Y-15712555D02*
X15048753Y-15731603D01*
X15048753Y-15731603D02*
X15029706Y-15741127D01*
X15334467Y-15883984D02*
X15220182Y-15883984D01*
X15277325Y-15883984D02*
X15277325Y-15683984D01*
X15277325Y-15683984D02*
X15258277Y-15712555D01*
X15258277Y-15712555D02*
X15239229Y-15731603D01*
X15239229Y-15731603D02*
X15220182Y-15741127D01*
X15448753Y-15769698D02*
X15429706Y-15760174D01*
X15429706Y-15760174D02*
X15420182Y-15750650D01*
X15420182Y-15750650D02*
X15410658Y-15731603D01*
X15410658Y-15731603D02*
X15410658Y-15722079D01*
X15410658Y-15722079D02*
X15420182Y-15703031D01*
X15420182Y-15703031D02*
X15429706Y-15693508D01*
X15429706Y-15693508D02*
X15448753Y-15683984D01*
X15448753Y-15683984D02*
X15486848Y-15683984D01*
X15486848Y-15683984D02*
X15505896Y-15693508D01*
X15505896Y-15693508D02*
X15515420Y-15703031D01*
X15515420Y-15703031D02*
X15524944Y-15722079D01*
X15524944Y-15722079D02*
X15524944Y-15731603D01*
X15524944Y-15731603D02*
X15515420Y-15750650D01*
X15515420Y-15750650D02*
X15505896Y-15760174D01*
X15505896Y-15760174D02*
X15486848Y-15769698D01*
X15486848Y-15769698D02*
X15448753Y-15769698D01*
X15448753Y-15769698D02*
X15429706Y-15779222D01*
X15429706Y-15779222D02*
X15420182Y-15788746D01*
X15420182Y-15788746D02*
X15410658Y-15807793D01*
X15410658Y-15807793D02*
X15410658Y-15845888D01*
X15410658Y-15845888D02*
X15420182Y-15864936D01*
X15420182Y-15864936D02*
X15429706Y-15874460D01*
X15429706Y-15874460D02*
X15448753Y-15883984D01*
X15448753Y-15883984D02*
X15486848Y-15883984D01*
X15486848Y-15883984D02*
X15505896Y-15874460D01*
X15505896Y-15874460D02*
X15515420Y-15864936D01*
X15515420Y-15864936D02*
X15524944Y-15845888D01*
X15524944Y-15845888D02*
X15524944Y-15807793D01*
X15524944Y-15807793D02*
X15515420Y-15788746D01*
X15515420Y-15788746D02*
X15505896Y-15779222D01*
X15505896Y-15779222D02*
X15486848Y-15769698D01*
X15601134Y-15683984D02*
X15601134Y-15722079D01*
X15677325Y-15683984D02*
X15677325Y-15722079D01*
X15972563Y-15960174D02*
X15963039Y-15950650D01*
X15963039Y-15950650D02*
X15943991Y-15922079D01*
X15943991Y-15922079D02*
X15934468Y-15903031D01*
X15934468Y-15903031D02*
X15924944Y-15874460D01*
X15924944Y-15874460D02*
X15915420Y-15826841D01*
X15915420Y-15826841D02*
X15915420Y-15788746D01*
X15915420Y-15788746D02*
X15924944Y-15741127D01*
X15924944Y-15741127D02*
X15934468Y-15712555D01*
X15934468Y-15712555D02*
X15943991Y-15693508D01*
X15943991Y-15693508D02*
X15963039Y-15664936D01*
X15963039Y-15664936D02*
X15972563Y-15655412D01*
X16029706Y-15683984D02*
X16153515Y-15683984D01*
X16153515Y-15683984D02*
X16086848Y-15760174D01*
X16086848Y-15760174D02*
X16115420Y-15760174D01*
X16115420Y-15760174D02*
X16134468Y-15769698D01*
X16134468Y-15769698D02*
X16143991Y-15779222D01*
X16143991Y-15779222D02*
X16153515Y-15798269D01*
X16153515Y-15798269D02*
X16153515Y-15845888D01*
X16153515Y-15845888D02*
X16143991Y-15864936D01*
X16143991Y-15864936D02*
X16134468Y-15874460D01*
X16134468Y-15874460D02*
X16115420Y-15883984D01*
X16115420Y-15883984D02*
X16058277Y-15883984D01*
X16058277Y-15883984D02*
X16039229Y-15874460D01*
X16039229Y-15874460D02*
X16029706Y-15864936D01*
X16391610Y-15883984D02*
X16391610Y-15683984D01*
X16477325Y-15883984D02*
X16477325Y-15779222D01*
X16477325Y-15779222D02*
X16467801Y-15760174D01*
X16467801Y-15760174D02*
X16448753Y-15750650D01*
X16448753Y-15750650D02*
X16420182Y-15750650D01*
X16420182Y-15750650D02*
X16401134Y-15760174D01*
X16401134Y-15760174D02*
X16391610Y-15769698D01*
X16601134Y-15883984D02*
X16582087Y-15874460D01*
X16582087Y-15874460D02*
X16572563Y-15864936D01*
X16572563Y-15864936D02*
X16563039Y-15845888D01*
X16563039Y-15845888D02*
X16563039Y-15788746D01*
X16563039Y-15788746D02*
X16572563Y-15769698D01*
X16572563Y-15769698D02*
X16582087Y-15760174D01*
X16582087Y-15760174D02*
X16601134Y-15750650D01*
X16601134Y-15750650D02*
X16629706Y-15750650D01*
X16629706Y-15750650D02*
X16648753Y-15760174D01*
X16648753Y-15760174D02*
X16658277Y-15769698D01*
X16658277Y-15769698D02*
X16667801Y-15788746D01*
X16667801Y-15788746D02*
X16667801Y-15845888D01*
X16667801Y-15845888D02*
X16658277Y-15864936D01*
X16658277Y-15864936D02*
X16648753Y-15874460D01*
X16648753Y-15874460D02*
X16629706Y-15883984D01*
X16629706Y-15883984D02*
X16601134Y-15883984D01*
X16782087Y-15883984D02*
X16763039Y-15874460D01*
X16763039Y-15874460D02*
X16753515Y-15855412D01*
X16753515Y-15855412D02*
X16753515Y-15683984D01*
X16934468Y-15874460D02*
X16915420Y-15883984D01*
X16915420Y-15883984D02*
X16877325Y-15883984D01*
X16877325Y-15883984D02*
X16858277Y-15874460D01*
X16858277Y-15874460D02*
X16848753Y-15855412D01*
X16848753Y-15855412D02*
X16848753Y-15779222D01*
X16848753Y-15779222D02*
X16858277Y-15760174D01*
X16858277Y-15760174D02*
X16877325Y-15750650D01*
X16877325Y-15750650D02*
X16915420Y-15750650D01*
X16915420Y-15750650D02*
X16934468Y-15760174D01*
X16934468Y-15760174D02*
X16943992Y-15779222D01*
X16943992Y-15779222D02*
X16943992Y-15798269D01*
X16943992Y-15798269D02*
X16848753Y-15817317D01*
X17020182Y-15874460D02*
X17039230Y-15883984D01*
X17039230Y-15883984D02*
X17077325Y-15883984D01*
X17077325Y-15883984D02*
X17096373Y-15874460D01*
X17096373Y-15874460D02*
X17105896Y-15855412D01*
X17105896Y-15855412D02*
X17105896Y-15845888D01*
X17105896Y-15845888D02*
X17096373Y-15826841D01*
X17096373Y-15826841D02*
X17077325Y-15817317D01*
X17077325Y-15817317D02*
X17048753Y-15817317D01*
X17048753Y-15817317D02*
X17029706Y-15807793D01*
X17029706Y-15807793D02*
X17020182Y-15788746D01*
X17020182Y-15788746D02*
X17020182Y-15779222D01*
X17020182Y-15779222D02*
X17029706Y-15760174D01*
X17029706Y-15760174D02*
X17048753Y-15750650D01*
X17048753Y-15750650D02*
X17077325Y-15750650D01*
X17077325Y-15750650D02*
X17096373Y-15760174D01*
X17172563Y-15960174D02*
X17182087Y-15950650D01*
X17182087Y-15950650D02*
X17201134Y-15922079D01*
X17201134Y-15922079D02*
X17210658Y-15903031D01*
X17210658Y-15903031D02*
X17220182Y-15874460D01*
X17220182Y-15874460D02*
X17229706Y-15826841D01*
X17229706Y-15826841D02*
X17229706Y-15788746D01*
X17229706Y-15788746D02*
X17220182Y-15741127D01*
X17220182Y-15741127D02*
X17210658Y-15712555D01*
X17210658Y-15712555D02*
X17201134Y-15693508D01*
X17201134Y-15693508D02*
X17182087Y-15664936D01*
X17182087Y-15664936D02*
X17172563Y-15655412D01*
D12*
X12397500Y-16056500D02*
G75*
G02*
X12297500Y-16056500I-50000J0D01*
G01*
X12297500Y-16056500D02*
G75*
G02*
X12397500Y-16056500I50000J0D01*
G01*
D11*
X12763039Y-16147984D02*
X12648753Y-16147984D01*
X12705896Y-16147984D02*
X12705896Y-15947984D01*
X12705896Y-15947984D02*
X12686848Y-15976555D01*
X12686848Y-15976555D02*
X12667801Y-15995603D01*
X12667801Y-15995603D02*
X12648753Y-16005127D01*
X12848753Y-16128936D02*
X12858277Y-16138460D01*
X12858277Y-16138460D02*
X12848753Y-16147984D01*
X12848753Y-16147984D02*
X12839229Y-16138460D01*
X12839229Y-16138460D02*
X12848753Y-16128936D01*
X12848753Y-16128936D02*
X12848753Y-16147984D01*
X12982086Y-15947984D02*
X13001134Y-15947984D01*
X13001134Y-15947984D02*
X13020182Y-15957508D01*
X13020182Y-15957508D02*
X13029705Y-15967031D01*
X13029705Y-15967031D02*
X13039229Y-15986079D01*
X13039229Y-15986079D02*
X13048753Y-16024174D01*
X13048753Y-16024174D02*
X13048753Y-16071793D01*
X13048753Y-16071793D02*
X13039229Y-16109888D01*
X13039229Y-16109888D02*
X13029705Y-16128936D01*
X13029705Y-16128936D02*
X13020182Y-16138460D01*
X13020182Y-16138460D02*
X13001134Y-16147984D01*
X13001134Y-16147984D02*
X12982086Y-16147984D01*
X12982086Y-16147984D02*
X12963039Y-16138460D01*
X12963039Y-16138460D02*
X12953515Y-16128936D01*
X12953515Y-16128936D02*
X12943991Y-16109888D01*
X12943991Y-16109888D02*
X12934467Y-16071793D01*
X12934467Y-16071793D02*
X12934467Y-16024174D01*
X12934467Y-16024174D02*
X12943991Y-15986079D01*
X12943991Y-15986079D02*
X12953515Y-15967031D01*
X12953515Y-15967031D02*
X12963039Y-15957508D01*
X12963039Y-15957508D02*
X12982086Y-15947984D01*
X13172562Y-15947984D02*
X13191610Y-15947984D01*
X13191610Y-15947984D02*
X13210658Y-15957508D01*
X13210658Y-15957508D02*
X13220182Y-15967031D01*
X13220182Y-15967031D02*
X13229705Y-15986079D01*
X13229705Y-15986079D02*
X13239229Y-16024174D01*
X13239229Y-16024174D02*
X13239229Y-16071793D01*
X13239229Y-16071793D02*
X13229705Y-16109888D01*
X13229705Y-16109888D02*
X13220182Y-16128936D01*
X13220182Y-16128936D02*
X13210658Y-16138460D01*
X13210658Y-16138460D02*
X13191610Y-16147984D01*
X13191610Y-16147984D02*
X13172562Y-16147984D01*
X13172562Y-16147984D02*
X13153515Y-16138460D01*
X13153515Y-16138460D02*
X13143991Y-16128936D01*
X13143991Y-16128936D02*
X13134467Y-16109888D01*
X13134467Y-16109888D02*
X13124943Y-16071793D01*
X13124943Y-16071793D02*
X13124943Y-16024174D01*
X13124943Y-16024174D02*
X13134467Y-15986079D01*
X13134467Y-15986079D02*
X13143991Y-15967031D01*
X13143991Y-15967031D02*
X13153515Y-15957508D01*
X13153515Y-15957508D02*
X13172562Y-15947984D01*
X13363039Y-15947984D02*
X13382086Y-15947984D01*
X13382086Y-15947984D02*
X13401134Y-15957508D01*
X13401134Y-15957508D02*
X13410658Y-15967031D01*
X13410658Y-15967031D02*
X13420182Y-15986079D01*
X13420182Y-15986079D02*
X13429705Y-16024174D01*
X13429705Y-16024174D02*
X13429705Y-16071793D01*
X13429705Y-16071793D02*
X13420182Y-16109888D01*
X13420182Y-16109888D02*
X13410658Y-16128936D01*
X13410658Y-16128936D02*
X13401134Y-16138460D01*
X13401134Y-16138460D02*
X13382086Y-16147984D01*
X13382086Y-16147984D02*
X13363039Y-16147984D01*
X13363039Y-16147984D02*
X13343991Y-16138460D01*
X13343991Y-16138460D02*
X13334467Y-16128936D01*
X13334467Y-16128936D02*
X13324943Y-16109888D01*
X13324943Y-16109888D02*
X13315420Y-16071793D01*
X13315420Y-16071793D02*
X13315420Y-16024174D01*
X13315420Y-16024174D02*
X13324943Y-15986079D01*
X13324943Y-15986079D02*
X13334467Y-15967031D01*
X13334467Y-15967031D02*
X13343991Y-15957508D01*
X13343991Y-15957508D02*
X13363039Y-15947984D01*
X13515420Y-16147984D02*
X13515420Y-16014650D01*
X13515420Y-16033698D02*
X13524943Y-16024174D01*
X13524943Y-16024174D02*
X13543991Y-16014650D01*
X13543991Y-16014650D02*
X13572563Y-16014650D01*
X13572563Y-16014650D02*
X13591610Y-16024174D01*
X13591610Y-16024174D02*
X13601134Y-16043222D01*
X13601134Y-16043222D02*
X13601134Y-16147984D01*
X13601134Y-16043222D02*
X13610658Y-16024174D01*
X13610658Y-16024174D02*
X13629705Y-16014650D01*
X13629705Y-16014650D02*
X13658277Y-16014650D01*
X13658277Y-16014650D02*
X13677324Y-16024174D01*
X13677324Y-16024174D02*
X13686848Y-16043222D01*
X13686848Y-16043222D02*
X13686848Y-16147984D01*
X13782086Y-16147984D02*
X13782086Y-16014650D01*
X13782086Y-16033698D02*
X13791610Y-16024174D01*
X13791610Y-16024174D02*
X13810658Y-16014650D01*
X13810658Y-16014650D02*
X13839229Y-16014650D01*
X13839229Y-16014650D02*
X13858277Y-16024174D01*
X13858277Y-16024174D02*
X13867801Y-16043222D01*
X13867801Y-16043222D02*
X13867801Y-16147984D01*
X13867801Y-16043222D02*
X13877324Y-16024174D01*
X13877324Y-16024174D02*
X13896372Y-16014650D01*
X13896372Y-16014650D02*
X13924943Y-16014650D01*
X13924943Y-16014650D02*
X13943991Y-16024174D01*
X13943991Y-16024174D02*
X13953515Y-16043222D01*
X13953515Y-16043222D02*
X13953515Y-16147984D01*
X14343991Y-15938460D02*
X14172563Y-16195603D01*
X14601134Y-15947984D02*
X14620182Y-15947984D01*
X14620182Y-15947984D02*
X14639229Y-15957508D01*
X14639229Y-15957508D02*
X14648753Y-15967031D01*
X14648753Y-15967031D02*
X14658277Y-15986079D01*
X14658277Y-15986079D02*
X14667801Y-16024174D01*
X14667801Y-16024174D02*
X14667801Y-16071793D01*
X14667801Y-16071793D02*
X14658277Y-16109888D01*
X14658277Y-16109888D02*
X14648753Y-16128936D01*
X14648753Y-16128936D02*
X14639229Y-16138460D01*
X14639229Y-16138460D02*
X14620182Y-16147984D01*
X14620182Y-16147984D02*
X14601134Y-16147984D01*
X14601134Y-16147984D02*
X14582086Y-16138460D01*
X14582086Y-16138460D02*
X14572563Y-16128936D01*
X14572563Y-16128936D02*
X14563039Y-16109888D01*
X14563039Y-16109888D02*
X14553515Y-16071793D01*
X14553515Y-16071793D02*
X14553515Y-16024174D01*
X14553515Y-16024174D02*
X14563039Y-15986079D01*
X14563039Y-15986079D02*
X14572563Y-15967031D01*
X14572563Y-15967031D02*
X14582086Y-15957508D01*
X14582086Y-15957508D02*
X14601134Y-15947984D01*
X14753515Y-16128936D02*
X14763039Y-16138460D01*
X14763039Y-16138460D02*
X14753515Y-16147984D01*
X14753515Y-16147984D02*
X14743991Y-16138460D01*
X14743991Y-16138460D02*
X14753515Y-16128936D01*
X14753515Y-16128936D02*
X14753515Y-16147984D01*
X14886848Y-15947984D02*
X14905896Y-15947984D01*
X14905896Y-15947984D02*
X14924944Y-15957508D01*
X14924944Y-15957508D02*
X14934467Y-15967031D01*
X14934467Y-15967031D02*
X14943991Y-15986079D01*
X14943991Y-15986079D02*
X14953515Y-16024174D01*
X14953515Y-16024174D02*
X14953515Y-16071793D01*
X14953515Y-16071793D02*
X14943991Y-16109888D01*
X14943991Y-16109888D02*
X14934467Y-16128936D01*
X14934467Y-16128936D02*
X14924944Y-16138460D01*
X14924944Y-16138460D02*
X14905896Y-16147984D01*
X14905896Y-16147984D02*
X14886848Y-16147984D01*
X14886848Y-16147984D02*
X14867801Y-16138460D01*
X14867801Y-16138460D02*
X14858277Y-16128936D01*
X14858277Y-16128936D02*
X14848753Y-16109888D01*
X14848753Y-16109888D02*
X14839229Y-16071793D01*
X14839229Y-16071793D02*
X14839229Y-16024174D01*
X14839229Y-16024174D02*
X14848753Y-15986079D01*
X14848753Y-15986079D02*
X14858277Y-15967031D01*
X14858277Y-15967031D02*
X14867801Y-15957508D01*
X14867801Y-15957508D02*
X14886848Y-15947984D01*
X15020182Y-15947984D02*
X15143991Y-15947984D01*
X15143991Y-15947984D02*
X15077325Y-16024174D01*
X15077325Y-16024174D02*
X15105896Y-16024174D01*
X15105896Y-16024174D02*
X15124944Y-16033698D01*
X15124944Y-16033698D02*
X15134467Y-16043222D01*
X15134467Y-16043222D02*
X15143991Y-16062269D01*
X15143991Y-16062269D02*
X15143991Y-16109888D01*
X15143991Y-16109888D02*
X15134467Y-16128936D01*
X15134467Y-16128936D02*
X15124944Y-16138460D01*
X15124944Y-16138460D02*
X15105896Y-16147984D01*
X15105896Y-16147984D02*
X15048753Y-16147984D01*
X15048753Y-16147984D02*
X15029706Y-16138460D01*
X15029706Y-16138460D02*
X15020182Y-16128936D01*
X15239229Y-16147984D02*
X15277325Y-16147984D01*
X15277325Y-16147984D02*
X15296372Y-16138460D01*
X15296372Y-16138460D02*
X15305896Y-16128936D01*
X15305896Y-16128936D02*
X15324944Y-16100365D01*
X15324944Y-16100365D02*
X15334467Y-16062269D01*
X15334467Y-16062269D02*
X15334467Y-15986079D01*
X15334467Y-15986079D02*
X15324944Y-15967031D01*
X15324944Y-15967031D02*
X15315420Y-15957508D01*
X15315420Y-15957508D02*
X15296372Y-15947984D01*
X15296372Y-15947984D02*
X15258277Y-15947984D01*
X15258277Y-15947984D02*
X15239229Y-15957508D01*
X15239229Y-15957508D02*
X15229706Y-15967031D01*
X15229706Y-15967031D02*
X15220182Y-15986079D01*
X15220182Y-15986079D02*
X15220182Y-16033698D01*
X15220182Y-16033698D02*
X15229706Y-16052746D01*
X15229706Y-16052746D02*
X15239229Y-16062269D01*
X15239229Y-16062269D02*
X15258277Y-16071793D01*
X15258277Y-16071793D02*
X15296372Y-16071793D01*
X15296372Y-16071793D02*
X15315420Y-16062269D01*
X15315420Y-16062269D02*
X15324944Y-16052746D01*
X15324944Y-16052746D02*
X15334467Y-16033698D01*
X15505896Y-16014650D02*
X15505896Y-16147984D01*
X15458277Y-15938460D02*
X15410658Y-16081317D01*
X15410658Y-16081317D02*
X15534467Y-16081317D01*
X15601134Y-15947984D02*
X15601134Y-15986079D01*
X15677325Y-15947984D02*
X15677325Y-15986079D01*
X15972563Y-16224174D02*
X15963039Y-16214650D01*
X15963039Y-16214650D02*
X15943991Y-16186079D01*
X15943991Y-16186079D02*
X15934468Y-16167031D01*
X15934468Y-16167031D02*
X15924944Y-16138460D01*
X15924944Y-16138460D02*
X15915420Y-16090841D01*
X15915420Y-16090841D02*
X15915420Y-16052746D01*
X15915420Y-16052746D02*
X15924944Y-16005127D01*
X15924944Y-16005127D02*
X15934468Y-15976555D01*
X15934468Y-15976555D02*
X15943991Y-15957508D01*
X15943991Y-15957508D02*
X15963039Y-15928936D01*
X15963039Y-15928936D02*
X15972563Y-15919412D01*
X16039229Y-15967031D02*
X16048753Y-15957508D01*
X16048753Y-15957508D02*
X16067801Y-15947984D01*
X16067801Y-15947984D02*
X16115420Y-15947984D01*
X16115420Y-15947984D02*
X16134468Y-15957508D01*
X16134468Y-15957508D02*
X16143991Y-15967031D01*
X16143991Y-15967031D02*
X16153515Y-15986079D01*
X16153515Y-15986079D02*
X16153515Y-16005127D01*
X16153515Y-16005127D02*
X16143991Y-16033698D01*
X16143991Y-16033698D02*
X16029706Y-16147984D01*
X16029706Y-16147984D02*
X16153515Y-16147984D01*
X16324944Y-16014650D02*
X16324944Y-16147984D01*
X16277325Y-15938460D02*
X16229706Y-16081317D01*
X16229706Y-16081317D02*
X16353515Y-16081317D01*
X16582087Y-16147984D02*
X16582087Y-15947984D01*
X16667801Y-16147984D02*
X16667801Y-16043222D01*
X16667801Y-16043222D02*
X16658277Y-16024174D01*
X16658277Y-16024174D02*
X16639230Y-16014650D01*
X16639230Y-16014650D02*
X16610658Y-16014650D01*
X16610658Y-16014650D02*
X16591610Y-16024174D01*
X16591610Y-16024174D02*
X16582087Y-16033698D01*
X16791611Y-16147984D02*
X16772563Y-16138460D01*
X16772563Y-16138460D02*
X16763039Y-16128936D01*
X16763039Y-16128936D02*
X16753515Y-16109888D01*
X16753515Y-16109888D02*
X16753515Y-16052746D01*
X16753515Y-16052746D02*
X16763039Y-16033698D01*
X16763039Y-16033698D02*
X16772563Y-16024174D01*
X16772563Y-16024174D02*
X16791611Y-16014650D01*
X16791611Y-16014650D02*
X16820182Y-16014650D01*
X16820182Y-16014650D02*
X16839230Y-16024174D01*
X16839230Y-16024174D02*
X16848753Y-16033698D01*
X16848753Y-16033698D02*
X16858277Y-16052746D01*
X16858277Y-16052746D02*
X16858277Y-16109888D01*
X16858277Y-16109888D02*
X16848753Y-16128936D01*
X16848753Y-16128936D02*
X16839230Y-16138460D01*
X16839230Y-16138460D02*
X16820182Y-16147984D01*
X16820182Y-16147984D02*
X16791611Y-16147984D01*
X16972563Y-16147984D02*
X16953515Y-16138460D01*
X16953515Y-16138460D02*
X16943992Y-16119412D01*
X16943992Y-16119412D02*
X16943992Y-15947984D01*
X17124944Y-16138460D02*
X17105896Y-16147984D01*
X17105896Y-16147984D02*
X17067801Y-16147984D01*
X17067801Y-16147984D02*
X17048753Y-16138460D01*
X17048753Y-16138460D02*
X17039230Y-16119412D01*
X17039230Y-16119412D02*
X17039230Y-16043222D01*
X17039230Y-16043222D02*
X17048753Y-16024174D01*
X17048753Y-16024174D02*
X17067801Y-16014650D01*
X17067801Y-16014650D02*
X17105896Y-16014650D01*
X17105896Y-16014650D02*
X17124944Y-16024174D01*
X17124944Y-16024174D02*
X17134468Y-16043222D01*
X17134468Y-16043222D02*
X17134468Y-16062269D01*
X17134468Y-16062269D02*
X17039230Y-16081317D01*
X17210658Y-16138460D02*
X17229706Y-16147984D01*
X17229706Y-16147984D02*
X17267801Y-16147984D01*
X17267801Y-16147984D02*
X17286849Y-16138460D01*
X17286849Y-16138460D02*
X17296373Y-16119412D01*
X17296373Y-16119412D02*
X17296373Y-16109888D01*
X17296373Y-16109888D02*
X17286849Y-16090841D01*
X17286849Y-16090841D02*
X17267801Y-16081317D01*
X17267801Y-16081317D02*
X17239230Y-16081317D01*
X17239230Y-16081317D02*
X17220182Y-16071793D01*
X17220182Y-16071793D02*
X17210658Y-16052746D01*
X17210658Y-16052746D02*
X17210658Y-16043222D01*
X17210658Y-16043222D02*
X17220182Y-16024174D01*
X17220182Y-16024174D02*
X17239230Y-16014650D01*
X17239230Y-16014650D02*
X17267801Y-16014650D01*
X17267801Y-16014650D02*
X17286849Y-16024174D01*
X17363039Y-16224174D02*
X17372563Y-16214650D01*
X17372563Y-16214650D02*
X17391611Y-16186079D01*
X17391611Y-16186079D02*
X17401134Y-16167031D01*
X17401134Y-16167031D02*
X17410658Y-16138460D01*
X17410658Y-16138460D02*
X17420182Y-16090841D01*
X17420182Y-16090841D02*
X17420182Y-16052746D01*
X17420182Y-16052746D02*
X17410658Y-16005127D01*
X17410658Y-16005127D02*
X17401134Y-15976555D01*
X17401134Y-15976555D02*
X17391611Y-15957508D01*
X17391611Y-15957508D02*
X17372563Y-15928936D01*
X17372563Y-15928936D02*
X17363039Y-15919412D01*
D13*
X12342500Y-16265500D02*
X12342500Y-16375500D01*
X12287500Y-16320500D02*
X12397500Y-16320500D01*
D11*
X12763039Y-16411984D02*
X12648753Y-16411984D01*
X12705896Y-16411984D02*
X12705896Y-16211984D01*
X12705896Y-16211984D02*
X12686848Y-16240555D01*
X12686848Y-16240555D02*
X12667801Y-16259603D01*
X12667801Y-16259603D02*
X12648753Y-16269127D01*
X12848753Y-16392936D02*
X12858277Y-16402460D01*
X12858277Y-16402460D02*
X12848753Y-16411984D01*
X12848753Y-16411984D02*
X12839229Y-16402460D01*
X12839229Y-16402460D02*
X12848753Y-16392936D01*
X12848753Y-16392936D02*
X12848753Y-16411984D01*
X13048753Y-16411984D02*
X12934467Y-16411984D01*
X12991610Y-16411984D02*
X12991610Y-16211984D01*
X12991610Y-16211984D02*
X12972562Y-16240555D01*
X12972562Y-16240555D02*
X12953515Y-16259603D01*
X12953515Y-16259603D02*
X12934467Y-16269127D01*
X13172562Y-16211984D02*
X13191610Y-16211984D01*
X13191610Y-16211984D02*
X13210658Y-16221508D01*
X13210658Y-16221508D02*
X13220182Y-16231031D01*
X13220182Y-16231031D02*
X13229705Y-16250079D01*
X13229705Y-16250079D02*
X13239229Y-16288174D01*
X13239229Y-16288174D02*
X13239229Y-16335793D01*
X13239229Y-16335793D02*
X13229705Y-16373888D01*
X13229705Y-16373888D02*
X13220182Y-16392936D01*
X13220182Y-16392936D02*
X13210658Y-16402460D01*
X13210658Y-16402460D02*
X13191610Y-16411984D01*
X13191610Y-16411984D02*
X13172562Y-16411984D01*
X13172562Y-16411984D02*
X13153515Y-16402460D01*
X13153515Y-16402460D02*
X13143991Y-16392936D01*
X13143991Y-16392936D02*
X13134467Y-16373888D01*
X13134467Y-16373888D02*
X13124943Y-16335793D01*
X13124943Y-16335793D02*
X13124943Y-16288174D01*
X13124943Y-16288174D02*
X13134467Y-16250079D01*
X13134467Y-16250079D02*
X13143991Y-16231031D01*
X13143991Y-16231031D02*
X13153515Y-16221508D01*
X13153515Y-16221508D02*
X13172562Y-16211984D01*
X13363039Y-16211984D02*
X13382086Y-16211984D01*
X13382086Y-16211984D02*
X13401134Y-16221508D01*
X13401134Y-16221508D02*
X13410658Y-16231031D01*
X13410658Y-16231031D02*
X13420182Y-16250079D01*
X13420182Y-16250079D02*
X13429705Y-16288174D01*
X13429705Y-16288174D02*
X13429705Y-16335793D01*
X13429705Y-16335793D02*
X13420182Y-16373888D01*
X13420182Y-16373888D02*
X13410658Y-16392936D01*
X13410658Y-16392936D02*
X13401134Y-16402460D01*
X13401134Y-16402460D02*
X13382086Y-16411984D01*
X13382086Y-16411984D02*
X13363039Y-16411984D01*
X13363039Y-16411984D02*
X13343991Y-16402460D01*
X13343991Y-16402460D02*
X13334467Y-16392936D01*
X13334467Y-16392936D02*
X13324943Y-16373888D01*
X13324943Y-16373888D02*
X13315420Y-16335793D01*
X13315420Y-16335793D02*
X13315420Y-16288174D01*
X13315420Y-16288174D02*
X13324943Y-16250079D01*
X13324943Y-16250079D02*
X13334467Y-16231031D01*
X13334467Y-16231031D02*
X13343991Y-16221508D01*
X13343991Y-16221508D02*
X13363039Y-16211984D01*
X13515420Y-16411984D02*
X13515420Y-16278650D01*
X13515420Y-16297698D02*
X13524943Y-16288174D01*
X13524943Y-16288174D02*
X13543991Y-16278650D01*
X13543991Y-16278650D02*
X13572563Y-16278650D01*
X13572563Y-16278650D02*
X13591610Y-16288174D01*
X13591610Y-16288174D02*
X13601134Y-16307222D01*
X13601134Y-16307222D02*
X13601134Y-16411984D01*
X13601134Y-16307222D02*
X13610658Y-16288174D01*
X13610658Y-16288174D02*
X13629705Y-16278650D01*
X13629705Y-16278650D02*
X13658277Y-16278650D01*
X13658277Y-16278650D02*
X13677324Y-16288174D01*
X13677324Y-16288174D02*
X13686848Y-16307222D01*
X13686848Y-16307222D02*
X13686848Y-16411984D01*
X13782086Y-16411984D02*
X13782086Y-16278650D01*
X13782086Y-16297698D02*
X13791610Y-16288174D01*
X13791610Y-16288174D02*
X13810658Y-16278650D01*
X13810658Y-16278650D02*
X13839229Y-16278650D01*
X13839229Y-16278650D02*
X13858277Y-16288174D01*
X13858277Y-16288174D02*
X13867801Y-16307222D01*
X13867801Y-16307222D02*
X13867801Y-16411984D01*
X13867801Y-16307222D02*
X13877324Y-16288174D01*
X13877324Y-16288174D02*
X13896372Y-16278650D01*
X13896372Y-16278650D02*
X13924943Y-16278650D01*
X13924943Y-16278650D02*
X13943991Y-16288174D01*
X13943991Y-16288174D02*
X13953515Y-16307222D01*
X13953515Y-16307222D02*
X13953515Y-16411984D01*
X14343991Y-16202460D02*
X14172563Y-16459603D01*
X14601134Y-16211984D02*
X14620182Y-16211984D01*
X14620182Y-16211984D02*
X14639229Y-16221508D01*
X14639229Y-16221508D02*
X14648753Y-16231031D01*
X14648753Y-16231031D02*
X14658277Y-16250079D01*
X14658277Y-16250079D02*
X14667801Y-16288174D01*
X14667801Y-16288174D02*
X14667801Y-16335793D01*
X14667801Y-16335793D02*
X14658277Y-16373888D01*
X14658277Y-16373888D02*
X14648753Y-16392936D01*
X14648753Y-16392936D02*
X14639229Y-16402460D01*
X14639229Y-16402460D02*
X14620182Y-16411984D01*
X14620182Y-16411984D02*
X14601134Y-16411984D01*
X14601134Y-16411984D02*
X14582086Y-16402460D01*
X14582086Y-16402460D02*
X14572563Y-16392936D01*
X14572563Y-16392936D02*
X14563039Y-16373888D01*
X14563039Y-16373888D02*
X14553515Y-16335793D01*
X14553515Y-16335793D02*
X14553515Y-16288174D01*
X14553515Y-16288174D02*
X14563039Y-16250079D01*
X14563039Y-16250079D02*
X14572563Y-16231031D01*
X14572563Y-16231031D02*
X14582086Y-16221508D01*
X14582086Y-16221508D02*
X14601134Y-16211984D01*
X14753515Y-16392936D02*
X14763039Y-16402460D01*
X14763039Y-16402460D02*
X14753515Y-16411984D01*
X14753515Y-16411984D02*
X14743991Y-16402460D01*
X14743991Y-16402460D02*
X14753515Y-16392936D01*
X14753515Y-16392936D02*
X14753515Y-16411984D01*
X14886848Y-16211984D02*
X14905896Y-16211984D01*
X14905896Y-16211984D02*
X14924944Y-16221508D01*
X14924944Y-16221508D02*
X14934467Y-16231031D01*
X14934467Y-16231031D02*
X14943991Y-16250079D01*
X14943991Y-16250079D02*
X14953515Y-16288174D01*
X14953515Y-16288174D02*
X14953515Y-16335793D01*
X14953515Y-16335793D02*
X14943991Y-16373888D01*
X14943991Y-16373888D02*
X14934467Y-16392936D01*
X14934467Y-16392936D02*
X14924944Y-16402460D01*
X14924944Y-16402460D02*
X14905896Y-16411984D01*
X14905896Y-16411984D02*
X14886848Y-16411984D01*
X14886848Y-16411984D02*
X14867801Y-16402460D01*
X14867801Y-16402460D02*
X14858277Y-16392936D01*
X14858277Y-16392936D02*
X14848753Y-16373888D01*
X14848753Y-16373888D02*
X14839229Y-16335793D01*
X14839229Y-16335793D02*
X14839229Y-16288174D01*
X14839229Y-16288174D02*
X14848753Y-16250079D01*
X14848753Y-16250079D02*
X14858277Y-16231031D01*
X14858277Y-16231031D02*
X14867801Y-16221508D01*
X14867801Y-16221508D02*
X14886848Y-16211984D01*
X15124944Y-16278650D02*
X15124944Y-16411984D01*
X15077325Y-16202460D02*
X15029706Y-16345317D01*
X15029706Y-16345317D02*
X15153515Y-16345317D01*
X15210658Y-16211984D02*
X15334467Y-16211984D01*
X15334467Y-16211984D02*
X15267801Y-16288174D01*
X15267801Y-16288174D02*
X15296372Y-16288174D01*
X15296372Y-16288174D02*
X15315420Y-16297698D01*
X15315420Y-16297698D02*
X15324944Y-16307222D01*
X15324944Y-16307222D02*
X15334467Y-16326269D01*
X15334467Y-16326269D02*
X15334467Y-16373888D01*
X15334467Y-16373888D02*
X15324944Y-16392936D01*
X15324944Y-16392936D02*
X15315420Y-16402460D01*
X15315420Y-16402460D02*
X15296372Y-16411984D01*
X15296372Y-16411984D02*
X15239229Y-16411984D01*
X15239229Y-16411984D02*
X15220182Y-16402460D01*
X15220182Y-16402460D02*
X15210658Y-16392936D01*
X15401134Y-16211984D02*
X15524944Y-16211984D01*
X15524944Y-16211984D02*
X15458277Y-16288174D01*
X15458277Y-16288174D02*
X15486848Y-16288174D01*
X15486848Y-16288174D02*
X15505896Y-16297698D01*
X15505896Y-16297698D02*
X15515420Y-16307222D01*
X15515420Y-16307222D02*
X15524944Y-16326269D01*
X15524944Y-16326269D02*
X15524944Y-16373888D01*
X15524944Y-16373888D02*
X15515420Y-16392936D01*
X15515420Y-16392936D02*
X15505896Y-16402460D01*
X15505896Y-16402460D02*
X15486848Y-16411984D01*
X15486848Y-16411984D02*
X15429706Y-16411984D01*
X15429706Y-16411984D02*
X15410658Y-16402460D01*
X15410658Y-16402460D02*
X15401134Y-16392936D01*
X15601134Y-16211984D02*
X15601134Y-16250079D01*
X15677325Y-16211984D02*
X15677325Y-16250079D01*
X15972563Y-16488174D02*
X15963039Y-16478650D01*
X15963039Y-16478650D02*
X15943991Y-16450079D01*
X15943991Y-16450079D02*
X15934468Y-16431031D01*
X15934468Y-16431031D02*
X15924944Y-16402460D01*
X15924944Y-16402460D02*
X15915420Y-16354841D01*
X15915420Y-16354841D02*
X15915420Y-16316746D01*
X15915420Y-16316746D02*
X15924944Y-16269127D01*
X15924944Y-16269127D02*
X15934468Y-16240555D01*
X15934468Y-16240555D02*
X15943991Y-16221508D01*
X15943991Y-16221508D02*
X15963039Y-16192936D01*
X15963039Y-16192936D02*
X15972563Y-16183412D01*
X16134468Y-16278650D02*
X16134468Y-16411984D01*
X16086848Y-16202460D02*
X16039229Y-16345317D01*
X16039229Y-16345317D02*
X16163039Y-16345317D01*
X16391610Y-16411984D02*
X16391610Y-16211984D01*
X16477325Y-16411984D02*
X16477325Y-16307222D01*
X16477325Y-16307222D02*
X16467801Y-16288174D01*
X16467801Y-16288174D02*
X16448753Y-16278650D01*
X16448753Y-16278650D02*
X16420182Y-16278650D01*
X16420182Y-16278650D02*
X16401134Y-16288174D01*
X16401134Y-16288174D02*
X16391610Y-16297698D01*
X16601134Y-16411984D02*
X16582087Y-16402460D01*
X16582087Y-16402460D02*
X16572563Y-16392936D01*
X16572563Y-16392936D02*
X16563039Y-16373888D01*
X16563039Y-16373888D02*
X16563039Y-16316746D01*
X16563039Y-16316746D02*
X16572563Y-16297698D01*
X16572563Y-16297698D02*
X16582087Y-16288174D01*
X16582087Y-16288174D02*
X16601134Y-16278650D01*
X16601134Y-16278650D02*
X16629706Y-16278650D01*
X16629706Y-16278650D02*
X16648753Y-16288174D01*
X16648753Y-16288174D02*
X16658277Y-16297698D01*
X16658277Y-16297698D02*
X16667801Y-16316746D01*
X16667801Y-16316746D02*
X16667801Y-16373888D01*
X16667801Y-16373888D02*
X16658277Y-16392936D01*
X16658277Y-16392936D02*
X16648753Y-16402460D01*
X16648753Y-16402460D02*
X16629706Y-16411984D01*
X16629706Y-16411984D02*
X16601134Y-16411984D01*
X16782087Y-16411984D02*
X16763039Y-16402460D01*
X16763039Y-16402460D02*
X16753515Y-16383412D01*
X16753515Y-16383412D02*
X16753515Y-16211984D01*
X16934468Y-16402460D02*
X16915420Y-16411984D01*
X16915420Y-16411984D02*
X16877325Y-16411984D01*
X16877325Y-16411984D02*
X16858277Y-16402460D01*
X16858277Y-16402460D02*
X16848753Y-16383412D01*
X16848753Y-16383412D02*
X16848753Y-16307222D01*
X16848753Y-16307222D02*
X16858277Y-16288174D01*
X16858277Y-16288174D02*
X16877325Y-16278650D01*
X16877325Y-16278650D02*
X16915420Y-16278650D01*
X16915420Y-16278650D02*
X16934468Y-16288174D01*
X16934468Y-16288174D02*
X16943992Y-16307222D01*
X16943992Y-16307222D02*
X16943992Y-16326269D01*
X16943992Y-16326269D02*
X16848753Y-16345317D01*
X17020182Y-16402460D02*
X17039230Y-16411984D01*
X17039230Y-16411984D02*
X17077325Y-16411984D01*
X17077325Y-16411984D02*
X17096373Y-16402460D01*
X17096373Y-16402460D02*
X17105896Y-16383412D01*
X17105896Y-16383412D02*
X17105896Y-16373888D01*
X17105896Y-16373888D02*
X17096373Y-16354841D01*
X17096373Y-16354841D02*
X17077325Y-16345317D01*
X17077325Y-16345317D02*
X17048753Y-16345317D01*
X17048753Y-16345317D02*
X17029706Y-16335793D01*
X17029706Y-16335793D02*
X17020182Y-16316746D01*
X17020182Y-16316746D02*
X17020182Y-16307222D01*
X17020182Y-16307222D02*
X17029706Y-16288174D01*
X17029706Y-16288174D02*
X17048753Y-16278650D01*
X17048753Y-16278650D02*
X17077325Y-16278650D01*
X17077325Y-16278650D02*
X17096373Y-16288174D01*
X17172563Y-16488174D02*
X17182087Y-16478650D01*
X17182087Y-16478650D02*
X17201134Y-16450079D01*
X17201134Y-16450079D02*
X17210658Y-16431031D01*
X17210658Y-16431031D02*
X17220182Y-16402460D01*
X17220182Y-16402460D02*
X17229706Y-16354841D01*
X17229706Y-16354841D02*
X17229706Y-16316746D01*
X17229706Y-16316746D02*
X17220182Y-16269127D01*
X17220182Y-16269127D02*
X17210658Y-16240555D01*
X17210658Y-16240555D02*
X17201134Y-16221508D01*
X17201134Y-16221508D02*
X17182087Y-16192936D01*
X17182087Y-16192936D02*
X17172563Y-16183412D01*
D14*
X12379634Y-16627634D02*
X12379634Y-16541366D01*
X12293366Y-16541366D01*
X12293366Y-16627634D01*
X12379634Y-16627634D01*
D11*
X12763039Y-16675984D02*
X12648753Y-16675984D01*
X12705896Y-16675984D02*
X12705896Y-16475984D01*
X12705896Y-16475984D02*
X12686848Y-16504555D01*
X12686848Y-16504555D02*
X12667801Y-16523603D01*
X12667801Y-16523603D02*
X12648753Y-16533127D01*
X12848753Y-16656936D02*
X12858277Y-16666460D01*
X12858277Y-16666460D02*
X12848753Y-16675984D01*
X12848753Y-16675984D02*
X12839229Y-16666460D01*
X12839229Y-16666460D02*
X12848753Y-16656936D01*
X12848753Y-16656936D02*
X12848753Y-16675984D01*
X12934467Y-16495031D02*
X12943991Y-16485508D01*
X12943991Y-16485508D02*
X12963039Y-16475984D01*
X12963039Y-16475984D02*
X13010658Y-16475984D01*
X13010658Y-16475984D02*
X13029705Y-16485508D01*
X13029705Y-16485508D02*
X13039229Y-16495031D01*
X13039229Y-16495031D02*
X13048753Y-16514079D01*
X13048753Y-16514079D02*
X13048753Y-16533127D01*
X13048753Y-16533127D02*
X13039229Y-16561698D01*
X13039229Y-16561698D02*
X12924943Y-16675984D01*
X12924943Y-16675984D02*
X13048753Y-16675984D01*
X13124943Y-16495031D02*
X13134467Y-16485508D01*
X13134467Y-16485508D02*
X13153515Y-16475984D01*
X13153515Y-16475984D02*
X13201134Y-16475984D01*
X13201134Y-16475984D02*
X13220182Y-16485508D01*
X13220182Y-16485508D02*
X13229705Y-16495031D01*
X13229705Y-16495031D02*
X13239229Y-16514079D01*
X13239229Y-16514079D02*
X13239229Y-16533127D01*
X13239229Y-16533127D02*
X13229705Y-16561698D01*
X13229705Y-16561698D02*
X13115420Y-16675984D01*
X13115420Y-16675984D02*
X13239229Y-16675984D01*
X13363039Y-16475984D02*
X13382086Y-16475984D01*
X13382086Y-16475984D02*
X13401134Y-16485508D01*
X13401134Y-16485508D02*
X13410658Y-16495031D01*
X13410658Y-16495031D02*
X13420182Y-16514079D01*
X13420182Y-16514079D02*
X13429705Y-16552174D01*
X13429705Y-16552174D02*
X13429705Y-16599793D01*
X13429705Y-16599793D02*
X13420182Y-16637888D01*
X13420182Y-16637888D02*
X13410658Y-16656936D01*
X13410658Y-16656936D02*
X13401134Y-16666460D01*
X13401134Y-16666460D02*
X13382086Y-16675984D01*
X13382086Y-16675984D02*
X13363039Y-16675984D01*
X13363039Y-16675984D02*
X13343991Y-16666460D01*
X13343991Y-16666460D02*
X13334467Y-16656936D01*
X13334467Y-16656936D02*
X13324943Y-16637888D01*
X13324943Y-16637888D02*
X13315420Y-16599793D01*
X13315420Y-16599793D02*
X13315420Y-16552174D01*
X13315420Y-16552174D02*
X13324943Y-16514079D01*
X13324943Y-16514079D02*
X13334467Y-16495031D01*
X13334467Y-16495031D02*
X13343991Y-16485508D01*
X13343991Y-16485508D02*
X13363039Y-16475984D01*
X13515420Y-16675984D02*
X13515420Y-16542650D01*
X13515420Y-16561698D02*
X13524943Y-16552174D01*
X13524943Y-16552174D02*
X13543991Y-16542650D01*
X13543991Y-16542650D02*
X13572563Y-16542650D01*
X13572563Y-16542650D02*
X13591610Y-16552174D01*
X13591610Y-16552174D02*
X13601134Y-16571222D01*
X13601134Y-16571222D02*
X13601134Y-16675984D01*
X13601134Y-16571222D02*
X13610658Y-16552174D01*
X13610658Y-16552174D02*
X13629705Y-16542650D01*
X13629705Y-16542650D02*
X13658277Y-16542650D01*
X13658277Y-16542650D02*
X13677324Y-16552174D01*
X13677324Y-16552174D02*
X13686848Y-16571222D01*
X13686848Y-16571222D02*
X13686848Y-16675984D01*
X13782086Y-16675984D02*
X13782086Y-16542650D01*
X13782086Y-16561698D02*
X13791610Y-16552174D01*
X13791610Y-16552174D02*
X13810658Y-16542650D01*
X13810658Y-16542650D02*
X13839229Y-16542650D01*
X13839229Y-16542650D02*
X13858277Y-16552174D01*
X13858277Y-16552174D02*
X13867801Y-16571222D01*
X13867801Y-16571222D02*
X13867801Y-16675984D01*
X13867801Y-16571222D02*
X13877324Y-16552174D01*
X13877324Y-16552174D02*
X13896372Y-16542650D01*
X13896372Y-16542650D02*
X13924943Y-16542650D01*
X13924943Y-16542650D02*
X13943991Y-16552174D01*
X13943991Y-16552174D02*
X13953515Y-16571222D01*
X13953515Y-16571222D02*
X13953515Y-16675984D01*
X14343991Y-16466460D02*
X14172563Y-16723603D01*
X14601134Y-16475984D02*
X14620182Y-16475984D01*
X14620182Y-16475984D02*
X14639229Y-16485508D01*
X14639229Y-16485508D02*
X14648753Y-16495031D01*
X14648753Y-16495031D02*
X14658277Y-16514079D01*
X14658277Y-16514079D02*
X14667801Y-16552174D01*
X14667801Y-16552174D02*
X14667801Y-16599793D01*
X14667801Y-16599793D02*
X14658277Y-16637888D01*
X14658277Y-16637888D02*
X14648753Y-16656936D01*
X14648753Y-16656936D02*
X14639229Y-16666460D01*
X14639229Y-16666460D02*
X14620182Y-16675984D01*
X14620182Y-16675984D02*
X14601134Y-16675984D01*
X14601134Y-16675984D02*
X14582086Y-16666460D01*
X14582086Y-16666460D02*
X14572563Y-16656936D01*
X14572563Y-16656936D02*
X14563039Y-16637888D01*
X14563039Y-16637888D02*
X14553515Y-16599793D01*
X14553515Y-16599793D02*
X14553515Y-16552174D01*
X14553515Y-16552174D02*
X14563039Y-16514079D01*
X14563039Y-16514079D02*
X14572563Y-16495031D01*
X14572563Y-16495031D02*
X14582086Y-16485508D01*
X14582086Y-16485508D02*
X14601134Y-16475984D01*
X14753515Y-16656936D02*
X14763039Y-16666460D01*
X14763039Y-16666460D02*
X14753515Y-16675984D01*
X14753515Y-16675984D02*
X14743991Y-16666460D01*
X14743991Y-16666460D02*
X14753515Y-16656936D01*
X14753515Y-16656936D02*
X14753515Y-16675984D01*
X14886848Y-16475984D02*
X14905896Y-16475984D01*
X14905896Y-16475984D02*
X14924944Y-16485508D01*
X14924944Y-16485508D02*
X14934467Y-16495031D01*
X14934467Y-16495031D02*
X14943991Y-16514079D01*
X14943991Y-16514079D02*
X14953515Y-16552174D01*
X14953515Y-16552174D02*
X14953515Y-16599793D01*
X14953515Y-16599793D02*
X14943991Y-16637888D01*
X14943991Y-16637888D02*
X14934467Y-16656936D01*
X14934467Y-16656936D02*
X14924944Y-16666460D01*
X14924944Y-16666460D02*
X14905896Y-16675984D01*
X14905896Y-16675984D02*
X14886848Y-16675984D01*
X14886848Y-16675984D02*
X14867801Y-16666460D01*
X14867801Y-16666460D02*
X14858277Y-16656936D01*
X14858277Y-16656936D02*
X14848753Y-16637888D01*
X14848753Y-16637888D02*
X14839229Y-16599793D01*
X14839229Y-16599793D02*
X14839229Y-16552174D01*
X14839229Y-16552174D02*
X14848753Y-16514079D01*
X14848753Y-16514079D02*
X14858277Y-16495031D01*
X14858277Y-16495031D02*
X14867801Y-16485508D01*
X14867801Y-16485508D02*
X14886848Y-16475984D01*
X15124944Y-16542650D02*
X15124944Y-16675984D01*
X15077325Y-16466460D02*
X15029706Y-16609317D01*
X15029706Y-16609317D02*
X15153515Y-16609317D01*
X15258277Y-16561698D02*
X15239229Y-16552174D01*
X15239229Y-16552174D02*
X15229706Y-16542650D01*
X15229706Y-16542650D02*
X15220182Y-16523603D01*
X15220182Y-16523603D02*
X15220182Y-16514079D01*
X15220182Y-16514079D02*
X15229706Y-16495031D01*
X15229706Y-16495031D02*
X15239229Y-16485508D01*
X15239229Y-16485508D02*
X15258277Y-16475984D01*
X15258277Y-16475984D02*
X15296372Y-16475984D01*
X15296372Y-16475984D02*
X15315420Y-16485508D01*
X15315420Y-16485508D02*
X15324944Y-16495031D01*
X15324944Y-16495031D02*
X15334467Y-16514079D01*
X15334467Y-16514079D02*
X15334467Y-16523603D01*
X15334467Y-16523603D02*
X15324944Y-16542650D01*
X15324944Y-16542650D02*
X15315420Y-16552174D01*
X15315420Y-16552174D02*
X15296372Y-16561698D01*
X15296372Y-16561698D02*
X15258277Y-16561698D01*
X15258277Y-16561698D02*
X15239229Y-16571222D01*
X15239229Y-16571222D02*
X15229706Y-16580746D01*
X15229706Y-16580746D02*
X15220182Y-16599793D01*
X15220182Y-16599793D02*
X15220182Y-16637888D01*
X15220182Y-16637888D02*
X15229706Y-16656936D01*
X15229706Y-16656936D02*
X15239229Y-16666460D01*
X15239229Y-16666460D02*
X15258277Y-16675984D01*
X15258277Y-16675984D02*
X15296372Y-16675984D01*
X15296372Y-16675984D02*
X15315420Y-16666460D01*
X15315420Y-16666460D02*
X15324944Y-16656936D01*
X15324944Y-16656936D02*
X15334467Y-16637888D01*
X15334467Y-16637888D02*
X15334467Y-16599793D01*
X15334467Y-16599793D02*
X15324944Y-16580746D01*
X15324944Y-16580746D02*
X15315420Y-16571222D01*
X15315420Y-16571222D02*
X15296372Y-16561698D01*
X15458277Y-16475984D02*
X15477325Y-16475984D01*
X15477325Y-16475984D02*
X15496372Y-16485508D01*
X15496372Y-16485508D02*
X15505896Y-16495031D01*
X15505896Y-16495031D02*
X15515420Y-16514079D01*
X15515420Y-16514079D02*
X15524944Y-16552174D01*
X15524944Y-16552174D02*
X15524944Y-16599793D01*
X15524944Y-16599793D02*
X15515420Y-16637888D01*
X15515420Y-16637888D02*
X15505896Y-16656936D01*
X15505896Y-16656936D02*
X15496372Y-16666460D01*
X15496372Y-16666460D02*
X15477325Y-16675984D01*
X15477325Y-16675984D02*
X15458277Y-16675984D01*
X15458277Y-16675984D02*
X15439229Y-16666460D01*
X15439229Y-16666460D02*
X15429706Y-16656936D01*
X15429706Y-16656936D02*
X15420182Y-16637888D01*
X15420182Y-16637888D02*
X15410658Y-16599793D01*
X15410658Y-16599793D02*
X15410658Y-16552174D01*
X15410658Y-16552174D02*
X15420182Y-16514079D01*
X15420182Y-16514079D02*
X15429706Y-16495031D01*
X15429706Y-16495031D02*
X15439229Y-16485508D01*
X15439229Y-16485508D02*
X15458277Y-16475984D01*
X15601134Y-16475984D02*
X15601134Y-16514079D01*
X15677325Y-16475984D02*
X15677325Y-16514079D01*
X15972563Y-16752174D02*
X15963039Y-16742650D01*
X15963039Y-16742650D02*
X15943991Y-16714079D01*
X15943991Y-16714079D02*
X15934468Y-16695031D01*
X15934468Y-16695031D02*
X15924944Y-16666460D01*
X15924944Y-16666460D02*
X15915420Y-16618841D01*
X15915420Y-16618841D02*
X15915420Y-16580746D01*
X15915420Y-16580746D02*
X15924944Y-16533127D01*
X15924944Y-16533127D02*
X15934468Y-16504555D01*
X15934468Y-16504555D02*
X15943991Y-16485508D01*
X15943991Y-16485508D02*
X15963039Y-16456936D01*
X15963039Y-16456936D02*
X15972563Y-16447412D01*
X16029706Y-16475984D02*
X16153515Y-16475984D01*
X16153515Y-16475984D02*
X16086848Y-16552174D01*
X16086848Y-16552174D02*
X16115420Y-16552174D01*
X16115420Y-16552174D02*
X16134468Y-16561698D01*
X16134468Y-16561698D02*
X16143991Y-16571222D01*
X16143991Y-16571222D02*
X16153515Y-16590269D01*
X16153515Y-16590269D02*
X16153515Y-16637888D01*
X16153515Y-16637888D02*
X16143991Y-16656936D01*
X16143991Y-16656936D02*
X16134468Y-16666460D01*
X16134468Y-16666460D02*
X16115420Y-16675984D01*
X16115420Y-16675984D02*
X16058277Y-16675984D01*
X16058277Y-16675984D02*
X16039229Y-16666460D01*
X16039229Y-16666460D02*
X16029706Y-16656936D01*
X16391610Y-16675984D02*
X16391610Y-16475984D01*
X16477325Y-16675984D02*
X16477325Y-16571222D01*
X16477325Y-16571222D02*
X16467801Y-16552174D01*
X16467801Y-16552174D02*
X16448753Y-16542650D01*
X16448753Y-16542650D02*
X16420182Y-16542650D01*
X16420182Y-16542650D02*
X16401134Y-16552174D01*
X16401134Y-16552174D02*
X16391610Y-16561698D01*
X16601134Y-16675984D02*
X16582087Y-16666460D01*
X16582087Y-16666460D02*
X16572563Y-16656936D01*
X16572563Y-16656936D02*
X16563039Y-16637888D01*
X16563039Y-16637888D02*
X16563039Y-16580746D01*
X16563039Y-16580746D02*
X16572563Y-16561698D01*
X16572563Y-16561698D02*
X16582087Y-16552174D01*
X16582087Y-16552174D02*
X16601134Y-16542650D01*
X16601134Y-16542650D02*
X16629706Y-16542650D01*
X16629706Y-16542650D02*
X16648753Y-16552174D01*
X16648753Y-16552174D02*
X16658277Y-16561698D01*
X16658277Y-16561698D02*
X16667801Y-16580746D01*
X16667801Y-16580746D02*
X16667801Y-16637888D01*
X16667801Y-16637888D02*
X16658277Y-16656936D01*
X16658277Y-16656936D02*
X16648753Y-16666460D01*
X16648753Y-16666460D02*
X16629706Y-16675984D01*
X16629706Y-16675984D02*
X16601134Y-16675984D01*
X16782087Y-16675984D02*
X16763039Y-16666460D01*
X16763039Y-16666460D02*
X16753515Y-16647412D01*
X16753515Y-16647412D02*
X16753515Y-16475984D01*
X16934468Y-16666460D02*
X16915420Y-16675984D01*
X16915420Y-16675984D02*
X16877325Y-16675984D01*
X16877325Y-16675984D02*
X16858277Y-16666460D01*
X16858277Y-16666460D02*
X16848753Y-16647412D01*
X16848753Y-16647412D02*
X16848753Y-16571222D01*
X16848753Y-16571222D02*
X16858277Y-16552174D01*
X16858277Y-16552174D02*
X16877325Y-16542650D01*
X16877325Y-16542650D02*
X16915420Y-16542650D01*
X16915420Y-16542650D02*
X16934468Y-16552174D01*
X16934468Y-16552174D02*
X16943992Y-16571222D01*
X16943992Y-16571222D02*
X16943992Y-16590269D01*
X16943992Y-16590269D02*
X16848753Y-16609317D01*
X17020182Y-16666460D02*
X17039230Y-16675984D01*
X17039230Y-16675984D02*
X17077325Y-16675984D01*
X17077325Y-16675984D02*
X17096373Y-16666460D01*
X17096373Y-16666460D02*
X17105896Y-16647412D01*
X17105896Y-16647412D02*
X17105896Y-16637888D01*
X17105896Y-16637888D02*
X17096373Y-16618841D01*
X17096373Y-16618841D02*
X17077325Y-16609317D01*
X17077325Y-16609317D02*
X17048753Y-16609317D01*
X17048753Y-16609317D02*
X17029706Y-16599793D01*
X17029706Y-16599793D02*
X17020182Y-16580746D01*
X17020182Y-16580746D02*
X17020182Y-16571222D01*
X17020182Y-16571222D02*
X17029706Y-16552174D01*
X17029706Y-16552174D02*
X17048753Y-16542650D01*
X17048753Y-16542650D02*
X17077325Y-16542650D01*
X17077325Y-16542650D02*
X17096373Y-16552174D01*
X17172563Y-16752174D02*
X17182087Y-16742650D01*
X17182087Y-16742650D02*
X17201134Y-16714079D01*
X17201134Y-16714079D02*
X17210658Y-16695031D01*
X17210658Y-16695031D02*
X17220182Y-16666460D01*
X17220182Y-16666460D02*
X17229706Y-16618841D01*
X17229706Y-16618841D02*
X17229706Y-16580746D01*
X17229706Y-16580746D02*
X17220182Y-16533127D01*
X17220182Y-16533127D02*
X17210658Y-16504555D01*
X17210658Y-16504555D02*
X17201134Y-16485508D01*
X17201134Y-16485508D02*
X17182087Y-16456936D01*
X17182087Y-16456936D02*
X17172563Y-16447412D01*
D15*
X12326500Y-16919500D02*
X12397500Y-16848500D01*
X12326500Y-16777500D01*
X12255500Y-16848500D01*
X12326500Y-16919500D01*
D11*
X12763039Y-16939984D02*
X12648753Y-16939984D01*
X12705896Y-16939984D02*
X12705896Y-16739984D01*
X12705896Y-16739984D02*
X12686848Y-16768555D01*
X12686848Y-16768555D02*
X12667801Y-16787603D01*
X12667801Y-16787603D02*
X12648753Y-16797127D01*
X12848753Y-16920936D02*
X12858277Y-16930460D01*
X12858277Y-16930460D02*
X12848753Y-16939984D01*
X12848753Y-16939984D02*
X12839229Y-16930460D01*
X12839229Y-16930460D02*
X12848753Y-16920936D01*
X12848753Y-16920936D02*
X12848753Y-16939984D01*
X13029705Y-16806650D02*
X13029705Y-16939984D01*
X12982086Y-16730460D02*
X12934467Y-16873317D01*
X12934467Y-16873317D02*
X13058277Y-16873317D01*
X13124943Y-16759031D02*
X13134467Y-16749508D01*
X13134467Y-16749508D02*
X13153515Y-16739984D01*
X13153515Y-16739984D02*
X13201134Y-16739984D01*
X13201134Y-16739984D02*
X13220182Y-16749508D01*
X13220182Y-16749508D02*
X13229705Y-16759031D01*
X13229705Y-16759031D02*
X13239229Y-16778079D01*
X13239229Y-16778079D02*
X13239229Y-16797127D01*
X13239229Y-16797127D02*
X13229705Y-16825698D01*
X13229705Y-16825698D02*
X13115420Y-16939984D01*
X13115420Y-16939984D02*
X13239229Y-16939984D01*
X13363039Y-16739984D02*
X13382086Y-16739984D01*
X13382086Y-16739984D02*
X13401134Y-16749508D01*
X13401134Y-16749508D02*
X13410658Y-16759031D01*
X13410658Y-16759031D02*
X13420182Y-16778079D01*
X13420182Y-16778079D02*
X13429705Y-16816174D01*
X13429705Y-16816174D02*
X13429705Y-16863793D01*
X13429705Y-16863793D02*
X13420182Y-16901889D01*
X13420182Y-16901889D02*
X13410658Y-16920936D01*
X13410658Y-16920936D02*
X13401134Y-16930460D01*
X13401134Y-16930460D02*
X13382086Y-16939984D01*
X13382086Y-16939984D02*
X13363039Y-16939984D01*
X13363039Y-16939984D02*
X13343991Y-16930460D01*
X13343991Y-16930460D02*
X13334467Y-16920936D01*
X13334467Y-16920936D02*
X13324943Y-16901889D01*
X13324943Y-16901889D02*
X13315420Y-16863793D01*
X13315420Y-16863793D02*
X13315420Y-16816174D01*
X13315420Y-16816174D02*
X13324943Y-16778079D01*
X13324943Y-16778079D02*
X13334467Y-16759031D01*
X13334467Y-16759031D02*
X13343991Y-16749508D01*
X13343991Y-16749508D02*
X13363039Y-16739984D01*
X13515420Y-16939984D02*
X13515420Y-16806650D01*
X13515420Y-16825698D02*
X13524943Y-16816174D01*
X13524943Y-16816174D02*
X13543991Y-16806650D01*
X13543991Y-16806650D02*
X13572563Y-16806650D01*
X13572563Y-16806650D02*
X13591610Y-16816174D01*
X13591610Y-16816174D02*
X13601134Y-16835222D01*
X13601134Y-16835222D02*
X13601134Y-16939984D01*
X13601134Y-16835222D02*
X13610658Y-16816174D01*
X13610658Y-16816174D02*
X13629705Y-16806650D01*
X13629705Y-16806650D02*
X13658277Y-16806650D01*
X13658277Y-16806650D02*
X13677324Y-16816174D01*
X13677324Y-16816174D02*
X13686848Y-16835222D01*
X13686848Y-16835222D02*
X13686848Y-16939984D01*
X13782086Y-16939984D02*
X13782086Y-16806650D01*
X13782086Y-16825698D02*
X13791610Y-16816174D01*
X13791610Y-16816174D02*
X13810658Y-16806650D01*
X13810658Y-16806650D02*
X13839229Y-16806650D01*
X13839229Y-16806650D02*
X13858277Y-16816174D01*
X13858277Y-16816174D02*
X13867801Y-16835222D01*
X13867801Y-16835222D02*
X13867801Y-16939984D01*
X13867801Y-16835222D02*
X13877324Y-16816174D01*
X13877324Y-16816174D02*
X13896372Y-16806650D01*
X13896372Y-16806650D02*
X13924943Y-16806650D01*
X13924943Y-16806650D02*
X13943991Y-16816174D01*
X13943991Y-16816174D02*
X13953515Y-16835222D01*
X13953515Y-16835222D02*
X13953515Y-16939984D01*
X14343991Y-16730460D02*
X14172563Y-16987603D01*
X14601134Y-16739984D02*
X14620182Y-16739984D01*
X14620182Y-16739984D02*
X14639229Y-16749508D01*
X14639229Y-16749508D02*
X14648753Y-16759031D01*
X14648753Y-16759031D02*
X14658277Y-16778079D01*
X14658277Y-16778079D02*
X14667801Y-16816174D01*
X14667801Y-16816174D02*
X14667801Y-16863793D01*
X14667801Y-16863793D02*
X14658277Y-16901889D01*
X14658277Y-16901889D02*
X14648753Y-16920936D01*
X14648753Y-16920936D02*
X14639229Y-16930460D01*
X14639229Y-16930460D02*
X14620182Y-16939984D01*
X14620182Y-16939984D02*
X14601134Y-16939984D01*
X14601134Y-16939984D02*
X14582086Y-16930460D01*
X14582086Y-16930460D02*
X14572563Y-16920936D01*
X14572563Y-16920936D02*
X14563039Y-16901889D01*
X14563039Y-16901889D02*
X14553515Y-16863793D01*
X14553515Y-16863793D02*
X14553515Y-16816174D01*
X14553515Y-16816174D02*
X14563039Y-16778079D01*
X14563039Y-16778079D02*
X14572563Y-16759031D01*
X14572563Y-16759031D02*
X14582086Y-16749508D01*
X14582086Y-16749508D02*
X14601134Y-16739984D01*
X14753515Y-16920936D02*
X14763039Y-16930460D01*
X14763039Y-16930460D02*
X14753515Y-16939984D01*
X14753515Y-16939984D02*
X14743991Y-16930460D01*
X14743991Y-16930460D02*
X14753515Y-16920936D01*
X14753515Y-16920936D02*
X14753515Y-16939984D01*
X14886848Y-16739984D02*
X14905896Y-16739984D01*
X14905896Y-16739984D02*
X14924944Y-16749508D01*
X14924944Y-16749508D02*
X14934467Y-16759031D01*
X14934467Y-16759031D02*
X14943991Y-16778079D01*
X14943991Y-16778079D02*
X14953515Y-16816174D01*
X14953515Y-16816174D02*
X14953515Y-16863793D01*
X14953515Y-16863793D02*
X14943991Y-16901889D01*
X14943991Y-16901889D02*
X14934467Y-16920936D01*
X14934467Y-16920936D02*
X14924944Y-16930460D01*
X14924944Y-16930460D02*
X14905896Y-16939984D01*
X14905896Y-16939984D02*
X14886848Y-16939984D01*
X14886848Y-16939984D02*
X14867801Y-16930460D01*
X14867801Y-16930460D02*
X14858277Y-16920936D01*
X14858277Y-16920936D02*
X14848753Y-16901889D01*
X14848753Y-16901889D02*
X14839229Y-16863793D01*
X14839229Y-16863793D02*
X14839229Y-16816174D01*
X14839229Y-16816174D02*
X14848753Y-16778079D01*
X14848753Y-16778079D02*
X14858277Y-16759031D01*
X14858277Y-16759031D02*
X14867801Y-16749508D01*
X14867801Y-16749508D02*
X14886848Y-16739984D01*
X15134467Y-16739984D02*
X15039229Y-16739984D01*
X15039229Y-16739984D02*
X15029706Y-16835222D01*
X15029706Y-16835222D02*
X15039229Y-16825698D01*
X15039229Y-16825698D02*
X15058277Y-16816174D01*
X15058277Y-16816174D02*
X15105896Y-16816174D01*
X15105896Y-16816174D02*
X15124944Y-16825698D01*
X15124944Y-16825698D02*
X15134467Y-16835222D01*
X15134467Y-16835222D02*
X15143991Y-16854270D01*
X15143991Y-16854270D02*
X15143991Y-16901889D01*
X15143991Y-16901889D02*
X15134467Y-16920936D01*
X15134467Y-16920936D02*
X15124944Y-16930460D01*
X15124944Y-16930460D02*
X15105896Y-16939984D01*
X15105896Y-16939984D02*
X15058277Y-16939984D01*
X15058277Y-16939984D02*
X15039229Y-16930460D01*
X15039229Y-16930460D02*
X15029706Y-16920936D01*
X15324944Y-16739984D02*
X15229706Y-16739984D01*
X15229706Y-16739984D02*
X15220182Y-16835222D01*
X15220182Y-16835222D02*
X15229706Y-16825698D01*
X15229706Y-16825698D02*
X15248753Y-16816174D01*
X15248753Y-16816174D02*
X15296372Y-16816174D01*
X15296372Y-16816174D02*
X15315420Y-16825698D01*
X15315420Y-16825698D02*
X15324944Y-16835222D01*
X15324944Y-16835222D02*
X15334467Y-16854270D01*
X15334467Y-16854270D02*
X15334467Y-16901889D01*
X15334467Y-16901889D02*
X15324944Y-16920936D01*
X15324944Y-16920936D02*
X15315420Y-16930460D01*
X15315420Y-16930460D02*
X15296372Y-16939984D01*
X15296372Y-16939984D02*
X15248753Y-16939984D01*
X15248753Y-16939984D02*
X15229706Y-16930460D01*
X15229706Y-16930460D02*
X15220182Y-16920936D01*
X15429706Y-16939984D02*
X15467801Y-16939984D01*
X15467801Y-16939984D02*
X15486848Y-16930460D01*
X15486848Y-16930460D02*
X15496372Y-16920936D01*
X15496372Y-16920936D02*
X15515420Y-16892365D01*
X15515420Y-16892365D02*
X15524944Y-16854270D01*
X15524944Y-16854270D02*
X15524944Y-16778079D01*
X15524944Y-16778079D02*
X15515420Y-16759031D01*
X15515420Y-16759031D02*
X15505896Y-16749508D01*
X15505896Y-16749508D02*
X15486848Y-16739984D01*
X15486848Y-16739984D02*
X15448753Y-16739984D01*
X15448753Y-16739984D02*
X15429706Y-16749508D01*
X15429706Y-16749508D02*
X15420182Y-16759031D01*
X15420182Y-16759031D02*
X15410658Y-16778079D01*
X15410658Y-16778079D02*
X15410658Y-16825698D01*
X15410658Y-16825698D02*
X15420182Y-16844746D01*
X15420182Y-16844746D02*
X15429706Y-16854270D01*
X15429706Y-16854270D02*
X15448753Y-16863793D01*
X15448753Y-16863793D02*
X15486848Y-16863793D01*
X15486848Y-16863793D02*
X15505896Y-16854270D01*
X15505896Y-16854270D02*
X15515420Y-16844746D01*
X15515420Y-16844746D02*
X15524944Y-16825698D01*
X15601134Y-16739984D02*
X15601134Y-16778079D01*
X15677325Y-16739984D02*
X15677325Y-16778079D01*
X15972563Y-17016174D02*
X15963039Y-17006650D01*
X15963039Y-17006650D02*
X15943991Y-16978079D01*
X15943991Y-16978079D02*
X15934468Y-16959031D01*
X15934468Y-16959031D02*
X15924944Y-16930460D01*
X15924944Y-16930460D02*
X15915420Y-16882841D01*
X15915420Y-16882841D02*
X15915420Y-16844746D01*
X15915420Y-16844746D02*
X15924944Y-16797127D01*
X15924944Y-16797127D02*
X15934468Y-16768555D01*
X15934468Y-16768555D02*
X15943991Y-16749508D01*
X15943991Y-16749508D02*
X15963039Y-16720936D01*
X15963039Y-16720936D02*
X15972563Y-16711412D01*
X16029706Y-16739984D02*
X16153515Y-16739984D01*
X16153515Y-16739984D02*
X16086848Y-16816174D01*
X16086848Y-16816174D02*
X16115420Y-16816174D01*
X16115420Y-16816174D02*
X16134468Y-16825698D01*
X16134468Y-16825698D02*
X16143991Y-16835222D01*
X16143991Y-16835222D02*
X16153515Y-16854270D01*
X16153515Y-16854270D02*
X16153515Y-16901889D01*
X16153515Y-16901889D02*
X16143991Y-16920936D01*
X16143991Y-16920936D02*
X16134468Y-16930460D01*
X16134468Y-16930460D02*
X16115420Y-16939984D01*
X16115420Y-16939984D02*
X16058277Y-16939984D01*
X16058277Y-16939984D02*
X16039229Y-16930460D01*
X16039229Y-16930460D02*
X16029706Y-16920936D01*
X16391610Y-16939984D02*
X16391610Y-16739984D01*
X16477325Y-16939984D02*
X16477325Y-16835222D01*
X16477325Y-16835222D02*
X16467801Y-16816174D01*
X16467801Y-16816174D02*
X16448753Y-16806650D01*
X16448753Y-16806650D02*
X16420182Y-16806650D01*
X16420182Y-16806650D02*
X16401134Y-16816174D01*
X16401134Y-16816174D02*
X16391610Y-16825698D01*
X16601134Y-16939984D02*
X16582087Y-16930460D01*
X16582087Y-16930460D02*
X16572563Y-16920936D01*
X16572563Y-16920936D02*
X16563039Y-16901889D01*
X16563039Y-16901889D02*
X16563039Y-16844746D01*
X16563039Y-16844746D02*
X16572563Y-16825698D01*
X16572563Y-16825698D02*
X16582087Y-16816174D01*
X16582087Y-16816174D02*
X16601134Y-16806650D01*
X16601134Y-16806650D02*
X16629706Y-16806650D01*
X16629706Y-16806650D02*
X16648753Y-16816174D01*
X16648753Y-16816174D02*
X16658277Y-16825698D01*
X16658277Y-16825698D02*
X16667801Y-16844746D01*
X16667801Y-16844746D02*
X16667801Y-16901889D01*
X16667801Y-16901889D02*
X16658277Y-16920936D01*
X16658277Y-16920936D02*
X16648753Y-16930460D01*
X16648753Y-16930460D02*
X16629706Y-16939984D01*
X16629706Y-16939984D02*
X16601134Y-16939984D01*
X16782087Y-16939984D02*
X16763039Y-16930460D01*
X16763039Y-16930460D02*
X16753515Y-16911412D01*
X16753515Y-16911412D02*
X16753515Y-16739984D01*
X16934468Y-16930460D02*
X16915420Y-16939984D01*
X16915420Y-16939984D02*
X16877325Y-16939984D01*
X16877325Y-16939984D02*
X16858277Y-16930460D01*
X16858277Y-16930460D02*
X16848753Y-16911412D01*
X16848753Y-16911412D02*
X16848753Y-16835222D01*
X16848753Y-16835222D02*
X16858277Y-16816174D01*
X16858277Y-16816174D02*
X16877325Y-16806650D01*
X16877325Y-16806650D02*
X16915420Y-16806650D01*
X16915420Y-16806650D02*
X16934468Y-16816174D01*
X16934468Y-16816174D02*
X16943992Y-16835222D01*
X16943992Y-16835222D02*
X16943992Y-16854270D01*
X16943992Y-16854270D02*
X16848753Y-16873317D01*
X17020182Y-16930460D02*
X17039230Y-16939984D01*
X17039230Y-16939984D02*
X17077325Y-16939984D01*
X17077325Y-16939984D02*
X17096373Y-16930460D01*
X17096373Y-16930460D02*
X17105896Y-16911412D01*
X17105896Y-16911412D02*
X17105896Y-16901889D01*
X17105896Y-16901889D02*
X17096373Y-16882841D01*
X17096373Y-16882841D02*
X17077325Y-16873317D01*
X17077325Y-16873317D02*
X17048753Y-16873317D01*
X17048753Y-16873317D02*
X17029706Y-16863793D01*
X17029706Y-16863793D02*
X17020182Y-16844746D01*
X17020182Y-16844746D02*
X17020182Y-16835222D01*
X17020182Y-16835222D02*
X17029706Y-16816174D01*
X17029706Y-16816174D02*
X17048753Y-16806650D01*
X17048753Y-16806650D02*
X17077325Y-16806650D01*
X17077325Y-16806650D02*
X17096373Y-16816174D01*
X17172563Y-17016174D02*
X17182087Y-17006650D01*
X17182087Y-17006650D02*
X17201134Y-16978079D01*
X17201134Y-16978079D02*
X17210658Y-16959031D01*
X17210658Y-16959031D02*
X17220182Y-16930460D01*
X17220182Y-16930460D02*
X17229706Y-16882841D01*
X17229706Y-16882841D02*
X17229706Y-16844746D01*
X17229706Y-16844746D02*
X17220182Y-16797127D01*
X17220182Y-16797127D02*
X17210658Y-16768555D01*
X17210658Y-16768555D02*
X17201134Y-16749508D01*
X17201134Y-16749508D02*
X17182087Y-16720936D01*
X17182087Y-16720936D02*
X17172563Y-16711412D01*
D16*
X12254500Y-17041000D02*
X12397500Y-17184000D01*
X12397500Y-17041000D02*
X12254500Y-17184000D01*
X12397500Y-17112500D02*
G75*
G02*
X12254500Y-17112500I-71500J0D01*
G01*
X12254500Y-17112500D02*
G75*
G02*
X12397500Y-17112500I71500J0D01*
G01*
D11*
X12763039Y-17203984D02*
X12648753Y-17203984D01*
X12705896Y-17203984D02*
X12705896Y-17003984D01*
X12705896Y-17003984D02*
X12686848Y-17032555D01*
X12686848Y-17032555D02*
X12667801Y-17051603D01*
X12667801Y-17051603D02*
X12648753Y-17061127D01*
X12848753Y-17184936D02*
X12858277Y-17194460D01*
X12858277Y-17194460D02*
X12848753Y-17203984D01*
X12848753Y-17203984D02*
X12839229Y-17194460D01*
X12839229Y-17194460D02*
X12848753Y-17184936D01*
X12848753Y-17184936D02*
X12848753Y-17203984D01*
X13029705Y-17070650D02*
X13029705Y-17203984D01*
X12982086Y-16994460D02*
X12934467Y-17137317D01*
X12934467Y-17137317D02*
X13058277Y-17137317D01*
X13115420Y-17003984D02*
X13239229Y-17003984D01*
X13239229Y-17003984D02*
X13172562Y-17080174D01*
X13172562Y-17080174D02*
X13201134Y-17080174D01*
X13201134Y-17080174D02*
X13220182Y-17089698D01*
X13220182Y-17089698D02*
X13229705Y-17099222D01*
X13229705Y-17099222D02*
X13239229Y-17118270D01*
X13239229Y-17118270D02*
X13239229Y-17165889D01*
X13239229Y-17165889D02*
X13229705Y-17184936D01*
X13229705Y-17184936D02*
X13220182Y-17194460D01*
X13220182Y-17194460D02*
X13201134Y-17203984D01*
X13201134Y-17203984D02*
X13143991Y-17203984D01*
X13143991Y-17203984D02*
X13124943Y-17194460D01*
X13124943Y-17194460D02*
X13115420Y-17184936D01*
X13363039Y-17003984D02*
X13382086Y-17003984D01*
X13382086Y-17003984D02*
X13401134Y-17013508D01*
X13401134Y-17013508D02*
X13410658Y-17023031D01*
X13410658Y-17023031D02*
X13420182Y-17042079D01*
X13420182Y-17042079D02*
X13429705Y-17080174D01*
X13429705Y-17080174D02*
X13429705Y-17127793D01*
X13429705Y-17127793D02*
X13420182Y-17165889D01*
X13420182Y-17165889D02*
X13410658Y-17184936D01*
X13410658Y-17184936D02*
X13401134Y-17194460D01*
X13401134Y-17194460D02*
X13382086Y-17203984D01*
X13382086Y-17203984D02*
X13363039Y-17203984D01*
X13363039Y-17203984D02*
X13343991Y-17194460D01*
X13343991Y-17194460D02*
X13334467Y-17184936D01*
X13334467Y-17184936D02*
X13324943Y-17165889D01*
X13324943Y-17165889D02*
X13315420Y-17127793D01*
X13315420Y-17127793D02*
X13315420Y-17080174D01*
X13315420Y-17080174D02*
X13324943Y-17042079D01*
X13324943Y-17042079D02*
X13334467Y-17023031D01*
X13334467Y-17023031D02*
X13343991Y-17013508D01*
X13343991Y-17013508D02*
X13363039Y-17003984D01*
X13515420Y-17203984D02*
X13515420Y-17070650D01*
X13515420Y-17089698D02*
X13524943Y-17080174D01*
X13524943Y-17080174D02*
X13543991Y-17070650D01*
X13543991Y-17070650D02*
X13572563Y-17070650D01*
X13572563Y-17070650D02*
X13591610Y-17080174D01*
X13591610Y-17080174D02*
X13601134Y-17099222D01*
X13601134Y-17099222D02*
X13601134Y-17203984D01*
X13601134Y-17099222D02*
X13610658Y-17080174D01*
X13610658Y-17080174D02*
X13629705Y-17070650D01*
X13629705Y-17070650D02*
X13658277Y-17070650D01*
X13658277Y-17070650D02*
X13677324Y-17080174D01*
X13677324Y-17080174D02*
X13686848Y-17099222D01*
X13686848Y-17099222D02*
X13686848Y-17203984D01*
X13782086Y-17203984D02*
X13782086Y-17070650D01*
X13782086Y-17089698D02*
X13791610Y-17080174D01*
X13791610Y-17080174D02*
X13810658Y-17070650D01*
X13810658Y-17070650D02*
X13839229Y-17070650D01*
X13839229Y-17070650D02*
X13858277Y-17080174D01*
X13858277Y-17080174D02*
X13867801Y-17099222D01*
X13867801Y-17099222D02*
X13867801Y-17203984D01*
X13867801Y-17099222D02*
X13877324Y-17080174D01*
X13877324Y-17080174D02*
X13896372Y-17070650D01*
X13896372Y-17070650D02*
X13924943Y-17070650D01*
X13924943Y-17070650D02*
X13943991Y-17080174D01*
X13943991Y-17080174D02*
X13953515Y-17099222D01*
X13953515Y-17099222D02*
X13953515Y-17203984D01*
X14343991Y-16994460D02*
X14172563Y-17251603D01*
X14601134Y-17003984D02*
X14620182Y-17003984D01*
X14620182Y-17003984D02*
X14639229Y-17013508D01*
X14639229Y-17013508D02*
X14648753Y-17023031D01*
X14648753Y-17023031D02*
X14658277Y-17042079D01*
X14658277Y-17042079D02*
X14667801Y-17080174D01*
X14667801Y-17080174D02*
X14667801Y-17127793D01*
X14667801Y-17127793D02*
X14658277Y-17165889D01*
X14658277Y-17165889D02*
X14648753Y-17184936D01*
X14648753Y-17184936D02*
X14639229Y-17194460D01*
X14639229Y-17194460D02*
X14620182Y-17203984D01*
X14620182Y-17203984D02*
X14601134Y-17203984D01*
X14601134Y-17203984D02*
X14582086Y-17194460D01*
X14582086Y-17194460D02*
X14572563Y-17184936D01*
X14572563Y-17184936D02*
X14563039Y-17165889D01*
X14563039Y-17165889D02*
X14553515Y-17127793D01*
X14553515Y-17127793D02*
X14553515Y-17080174D01*
X14553515Y-17080174D02*
X14563039Y-17042079D01*
X14563039Y-17042079D02*
X14572563Y-17023031D01*
X14572563Y-17023031D02*
X14582086Y-17013508D01*
X14582086Y-17013508D02*
X14601134Y-17003984D01*
X14753515Y-17184936D02*
X14763039Y-17194460D01*
X14763039Y-17194460D02*
X14753515Y-17203984D01*
X14753515Y-17203984D02*
X14743991Y-17194460D01*
X14743991Y-17194460D02*
X14753515Y-17184936D01*
X14753515Y-17184936D02*
X14753515Y-17203984D01*
X14886848Y-17003984D02*
X14905896Y-17003984D01*
X14905896Y-17003984D02*
X14924944Y-17013508D01*
X14924944Y-17013508D02*
X14934467Y-17023031D01*
X14934467Y-17023031D02*
X14943991Y-17042079D01*
X14943991Y-17042079D02*
X14953515Y-17080174D01*
X14953515Y-17080174D02*
X14953515Y-17127793D01*
X14953515Y-17127793D02*
X14943991Y-17165889D01*
X14943991Y-17165889D02*
X14934467Y-17184936D01*
X14934467Y-17184936D02*
X14924944Y-17194460D01*
X14924944Y-17194460D02*
X14905896Y-17203984D01*
X14905896Y-17203984D02*
X14886848Y-17203984D01*
X14886848Y-17203984D02*
X14867801Y-17194460D01*
X14867801Y-17194460D02*
X14858277Y-17184936D01*
X14858277Y-17184936D02*
X14848753Y-17165889D01*
X14848753Y-17165889D02*
X14839229Y-17127793D01*
X14839229Y-17127793D02*
X14839229Y-17080174D01*
X14839229Y-17080174D02*
X14848753Y-17042079D01*
X14848753Y-17042079D02*
X14858277Y-17023031D01*
X14858277Y-17023031D02*
X14867801Y-17013508D01*
X14867801Y-17013508D02*
X14886848Y-17003984D01*
X15134467Y-17003984D02*
X15039229Y-17003984D01*
X15039229Y-17003984D02*
X15029706Y-17099222D01*
X15029706Y-17099222D02*
X15039229Y-17089698D01*
X15039229Y-17089698D02*
X15058277Y-17080174D01*
X15058277Y-17080174D02*
X15105896Y-17080174D01*
X15105896Y-17080174D02*
X15124944Y-17089698D01*
X15124944Y-17089698D02*
X15134467Y-17099222D01*
X15134467Y-17099222D02*
X15143991Y-17118270D01*
X15143991Y-17118270D02*
X15143991Y-17165889D01*
X15143991Y-17165889D02*
X15134467Y-17184936D01*
X15134467Y-17184936D02*
X15124944Y-17194460D01*
X15124944Y-17194460D02*
X15105896Y-17203984D01*
X15105896Y-17203984D02*
X15058277Y-17203984D01*
X15058277Y-17203984D02*
X15039229Y-17194460D01*
X15039229Y-17194460D02*
X15029706Y-17184936D01*
X15315420Y-17003984D02*
X15277325Y-17003984D01*
X15277325Y-17003984D02*
X15258277Y-17013508D01*
X15258277Y-17013508D02*
X15248753Y-17023031D01*
X15248753Y-17023031D02*
X15229706Y-17051603D01*
X15229706Y-17051603D02*
X15220182Y-17089698D01*
X15220182Y-17089698D02*
X15220182Y-17165889D01*
X15220182Y-17165889D02*
X15229706Y-17184936D01*
X15229706Y-17184936D02*
X15239229Y-17194460D01*
X15239229Y-17194460D02*
X15258277Y-17203984D01*
X15258277Y-17203984D02*
X15296372Y-17203984D01*
X15296372Y-17203984D02*
X15315420Y-17194460D01*
X15315420Y-17194460D02*
X15324944Y-17184936D01*
X15324944Y-17184936D02*
X15334467Y-17165889D01*
X15334467Y-17165889D02*
X15334467Y-17118270D01*
X15334467Y-17118270D02*
X15324944Y-17099222D01*
X15324944Y-17099222D02*
X15315420Y-17089698D01*
X15315420Y-17089698D02*
X15296372Y-17080174D01*
X15296372Y-17080174D02*
X15258277Y-17080174D01*
X15258277Y-17080174D02*
X15239229Y-17089698D01*
X15239229Y-17089698D02*
X15229706Y-17099222D01*
X15229706Y-17099222D02*
X15220182Y-17118270D01*
X15401134Y-17003984D02*
X15524944Y-17003984D01*
X15524944Y-17003984D02*
X15458277Y-17080174D01*
X15458277Y-17080174D02*
X15486848Y-17080174D01*
X15486848Y-17080174D02*
X15505896Y-17089698D01*
X15505896Y-17089698D02*
X15515420Y-17099222D01*
X15515420Y-17099222D02*
X15524944Y-17118270D01*
X15524944Y-17118270D02*
X15524944Y-17165889D01*
X15524944Y-17165889D02*
X15515420Y-17184936D01*
X15515420Y-17184936D02*
X15505896Y-17194460D01*
X15505896Y-17194460D02*
X15486848Y-17203984D01*
X15486848Y-17203984D02*
X15429706Y-17203984D01*
X15429706Y-17203984D02*
X15410658Y-17194460D01*
X15410658Y-17194460D02*
X15401134Y-17184936D01*
X15601134Y-17003984D02*
X15601134Y-17042079D01*
X15677325Y-17003984D02*
X15677325Y-17042079D01*
X15972563Y-17280174D02*
X15963039Y-17270650D01*
X15963039Y-17270650D02*
X15943991Y-17242079D01*
X15943991Y-17242079D02*
X15934468Y-17223031D01*
X15934468Y-17223031D02*
X15924944Y-17194460D01*
X15924944Y-17194460D02*
X15915420Y-17146841D01*
X15915420Y-17146841D02*
X15915420Y-17108746D01*
X15915420Y-17108746D02*
X15924944Y-17061127D01*
X15924944Y-17061127D02*
X15934468Y-17032555D01*
X15934468Y-17032555D02*
X15943991Y-17013508D01*
X15943991Y-17013508D02*
X15963039Y-16984936D01*
X15963039Y-16984936D02*
X15972563Y-16975412D01*
X16029706Y-17003984D02*
X16153515Y-17003984D01*
X16153515Y-17003984D02*
X16086848Y-17080174D01*
X16086848Y-17080174D02*
X16115420Y-17080174D01*
X16115420Y-17080174D02*
X16134468Y-17089698D01*
X16134468Y-17089698D02*
X16143991Y-17099222D01*
X16143991Y-17099222D02*
X16153515Y-17118270D01*
X16153515Y-17118270D02*
X16153515Y-17165889D01*
X16153515Y-17165889D02*
X16143991Y-17184936D01*
X16143991Y-17184936D02*
X16134468Y-17194460D01*
X16134468Y-17194460D02*
X16115420Y-17203984D01*
X16115420Y-17203984D02*
X16058277Y-17203984D01*
X16058277Y-17203984D02*
X16039229Y-17194460D01*
X16039229Y-17194460D02*
X16029706Y-17184936D01*
X16391610Y-17203984D02*
X16391610Y-17003984D01*
X16477325Y-17203984D02*
X16477325Y-17099222D01*
X16477325Y-17099222D02*
X16467801Y-17080174D01*
X16467801Y-17080174D02*
X16448753Y-17070650D01*
X16448753Y-17070650D02*
X16420182Y-17070650D01*
X16420182Y-17070650D02*
X16401134Y-17080174D01*
X16401134Y-17080174D02*
X16391610Y-17089698D01*
X16601134Y-17203984D02*
X16582087Y-17194460D01*
X16582087Y-17194460D02*
X16572563Y-17184936D01*
X16572563Y-17184936D02*
X16563039Y-17165889D01*
X16563039Y-17165889D02*
X16563039Y-17108746D01*
X16563039Y-17108746D02*
X16572563Y-17089698D01*
X16572563Y-17089698D02*
X16582087Y-17080174D01*
X16582087Y-17080174D02*
X16601134Y-17070650D01*
X16601134Y-17070650D02*
X16629706Y-17070650D01*
X16629706Y-17070650D02*
X16648753Y-17080174D01*
X16648753Y-17080174D02*
X16658277Y-17089698D01*
X16658277Y-17089698D02*
X16667801Y-17108746D01*
X16667801Y-17108746D02*
X16667801Y-17165889D01*
X16667801Y-17165889D02*
X16658277Y-17184936D01*
X16658277Y-17184936D02*
X16648753Y-17194460D01*
X16648753Y-17194460D02*
X16629706Y-17203984D01*
X16629706Y-17203984D02*
X16601134Y-17203984D01*
X16782087Y-17203984D02*
X16763039Y-17194460D01*
X16763039Y-17194460D02*
X16753515Y-17175412D01*
X16753515Y-17175412D02*
X16753515Y-17003984D01*
X16934468Y-17194460D02*
X16915420Y-17203984D01*
X16915420Y-17203984D02*
X16877325Y-17203984D01*
X16877325Y-17203984D02*
X16858277Y-17194460D01*
X16858277Y-17194460D02*
X16848753Y-17175412D01*
X16848753Y-17175412D02*
X16848753Y-17099222D01*
X16848753Y-17099222D02*
X16858277Y-17080174D01*
X16858277Y-17080174D02*
X16877325Y-17070650D01*
X16877325Y-17070650D02*
X16915420Y-17070650D01*
X16915420Y-17070650D02*
X16934468Y-17080174D01*
X16934468Y-17080174D02*
X16943992Y-17099222D01*
X16943992Y-17099222D02*
X16943992Y-17118270D01*
X16943992Y-17118270D02*
X16848753Y-17137317D01*
X17020182Y-17194460D02*
X17039230Y-17203984D01*
X17039230Y-17203984D02*
X17077325Y-17203984D01*
X17077325Y-17203984D02*
X17096373Y-17194460D01*
X17096373Y-17194460D02*
X17105896Y-17175412D01*
X17105896Y-17175412D02*
X17105896Y-17165889D01*
X17105896Y-17165889D02*
X17096373Y-17146841D01*
X17096373Y-17146841D02*
X17077325Y-17137317D01*
X17077325Y-17137317D02*
X17048753Y-17137317D01*
X17048753Y-17137317D02*
X17029706Y-17127793D01*
X17029706Y-17127793D02*
X17020182Y-17108746D01*
X17020182Y-17108746D02*
X17020182Y-17099222D01*
X17020182Y-17099222D02*
X17029706Y-17080174D01*
X17029706Y-17080174D02*
X17048753Y-17070650D01*
X17048753Y-17070650D02*
X17077325Y-17070650D01*
X17077325Y-17070650D02*
X17096373Y-17080174D01*
X17172563Y-17280174D02*
X17182087Y-17270650D01*
X17182087Y-17270650D02*
X17201134Y-17242079D01*
X17201134Y-17242079D02*
X17210658Y-17223031D01*
X17210658Y-17223031D02*
X17220182Y-17194460D01*
X17220182Y-17194460D02*
X17229706Y-17146841D01*
X17229706Y-17146841D02*
X17229706Y-17108746D01*
X17229706Y-17108746D02*
X17220182Y-17061127D01*
X17220182Y-17061127D02*
X17210658Y-17032555D01*
X17210658Y-17032555D02*
X17201134Y-17013508D01*
X17201134Y-17013508D02*
X17182087Y-16984936D01*
X17182087Y-16984936D02*
X17172563Y-16975412D01*
M02*
