%TF.GenerationSoftware,KiCad,Pcbnew,9.0.6*%
%TF.CreationDate,2025-12-01T21:19:51-05:00*%
%TF.ProjectId,Pico 2HP Controls,5069636f-2032-4485-9020-436f6e74726f,rev?*%
%TF.SameCoordinates,Original*%
%TF.FileFunction,Copper,L1,Top*%
%TF.FilePolarity,Positive*%
%FSLAX46Y46*%
G04 Gerber Fmt 4.6, Leading zero omitted, Abs format (unit mm)*
G04 Created by KiCad (PCBNEW 9.0.6) date 2025-12-01 21:19:51*
%MOMM*%
%LPD*%
G01*
G04 APERTURE LIST*
G04 Aperture macros list*
%AMRoundRect*
0 Rectangle with rounded corners*
0 $1 Rounding radius*
0 $2 $3 $4 $5 $6 $7 $8 $9 X,Y pos of 4 corners*
0 Add a 4 corners polygon primitive as box body*
4,1,4,$2,$3,$4,$5,$6,$7,$8,$9,$2,$3,0*
0 Add four circle primitives for the rounded corners*
1,1,$1+$1,$2,$3*
1,1,$1+$1,$4,$5*
1,1,$1+$1,$6,$7*
1,1,$1+$1,$8,$9*
0 Add four rect primitives between the rounded corners*
20,1,$1+$1,$2,$3,$4,$5,0*
20,1,$1+$1,$4,$5,$6,$7,0*
20,1,$1+$1,$6,$7,$8,$9,0*
20,1,$1+$1,$8,$9,$2,$3,0*%
G04 Aperture macros list end*
%TA.AperFunction,EtchedComponent*%
%ADD10C,0.200000*%
%TD*%
%TA.AperFunction,ComponentPad*%
%ADD11R,1.700000X1.700000*%
%TD*%
%TA.AperFunction,ComponentPad*%
%ADD12C,1.700000*%
%TD*%
%TA.AperFunction,SMDPad,CuDef*%
%ADD13RoundRect,0.120000X-0.780000X-0.480000X0.780000X-0.480000X0.780000X0.480000X-0.780000X0.480000X0*%
%TD*%
%TA.AperFunction,ComponentPad*%
%ADD14R,1.930000X1.830000*%
%TD*%
%TA.AperFunction,ComponentPad*%
%ADD15C,2.130000*%
%TD*%
%TA.AperFunction,ComponentPad*%
%ADD16R,1.800000X1.800000*%
%TD*%
%TA.AperFunction,ComponentPad*%
%ADD17C,1.800000*%
%TD*%
%TA.AperFunction,SMDPad,CuDef*%
%ADD18RoundRect,0.237500X0.300000X0.237500X-0.300000X0.237500X-0.300000X-0.237500X0.300000X-0.237500X0*%
%TD*%
%TA.AperFunction,ComponentPad*%
%ADD19C,2.000000*%
%TD*%
%TA.AperFunction,ViaPad*%
%ADD20C,0.600000*%
%TD*%
%TA.AperFunction,Conductor*%
%ADD21C,0.200000*%
%TD*%
G04 APERTURE END LIST*
%TO.C,RV4*%
D10*
X125957500Y-117270000D02*
X124832500Y-117270000D01*
X124832500Y-122270000D01*
X125957500Y-122270000D01*
X125957500Y-117270000D01*
%TA.AperFunction,EtchedComponent*%
G36*
X125957500Y-117270000D02*
G01*
X124832500Y-117270000D01*
X124832500Y-122270000D01*
X125957500Y-122270000D01*
X125957500Y-117270000D01*
G37*
%TD.AperFunction*%
X133122500Y-117255000D02*
X131997500Y-117255000D01*
X131997500Y-122255000D01*
X133122500Y-122255000D01*
X133122500Y-117255000D01*
%TA.AperFunction,EtchedComponent*%
G36*
X133122500Y-117255000D02*
G01*
X131997500Y-117255000D01*
X131997500Y-122255000D01*
X133122500Y-122255000D01*
X133122500Y-117255000D01*
G37*
%TD.AperFunction*%
%TO.C,RV2*%
X125957500Y-89270000D02*
X124832500Y-89270000D01*
X124832500Y-94270000D01*
X125957500Y-94270000D01*
X125957500Y-89270000D01*
%TA.AperFunction,EtchedComponent*%
G36*
X125957500Y-89270000D02*
G01*
X124832500Y-89270000D01*
X124832500Y-94270000D01*
X125957500Y-94270000D01*
X125957500Y-89270000D01*
G37*
%TD.AperFunction*%
X133122500Y-89255000D02*
X131997500Y-89255000D01*
X131997500Y-94255000D01*
X133122500Y-94255000D01*
X133122500Y-89255000D01*
%TA.AperFunction,EtchedComponent*%
G36*
X133122500Y-89255000D02*
G01*
X131997500Y-89255000D01*
X131997500Y-94255000D01*
X133122500Y-94255000D01*
X133122500Y-89255000D01*
G37*
%TD.AperFunction*%
%TO.C,RV3*%
X125957500Y-103270000D02*
X124832500Y-103270000D01*
X124832500Y-108270000D01*
X125957500Y-108270000D01*
X125957500Y-103270000D01*
%TA.AperFunction,EtchedComponent*%
G36*
X125957500Y-103270000D02*
G01*
X124832500Y-103270000D01*
X124832500Y-108270000D01*
X125957500Y-108270000D01*
X125957500Y-103270000D01*
G37*
%TD.AperFunction*%
X133122500Y-103255000D02*
X131997500Y-103255000D01*
X131997500Y-108255000D01*
X133122500Y-108255000D01*
X133122500Y-103255000D01*
%TA.AperFunction,EtchedComponent*%
G36*
X133122500Y-103255000D02*
G01*
X131997500Y-103255000D01*
X131997500Y-108255000D01*
X133122500Y-108255000D01*
X133122500Y-103255000D01*
G37*
%TD.AperFunction*%
%TO.C,RV1*%
X125957500Y-74995000D02*
X124832500Y-74995000D01*
X124832500Y-79995000D01*
X125957500Y-79995000D01*
X125957500Y-74995000D01*
%TA.AperFunction,EtchedComponent*%
G36*
X125957500Y-74995000D02*
G01*
X124832500Y-74995000D01*
X124832500Y-79995000D01*
X125957500Y-79995000D01*
X125957500Y-74995000D01*
G37*
%TD.AperFunction*%
X133122500Y-74980000D02*
X131997500Y-74980000D01*
X131997500Y-79980000D01*
X133122500Y-79980000D01*
X133122500Y-74980000D01*
%TA.AperFunction,EtchedComponent*%
G36*
X133122500Y-74980000D02*
G01*
X131997500Y-74980000D01*
X131997500Y-79980000D01*
X133122500Y-79980000D01*
X133122500Y-74980000D01*
G37*
%TD.AperFunction*%
%TD*%
D11*
%TO.P,J3,1,Pin_1*%
%TO.N,GND*%
X130200000Y-115150000D03*
D12*
%TO.P,J3,2,Pin_2*%
%TO.N,Net-(J3-Pin_2)*%
X130200000Y-117690000D03*
%TO.P,J3,3,Pin_3*%
%TO.N,Net-(J3-Pin_3)*%
X130200000Y-120230000D03*
%TO.P,J3,4,Pin_4*%
%TO.N,+3.3V*%
X130200000Y-122770000D03*
%TD*%
D13*
%TO.P,D1,1,VDD*%
%TO.N,+3.3V*%
X126440000Y-56880000D03*
%TO.P,D1,2,DOUT*%
%TO.N,unconnected-(D1-DOUT-Pad2)*%
X126430000Y-59080000D03*
%TO.P,D1,3,VSS*%
%TO.N,GND*%
X131620000Y-59090000D03*
%TO.P,D1,4,DIN*%
%TO.N,Net-(D1-DIN)*%
X131620000Y-56870000D03*
%TD*%
D14*
%TO.P,J5,S*%
%TO.N,GND*%
X129000000Y-138780000D03*
D15*
%TO.P,J5,T*%
%TO.N,Net-(J3-Pin_3)*%
X129000000Y-127380000D03*
%TO.P,J5,TN*%
%TO.N,unconnected-(J5-PadTN)*%
X129000000Y-135680000D03*
%TD*%
D11*
%TO.P,J1,1,Pin_1*%
%TO.N,Net-(J1-Pin_1)*%
X130175000Y-72875000D03*
D12*
%TO.P,J1,2,Pin_2*%
%TO.N,Net-(J1-Pin_2)*%
X130175000Y-75415000D03*
%TO.P,J1,3,Pin_3*%
%TO.N,Net-(J1-Pin_3)*%
X130175000Y-77955000D03*
%TO.P,J1,4,Pin_4*%
%TO.N,Net-(J1-Pin_4)*%
X130175000Y-80495000D03*
%TD*%
D14*
%TO.P,J4,S*%
%TO.N,GND*%
X129000000Y-54400000D03*
D15*
%TO.P,J4,T*%
%TO.N,Net-(J2-Pin_4)*%
X129000000Y-43000000D03*
%TO.P,J4,TN*%
%TO.N,unconnected-(J4-PadTN)*%
X129000000Y-51300000D03*
%TD*%
D16*
%TO.P,RV4,1,1*%
%TO.N,GND*%
X131500000Y-112275000D03*
D17*
%TO.P,RV4,2,2*%
%TO.N,Net-(J1-Pin_1)*%
X129000000Y-112275000D03*
%TO.P,RV4,3,3*%
%TO.N,+3.3V*%
X126500000Y-112275000D03*
%TD*%
D11*
%TO.P,J2,1,Pin_1*%
%TO.N,GND*%
X130175000Y-87200000D03*
D12*
%TO.P,J2,2,Pin_2*%
%TO.N,Net-(J2-Pin_2)*%
X130175000Y-89740000D03*
%TO.P,J2,3,Pin_3*%
%TO.N,Net-(D1-DIN)*%
X130175000Y-92280000D03*
%TO.P,J2,4,Pin_4*%
%TO.N,Net-(J2-Pin_4)*%
X130175000Y-94820000D03*
%TD*%
D16*
%TO.P,RV2,1,1*%
%TO.N,GND*%
X131500000Y-84275000D03*
D17*
%TO.P,RV2,2,2*%
%TO.N,Net-(J1-Pin_3)*%
X129000000Y-84275000D03*
%TO.P,RV2,3,3*%
%TO.N,+3.3V*%
X126500000Y-84275000D03*
%TD*%
D16*
%TO.P,RV3,1,1*%
%TO.N,GND*%
X131500000Y-98275000D03*
D17*
%TO.P,RV3,2,2*%
%TO.N,Net-(J1-Pin_2)*%
X129000000Y-98275000D03*
%TO.P,RV3,3,3*%
%TO.N,+3.3V*%
X126500000Y-98275000D03*
%TD*%
D18*
%TO.P,C1,1*%
%TO.N,+3.3V*%
X126862500Y-54000000D03*
%TO.P,C1,2*%
%TO.N,GND*%
X125137500Y-54000000D03*
%TD*%
D16*
%TO.P,RV1,1,1*%
%TO.N,GND*%
X131500000Y-70000000D03*
D17*
%TO.P,RV1,2,2*%
%TO.N,Net-(J1-Pin_4)*%
X129000000Y-70000000D03*
%TO.P,RV1,3,3*%
%TO.N,+3.3V*%
X126500000Y-70000000D03*
%TD*%
D14*
%TO.P,J6,S*%
%TO.N,GND*%
X129000000Y-138720000D03*
D15*
%TO.P,J6,T*%
%TO.N,Net-(J3-Pin_2)*%
X129000000Y-150120000D03*
%TO.P,J6,TN*%
%TO.N,unconnected-(J6-PadTN)*%
X129000000Y-141820000D03*
%TD*%
D19*
%TO.P,SW1,1,A*%
%TO.N,GND*%
X132250000Y-66250000D03*
X125750000Y-66250000D03*
%TO.P,SW1,2,B*%
%TO.N,Net-(J2-Pin_2)*%
X132250000Y-61750000D03*
X125750000Y-61750000D03*
%TD*%
D20*
%TO.N,GND*%
X129360000Y-60770000D03*
X126900000Y-119475000D03*
%TO.N,Net-(J2-Pin_2)*%
X128300000Y-71700000D03*
%TD*%
D21*
%TO.N,+3.3V*%
X125229000Y-59737708D02*
X125229000Y-58091000D01*
X126440000Y-55302500D02*
X126610000Y-55132500D01*
X126610000Y-54252500D02*
X126862500Y-54000000D01*
X125820892Y-59981000D02*
X125472292Y-59981000D01*
X126500000Y-70000000D02*
X127051000Y-69449000D01*
X125472292Y-59981000D02*
X125229000Y-59737708D01*
X125229000Y-58091000D02*
X126440000Y-56880000D01*
X126500000Y-68960000D02*
X128830000Y-66630000D01*
X130350000Y-122740000D02*
X130270000Y-122740000D01*
X128830000Y-66630000D02*
X128830000Y-63020000D01*
X126610000Y-55132500D02*
X126610000Y-54252500D01*
X127051000Y-61241000D02*
X127051000Y-61211108D01*
X126440000Y-56880000D02*
X126440000Y-55302500D01*
X126500000Y-70000000D02*
X126500000Y-68960000D01*
X127051000Y-61211108D02*
X125820892Y-59981000D01*
X128830000Y-63020000D02*
X127051000Y-61241000D01*
%TO.N,GND*%
X130200000Y-115150000D02*
X126900000Y-118450000D01*
X129000000Y-53550000D02*
X128280000Y-52830000D01*
X128270000Y-52840000D02*
X125370000Y-52840000D01*
X125370000Y-52840000D02*
X125137500Y-53072500D01*
X131500000Y-112275000D02*
X131500000Y-113850000D01*
X131500000Y-98275000D02*
X131500000Y-112275000D01*
X128280000Y-52830000D02*
X128270000Y-52840000D01*
X130540000Y-60770000D02*
X129360000Y-60770000D01*
X131620000Y-59090000D02*
X131620000Y-59690000D01*
X126900000Y-118450000D02*
X126900000Y-119475000D01*
X131620000Y-59690000D02*
X130540000Y-60770000D01*
X129000000Y-54400000D02*
X129000000Y-53550000D01*
X125137500Y-53072500D02*
X125137500Y-54000000D01*
X131500000Y-113850000D02*
X130200000Y-115150000D01*
%TO.N,Net-(D1-DIN)*%
X129024000Y-91129000D02*
X130175000Y-92280000D01*
X131326000Y-71724000D02*
X131326000Y-81699000D01*
X132577708Y-59991000D02*
X132169108Y-59991000D01*
X132821000Y-59747708D02*
X132577708Y-59991000D01*
X130299000Y-84774000D02*
X129024000Y-86049000D01*
X131326000Y-81699000D02*
X130299000Y-82726000D01*
X132821000Y-58071000D02*
X132821000Y-59747708D01*
X130299000Y-82726000D02*
X130299000Y-84774000D01*
X130299000Y-61861108D02*
X130299000Y-71724000D01*
X130299000Y-71724000D02*
X131326000Y-71724000D01*
X132169108Y-59991000D02*
X130299000Y-61861108D01*
X131620000Y-56870000D02*
X132821000Y-58071000D01*
X129024000Y-86049000D02*
X129024000Y-91129000D01*
%TO.N,Net-(J1-Pin_1)*%
X129000000Y-104650000D02*
X129000000Y-112275000D01*
X126575000Y-81300000D02*
X125000000Y-82875000D01*
X130175000Y-72875000D02*
X128075000Y-72875000D01*
X126575000Y-74375000D02*
X126575000Y-81300000D01*
X124925000Y-100575000D02*
X129000000Y-104650000D01*
X126750000Y-88750000D02*
X126750000Y-95325000D01*
X124925000Y-97150000D02*
X124925000Y-100575000D01*
X128075000Y-72875000D02*
X126575000Y-74375000D01*
X129520000Y-111755000D02*
X129000000Y-112275000D01*
X125000000Y-87000000D02*
X126750000Y-88750000D01*
X125000000Y-82875000D02*
X125000000Y-87000000D01*
X126750000Y-95325000D02*
X124925000Y-97150000D01*
%TO.N,Net-(J1-Pin_3)*%
X129000000Y-79130000D02*
X129000000Y-84275000D01*
X130175000Y-77955000D02*
X129000000Y-79130000D01*
%TO.N,Net-(J1-Pin_2)*%
X127701000Y-77889000D02*
X127701000Y-96976000D01*
X130175000Y-75415000D02*
X127701000Y-77889000D01*
X127701000Y-96976000D02*
X129000000Y-98275000D01*
%TO.N,Net-(J2-Pin_2)*%
X126501529Y-71700000D02*
X125299000Y-70497471D01*
X128300000Y-71700000D02*
X126501529Y-71700000D01*
X125299000Y-68540892D02*
X127051000Y-66788892D01*
X127051000Y-63051000D02*
X125750000Y-61750000D01*
X127051000Y-66788892D02*
X127051000Y-63051000D01*
X125299000Y-70497471D02*
X125299000Y-68540892D01*
%TO.N,Net-(J3-Pin_3)*%
X129000000Y-127380000D02*
X129000000Y-121430000D01*
X129000000Y-121430000D02*
X130200000Y-120230000D01*
%TO.N,Net-(J3-Pin_2)*%
X126850000Y-121952240D02*
X130200000Y-118602240D01*
X130200000Y-118602240D02*
X130200000Y-117690000D01*
X129000000Y-150120000D02*
X126850000Y-147970000D01*
X126850000Y-147970000D02*
X126850000Y-121952240D01*
%TD*%
%TA.AperFunction,Conductor*%
%TO.N,GND*%
G36*
X131705976Y-122784999D02*
G01*
X131708365Y-122785034D01*
X131733735Y-122796113D01*
X131765716Y-122814577D01*
X131918443Y-122855500D01*
X131918445Y-122855500D01*
X133201554Y-122855500D01*
X133201557Y-122855500D01*
X133343408Y-122817491D01*
X133413256Y-122819154D01*
X133471119Y-122858316D01*
X133498623Y-122922545D01*
X133499500Y-122937266D01*
X133499500Y-150875500D01*
X133479815Y-150942539D01*
X133427011Y-150988294D01*
X133375500Y-150999500D01*
X130511224Y-150999500D01*
X130444185Y-150979815D01*
X130398430Y-150927011D01*
X130388486Y-150857853D01*
X130400739Y-150819205D01*
X130450806Y-150720943D01*
X130526952Y-150486589D01*
X130565500Y-150243208D01*
X130565500Y-149996792D01*
X130526952Y-149753411D01*
X130526951Y-149753407D01*
X130526951Y-149753406D01*
X130450807Y-149519059D01*
X130338935Y-149299498D01*
X130194097Y-149100145D01*
X130019855Y-148925903D01*
X129820501Y-148781064D01*
X129600940Y-148669192D01*
X129366592Y-148593048D01*
X129184053Y-148564137D01*
X129123208Y-148554500D01*
X128876792Y-148554500D01*
X128795665Y-148567349D01*
X128633409Y-148593048D01*
X128633406Y-148593048D01*
X128470850Y-148645866D01*
X128401009Y-148647861D01*
X128344851Y-148615616D01*
X127486819Y-147757584D01*
X127453334Y-147696261D01*
X127450500Y-147669903D01*
X127450500Y-142732317D01*
X127470185Y-142665278D01*
X127522989Y-142619523D01*
X127592147Y-142609579D01*
X127655703Y-142638604D01*
X127674818Y-142659432D01*
X127727772Y-142732317D01*
X127805903Y-142839855D01*
X127980145Y-143014097D01*
X128179499Y-143158936D01*
X128399057Y-143270806D01*
X128399059Y-143270807D01*
X128633407Y-143346951D01*
X128633408Y-143346951D01*
X128633411Y-143346952D01*
X128876792Y-143385500D01*
X128876793Y-143385500D01*
X129123207Y-143385500D01*
X129123208Y-143385500D01*
X129366589Y-143346952D01*
X129366592Y-143346951D01*
X129366593Y-143346951D01*
X129600940Y-143270807D01*
X129600940Y-143270806D01*
X129600943Y-143270806D01*
X129820501Y-143158936D01*
X130019855Y-143014097D01*
X130194097Y-142839855D01*
X130338936Y-142640501D01*
X130450806Y-142420943D01*
X130526952Y-142186589D01*
X130565500Y-141943208D01*
X130565500Y-141696792D01*
X130526952Y-141453411D01*
X130526951Y-141453407D01*
X130526951Y-141453406D01*
X130450807Y-141219059D01*
X130338935Y-140999498D01*
X130272227Y-140907682D01*
X130194097Y-140800145D01*
X130019855Y-140625903D01*
X129820501Y-140481064D01*
X129719270Y-140429484D01*
X129668475Y-140381511D01*
X129651680Y-140313690D01*
X129674217Y-140247555D01*
X129728932Y-140204103D01*
X129775566Y-140195000D01*
X130012828Y-140195000D01*
X130012844Y-140194999D01*
X130072372Y-140188598D01*
X130072379Y-140188596D01*
X130207086Y-140138354D01*
X130207093Y-140138350D01*
X130322187Y-140052190D01*
X130322190Y-140052187D01*
X130408350Y-139937093D01*
X130408354Y-139937086D01*
X130458596Y-139802379D01*
X130458598Y-139802372D01*
X130464999Y-139742844D01*
X130465000Y-139742827D01*
X130465000Y-139030000D01*
X129556706Y-139030000D01*
X129586558Y-138957931D01*
X129610000Y-138840080D01*
X129610000Y-138719920D01*
X129610000Y-138659920D01*
X129586558Y-138542069D01*
X129556706Y-138470000D01*
X130465000Y-138470000D01*
X130465000Y-137757172D01*
X130464999Y-137757155D01*
X130458598Y-137697627D01*
X130458596Y-137697620D01*
X130408354Y-137562913D01*
X130408350Y-137562906D01*
X130322190Y-137447812D01*
X130322187Y-137447809D01*
X130207093Y-137361649D01*
X130207086Y-137361645D01*
X130072379Y-137311403D01*
X130072372Y-137311401D01*
X130012844Y-137305000D01*
X129775566Y-137305000D01*
X129708527Y-137285315D01*
X129662772Y-137232511D01*
X129652828Y-137163353D01*
X129681853Y-137099797D01*
X129719271Y-137070515D01*
X129820501Y-137018936D01*
X130019855Y-136874097D01*
X130194097Y-136699855D01*
X130338936Y-136500501D01*
X130450806Y-136280943D01*
X130526952Y-136046589D01*
X130565500Y-135803208D01*
X130565500Y-135556792D01*
X130526952Y-135313411D01*
X130526951Y-135313407D01*
X130526951Y-135313406D01*
X130450807Y-135079059D01*
X130338935Y-134859498D01*
X130272227Y-134767682D01*
X130194097Y-134660145D01*
X130019855Y-134485903D01*
X129820501Y-134341064D01*
X129600940Y-134229192D01*
X129366592Y-134153048D01*
X129184053Y-134124137D01*
X129123208Y-134114500D01*
X128876792Y-134114500D01*
X128795665Y-134127349D01*
X128633409Y-134153048D01*
X128633406Y-134153048D01*
X128399059Y-134229192D01*
X128179498Y-134341064D01*
X127980142Y-134485905D01*
X127805905Y-134660142D01*
X127805905Y-134660143D01*
X127805903Y-134660145D01*
X127727773Y-134767682D01*
X127674818Y-134840568D01*
X127619488Y-134883233D01*
X127549874Y-134889212D01*
X127488080Y-134856606D01*
X127453722Y-134795767D01*
X127450500Y-134767682D01*
X127450500Y-128292317D01*
X127470185Y-128225278D01*
X127522989Y-128179523D01*
X127592147Y-128169579D01*
X127655703Y-128198604D01*
X127674818Y-128219432D01*
X127727772Y-128292317D01*
X127805903Y-128399855D01*
X127980145Y-128574097D01*
X128179499Y-128718936D01*
X128399057Y-128830806D01*
X128399059Y-128830807D01*
X128633407Y-128906951D01*
X128633408Y-128906951D01*
X128633411Y-128906952D01*
X128876792Y-128945500D01*
X128876793Y-128945500D01*
X129123207Y-128945500D01*
X129123208Y-128945500D01*
X129366589Y-128906952D01*
X129366592Y-128906951D01*
X129366593Y-128906951D01*
X129600940Y-128830807D01*
X129600940Y-128830806D01*
X129600943Y-128830806D01*
X129820501Y-128718936D01*
X130019855Y-128574097D01*
X130194097Y-128399855D01*
X130338936Y-128200501D01*
X130450806Y-127980943D01*
X130526952Y-127746589D01*
X130565500Y-127503208D01*
X130565500Y-127256792D01*
X130526952Y-127013411D01*
X130526951Y-127013407D01*
X130526951Y-127013406D01*
X130450807Y-126779059D01*
X130338935Y-126559498D01*
X130272227Y-126467682D01*
X130194097Y-126360145D01*
X130019855Y-126185903D01*
X129820501Y-126041064D01*
X129668205Y-125963465D01*
X129617409Y-125915490D01*
X129600500Y-125852980D01*
X129600500Y-124165881D01*
X129620185Y-124098842D01*
X129672989Y-124053087D01*
X129742147Y-124043143D01*
X129762814Y-124047949D01*
X129883757Y-124087246D01*
X130093713Y-124120500D01*
X130093714Y-124120500D01*
X130306286Y-124120500D01*
X130306287Y-124120500D01*
X130516243Y-124087246D01*
X130718412Y-124021557D01*
X130907816Y-123925051D01*
X130929789Y-123909086D01*
X131079786Y-123800109D01*
X131079788Y-123800106D01*
X131079792Y-123800104D01*
X131230104Y-123649792D01*
X131230106Y-123649788D01*
X131230109Y-123649786D01*
X131355048Y-123477820D01*
X131355047Y-123477820D01*
X131355051Y-123477816D01*
X131451557Y-123288412D01*
X131517246Y-123086243D01*
X131549262Y-122884101D01*
X131562648Y-122855863D01*
X131574264Y-122826849D01*
X131577492Y-122824549D01*
X131579191Y-122820967D01*
X131605723Y-122804446D01*
X131631178Y-122786320D01*
X131635137Y-122786131D01*
X131638503Y-122784036D01*
X131669749Y-122784482D01*
X131700969Y-122782995D01*
X131705976Y-122784999D01*
G37*
%TD.AperFunction*%
%TA.AperFunction,Conductor*%
G36*
X128413442Y-138542069D02*
G01*
X128390000Y-138659920D01*
X128390000Y-138719920D01*
X128390000Y-138840080D01*
X128413442Y-138957931D01*
X128443294Y-139030000D01*
X127574500Y-139030000D01*
X127507461Y-139010315D01*
X127461706Y-138957511D01*
X127450500Y-138906000D01*
X127450500Y-138594000D01*
X127470185Y-138526961D01*
X127522989Y-138481206D01*
X127574500Y-138470000D01*
X128443294Y-138470000D01*
X128413442Y-138542069D01*
G37*
%TD.AperFunction*%
%TA.AperFunction,Conductor*%
G36*
X126763203Y-103262884D02*
G01*
X126769681Y-103268916D01*
X128363181Y-104862416D01*
X128396666Y-104923739D01*
X128399500Y-104950097D01*
X128399500Y-110933164D01*
X128379815Y-111000203D01*
X128331796Y-111043648D01*
X128265976Y-111077185D01*
X128087641Y-111206752D01*
X128087636Y-111206756D01*
X127931756Y-111362636D01*
X127931752Y-111362641D01*
X127850318Y-111474727D01*
X127794989Y-111517393D01*
X127725375Y-111523372D01*
X127663580Y-111490767D01*
X127649682Y-111474727D01*
X127568247Y-111362641D01*
X127568243Y-111362636D01*
X127412363Y-111206756D01*
X127412358Y-111206752D01*
X127234025Y-111077187D01*
X127234024Y-111077186D01*
X127234022Y-111077185D01*
X127168203Y-111043648D01*
X127037606Y-110977104D01*
X127037603Y-110977103D01*
X126827952Y-110908985D01*
X126719086Y-110891742D01*
X126610222Y-110874500D01*
X126389778Y-110874500D01*
X126317201Y-110885995D01*
X126172047Y-110908985D01*
X125962396Y-110977103D01*
X125962393Y-110977104D01*
X125765974Y-111077187D01*
X125587641Y-111206752D01*
X125587636Y-111206756D01*
X125431756Y-111362636D01*
X125431752Y-111362641D01*
X125302187Y-111540974D01*
X125202104Y-111737393D01*
X125202103Y-111737396D01*
X125133985Y-111947047D01*
X125099500Y-112164778D01*
X125099500Y-112385221D01*
X125133985Y-112602952D01*
X125202103Y-112812603D01*
X125202104Y-112812606D01*
X125302187Y-113009025D01*
X125431752Y-113187358D01*
X125431756Y-113187363D01*
X125587636Y-113343243D01*
X125587641Y-113343247D01*
X125743192Y-113456260D01*
X125765978Y-113472815D01*
X125882501Y-113532187D01*
X125962393Y-113572895D01*
X125962396Y-113572896D01*
X126029802Y-113594797D01*
X126172049Y-113641015D01*
X126389778Y-113675500D01*
X126389779Y-113675500D01*
X126610221Y-113675500D01*
X126610222Y-113675500D01*
X126827951Y-113641015D01*
X127037606Y-113572895D01*
X127234022Y-113472815D01*
X127412365Y-113343242D01*
X127568242Y-113187365D01*
X127649682Y-113075270D01*
X127705011Y-113032606D01*
X127774624Y-113026627D01*
X127836420Y-113059232D01*
X127850313Y-113075265D01*
X127931753Y-113187358D01*
X127931758Y-113187365D01*
X128087636Y-113343243D01*
X128087641Y-113343247D01*
X128243192Y-113456260D01*
X128265978Y-113472815D01*
X128382501Y-113532187D01*
X128462393Y-113572895D01*
X128462396Y-113572896D01*
X128529802Y-113594797D01*
X128672049Y-113641015D01*
X128889778Y-113675500D01*
X128889779Y-113675500D01*
X128977336Y-113675500D01*
X129044375Y-113695185D01*
X129090130Y-113747989D01*
X129100074Y-113817147D01*
X129071049Y-113880703D01*
X129051647Y-113898767D01*
X128992809Y-113942813D01*
X128906649Y-114057906D01*
X128906645Y-114057913D01*
X128856403Y-114192620D01*
X128856401Y-114192627D01*
X128850000Y-114252155D01*
X128850000Y-114900000D01*
X129766988Y-114900000D01*
X129734075Y-114957007D01*
X129700000Y-115084174D01*
X129700000Y-115215826D01*
X129734075Y-115342993D01*
X129766988Y-115400000D01*
X128850000Y-115400000D01*
X128850000Y-116047844D01*
X128856401Y-116107372D01*
X128856403Y-116107379D01*
X128906645Y-116242086D01*
X128906649Y-116242093D01*
X128992809Y-116357187D01*
X128992812Y-116357190D01*
X129107906Y-116443350D01*
X129107913Y-116443354D01*
X129239470Y-116492422D01*
X129295404Y-116534293D01*
X129319821Y-116599758D01*
X129304969Y-116668031D01*
X129283819Y-116696285D01*
X129169889Y-116810215D01*
X129044951Y-116982179D01*
X128948444Y-117171585D01*
X128948443Y-117171587D01*
X128948443Y-117171588D01*
X128915598Y-117272672D01*
X128882753Y-117373760D01*
X128849500Y-117583713D01*
X128849500Y-117796287D01*
X128882754Y-118006243D01*
X128902135Y-118065892D01*
X128948444Y-118208414D01*
X129044951Y-118397820D01*
X129169890Y-118569786D01*
X129188873Y-118588769D01*
X129222358Y-118650092D01*
X129217374Y-118719784D01*
X129188873Y-118764131D01*
X126769681Y-121183323D01*
X126708358Y-121216808D01*
X126638666Y-121211824D01*
X126582733Y-121169952D01*
X126558316Y-121104488D01*
X126558000Y-121095642D01*
X126558000Y-117190945D01*
X126558000Y-117190943D01*
X126517077Y-117038216D01*
X126484727Y-116982184D01*
X126438024Y-116901290D01*
X126438018Y-116901282D01*
X126326217Y-116789481D01*
X126326209Y-116789475D01*
X126189290Y-116710426D01*
X126189286Y-116710424D01*
X126189284Y-116710423D01*
X126036557Y-116669500D01*
X124911557Y-116669500D01*
X124753443Y-116669500D01*
X124656592Y-116695450D01*
X124586743Y-116693788D01*
X124528881Y-116654625D01*
X124501377Y-116590397D01*
X124500500Y-116575676D01*
X124500500Y-108964323D01*
X124520185Y-108897284D01*
X124572989Y-108851529D01*
X124642147Y-108841585D01*
X124656571Y-108844543D01*
X124753443Y-108870500D01*
X124753446Y-108870500D01*
X126036555Y-108870500D01*
X126036557Y-108870500D01*
X126189284Y-108829577D01*
X126326216Y-108750520D01*
X126438020Y-108638716D01*
X126517077Y-108501784D01*
X126558000Y-108349057D01*
X126558000Y-103356597D01*
X126577685Y-103289558D01*
X126630489Y-103243803D01*
X126699647Y-103233859D01*
X126763203Y-103262884D01*
G37*
%TD.AperFunction*%
%TA.AperFunction,Conductor*%
G36*
X128432498Y-91420161D02*
G01*
X128443147Y-91418630D01*
X128465692Y-91428926D01*
X128489653Y-91435253D01*
X128502371Y-91445676D01*
X128506703Y-91447655D01*
X128510716Y-91452516D01*
X128516950Y-91457625D01*
X128526106Y-91467624D01*
X128543480Y-91497716D01*
X128655284Y-91609520D01*
X128655286Y-91609521D01*
X128664287Y-91618522D01*
X128841241Y-91795476D01*
X128874726Y-91856799D01*
X128871492Y-91921473D01*
X128857753Y-91963757D01*
X128824500Y-92173713D01*
X128824500Y-92386286D01*
X128857753Y-92596239D01*
X128923444Y-92798414D01*
X129019951Y-92987820D01*
X129144890Y-93159786D01*
X129295213Y-93310109D01*
X129467182Y-93435050D01*
X129475946Y-93439516D01*
X129526742Y-93487491D01*
X129543536Y-93555312D01*
X129520998Y-93621447D01*
X129475946Y-93660484D01*
X129467182Y-93664949D01*
X129295213Y-93789890D01*
X129144890Y-93940213D01*
X129019951Y-94112179D01*
X128923444Y-94301585D01*
X128857753Y-94503760D01*
X128824500Y-94713713D01*
X128824500Y-94926286D01*
X128857753Y-95136239D01*
X128923444Y-95338414D01*
X129019951Y-95527820D01*
X129144890Y-95699786D01*
X129295213Y-95850109D01*
X129467179Y-95975048D01*
X129467181Y-95975049D01*
X129467184Y-95975051D01*
X129656588Y-96071557D01*
X129858757Y-96137246D01*
X130068713Y-96170500D01*
X130068714Y-96170500D01*
X130281286Y-96170500D01*
X130281287Y-96170500D01*
X130491243Y-96137246D01*
X130693412Y-96071557D01*
X130882816Y-95975051D01*
X130904789Y-95959086D01*
X131054786Y-95850109D01*
X131054788Y-95850106D01*
X131054792Y-95850104D01*
X131205104Y-95699792D01*
X131205106Y-95699788D01*
X131205109Y-95699786D01*
X131330048Y-95527820D01*
X131330047Y-95527820D01*
X131330051Y-95527816D01*
X131426557Y-95338412D01*
X131492246Y-95136243D01*
X131525500Y-94926287D01*
X131525500Y-94890662D01*
X131545185Y-94823623D01*
X131597989Y-94777868D01*
X131667147Y-94767924D01*
X131711495Y-94783273D01*
X131765716Y-94814577D01*
X131918443Y-94855500D01*
X131918445Y-94855500D01*
X133201554Y-94855500D01*
X133201557Y-94855500D01*
X133343408Y-94817491D01*
X133413256Y-94819154D01*
X133471119Y-94858316D01*
X133498623Y-94922545D01*
X133499500Y-94937266D01*
X133499500Y-102572733D01*
X133479815Y-102639772D01*
X133427011Y-102685527D01*
X133357853Y-102695471D01*
X133343407Y-102692508D01*
X133249667Y-102667391D01*
X133201557Y-102654500D01*
X132076557Y-102654500D01*
X131918443Y-102654500D01*
X131765716Y-102695423D01*
X131765709Y-102695426D01*
X131628790Y-102774475D01*
X131628782Y-102774481D01*
X131516981Y-102886282D01*
X131516975Y-102886290D01*
X131437926Y-103023209D01*
X131437923Y-103023216D01*
X131397000Y-103175943D01*
X131397000Y-108334056D01*
X131437923Y-108486783D01*
X131437926Y-108486790D01*
X131516975Y-108623709D01*
X131516979Y-108623714D01*
X131516980Y-108623716D01*
X131628784Y-108735520D01*
X131628786Y-108735521D01*
X131628790Y-108735524D01*
X131765709Y-108814573D01*
X131765716Y-108814577D01*
X131918443Y-108855500D01*
X131918445Y-108855500D01*
X133201554Y-108855500D01*
X133201557Y-108855500D01*
X133343408Y-108817491D01*
X133413256Y-108819154D01*
X133471119Y-108858316D01*
X133498623Y-108922545D01*
X133499500Y-108937266D01*
X133499500Y-116572733D01*
X133479815Y-116639772D01*
X133427011Y-116685527D01*
X133357853Y-116695471D01*
X133343407Y-116692508D01*
X133221695Y-116659896D01*
X133201557Y-116654500D01*
X132076557Y-116654500D01*
X131918443Y-116654500D01*
X131765716Y-116695423D01*
X131765709Y-116695426D01*
X131628790Y-116774475D01*
X131628782Y-116774481D01*
X131516981Y-116886282D01*
X131516975Y-116886290D01*
X131509896Y-116898551D01*
X131459327Y-116946764D01*
X131390720Y-116959984D01*
X131325856Y-116934013D01*
X131302194Y-116909431D01*
X131230109Y-116810213D01*
X131116181Y-116696285D01*
X131082696Y-116634962D01*
X131087680Y-116565270D01*
X131129552Y-116509337D01*
X131160529Y-116492422D01*
X131292086Y-116443354D01*
X131292093Y-116443350D01*
X131407187Y-116357190D01*
X131407190Y-116357187D01*
X131493350Y-116242093D01*
X131493354Y-116242086D01*
X131543596Y-116107379D01*
X131543598Y-116107372D01*
X131549999Y-116047844D01*
X131550000Y-116047827D01*
X131550000Y-115400000D01*
X130633012Y-115400000D01*
X130665925Y-115342993D01*
X130700000Y-115215826D01*
X130700000Y-115084174D01*
X130665925Y-114957007D01*
X130633012Y-114900000D01*
X131550000Y-114900000D01*
X131550000Y-114252172D01*
X131549999Y-114252155D01*
X131543598Y-114192627D01*
X131543596Y-114192620D01*
X131493354Y-114057913D01*
X131493350Y-114057906D01*
X131407190Y-113942812D01*
X131407187Y-113942809D01*
X131284989Y-113851331D01*
X131285881Y-113850138D01*
X131243346Y-113807595D01*
X131228500Y-113739321D01*
X131250000Y-113681693D01*
X131250000Y-112708012D01*
X131307007Y-112740925D01*
X131434174Y-112775000D01*
X131565826Y-112775000D01*
X131692993Y-112740925D01*
X131750000Y-112708012D01*
X131750000Y-113675000D01*
X132447828Y-113675000D01*
X132447844Y-113674999D01*
X132507372Y-113668598D01*
X132507379Y-113668596D01*
X132642086Y-113618354D01*
X132642093Y-113618350D01*
X132757187Y-113532190D01*
X132757190Y-113532187D01*
X132843350Y-113417093D01*
X132843354Y-113417086D01*
X132893596Y-113282379D01*
X132893598Y-113282372D01*
X132899999Y-113222844D01*
X132900000Y-113222827D01*
X132900000Y-112525000D01*
X131933012Y-112525000D01*
X131965925Y-112467993D01*
X132000000Y-112340826D01*
X132000000Y-112209174D01*
X131965925Y-112082007D01*
X131933012Y-112025000D01*
X132900000Y-112025000D01*
X132900000Y-111327172D01*
X132899999Y-111327155D01*
X132893598Y-111267627D01*
X132893596Y-111267620D01*
X132843354Y-111132913D01*
X132843350Y-111132906D01*
X132757190Y-111017812D01*
X132757187Y-111017809D01*
X132642093Y-110931649D01*
X132642086Y-110931645D01*
X132507379Y-110881403D01*
X132507372Y-110881401D01*
X132447844Y-110875000D01*
X131750000Y-110875000D01*
X131750000Y-111841988D01*
X131692993Y-111809075D01*
X131565826Y-111775000D01*
X131434174Y-111775000D01*
X131307007Y-111809075D01*
X131250000Y-111841988D01*
X131250000Y-110875000D01*
X130552155Y-110875000D01*
X130492627Y-110881401D01*
X130492620Y-110881403D01*
X130357913Y-110931645D01*
X130357906Y-110931649D01*
X130242812Y-111017809D01*
X130242809Y-111017812D01*
X130156649Y-111132906D01*
X130156645Y-111132913D01*
X130137653Y-111183835D01*
X130095782Y-111239769D01*
X130030317Y-111264186D01*
X129962044Y-111249334D01*
X129933790Y-111228183D01*
X129912363Y-111206756D01*
X129912358Y-111206752D01*
X129734023Y-111077185D01*
X129668204Y-111043648D01*
X129617409Y-110995674D01*
X129600500Y-110933164D01*
X129600500Y-104570945D01*
X129600500Y-104570943D01*
X129559577Y-104418216D01*
X129559577Y-104418215D01*
X129495548Y-104307314D01*
X129480520Y-104281284D01*
X129368716Y-104169480D01*
X129368715Y-104169479D01*
X129364385Y-104165149D01*
X129364374Y-104165139D01*
X125561819Y-100362584D01*
X125528334Y-100301261D01*
X125525500Y-100274903D01*
X125525500Y-99541461D01*
X125545185Y-99474422D01*
X125597989Y-99428667D01*
X125667147Y-99418723D01*
X125722383Y-99441142D01*
X125765978Y-99472815D01*
X125862313Y-99521900D01*
X125962393Y-99572895D01*
X125962396Y-99572896D01*
X126067221Y-99606955D01*
X126172049Y-99641015D01*
X126389778Y-99675500D01*
X126389779Y-99675500D01*
X126610221Y-99675500D01*
X126610222Y-99675500D01*
X126827951Y-99641015D01*
X127037606Y-99572895D01*
X127234022Y-99472815D01*
X127412365Y-99343242D01*
X127568242Y-99187365D01*
X127649682Y-99075270D01*
X127705011Y-99032606D01*
X127774624Y-99026627D01*
X127836420Y-99059232D01*
X127850313Y-99075265D01*
X127931758Y-99187365D01*
X128087636Y-99343243D01*
X128087641Y-99343247D01*
X128191526Y-99418723D01*
X128265978Y-99472815D01*
X128382501Y-99532187D01*
X128462393Y-99572895D01*
X128462396Y-99572896D01*
X128567221Y-99606955D01*
X128672049Y-99641015D01*
X128889778Y-99675500D01*
X128889779Y-99675500D01*
X129110221Y-99675500D01*
X129110222Y-99675500D01*
X129327951Y-99641015D01*
X129537606Y-99572895D01*
X129734022Y-99472815D01*
X129912365Y-99343242D01*
X129933790Y-99321816D01*
X129995110Y-99288331D01*
X130064802Y-99293314D01*
X130120737Y-99335185D01*
X130137653Y-99366164D01*
X130156645Y-99417086D01*
X130156649Y-99417093D01*
X130242809Y-99532187D01*
X130242812Y-99532190D01*
X130357906Y-99618350D01*
X130357913Y-99618354D01*
X130492620Y-99668596D01*
X130492627Y-99668598D01*
X130552155Y-99674999D01*
X130552172Y-99675000D01*
X131250000Y-99675000D01*
X131250000Y-98708012D01*
X131307007Y-98740925D01*
X131434174Y-98775000D01*
X131565826Y-98775000D01*
X131692993Y-98740925D01*
X131750000Y-98708012D01*
X131750000Y-99675000D01*
X132447828Y-99675000D01*
X132447844Y-99674999D01*
X132507372Y-99668598D01*
X132507379Y-99668596D01*
X132642086Y-99618354D01*
X132642093Y-99618350D01*
X132757187Y-99532190D01*
X132757190Y-99532187D01*
X132843350Y-99417093D01*
X132843354Y-99417086D01*
X132893596Y-99282379D01*
X132893598Y-99282372D01*
X132899999Y-99222844D01*
X132900000Y-99222827D01*
X132900000Y-98525000D01*
X131933012Y-98525000D01*
X131965925Y-98467993D01*
X132000000Y-98340826D01*
X132000000Y-98209174D01*
X131965925Y-98082007D01*
X131933012Y-98025000D01*
X132900000Y-98025000D01*
X132900000Y-97327172D01*
X132899999Y-97327155D01*
X132893598Y-97267627D01*
X132893596Y-97267620D01*
X132843354Y-97132913D01*
X132843350Y-97132906D01*
X132757190Y-97017812D01*
X132757187Y-97017809D01*
X132642093Y-96931649D01*
X132642086Y-96931645D01*
X132507379Y-96881403D01*
X132507372Y-96881401D01*
X132447844Y-96875000D01*
X131750000Y-96875000D01*
X131750000Y-97841988D01*
X131692993Y-97809075D01*
X131565826Y-97775000D01*
X131434174Y-97775000D01*
X131307007Y-97809075D01*
X131250000Y-97841988D01*
X131250000Y-96875000D01*
X130552155Y-96875000D01*
X130492627Y-96881401D01*
X130492620Y-96881403D01*
X130357913Y-96931645D01*
X130357906Y-96931649D01*
X130242812Y-97017809D01*
X130242809Y-97017812D01*
X130156649Y-97132906D01*
X130156645Y-97132913D01*
X130137653Y-97183835D01*
X130095782Y-97239769D01*
X130030317Y-97264186D01*
X129962044Y-97249334D01*
X129933790Y-97228183D01*
X129912363Y-97206756D01*
X129912358Y-97206752D01*
X129734025Y-97077187D01*
X129734024Y-97077186D01*
X129734022Y-97077185D01*
X129671096Y-97045122D01*
X129537606Y-96977104D01*
X129537603Y-96977103D01*
X129327952Y-96908985D01*
X129219086Y-96891742D01*
X129110222Y-96874500D01*
X128889778Y-96874500D01*
X128846232Y-96881397D01*
X128672045Y-96908985D01*
X128601794Y-96931811D01*
X128531953Y-96933806D01*
X128475796Y-96901561D01*
X128337819Y-96763584D01*
X128304334Y-96702261D01*
X128301500Y-96675903D01*
X128301500Y-91541368D01*
X128308481Y-91517590D01*
X128311335Y-91492970D01*
X128318154Y-91484648D01*
X128321185Y-91474329D01*
X128339911Y-91458101D01*
X128355624Y-91438931D01*
X128365859Y-91435617D01*
X128373989Y-91428574D01*
X128398519Y-91425046D01*
X128422098Y-91417415D01*
X128432498Y-91420161D01*
G37*
%TD.AperFunction*%
%TA.AperFunction,Conductor*%
G36*
X130064802Y-113293314D02*
G01*
X130120737Y-113335185D01*
X130137653Y-113366164D01*
X130156645Y-113417086D01*
X130156649Y-113417093D01*
X130242809Y-113532187D01*
X130242812Y-113532190D01*
X130357906Y-113618350D01*
X130357913Y-113618354D01*
X130376501Y-113625287D01*
X130432435Y-113667158D01*
X130456852Y-113732622D01*
X130450000Y-113764122D01*
X130450000Y-114716988D01*
X130392993Y-114684075D01*
X130265826Y-114650000D01*
X130134174Y-114650000D01*
X130007007Y-114684075D01*
X129950000Y-114716988D01*
X129950000Y-113800000D01*
X129608385Y-113800000D01*
X129541346Y-113780315D01*
X129495591Y-113727511D01*
X129485647Y-113658353D01*
X129514672Y-113594797D01*
X129552090Y-113565515D01*
X129557371Y-113562824D01*
X129734022Y-113472815D01*
X129912365Y-113343242D01*
X129933790Y-113321816D01*
X129995110Y-113288331D01*
X130064802Y-113293314D01*
G37*
%TD.AperFunction*%
%TA.AperFunction,Conductor*%
G36*
X133413256Y-80544154D02*
G01*
X133471119Y-80583316D01*
X133498623Y-80647545D01*
X133499500Y-80662266D01*
X133499500Y-88572733D01*
X133479815Y-88639772D01*
X133427011Y-88685527D01*
X133357853Y-88695471D01*
X133343407Y-88692508D01*
X133249667Y-88667391D01*
X133201557Y-88654500D01*
X132076557Y-88654500D01*
X131918443Y-88654500D01*
X131765716Y-88695423D01*
X131765709Y-88695426D01*
X131628790Y-88774475D01*
X131628782Y-88774481D01*
X131516979Y-88886284D01*
X131482744Y-88945582D01*
X131432177Y-88993797D01*
X131363569Y-89007019D01*
X131298705Y-88981051D01*
X131275038Y-88956465D01*
X131205107Y-88860211D01*
X131091181Y-88746285D01*
X131057696Y-88684962D01*
X131062680Y-88615270D01*
X131104552Y-88559337D01*
X131135529Y-88542422D01*
X131267086Y-88493354D01*
X131267093Y-88493350D01*
X131382187Y-88407190D01*
X131382190Y-88407187D01*
X131468350Y-88292093D01*
X131468354Y-88292086D01*
X131518596Y-88157379D01*
X131518598Y-88157372D01*
X131524999Y-88097844D01*
X131525000Y-88097827D01*
X131525000Y-87450000D01*
X130608012Y-87450000D01*
X130640925Y-87392993D01*
X130675000Y-87265826D01*
X130675000Y-87134174D01*
X130640925Y-87007007D01*
X130608012Y-86950000D01*
X131525000Y-86950000D01*
X131525000Y-86302172D01*
X131524999Y-86302155D01*
X131518598Y-86242627D01*
X131518596Y-86242620D01*
X131468354Y-86107913D01*
X131468350Y-86107906D01*
X131382190Y-85992812D01*
X131382187Y-85992809D01*
X131267093Y-85906649D01*
X131267087Y-85906646D01*
X131266709Y-85906505D01*
X131266385Y-85906263D01*
X131259304Y-85902396D01*
X131259859Y-85901378D01*
X131210774Y-85864636D01*
X131186355Y-85799172D01*
X131201205Y-85730899D01*
X131222358Y-85702640D01*
X131250000Y-85674998D01*
X131250000Y-84708012D01*
X131307007Y-84740925D01*
X131434174Y-84775000D01*
X131565826Y-84775000D01*
X131692993Y-84740925D01*
X131750000Y-84708012D01*
X131750000Y-85675000D01*
X132447828Y-85675000D01*
X132447844Y-85674999D01*
X132507372Y-85668598D01*
X132507379Y-85668596D01*
X132642086Y-85618354D01*
X132642093Y-85618350D01*
X132757187Y-85532190D01*
X132757190Y-85532187D01*
X132843350Y-85417093D01*
X132843354Y-85417086D01*
X132893596Y-85282379D01*
X132893598Y-85282372D01*
X132899999Y-85222844D01*
X132900000Y-85222827D01*
X132900000Y-84525000D01*
X131933012Y-84525000D01*
X131965925Y-84467993D01*
X132000000Y-84340826D01*
X132000000Y-84209174D01*
X131965925Y-84082007D01*
X131933012Y-84025000D01*
X132900000Y-84025000D01*
X132900000Y-83327172D01*
X132899999Y-83327155D01*
X132893598Y-83267627D01*
X132893596Y-83267620D01*
X132843354Y-83132913D01*
X132843350Y-83132906D01*
X132757190Y-83017812D01*
X132757187Y-83017809D01*
X132642093Y-82931649D01*
X132642086Y-82931645D01*
X132507379Y-82881403D01*
X132507372Y-82881401D01*
X132447844Y-82875000D01*
X131750000Y-82875000D01*
X131750000Y-83841988D01*
X131692993Y-83809075D01*
X131565826Y-83775000D01*
X131434174Y-83775000D01*
X131307007Y-83809075D01*
X131250000Y-83841988D01*
X131250000Y-82876362D01*
X131212568Y-82840303D01*
X131201036Y-82820091D01*
X131185803Y-82802511D01*
X131184049Y-82790317D01*
X131177944Y-82779616D01*
X131179170Y-82756381D01*
X131175859Y-82733353D01*
X131180976Y-82722146D01*
X131181626Y-82709844D01*
X131195218Y-82690961D01*
X131204884Y-82669797D01*
X131210916Y-82663319D01*
X131560651Y-82313583D01*
X131684506Y-82189727D01*
X131684511Y-82189724D01*
X131694714Y-82179520D01*
X131694716Y-82179520D01*
X131806520Y-82067716D01*
X131885577Y-81930784D01*
X131926500Y-81778057D01*
X131926500Y-80704500D01*
X131946185Y-80637461D01*
X131998989Y-80591706D01*
X132050500Y-80580500D01*
X133201554Y-80580500D01*
X133201557Y-80580500D01*
X133343408Y-80542491D01*
X133413256Y-80544154D01*
G37*
%TD.AperFunction*%
%TA.AperFunction,Conductor*%
G36*
X131737482Y-66462292D02*
G01*
X131809890Y-66587708D01*
X131912292Y-66690110D01*
X132037708Y-66762518D01*
X132079765Y-66773787D01*
X131380893Y-67472658D01*
X131463828Y-67532914D01*
X131674197Y-67640102D01*
X131898752Y-67713065D01*
X131898751Y-67713065D01*
X132131948Y-67750000D01*
X132368052Y-67750000D01*
X132601247Y-67713065D01*
X132825802Y-67640102D01*
X133036163Y-67532918D01*
X133036169Y-67532914D01*
X133119104Y-67472658D01*
X133119105Y-67472658D01*
X132420233Y-66773787D01*
X132462292Y-66762518D01*
X132587708Y-66690110D01*
X132690110Y-66587708D01*
X132762518Y-66462292D01*
X132773787Y-66420234D01*
X133463181Y-67109628D01*
X133496666Y-67170951D01*
X133499500Y-67197309D01*
X133499500Y-74297733D01*
X133479815Y-74364772D01*
X133427011Y-74410527D01*
X133357853Y-74420471D01*
X133343407Y-74417508D01*
X133221695Y-74384896D01*
X133201557Y-74379500D01*
X133201556Y-74379500D01*
X132050500Y-74379500D01*
X131983461Y-74359815D01*
X131937706Y-74307011D01*
X131926500Y-74255500D01*
X131926500Y-71644945D01*
X131926500Y-71644943D01*
X131902692Y-71556090D01*
X131904355Y-71486244D01*
X131943517Y-71428381D01*
X132007745Y-71400877D01*
X132022467Y-71400000D01*
X132447828Y-71400000D01*
X132447844Y-71399999D01*
X132507372Y-71393598D01*
X132507379Y-71393596D01*
X132642086Y-71343354D01*
X132642093Y-71343350D01*
X132757187Y-71257190D01*
X132757190Y-71257187D01*
X132843350Y-71142093D01*
X132843354Y-71142086D01*
X132893596Y-71007379D01*
X132893598Y-71007372D01*
X132899999Y-70947844D01*
X132900000Y-70947827D01*
X132900000Y-70250000D01*
X131933012Y-70250000D01*
X131965925Y-70192993D01*
X132000000Y-70065826D01*
X132000000Y-69934174D01*
X131965925Y-69807007D01*
X131933012Y-69750000D01*
X132900000Y-69750000D01*
X132900000Y-69052172D01*
X132899999Y-69052155D01*
X132893598Y-68992627D01*
X132893596Y-68992620D01*
X132843354Y-68857913D01*
X132843350Y-68857906D01*
X132757190Y-68742812D01*
X132757187Y-68742809D01*
X132642093Y-68656649D01*
X132642086Y-68656645D01*
X132507379Y-68606403D01*
X132507372Y-68606401D01*
X132447844Y-68600000D01*
X131750000Y-68600000D01*
X131750000Y-69566988D01*
X131692993Y-69534075D01*
X131565826Y-69500000D01*
X131434174Y-69500000D01*
X131307007Y-69534075D01*
X131250000Y-69566988D01*
X131250000Y-68600000D01*
X131023500Y-68600000D01*
X130956461Y-68580315D01*
X130910706Y-68527511D01*
X130899500Y-68476000D01*
X130899500Y-67243186D01*
X130919185Y-67176147D01*
X130971989Y-67130392D01*
X131025514Y-67120931D01*
X131726212Y-66420233D01*
X131737482Y-66462292D01*
G37*
%TD.AperFunction*%
%TA.AperFunction,Conductor*%
G36*
X130480612Y-60077768D02*
G01*
X130591810Y-60143530D01*
X130742240Y-60187233D01*
X130742245Y-60187234D01*
X130777385Y-60189999D01*
X130821506Y-60189999D01*
X130888546Y-60209682D01*
X130934302Y-60262485D01*
X130944247Y-60331643D01*
X130915224Y-60395200D01*
X130909190Y-60401680D01*
X129930286Y-61380586D01*
X129818481Y-61492390D01*
X129818479Y-61492393D01*
X129768361Y-61579202D01*
X129768359Y-61579204D01*
X129739425Y-61629317D01*
X129739424Y-61629318D01*
X129739423Y-61629323D01*
X129698499Y-61782051D01*
X129698499Y-61782053D01*
X129698499Y-61950154D01*
X129698500Y-61950167D01*
X129698500Y-68583710D01*
X129678815Y-68650749D01*
X129626011Y-68696504D01*
X129556853Y-68706448D01*
X129536183Y-68701641D01*
X129327953Y-68633985D01*
X129327954Y-68633985D01*
X129164654Y-68608121D01*
X129110222Y-68599500D01*
X128889778Y-68599500D01*
X128817201Y-68610995D01*
X128672047Y-68633985D01*
X128462396Y-68702103D01*
X128462393Y-68702104D01*
X128265974Y-68802187D01*
X128087641Y-68931752D01*
X128087636Y-68931756D01*
X127931756Y-69087636D01*
X127931752Y-69087641D01*
X127850318Y-69199727D01*
X127794989Y-69242393D01*
X127725375Y-69248372D01*
X127663580Y-69215767D01*
X127649682Y-69199727D01*
X127568247Y-69087641D01*
X127568243Y-69087636D01*
X127482601Y-69001994D01*
X127449116Y-68940671D01*
X127454100Y-68870979D01*
X127482599Y-68826635D01*
X129310520Y-66998716D01*
X129389577Y-66861784D01*
X129430501Y-66709057D01*
X129430501Y-66550942D01*
X129430501Y-66543347D01*
X129430500Y-66543329D01*
X129430500Y-63109059D01*
X129430501Y-63109046D01*
X129430501Y-62940945D01*
X129430501Y-62940943D01*
X129389577Y-62788215D01*
X129354529Y-62727510D01*
X129310520Y-62651284D01*
X129198716Y-62539480D01*
X129198715Y-62539479D01*
X129194385Y-62535149D01*
X129194374Y-62535139D01*
X127583898Y-60924663D01*
X127564191Y-60898981D01*
X127531521Y-60842394D01*
X127531520Y-60842392D01*
X127419716Y-60730588D01*
X127419715Y-60730587D01*
X127415385Y-60726257D01*
X127415374Y-60726247D01*
X127081308Y-60392181D01*
X127047823Y-60330858D01*
X127052807Y-60261166D01*
X127094679Y-60205233D01*
X127160143Y-60180816D01*
X127168989Y-60180500D01*
X127272660Y-60180500D01*
X127272668Y-60180500D01*
X127307839Y-60177732D01*
X127307841Y-60177731D01*
X127307843Y-60177731D01*
X127347541Y-60166197D01*
X127458389Y-60133993D01*
X127553460Y-60077767D01*
X127616581Y-60060500D01*
X130417491Y-60060500D01*
X130480612Y-60077768D01*
G37*
%TD.AperFunction*%
%TA.AperFunction,Conductor*%
G36*
X125237482Y-66462292D02*
G01*
X125309890Y-66587708D01*
X125412292Y-66690110D01*
X125537708Y-66762518D01*
X125579764Y-66773787D01*
X124880893Y-67472658D01*
X124963828Y-67532914D01*
X125138956Y-67622146D01*
X125189752Y-67670120D01*
X125206547Y-67737941D01*
X125184010Y-67804076D01*
X125170343Y-67820312D01*
X125041531Y-67949124D01*
X124930286Y-68060370D01*
X124818481Y-68172174D01*
X124818479Y-68172177D01*
X124768827Y-68258177D01*
X124768809Y-68258208D01*
X124768360Y-68258987D01*
X124739423Y-68309107D01*
X124738436Y-68312790D01*
X124732852Y-68322825D01*
X124712844Y-68342514D01*
X124695224Y-68364382D01*
X124688273Y-68366695D01*
X124683053Y-68371833D01*
X124655572Y-68377580D01*
X124628930Y-68386449D01*
X124621831Y-68384637D01*
X124614663Y-68386137D01*
X124588438Y-68376115D01*
X124561230Y-68369172D01*
X124556237Y-68363810D01*
X124549396Y-68361196D01*
X124532753Y-68338587D01*
X124513618Y-68318037D01*
X124511723Y-68310021D01*
X124507975Y-68304929D01*
X124507040Y-68290203D01*
X124500500Y-68262528D01*
X124500500Y-67197307D01*
X124520185Y-67130268D01*
X124536819Y-67109626D01*
X125226212Y-66420233D01*
X125237482Y-66462292D01*
G37*
%TD.AperFunction*%
%TA.AperFunction,Conductor*%
G36*
X124705703Y-62828176D02*
G01*
X124712181Y-62834208D01*
X124772490Y-62894517D01*
X124963567Y-63033343D01*
X125062991Y-63084002D01*
X125174003Y-63140566D01*
X125174005Y-63140566D01*
X125174008Y-63140568D01*
X125271093Y-63172113D01*
X125398631Y-63213553D01*
X125631903Y-63250500D01*
X125631908Y-63250500D01*
X125868097Y-63250500D01*
X125974126Y-63233705D01*
X126101368Y-63213553D01*
X126227566Y-63172547D01*
X126242776Y-63172113D01*
X126257036Y-63166795D01*
X126276991Y-63171136D01*
X126297404Y-63170553D01*
X126311490Y-63178640D01*
X126325309Y-63181647D01*
X126353563Y-63202798D01*
X126414181Y-63263416D01*
X126447666Y-63324739D01*
X126450500Y-63351097D01*
X126450500Y-64729742D01*
X126430815Y-64796781D01*
X126378011Y-64842536D01*
X126308853Y-64852480D01*
X126288182Y-64847673D01*
X126101247Y-64786934D01*
X126101248Y-64786934D01*
X125868052Y-64750000D01*
X125631948Y-64750000D01*
X125398752Y-64786934D01*
X125174197Y-64859897D01*
X124963830Y-64967084D01*
X124880894Y-65027340D01*
X125579766Y-65726212D01*
X125537708Y-65737482D01*
X125412292Y-65809890D01*
X125309890Y-65912292D01*
X125237482Y-66037708D01*
X125226212Y-66079766D01*
X124536819Y-65390373D01*
X124503334Y-65329050D01*
X124500500Y-65302692D01*
X124500500Y-62921889D01*
X124520185Y-62854850D01*
X124572989Y-62809095D01*
X124642147Y-62799151D01*
X124705703Y-62828176D01*
G37*
%TD.AperFunction*%
%TA.AperFunction,Conductor*%
G36*
X131104703Y-62727176D02*
G01*
X131111181Y-62733208D01*
X131272490Y-62894517D01*
X131463567Y-63033343D01*
X131562991Y-63084002D01*
X131674003Y-63140566D01*
X131674005Y-63140566D01*
X131674008Y-63140568D01*
X131771093Y-63172113D01*
X131898631Y-63213553D01*
X132131903Y-63250500D01*
X132131908Y-63250500D01*
X132368097Y-63250500D01*
X132601368Y-63213553D01*
X132634468Y-63202798D01*
X132825992Y-63140568D01*
X133036433Y-63033343D01*
X133227510Y-62894517D01*
X133287819Y-62834208D01*
X133349142Y-62800723D01*
X133418834Y-62805707D01*
X133474767Y-62847579D01*
X133499184Y-62913043D01*
X133499500Y-62921889D01*
X133499500Y-65302690D01*
X133479815Y-65369729D01*
X133463181Y-65390371D01*
X132773787Y-66079765D01*
X132762518Y-66037708D01*
X132690110Y-65912292D01*
X132587708Y-65809890D01*
X132462292Y-65737482D01*
X132420234Y-65726212D01*
X133119105Y-65027340D01*
X133119104Y-65027338D01*
X133036174Y-64967087D01*
X132825802Y-64859897D01*
X132601247Y-64786934D01*
X132601248Y-64786934D01*
X132368052Y-64750000D01*
X132131948Y-64750000D01*
X131898752Y-64786934D01*
X131674197Y-64859897D01*
X131463830Y-64967084D01*
X131380894Y-65027340D01*
X132079766Y-65726212D01*
X132037708Y-65737482D01*
X131912292Y-65809890D01*
X131809890Y-65912292D01*
X131737482Y-66037708D01*
X131726212Y-66079766D01*
X131025186Y-65378740D01*
X131019617Y-65377570D01*
X131005853Y-65379550D01*
X130986100Y-65370529D01*
X130964850Y-65366065D01*
X130954946Y-65356301D01*
X130942297Y-65350525D01*
X130930557Y-65332257D01*
X130915094Y-65317013D01*
X130911267Y-65302242D01*
X130904523Y-65291747D01*
X130899500Y-65256812D01*
X130899500Y-62820889D01*
X130919185Y-62753850D01*
X130971989Y-62708095D01*
X131041147Y-62698151D01*
X131104703Y-62727176D01*
G37*
%TD.AperFunction*%
%TA.AperFunction,Conductor*%
G36*
X128085902Y-41520185D02*
G01*
X128131657Y-41572989D01*
X128141601Y-41642147D01*
X128112576Y-41705703D01*
X128091748Y-41724818D01*
X127980145Y-41805903D01*
X127980143Y-41805905D01*
X127980142Y-41805905D01*
X127805905Y-41980142D01*
X127661064Y-42179498D01*
X127549192Y-42399059D01*
X127473048Y-42633406D01*
X127473048Y-42633409D01*
X127434500Y-42876792D01*
X127434500Y-43123207D01*
X127473048Y-43366590D01*
X127473048Y-43366593D01*
X127549192Y-43600940D01*
X127549194Y-43600943D01*
X127661064Y-43820501D01*
X127805903Y-44019855D01*
X127980145Y-44194097D01*
X128179499Y-44338936D01*
X128399057Y-44450806D01*
X128399059Y-44450807D01*
X128633407Y-44526951D01*
X128633408Y-44526951D01*
X128633411Y-44526952D01*
X128876792Y-44565500D01*
X128876793Y-44565500D01*
X129123207Y-44565500D01*
X129123208Y-44565500D01*
X129366589Y-44526952D01*
X129366592Y-44526951D01*
X129366593Y-44526951D01*
X129600940Y-44450807D01*
X129600940Y-44450806D01*
X129600943Y-44450806D01*
X129820501Y-44338936D01*
X130019855Y-44194097D01*
X130194097Y-44019855D01*
X130338936Y-43820501D01*
X130450806Y-43600943D01*
X130526952Y-43366589D01*
X130565500Y-43123208D01*
X130565500Y-42876792D01*
X130526952Y-42633411D01*
X130526951Y-42633407D01*
X130526951Y-42633406D01*
X130450807Y-42399059D01*
X130338935Y-42179498D01*
X130194097Y-41980145D01*
X130019855Y-41805903D01*
X129908251Y-41724818D01*
X129865586Y-41669488D01*
X129859607Y-41599874D01*
X129892213Y-41538079D01*
X129953052Y-41503722D01*
X129981137Y-41500500D01*
X133375500Y-41500500D01*
X133442539Y-41520185D01*
X133488294Y-41572989D01*
X133499500Y-41624500D01*
X133499500Y-57600901D01*
X133493261Y-57622146D01*
X133491682Y-57644233D01*
X133483609Y-57655016D01*
X133479815Y-57667940D01*
X133463080Y-57682440D01*
X133449811Y-57700167D01*
X133437190Y-57704874D01*
X133427011Y-57713695D01*
X133405094Y-57716846D01*
X133384347Y-57724585D01*
X133371185Y-57721722D01*
X133357853Y-57723639D01*
X133337711Y-57714440D01*
X133316074Y-57709734D01*
X133298347Y-57696463D01*
X133294297Y-57694614D01*
X133287820Y-57688583D01*
X133221382Y-57622146D01*
X133189716Y-57590480D01*
X133189713Y-57590478D01*
X133056819Y-57457584D01*
X133023334Y-57396261D01*
X133020500Y-57369903D01*
X133020500Y-56327339D01*
X133020499Y-56327324D01*
X133018518Y-56302156D01*
X133017732Y-56292161D01*
X132973993Y-56141611D01*
X132894188Y-56006668D01*
X132894186Y-56006666D01*
X132894183Y-56006662D01*
X132783337Y-55895816D01*
X132783329Y-55895810D01*
X132665296Y-55826006D01*
X132648389Y-55816007D01*
X132648388Y-55816006D01*
X132648387Y-55816006D01*
X132648384Y-55816005D01*
X132497843Y-55772268D01*
X132497837Y-55772267D01*
X132462675Y-55769500D01*
X132462668Y-55769500D01*
X130777332Y-55769500D01*
X130777324Y-55769500D01*
X130742162Y-55772267D01*
X130742156Y-55772268D01*
X130591615Y-55816005D01*
X130591612Y-55816006D01*
X130456670Y-55895810D01*
X130456662Y-55895816D01*
X130429298Y-55923181D01*
X130402370Y-55937884D01*
X130376552Y-55954477D01*
X130370351Y-55955368D01*
X130367975Y-55956666D01*
X130341617Y-55959500D01*
X130310948Y-55959500D01*
X130243909Y-55939815D01*
X130198154Y-55887011D01*
X130188210Y-55817853D01*
X130217235Y-55754297D01*
X130236637Y-55736234D01*
X130322187Y-55672190D01*
X130322190Y-55672187D01*
X130408350Y-55557093D01*
X130408354Y-55557086D01*
X130458596Y-55422379D01*
X130458598Y-55422372D01*
X130464999Y-55362844D01*
X130465000Y-55362827D01*
X130465000Y-54650000D01*
X129556706Y-54650000D01*
X129586558Y-54577931D01*
X129610000Y-54460080D01*
X129610000Y-54339920D01*
X129586558Y-54222069D01*
X129556706Y-54150000D01*
X130465000Y-54150000D01*
X130465000Y-53437172D01*
X130464999Y-53437155D01*
X130458598Y-53377627D01*
X130458596Y-53377620D01*
X130408354Y-53242913D01*
X130408350Y-53242906D01*
X130322190Y-53127812D01*
X130322187Y-53127809D01*
X130207093Y-53041649D01*
X130207086Y-53041645D01*
X130072379Y-52991403D01*
X130072372Y-52991401D01*
X130012844Y-52985000D01*
X129657809Y-52985000D01*
X129590770Y-52965315D01*
X129545015Y-52912511D01*
X129535071Y-52843353D01*
X129564096Y-52779797D01*
X129601514Y-52750515D01*
X129820501Y-52638936D01*
X130019855Y-52494097D01*
X130194097Y-52319855D01*
X130338936Y-52120501D01*
X130450806Y-51900943D01*
X130526952Y-51666589D01*
X130565500Y-51423208D01*
X130565500Y-51176792D01*
X130526952Y-50933411D01*
X130526951Y-50933407D01*
X130526951Y-50933406D01*
X130450807Y-50699059D01*
X130338935Y-50479498D01*
X130194097Y-50280145D01*
X130019855Y-50105903D01*
X129820501Y-49961064D01*
X129600940Y-49849192D01*
X129366592Y-49773048D01*
X129184053Y-49744137D01*
X129123208Y-49734500D01*
X128876792Y-49734500D01*
X128795665Y-49747349D01*
X128633409Y-49773048D01*
X128633406Y-49773048D01*
X128399059Y-49849192D01*
X128179498Y-49961064D01*
X127980142Y-50105905D01*
X127805905Y-50280142D01*
X127661064Y-50479498D01*
X127549192Y-50699059D01*
X127473048Y-50933406D01*
X127473048Y-50933409D01*
X127434500Y-51176792D01*
X127434500Y-51423207D01*
X127473048Y-51666590D01*
X127473048Y-51666593D01*
X127549192Y-51900940D01*
X127549194Y-51900943D01*
X127661064Y-52120501D01*
X127805903Y-52319855D01*
X127980145Y-52494097D01*
X128179499Y-52638936D01*
X128398486Y-52750515D01*
X128449282Y-52798489D01*
X128466077Y-52866310D01*
X128443540Y-52932445D01*
X128388825Y-52975897D01*
X128342191Y-52985000D01*
X127987155Y-52985000D01*
X127927627Y-52991401D01*
X127927620Y-52991403D01*
X127792913Y-53041645D01*
X127792906Y-53041649D01*
X127682805Y-53124072D01*
X127617341Y-53148490D01*
X127549068Y-53133639D01*
X127543409Y-53130352D01*
X127499714Y-53103401D01*
X127476518Y-53089093D01*
X127476513Y-53089091D01*
X127475069Y-53088612D01*
X127312753Y-53034826D01*
X127312751Y-53034825D01*
X127211678Y-53024500D01*
X126513330Y-53024500D01*
X126513312Y-53024501D01*
X126412247Y-53034825D01*
X126248484Y-53089092D01*
X126248481Y-53089093D01*
X126101648Y-53179661D01*
X126087325Y-53193984D01*
X126026001Y-53227468D01*
X125956309Y-53222482D01*
X125911965Y-53193982D01*
X125898038Y-53180055D01*
X125898034Y-53180052D01*
X125751311Y-53089551D01*
X125751300Y-53089546D01*
X125587652Y-53035319D01*
X125486654Y-53025000D01*
X125387500Y-53025000D01*
X125387500Y-54974999D01*
X125486640Y-54974999D01*
X125486654Y-54974998D01*
X125587652Y-54964680D01*
X125721831Y-54920218D01*
X125791659Y-54917816D01*
X125851701Y-54953548D01*
X125882894Y-55016068D01*
X125880610Y-55070018D01*
X125880423Y-55070714D01*
X125880423Y-55070715D01*
X125839499Y-55223443D01*
X125839499Y-55223445D01*
X125839499Y-55391546D01*
X125839500Y-55391559D01*
X125839500Y-55655500D01*
X125819815Y-55722539D01*
X125767011Y-55768294D01*
X125715500Y-55779500D01*
X125597324Y-55779500D01*
X125562162Y-55782267D01*
X125562156Y-55782268D01*
X125411615Y-55826005D01*
X125411612Y-55826006D01*
X125276670Y-55905810D01*
X125276662Y-55905816D01*
X125165816Y-56016662D01*
X125165810Y-56016670D01*
X125086006Y-56151612D01*
X125086005Y-56151615D01*
X125042268Y-56302156D01*
X125042267Y-56302162D01*
X125039500Y-56337324D01*
X125039500Y-57379902D01*
X125019815Y-57446941D01*
X125003181Y-57467583D01*
X124748481Y-57722282D01*
X124748477Y-57722287D01*
X124731887Y-57751023D01*
X124681320Y-57799239D01*
X124612713Y-57812461D01*
X124547848Y-57786493D01*
X124507320Y-57729579D01*
X124500500Y-57689023D01*
X124500500Y-55074485D01*
X124520185Y-55007446D01*
X124572989Y-54961691D01*
X124642147Y-54951747D01*
X124663507Y-54956780D01*
X124687348Y-54964681D01*
X124788351Y-54974999D01*
X124887500Y-54974998D01*
X124887500Y-53024999D01*
X124788360Y-53025000D01*
X124788344Y-53025001D01*
X124687345Y-53035319D01*
X124663500Y-53043220D01*
X124593671Y-53045620D01*
X124533631Y-53009886D01*
X124502441Y-52947364D01*
X124500500Y-52925513D01*
X124500500Y-41624500D01*
X124520185Y-41557461D01*
X124572989Y-41511706D01*
X124624500Y-41500500D01*
X128018863Y-41500500D01*
X128085902Y-41520185D01*
G37*
%TD.AperFunction*%
%TD*%
M02*
