%TF.GenerationSoftware,KiCad,Pcbnew,9.0.6*%
%TF.CreationDate,2025-12-01T21:19:55-05:00*%
%TF.ProjectId,Pico 2HP Controls,5069636f-2032-4485-9020-436f6e74726f,rev?*%
%TF.SameCoordinates,Original*%
%TF.FileFunction,Drillmap*%
%TF.FilePolarity,Positive*%
%FSLAX45Y45*%
G04 Gerber Fmt 4.5, Leading zero omitted, Abs format (unit mm)*
G04 Created by KiCad (PCBNEW 9.0.6) date 2025-12-01 21:19:55*
%MOMM*%
%LPD*%
G01*
G04 APERTURE LIST*
%ADD10C,0.050000*%
%ADD11C,0.200000*%
G04 APERTURE END LIST*
D10*
X13400000Y-9000000D02*
X13350000Y-9000000D01*
X13350000Y-10400000D02*
X13400000Y-10400000D01*
X12400000Y-15150000D02*
X12400000Y-12150000D01*
X13350000Y-7950000D02*
X13400000Y-7950000D01*
X12400000Y-12150000D02*
X12450000Y-12150000D01*
X13400000Y-15150000D02*
X12400000Y-15150000D01*
X12400000Y-4100000D02*
X13400000Y-4100000D01*
X12450000Y-12150000D02*
X12450000Y-11800000D01*
X12400000Y-10750000D02*
X12450000Y-10750000D01*
X12450000Y-9350000D02*
X12450000Y-9000000D01*
X12450000Y-7950000D02*
X12450000Y-7600000D01*
X13350000Y-10400000D02*
X13350000Y-10750000D01*
X13400000Y-4100000D02*
X13400000Y-7600000D01*
X12400000Y-9000000D02*
X12400000Y-7950000D01*
X12450000Y-10400000D02*
X12400000Y-10400000D01*
X13350000Y-9000000D02*
X13350000Y-9350000D01*
X13400000Y-10750000D02*
X13400000Y-11800000D01*
X13400000Y-7950000D02*
X13400000Y-8900000D01*
X12733000Y-5646000D02*
X13068000Y-5646000D01*
X13068000Y-5956000D01*
X12733000Y-5956000D01*
X12733000Y-5646000D01*
X13350000Y-7600000D02*
X13350000Y-7950000D01*
X13350000Y-10750000D02*
X13400000Y-10750000D01*
X12400000Y-10400000D02*
X12400000Y-9350000D01*
X13350000Y-9350000D02*
X13400000Y-9350000D01*
X12400000Y-11800000D02*
X12400000Y-10750000D01*
X13400000Y-12150000D02*
X13400000Y-15150000D01*
X12400000Y-7950000D02*
X12450000Y-7950000D01*
X13350000Y-11800000D02*
X13350000Y-12150000D01*
X13400000Y-9350000D02*
X13400000Y-10400000D01*
X13350000Y-12150000D02*
X13400000Y-12150000D01*
X12450000Y-10750000D02*
X12450000Y-10400000D01*
X12450000Y-9000000D02*
X12400000Y-9000000D01*
X12400000Y-7600000D02*
X12400000Y-4100000D01*
X12400000Y-9350000D02*
X12450000Y-9350000D01*
X12450000Y-7600000D02*
X12400000Y-7600000D01*
X13400000Y-11800000D02*
X13350000Y-11800000D01*
X13400000Y-8900000D02*
X13400000Y-9000000D01*
X13400000Y-7600000D02*
X13350000Y-7600000D01*
X12450000Y-11800000D02*
X12400000Y-11800000D01*
D11*
X12658277Y-15463984D02*
X12658277Y-15263984D01*
X12658277Y-15263984D02*
X12705896Y-15263984D01*
X12705896Y-15263984D02*
X12734467Y-15273508D01*
X12734467Y-15273508D02*
X12753515Y-15292555D01*
X12753515Y-15292555D02*
X12763039Y-15311603D01*
X12763039Y-15311603D02*
X12772562Y-15349698D01*
X12772562Y-15349698D02*
X12772562Y-15378269D01*
X12772562Y-15378269D02*
X12763039Y-15416365D01*
X12763039Y-15416365D02*
X12753515Y-15435412D01*
X12753515Y-15435412D02*
X12734467Y-15454460D01*
X12734467Y-15454460D02*
X12705896Y-15463984D01*
X12705896Y-15463984D02*
X12658277Y-15463984D01*
X12858277Y-15463984D02*
X12858277Y-15330650D01*
X12858277Y-15368746D02*
X12867801Y-15349698D01*
X12867801Y-15349698D02*
X12877324Y-15340174D01*
X12877324Y-15340174D02*
X12896372Y-15330650D01*
X12896372Y-15330650D02*
X12915420Y-15330650D01*
X12982086Y-15463984D02*
X12982086Y-15330650D01*
X12982086Y-15263984D02*
X12972562Y-15273508D01*
X12972562Y-15273508D02*
X12982086Y-15283031D01*
X12982086Y-15283031D02*
X12991610Y-15273508D01*
X12991610Y-15273508D02*
X12982086Y-15263984D01*
X12982086Y-15263984D02*
X12982086Y-15283031D01*
X13105896Y-15463984D02*
X13086848Y-15454460D01*
X13086848Y-15454460D02*
X13077324Y-15435412D01*
X13077324Y-15435412D02*
X13077324Y-15263984D01*
X13210658Y-15463984D02*
X13191610Y-15454460D01*
X13191610Y-15454460D02*
X13182086Y-15435412D01*
X13182086Y-15435412D02*
X13182086Y-15263984D01*
X13439229Y-15463984D02*
X13439229Y-15263984D01*
X13439229Y-15263984D02*
X13505896Y-15406841D01*
X13505896Y-15406841D02*
X13572562Y-15263984D01*
X13572562Y-15263984D02*
X13572562Y-15463984D01*
X13753515Y-15463984D02*
X13753515Y-15359222D01*
X13753515Y-15359222D02*
X13743991Y-15340174D01*
X13743991Y-15340174D02*
X13724943Y-15330650D01*
X13724943Y-15330650D02*
X13686848Y-15330650D01*
X13686848Y-15330650D02*
X13667801Y-15340174D01*
X13753515Y-15454460D02*
X13734467Y-15463984D01*
X13734467Y-15463984D02*
X13686848Y-15463984D01*
X13686848Y-15463984D02*
X13667801Y-15454460D01*
X13667801Y-15454460D02*
X13658277Y-15435412D01*
X13658277Y-15435412D02*
X13658277Y-15416365D01*
X13658277Y-15416365D02*
X13667801Y-15397317D01*
X13667801Y-15397317D02*
X13686848Y-15387793D01*
X13686848Y-15387793D02*
X13734467Y-15387793D01*
X13734467Y-15387793D02*
X13753515Y-15378269D01*
X13848753Y-15330650D02*
X13848753Y-15530650D01*
X13848753Y-15340174D02*
X13867801Y-15330650D01*
X13867801Y-15330650D02*
X13905896Y-15330650D01*
X13905896Y-15330650D02*
X13924943Y-15340174D01*
X13924943Y-15340174D02*
X13934467Y-15349698D01*
X13934467Y-15349698D02*
X13943991Y-15368746D01*
X13943991Y-15368746D02*
X13943991Y-15425888D01*
X13943991Y-15425888D02*
X13934467Y-15444936D01*
X13934467Y-15444936D02*
X13924943Y-15454460D01*
X13924943Y-15454460D02*
X13905896Y-15463984D01*
X13905896Y-15463984D02*
X13867801Y-15463984D01*
X13867801Y-15463984D02*
X13848753Y-15454460D01*
X14029705Y-15444936D02*
X14039229Y-15454460D01*
X14039229Y-15454460D02*
X14029705Y-15463984D01*
X14029705Y-15463984D02*
X14020182Y-15454460D01*
X14020182Y-15454460D02*
X14029705Y-15444936D01*
X14029705Y-15444936D02*
X14029705Y-15463984D01*
X14029705Y-15340174D02*
X14039229Y-15349698D01*
X14039229Y-15349698D02*
X14029705Y-15359222D01*
X14029705Y-15359222D02*
X14020182Y-15349698D01*
X14020182Y-15349698D02*
X14029705Y-15340174D01*
X14029705Y-15340174D02*
X14029705Y-15359222D01*
M02*
