%TF.GenerationSoftware,KiCad,Pcbnew,9.0.6*%
%TF.CreationDate,2025-12-01T21:19:51-05:00*%
%TF.ProjectId,Pico 2HP Controls,5069636f-2032-4485-9020-436f6e74726f,rev?*%
%TF.SameCoordinates,Original*%
%TF.FileFunction,Copper,L2,Bot*%
%TF.FilePolarity,Positive*%
%FSLAX46Y46*%
G04 Gerber Fmt 4.6, Leading zero omitted, Abs format (unit mm)*
G04 Created by KiCad (PCBNEW 9.0.6) date 2025-12-01 21:19:51*
%MOMM*%
%LPD*%
G01*
G04 APERTURE LIST*
%TA.AperFunction,EtchedComponent*%
%ADD10C,0.200000*%
%TD*%
%TA.AperFunction,ComponentPad*%
%ADD11R,1.700000X1.700000*%
%TD*%
%TA.AperFunction,ComponentPad*%
%ADD12C,1.700000*%
%TD*%
%TA.AperFunction,ComponentPad*%
%ADD13R,1.930000X1.830000*%
%TD*%
%TA.AperFunction,ComponentPad*%
%ADD14C,2.130000*%
%TD*%
%TA.AperFunction,ComponentPad*%
%ADD15R,1.800000X1.800000*%
%TD*%
%TA.AperFunction,ComponentPad*%
%ADD16C,1.800000*%
%TD*%
%TA.AperFunction,ComponentPad*%
%ADD17C,2.000000*%
%TD*%
%TA.AperFunction,ViaPad*%
%ADD18C,0.600000*%
%TD*%
%TA.AperFunction,Conductor*%
%ADD19C,0.200000*%
%TD*%
G04 APERTURE END LIST*
%TO.C,RV4*%
D10*
X126005000Y-117310000D02*
X124955000Y-117310000D01*
X124955000Y-122260000D01*
X126005000Y-122260000D01*
X126005000Y-117310000D01*
X126027500Y-117290000D02*
X124902500Y-117290000D01*
X124902500Y-122290000D01*
X126027500Y-122290000D01*
X126027500Y-117290000D01*
%TA.AperFunction,EtchedComponent*%
G36*
X126027500Y-117290000D02*
G01*
X124902500Y-117290000D01*
X124902500Y-122290000D01*
X126027500Y-122290000D01*
X126027500Y-117290000D01*
G37*
%TD.AperFunction*%
X133152500Y-117325000D02*
X132027500Y-117325000D01*
X132027500Y-122325000D01*
X133152500Y-122325000D01*
X133152500Y-117325000D01*
%TA.AperFunction,EtchedComponent*%
G36*
X133152500Y-117325000D02*
G01*
X132027500Y-117325000D01*
X132027500Y-122325000D01*
X133152500Y-122325000D01*
X133152500Y-117325000D01*
G37*
%TD.AperFunction*%
%TO.C,RV2*%
X126005000Y-89310000D02*
X124955000Y-89310000D01*
X124955000Y-94260000D01*
X126005000Y-94260000D01*
X126005000Y-89310000D01*
X126027500Y-89290000D02*
X124902500Y-89290000D01*
X124902500Y-94290000D01*
X126027500Y-94290000D01*
X126027500Y-89290000D01*
%TA.AperFunction,EtchedComponent*%
G36*
X126027500Y-89290000D02*
G01*
X124902500Y-89290000D01*
X124902500Y-94290000D01*
X126027500Y-94290000D01*
X126027500Y-89290000D01*
G37*
%TD.AperFunction*%
X133152500Y-89325000D02*
X132027500Y-89325000D01*
X132027500Y-94325000D01*
X133152500Y-94325000D01*
X133152500Y-89325000D01*
%TA.AperFunction,EtchedComponent*%
G36*
X133152500Y-89325000D02*
G01*
X132027500Y-89325000D01*
X132027500Y-94325000D01*
X133152500Y-94325000D01*
X133152500Y-89325000D01*
G37*
%TD.AperFunction*%
%TO.C,RV3*%
X126005000Y-103310000D02*
X124955000Y-103310000D01*
X124955000Y-108260000D01*
X126005000Y-108260000D01*
X126005000Y-103310000D01*
X126027500Y-103290000D02*
X124902500Y-103290000D01*
X124902500Y-108290000D01*
X126027500Y-108290000D01*
X126027500Y-103290000D01*
%TA.AperFunction,EtchedComponent*%
G36*
X126027500Y-103290000D02*
G01*
X124902500Y-103290000D01*
X124902500Y-108290000D01*
X126027500Y-108290000D01*
X126027500Y-103290000D01*
G37*
%TD.AperFunction*%
X133152500Y-103325000D02*
X132027500Y-103325000D01*
X132027500Y-108325000D01*
X133152500Y-108325000D01*
X133152500Y-103325000D01*
%TA.AperFunction,EtchedComponent*%
G36*
X133152500Y-103325000D02*
G01*
X132027500Y-103325000D01*
X132027500Y-108325000D01*
X133152500Y-108325000D01*
X133152500Y-103325000D01*
G37*
%TD.AperFunction*%
%TO.C,RV1*%
X126005000Y-75035000D02*
X124955000Y-75035000D01*
X124955000Y-79985000D01*
X126005000Y-79985000D01*
X126005000Y-75035000D01*
X126027500Y-75015000D02*
X124902500Y-75015000D01*
X124902500Y-80015000D01*
X126027500Y-80015000D01*
X126027500Y-75015000D01*
%TA.AperFunction,EtchedComponent*%
G36*
X126027500Y-75015000D02*
G01*
X124902500Y-75015000D01*
X124902500Y-80015000D01*
X126027500Y-80015000D01*
X126027500Y-75015000D01*
G37*
%TD.AperFunction*%
X133152500Y-75050000D02*
X132027500Y-75050000D01*
X132027500Y-80050000D01*
X133152500Y-80050000D01*
X133152500Y-75050000D01*
%TA.AperFunction,EtchedComponent*%
G36*
X133152500Y-75050000D02*
G01*
X132027500Y-75050000D01*
X132027500Y-80050000D01*
X133152500Y-80050000D01*
X133152500Y-75050000D01*
G37*
%TD.AperFunction*%
%TD*%
D11*
%TO.P,J3,1,Pin_1*%
%TO.N,GND*%
X130200000Y-115150000D03*
D12*
%TO.P,J3,2,Pin_2*%
%TO.N,Net-(J3-Pin_2)*%
X130200000Y-117690000D03*
%TO.P,J3,3,Pin_3*%
%TO.N,Net-(J3-Pin_3)*%
X130200000Y-120230000D03*
%TO.P,J3,4,Pin_4*%
%TO.N,+3.3V*%
X130200000Y-122770000D03*
%TD*%
D13*
%TO.P,J5,S*%
%TO.N,GND*%
X129000000Y-138780000D03*
D14*
%TO.P,J5,T*%
%TO.N,Net-(J3-Pin_3)*%
X129000000Y-127380000D03*
%TO.P,J5,TN*%
%TO.N,unconnected-(J5-PadTN)*%
X129000000Y-135680000D03*
%TD*%
D11*
%TO.P,J1,1,Pin_1*%
%TO.N,Net-(J1-Pin_1)*%
X130175000Y-72875000D03*
D12*
%TO.P,J1,2,Pin_2*%
%TO.N,Net-(J1-Pin_2)*%
X130175000Y-75415000D03*
%TO.P,J1,3,Pin_3*%
%TO.N,Net-(J1-Pin_3)*%
X130175000Y-77955000D03*
%TO.P,J1,4,Pin_4*%
%TO.N,Net-(J1-Pin_4)*%
X130175000Y-80495000D03*
%TD*%
D13*
%TO.P,J4,S*%
%TO.N,GND*%
X129000000Y-54400000D03*
D14*
%TO.P,J4,T*%
%TO.N,Net-(J2-Pin_4)*%
X129000000Y-43000000D03*
%TO.P,J4,TN*%
%TO.N,unconnected-(J4-PadTN)*%
X129000000Y-51300000D03*
%TD*%
D15*
%TO.P,RV4,1,1*%
%TO.N,GND*%
X131500000Y-112275000D03*
D16*
%TO.P,RV4,2,2*%
%TO.N,Net-(J1-Pin_1)*%
X129000000Y-112275000D03*
%TO.P,RV4,3,3*%
%TO.N,+3.3V*%
X126500000Y-112275000D03*
%TD*%
D11*
%TO.P,J2,1,Pin_1*%
%TO.N,GND*%
X130175000Y-87200000D03*
D12*
%TO.P,J2,2,Pin_2*%
%TO.N,Net-(J2-Pin_2)*%
X130175000Y-89740000D03*
%TO.P,J2,3,Pin_3*%
%TO.N,Net-(D1-DIN)*%
X130175000Y-92280000D03*
%TO.P,J2,4,Pin_4*%
%TO.N,Net-(J2-Pin_4)*%
X130175000Y-94820000D03*
%TD*%
D15*
%TO.P,RV2,1,1*%
%TO.N,GND*%
X131500000Y-84275000D03*
D16*
%TO.P,RV2,2,2*%
%TO.N,Net-(J1-Pin_3)*%
X129000000Y-84275000D03*
%TO.P,RV2,3,3*%
%TO.N,+3.3V*%
X126500000Y-84275000D03*
%TD*%
D15*
%TO.P,RV3,1,1*%
%TO.N,GND*%
X131500000Y-98275000D03*
D16*
%TO.P,RV3,2,2*%
%TO.N,Net-(J1-Pin_2)*%
X129000000Y-98275000D03*
%TO.P,RV3,3,3*%
%TO.N,+3.3V*%
X126500000Y-98275000D03*
%TD*%
D15*
%TO.P,RV1,1,1*%
%TO.N,GND*%
X131500000Y-70000000D03*
D16*
%TO.P,RV1,2,2*%
%TO.N,Net-(J1-Pin_4)*%
X129000000Y-70000000D03*
%TO.P,RV1,3,3*%
%TO.N,+3.3V*%
X126500000Y-70000000D03*
%TD*%
D13*
%TO.P,J6,S*%
%TO.N,GND*%
X129000000Y-138720000D03*
D14*
%TO.P,J6,T*%
%TO.N,Net-(J3-Pin_2)*%
X129000000Y-150120000D03*
%TO.P,J6,TN*%
%TO.N,unconnected-(J6-PadTN)*%
X129000000Y-141820000D03*
%TD*%
D17*
%TO.P,SW1,1,A*%
%TO.N,GND*%
X132250000Y-66250000D03*
X125750000Y-66250000D03*
%TO.P,SW1,2,B*%
%TO.N,Net-(J2-Pin_2)*%
X132250000Y-61750000D03*
X125750000Y-61750000D03*
%TD*%
D18*
%TO.N,GND*%
X129360000Y-60770000D03*
X126900000Y-119475000D03*
%TO.N,Net-(J2-Pin_2)*%
X128300000Y-71700000D03*
%TD*%
D19*
%TO.N,+3.3V*%
X126460000Y-70000000D02*
X126300000Y-70160000D01*
X126500000Y-98275000D02*
X126500000Y-112275000D01*
X126500000Y-70000000D02*
X126460000Y-70000000D01*
X126500000Y-98275000D02*
X126500000Y-84275000D01*
X126500000Y-84275000D02*
X126500000Y-70000000D01*
X130200000Y-121925057D02*
X126500000Y-118225057D01*
X130200000Y-122770000D02*
X130200000Y-121925057D01*
X126500000Y-118225057D02*
X126500000Y-112275000D01*
%TO.N,GND*%
X132250000Y-66250000D02*
X132250000Y-69250000D01*
X132250000Y-69250000D02*
X131500000Y-70000000D01*
X131500000Y-98275000D02*
X131500000Y-88525000D01*
X131500000Y-70000000D02*
X131816500Y-70316500D01*
X131340000Y-54400000D02*
X132330000Y-55390000D01*
X131250000Y-60770000D02*
X129360000Y-60770000D01*
X131816500Y-70316500D02*
X131816500Y-83958500D01*
X131816500Y-83958500D02*
X131500000Y-84275000D01*
X132330000Y-59690000D02*
X131250000Y-60770000D01*
X131500000Y-85875000D02*
X130175000Y-87200000D01*
X129000000Y-54400000D02*
X131340000Y-54400000D01*
X126900000Y-119475000D02*
X126775000Y-119600000D01*
X131500000Y-84275000D02*
X131500000Y-85875000D01*
X126775000Y-119600000D02*
X126775000Y-136555000D01*
X126775000Y-136555000D02*
X129000000Y-138780000D01*
X130780000Y-66250000D02*
X132250000Y-66250000D01*
X132330000Y-55390000D02*
X132330000Y-59690000D01*
X129000000Y-54400000D02*
X128540000Y-54400000D01*
X129360000Y-64830000D02*
X130780000Y-66250000D01*
X131500000Y-88525000D02*
X130175000Y-87200000D01*
X129360000Y-60770000D02*
X129360000Y-64830000D01*
%TO.N,Net-(J1-Pin_4)*%
X129000000Y-79320000D02*
X129000000Y-70000000D01*
X130175000Y-80495000D02*
X129000000Y-79320000D01*
%TO.N,Net-(J2-Pin_2)*%
X130201000Y-82201000D02*
X128300000Y-80300000D01*
X130201000Y-84772471D02*
X130201000Y-82201000D01*
X128600000Y-86373471D02*
X130201000Y-84772471D01*
X128300000Y-80300000D02*
X128300000Y-71700000D01*
X130175000Y-89740000D02*
X128600000Y-88165000D01*
X128600000Y-88165000D02*
X128600000Y-86373471D01*
%TO.N,Net-(J2-Pin_4)*%
X130175000Y-94820000D02*
X127700000Y-92345000D01*
X125569000Y-46431000D02*
X129000000Y-43000000D01*
X125569000Y-59729108D02*
X125569000Y-46431000D01*
X127700000Y-61860108D02*
X125569000Y-59729108D01*
X127700000Y-92345000D02*
X127700000Y-61860108D01*
%TD*%
%TA.AperFunction,Conductor*%
%TO.N,GND*%
G36*
X126833203Y-119407941D02*
G01*
X126839681Y-119413973D01*
X129156455Y-121730747D01*
X129189940Y-121792070D01*
X129184956Y-121861762D01*
X129169092Y-121891313D01*
X129044951Y-122062179D01*
X128948444Y-122251585D01*
X128882753Y-122453760D01*
X128850293Y-122658709D01*
X128849500Y-122663713D01*
X128849500Y-122876287D01*
X128857295Y-122925500D01*
X128882753Y-123086239D01*
X128948444Y-123288414D01*
X129044951Y-123477820D01*
X129169890Y-123649786D01*
X129320213Y-123800109D01*
X129492179Y-123925048D01*
X129492181Y-123925049D01*
X129492184Y-123925051D01*
X129681588Y-124021557D01*
X129883757Y-124087246D01*
X130093713Y-124120500D01*
X130093714Y-124120500D01*
X130306286Y-124120500D01*
X130306287Y-124120500D01*
X130516243Y-124087246D01*
X130718412Y-124021557D01*
X130907816Y-123925051D01*
X130929789Y-123909086D01*
X131079786Y-123800109D01*
X131079788Y-123800106D01*
X131079792Y-123800104D01*
X131230104Y-123649792D01*
X131230106Y-123649788D01*
X131230109Y-123649786D01*
X131355048Y-123477820D01*
X131355047Y-123477820D01*
X131355051Y-123477816D01*
X131451557Y-123288412D01*
X131517246Y-123086243D01*
X131541617Y-122932367D01*
X131571546Y-122869234D01*
X131630857Y-122832302D01*
X131700720Y-122833300D01*
X131726089Y-122844379D01*
X131781355Y-122876286D01*
X131795716Y-122884577D01*
X131948443Y-122925500D01*
X131948445Y-122925500D01*
X133231554Y-122925500D01*
X133231557Y-122925500D01*
X133343410Y-122895529D01*
X133413256Y-122897192D01*
X133471119Y-122936354D01*
X133498623Y-123000582D01*
X133499500Y-123015304D01*
X133499500Y-150875500D01*
X133479815Y-150942539D01*
X133427011Y-150988294D01*
X133375500Y-150999500D01*
X130511224Y-150999500D01*
X130444185Y-150979815D01*
X130398430Y-150927011D01*
X130388486Y-150857853D01*
X130400739Y-150819205D01*
X130450806Y-150720943D01*
X130526952Y-150486589D01*
X130565500Y-150243208D01*
X130565500Y-149996792D01*
X130526952Y-149753411D01*
X130526951Y-149753407D01*
X130526951Y-149753406D01*
X130450807Y-149519059D01*
X130338935Y-149299498D01*
X130194097Y-149100145D01*
X130019855Y-148925903D01*
X129820501Y-148781064D01*
X129600940Y-148669192D01*
X129366592Y-148593048D01*
X129184053Y-148564137D01*
X129123208Y-148554500D01*
X128876792Y-148554500D01*
X128795665Y-148567349D01*
X128633409Y-148593048D01*
X128633406Y-148593048D01*
X128399059Y-148669192D01*
X128179498Y-148781064D01*
X127980142Y-148925905D01*
X127805905Y-149100142D01*
X127661064Y-149299498D01*
X127549192Y-149519059D01*
X127473048Y-149753406D01*
X127473048Y-149753409D01*
X127434500Y-149996792D01*
X127434500Y-150243207D01*
X127473048Y-150486590D01*
X127473048Y-150486593D01*
X127549192Y-150720940D01*
X127599261Y-150819205D01*
X127612157Y-150887874D01*
X127585881Y-150952615D01*
X127528774Y-150992872D01*
X127488776Y-150999500D01*
X124624500Y-150999500D01*
X124557461Y-150979815D01*
X124511706Y-150927011D01*
X124500500Y-150875500D01*
X124500500Y-135556792D01*
X127434500Y-135556792D01*
X127434500Y-135803207D01*
X127473048Y-136046590D01*
X127473048Y-136046593D01*
X127549192Y-136280940D01*
X127549194Y-136280943D01*
X127661064Y-136500501D01*
X127805903Y-136699855D01*
X127980145Y-136874097D01*
X128179499Y-137018936D01*
X128280729Y-137070515D01*
X128331525Y-137118489D01*
X128348320Y-137186310D01*
X128325783Y-137252445D01*
X128271068Y-137295897D01*
X128224434Y-137305000D01*
X127987155Y-137305000D01*
X127927627Y-137311401D01*
X127927620Y-137311403D01*
X127792913Y-137361645D01*
X127792906Y-137361649D01*
X127677812Y-137447809D01*
X127677809Y-137447812D01*
X127591649Y-137562906D01*
X127591645Y-137562913D01*
X127541403Y-137697620D01*
X127541401Y-137697627D01*
X127535000Y-137757155D01*
X127535000Y-138470000D01*
X128443294Y-138470000D01*
X128413442Y-138542069D01*
X128390000Y-138659920D01*
X128390000Y-138719920D01*
X128390000Y-138840080D01*
X128413442Y-138957931D01*
X128443294Y-139030000D01*
X127535000Y-139030000D01*
X127535000Y-139742844D01*
X127541401Y-139802372D01*
X127541403Y-139802379D01*
X127591645Y-139937086D01*
X127591649Y-139937093D01*
X127677809Y-140052187D01*
X127677812Y-140052190D01*
X127792906Y-140138350D01*
X127792913Y-140138354D01*
X127927620Y-140188596D01*
X127927627Y-140188598D01*
X127987155Y-140194999D01*
X127987172Y-140195000D01*
X128224434Y-140195000D01*
X128291473Y-140214685D01*
X128337228Y-140267489D01*
X128347172Y-140336647D01*
X128318147Y-140400203D01*
X128280729Y-140429485D01*
X128179498Y-140481064D01*
X127980142Y-140625905D01*
X127805905Y-140800142D01*
X127661064Y-140999498D01*
X127549192Y-141219059D01*
X127473048Y-141453406D01*
X127473048Y-141453409D01*
X127434500Y-141696792D01*
X127434500Y-141943207D01*
X127473048Y-142186590D01*
X127473048Y-142186593D01*
X127549192Y-142420940D01*
X127549194Y-142420943D01*
X127661064Y-142640501D01*
X127805903Y-142839855D01*
X127980145Y-143014097D01*
X128179499Y-143158936D01*
X128399057Y-143270806D01*
X128399059Y-143270807D01*
X128633407Y-143346951D01*
X128633408Y-143346951D01*
X128633411Y-143346952D01*
X128876792Y-143385500D01*
X128876793Y-143385500D01*
X129123207Y-143385500D01*
X129123208Y-143385500D01*
X129366589Y-143346952D01*
X129366592Y-143346951D01*
X129366593Y-143346951D01*
X129600940Y-143270807D01*
X129600940Y-143270806D01*
X129600943Y-143270806D01*
X129820501Y-143158936D01*
X130019855Y-143014097D01*
X130194097Y-142839855D01*
X130338936Y-142640501D01*
X130450806Y-142420943D01*
X130526952Y-142186589D01*
X130565500Y-141943208D01*
X130565500Y-141696792D01*
X130526952Y-141453411D01*
X130526951Y-141453407D01*
X130526951Y-141453406D01*
X130450807Y-141219059D01*
X130338935Y-140999498D01*
X130194097Y-140800145D01*
X130019855Y-140625903D01*
X129820501Y-140481064D01*
X129719270Y-140429484D01*
X129668475Y-140381511D01*
X129651680Y-140313690D01*
X129674217Y-140247555D01*
X129728932Y-140204103D01*
X129775566Y-140195000D01*
X130012828Y-140195000D01*
X130012844Y-140194999D01*
X130072372Y-140188598D01*
X130072379Y-140188596D01*
X130207086Y-140138354D01*
X130207093Y-140138350D01*
X130322187Y-140052190D01*
X130322190Y-140052187D01*
X130408350Y-139937093D01*
X130408354Y-139937086D01*
X130458596Y-139802379D01*
X130458598Y-139802372D01*
X130464999Y-139742844D01*
X130465000Y-139742827D01*
X130465000Y-139030000D01*
X129556706Y-139030000D01*
X129586558Y-138957931D01*
X129610000Y-138840080D01*
X129610000Y-138719920D01*
X129610000Y-138659920D01*
X129586558Y-138542069D01*
X129556706Y-138470000D01*
X130465000Y-138470000D01*
X130465000Y-137757172D01*
X130464999Y-137757155D01*
X130458598Y-137697627D01*
X130458596Y-137697620D01*
X130408354Y-137562913D01*
X130408350Y-137562906D01*
X130322190Y-137447812D01*
X130322187Y-137447809D01*
X130207093Y-137361649D01*
X130207086Y-137361645D01*
X130072379Y-137311403D01*
X130072372Y-137311401D01*
X130012844Y-137305000D01*
X129775566Y-137305000D01*
X129708527Y-137285315D01*
X129662772Y-137232511D01*
X129652828Y-137163353D01*
X129681853Y-137099797D01*
X129719271Y-137070515D01*
X129820501Y-137018936D01*
X130019855Y-136874097D01*
X130194097Y-136699855D01*
X130338936Y-136500501D01*
X130450806Y-136280943D01*
X130526952Y-136046589D01*
X130565500Y-135803208D01*
X130565500Y-135556792D01*
X130526952Y-135313411D01*
X130526951Y-135313407D01*
X130526951Y-135313406D01*
X130450807Y-135079059D01*
X130338935Y-134859498D01*
X130194097Y-134660145D01*
X130019855Y-134485903D01*
X129820501Y-134341064D01*
X129600940Y-134229192D01*
X129366592Y-134153048D01*
X129184053Y-134124137D01*
X129123208Y-134114500D01*
X128876792Y-134114500D01*
X128795665Y-134127349D01*
X128633409Y-134153048D01*
X128633406Y-134153048D01*
X128399059Y-134229192D01*
X128179498Y-134341064D01*
X127980142Y-134485905D01*
X127805905Y-134660142D01*
X127661064Y-134859498D01*
X127549192Y-135079059D01*
X127473048Y-135313406D01*
X127473048Y-135313409D01*
X127434500Y-135556792D01*
X124500500Y-135556792D01*
X124500500Y-127256792D01*
X127434500Y-127256792D01*
X127434500Y-127503207D01*
X127473048Y-127746590D01*
X127473048Y-127746593D01*
X127549192Y-127980940D01*
X127549194Y-127980943D01*
X127661064Y-128200501D01*
X127805903Y-128399855D01*
X127980145Y-128574097D01*
X128179499Y-128718936D01*
X128399057Y-128830806D01*
X128399059Y-128830807D01*
X128633407Y-128906951D01*
X128633408Y-128906951D01*
X128633411Y-128906952D01*
X128876792Y-128945500D01*
X128876793Y-128945500D01*
X129123207Y-128945500D01*
X129123208Y-128945500D01*
X129366589Y-128906952D01*
X129366592Y-128906951D01*
X129366593Y-128906951D01*
X129600940Y-128830807D01*
X129600940Y-128830806D01*
X129600943Y-128830806D01*
X129820501Y-128718936D01*
X130019855Y-128574097D01*
X130194097Y-128399855D01*
X130338936Y-128200501D01*
X130450806Y-127980943D01*
X130526952Y-127746589D01*
X130565500Y-127503208D01*
X130565500Y-127256792D01*
X130526952Y-127013411D01*
X130526951Y-127013407D01*
X130526951Y-127013406D01*
X130450807Y-126779059D01*
X130338935Y-126559498D01*
X130194097Y-126360145D01*
X130019855Y-126185903D01*
X129820501Y-126041064D01*
X129600940Y-125929192D01*
X129366592Y-125853048D01*
X129184053Y-125824137D01*
X129123208Y-125814500D01*
X128876792Y-125814500D01*
X128795665Y-125827349D01*
X128633409Y-125853048D01*
X128633406Y-125853048D01*
X128399059Y-125929192D01*
X128179498Y-126041064D01*
X127980142Y-126185905D01*
X127805905Y-126360142D01*
X127661064Y-126559498D01*
X127549192Y-126779059D01*
X127473048Y-127013406D01*
X127473048Y-127013409D01*
X127434500Y-127256792D01*
X124500500Y-127256792D01*
X124500500Y-122964650D01*
X124520185Y-122897611D01*
X124572989Y-122851856D01*
X124642147Y-122841912D01*
X124662834Y-122847587D01*
X124662865Y-122847473D01*
X124670714Y-122849576D01*
X124670716Y-122849577D01*
X124823443Y-122890500D01*
X124823445Y-122890500D01*
X126106555Y-122890500D01*
X126106557Y-122890500D01*
X126259284Y-122849577D01*
X126396216Y-122770520D01*
X126508020Y-122658716D01*
X126587077Y-122521784D01*
X126628000Y-122369057D01*
X126628000Y-119501654D01*
X126647685Y-119434615D01*
X126700489Y-119388860D01*
X126769647Y-119378916D01*
X126833203Y-119407941D01*
G37*
%TD.AperFunction*%
%TA.AperFunction,Conductor*%
G36*
X127836420Y-113059232D02*
G01*
X127850313Y-113075265D01*
X127931753Y-113187358D01*
X127931758Y-113187365D01*
X128087636Y-113343243D01*
X128087641Y-113343247D01*
X128243192Y-113456260D01*
X128265978Y-113472815D01*
X128382501Y-113532187D01*
X128462393Y-113572895D01*
X128462396Y-113572896D01*
X128529802Y-113594797D01*
X128672049Y-113641015D01*
X128889778Y-113675500D01*
X128889779Y-113675500D01*
X128977336Y-113675500D01*
X129044375Y-113695185D01*
X129090130Y-113747989D01*
X129100074Y-113817147D01*
X129071049Y-113880703D01*
X129051647Y-113898767D01*
X128992809Y-113942813D01*
X128906649Y-114057906D01*
X128906645Y-114057913D01*
X128856403Y-114192620D01*
X128856401Y-114192627D01*
X128850000Y-114252155D01*
X128850000Y-114900000D01*
X129766988Y-114900000D01*
X129734075Y-114957007D01*
X129700000Y-115084174D01*
X129700000Y-115215826D01*
X129734075Y-115342993D01*
X129766988Y-115400000D01*
X128850000Y-115400000D01*
X128850000Y-116047844D01*
X128856401Y-116107372D01*
X128856403Y-116107379D01*
X128906645Y-116242086D01*
X128906649Y-116242093D01*
X128992809Y-116357187D01*
X128992812Y-116357190D01*
X129107906Y-116443350D01*
X129107913Y-116443354D01*
X129239470Y-116492422D01*
X129295404Y-116534293D01*
X129319821Y-116599758D01*
X129304969Y-116668031D01*
X129283819Y-116696285D01*
X129169889Y-116810215D01*
X129044951Y-116982179D01*
X128948444Y-117171585D01*
X128882753Y-117373760D01*
X128849500Y-117583713D01*
X128849500Y-117796286D01*
X128874054Y-117951318D01*
X128882754Y-118006243D01*
X128902135Y-118065892D01*
X128948444Y-118208414D01*
X129044951Y-118397820D01*
X129169890Y-118569786D01*
X129320213Y-118720109D01*
X129492182Y-118845050D01*
X129500946Y-118849516D01*
X129551742Y-118897491D01*
X129568536Y-118965312D01*
X129545998Y-119031447D01*
X129500946Y-119070484D01*
X129492182Y-119074949D01*
X129320213Y-119199890D01*
X129169890Y-119350213D01*
X129044949Y-119522182D01*
X128987891Y-119634163D01*
X128939916Y-119684958D01*
X128872095Y-119701753D01*
X128805961Y-119679215D01*
X128789726Y-119665548D01*
X127136819Y-118012641D01*
X127103334Y-117951318D01*
X127100500Y-117924960D01*
X127100500Y-113616835D01*
X127120185Y-113549796D01*
X127168206Y-113506350D01*
X127168547Y-113506175D01*
X127234022Y-113472815D01*
X127412365Y-113343242D01*
X127568242Y-113187365D01*
X127649682Y-113075270D01*
X127705011Y-113032606D01*
X127774624Y-113026627D01*
X127836420Y-113059232D01*
G37*
%TD.AperFunction*%
%TA.AperFunction,Conductor*%
G36*
X127305703Y-92800385D02*
G01*
X127312181Y-92806417D01*
X127338349Y-92832585D01*
X127338355Y-92832590D01*
X128841241Y-94335476D01*
X128874726Y-94396799D01*
X128871492Y-94461473D01*
X128857753Y-94503757D01*
X128836985Y-94634886D01*
X128824500Y-94713713D01*
X128824500Y-94926287D01*
X128830313Y-94962989D01*
X128857753Y-95136239D01*
X128923444Y-95338414D01*
X129019951Y-95527820D01*
X129144890Y-95699786D01*
X129295213Y-95850109D01*
X129467179Y-95975048D01*
X129467181Y-95975049D01*
X129467184Y-95975051D01*
X129656588Y-96071557D01*
X129858757Y-96137246D01*
X130068713Y-96170500D01*
X130068714Y-96170500D01*
X130281286Y-96170500D01*
X130281287Y-96170500D01*
X130491243Y-96137246D01*
X130693412Y-96071557D01*
X130882816Y-95975051D01*
X130904789Y-95959086D01*
X131054786Y-95850109D01*
X131054788Y-95850106D01*
X131054792Y-95850104D01*
X131205104Y-95699792D01*
X131205106Y-95699788D01*
X131205109Y-95699786D01*
X131330048Y-95527820D01*
X131330047Y-95527820D01*
X131330051Y-95527816D01*
X131426557Y-95338412D01*
X131492246Y-95136243D01*
X131525500Y-94926287D01*
X131525500Y-94926281D01*
X131525967Y-94923333D01*
X131555896Y-94860198D01*
X131615207Y-94823266D01*
X131685070Y-94824264D01*
X131710437Y-94835341D01*
X131795716Y-94884577D01*
X131948443Y-94925500D01*
X131948445Y-94925500D01*
X133231554Y-94925500D01*
X133231557Y-94925500D01*
X133343410Y-94895529D01*
X133413256Y-94897192D01*
X133471119Y-94936354D01*
X133498623Y-95000582D01*
X133499500Y-95015304D01*
X133499500Y-102634695D01*
X133479815Y-102701734D01*
X133427011Y-102747489D01*
X133357853Y-102757433D01*
X133343407Y-102754470D01*
X133261514Y-102732527D01*
X133231557Y-102724500D01*
X132106557Y-102724500D01*
X131948443Y-102724500D01*
X131795716Y-102765423D01*
X131795709Y-102765426D01*
X131658790Y-102844475D01*
X131658782Y-102844481D01*
X131546981Y-102956282D01*
X131546975Y-102956290D01*
X131467926Y-103093209D01*
X131467923Y-103093216D01*
X131427000Y-103245943D01*
X131427000Y-108404056D01*
X131467923Y-108556783D01*
X131467926Y-108556790D01*
X131546975Y-108693709D01*
X131546979Y-108693714D01*
X131546980Y-108693716D01*
X131658784Y-108805520D01*
X131658786Y-108805521D01*
X131658790Y-108805524D01*
X131739041Y-108851856D01*
X131795716Y-108884577D01*
X131948443Y-108925500D01*
X131948445Y-108925500D01*
X133231554Y-108925500D01*
X133231557Y-108925500D01*
X133343410Y-108895529D01*
X133413256Y-108897192D01*
X133471119Y-108936354D01*
X133498623Y-109000582D01*
X133499500Y-109015304D01*
X133499500Y-116634695D01*
X133479815Y-116701734D01*
X133427011Y-116747489D01*
X133357853Y-116757433D01*
X133343407Y-116754470D01*
X133261514Y-116732527D01*
X133231557Y-116724500D01*
X132106557Y-116724500D01*
X131948443Y-116724500D01*
X131795716Y-116765423D01*
X131795709Y-116765426D01*
X131658790Y-116844475D01*
X131658782Y-116844481D01*
X131546981Y-116956282D01*
X131542030Y-116962735D01*
X131540050Y-116961215D01*
X131498557Y-117000771D01*
X131429949Y-117013987D01*
X131365087Y-116988013D01*
X131341430Y-116963435D01*
X131230109Y-116810214D01*
X131230105Y-116810209D01*
X131116181Y-116696285D01*
X131082696Y-116634962D01*
X131087680Y-116565270D01*
X131129552Y-116509337D01*
X131160529Y-116492422D01*
X131292086Y-116443354D01*
X131292093Y-116443350D01*
X131407187Y-116357190D01*
X131407190Y-116357187D01*
X131493350Y-116242093D01*
X131493354Y-116242086D01*
X131543596Y-116107379D01*
X131543598Y-116107372D01*
X131549999Y-116047844D01*
X131550000Y-116047827D01*
X131550000Y-115400000D01*
X130633012Y-115400000D01*
X130665925Y-115342993D01*
X130700000Y-115215826D01*
X130700000Y-115084174D01*
X130665925Y-114957007D01*
X130633012Y-114900000D01*
X131550000Y-114900000D01*
X131550000Y-114252172D01*
X131549999Y-114252155D01*
X131543598Y-114192627D01*
X131543596Y-114192620D01*
X131493354Y-114057913D01*
X131493350Y-114057906D01*
X131407190Y-113942812D01*
X131407187Y-113942809D01*
X131284989Y-113851331D01*
X131285881Y-113850138D01*
X131243346Y-113807595D01*
X131228500Y-113739321D01*
X131250000Y-113681693D01*
X131250000Y-112708012D01*
X131307007Y-112740925D01*
X131434174Y-112775000D01*
X131565826Y-112775000D01*
X131692993Y-112740925D01*
X131750000Y-112708012D01*
X131750000Y-113675000D01*
X132447828Y-113675000D01*
X132447844Y-113674999D01*
X132507372Y-113668598D01*
X132507379Y-113668596D01*
X132642086Y-113618354D01*
X132642093Y-113618350D01*
X132757187Y-113532190D01*
X132757190Y-113532187D01*
X132843350Y-113417093D01*
X132843354Y-113417086D01*
X132893596Y-113282379D01*
X132893598Y-113282372D01*
X132899999Y-113222844D01*
X132900000Y-113222827D01*
X132900000Y-112525000D01*
X131933012Y-112525000D01*
X131965925Y-112467993D01*
X132000000Y-112340826D01*
X132000000Y-112209174D01*
X131965925Y-112082007D01*
X131933012Y-112025000D01*
X132900000Y-112025000D01*
X132900000Y-111327172D01*
X132899999Y-111327155D01*
X132893598Y-111267627D01*
X132893596Y-111267620D01*
X132843354Y-111132913D01*
X132843350Y-111132906D01*
X132757190Y-111017812D01*
X132757187Y-111017809D01*
X132642093Y-110931649D01*
X132642086Y-110931645D01*
X132507379Y-110881403D01*
X132507372Y-110881401D01*
X132447844Y-110875000D01*
X131750000Y-110875000D01*
X131750000Y-111841988D01*
X131692993Y-111809075D01*
X131565826Y-111775000D01*
X131434174Y-111775000D01*
X131307007Y-111809075D01*
X131250000Y-111841988D01*
X131250000Y-110875000D01*
X130552155Y-110875000D01*
X130492627Y-110881401D01*
X130492620Y-110881403D01*
X130357913Y-110931645D01*
X130357906Y-110931649D01*
X130242812Y-111017809D01*
X130242809Y-111017812D01*
X130156649Y-111132906D01*
X130156645Y-111132913D01*
X130137653Y-111183835D01*
X130095782Y-111239769D01*
X130030317Y-111264186D01*
X129962044Y-111249334D01*
X129933790Y-111228183D01*
X129912363Y-111206756D01*
X129912358Y-111206752D01*
X129734025Y-111077187D01*
X129734024Y-111077186D01*
X129734022Y-111077185D01*
X129668203Y-111043648D01*
X129537606Y-110977104D01*
X129537603Y-110977103D01*
X129327952Y-110908985D01*
X129219086Y-110891742D01*
X129110222Y-110874500D01*
X128889778Y-110874500D01*
X128817201Y-110885995D01*
X128672047Y-110908985D01*
X128462396Y-110977103D01*
X128462393Y-110977104D01*
X128265974Y-111077187D01*
X128087641Y-111206752D01*
X128087636Y-111206756D01*
X127931756Y-111362636D01*
X127931752Y-111362641D01*
X127850318Y-111474727D01*
X127794989Y-111517393D01*
X127725375Y-111523372D01*
X127663580Y-111490767D01*
X127649682Y-111474727D01*
X127568247Y-111362641D01*
X127568243Y-111362636D01*
X127412363Y-111206756D01*
X127412358Y-111206752D01*
X127234023Y-111077185D01*
X127168204Y-111043648D01*
X127117409Y-110995674D01*
X127100500Y-110933164D01*
X127100500Y-99616835D01*
X127120185Y-99549796D01*
X127168206Y-99506350D01*
X127168547Y-99506175D01*
X127234022Y-99472815D01*
X127412365Y-99343242D01*
X127568242Y-99187365D01*
X127649682Y-99075270D01*
X127705011Y-99032606D01*
X127774624Y-99026627D01*
X127836420Y-99059232D01*
X127850313Y-99075265D01*
X127931753Y-99187358D01*
X127931758Y-99187365D01*
X128087636Y-99343243D01*
X128087641Y-99343247D01*
X128243192Y-99456260D01*
X128265978Y-99472815D01*
X128382501Y-99532187D01*
X128462393Y-99572895D01*
X128462396Y-99572896D01*
X128567221Y-99606955D01*
X128672049Y-99641015D01*
X128889778Y-99675500D01*
X128889779Y-99675500D01*
X129110221Y-99675500D01*
X129110222Y-99675500D01*
X129327951Y-99641015D01*
X129537606Y-99572895D01*
X129734022Y-99472815D01*
X129912365Y-99343242D01*
X129933790Y-99321816D01*
X129995110Y-99288331D01*
X130064802Y-99293314D01*
X130120737Y-99335185D01*
X130137653Y-99366164D01*
X130156645Y-99417086D01*
X130156649Y-99417093D01*
X130242809Y-99532187D01*
X130242812Y-99532190D01*
X130357906Y-99618350D01*
X130357913Y-99618354D01*
X130492620Y-99668596D01*
X130492627Y-99668598D01*
X130552155Y-99674999D01*
X130552172Y-99675000D01*
X131250000Y-99675000D01*
X131250000Y-98708012D01*
X131307007Y-98740925D01*
X131434174Y-98775000D01*
X131565826Y-98775000D01*
X131692993Y-98740925D01*
X131750000Y-98708012D01*
X131750000Y-99675000D01*
X132447828Y-99675000D01*
X132447844Y-99674999D01*
X132507372Y-99668598D01*
X132507379Y-99668596D01*
X132642086Y-99618354D01*
X132642093Y-99618350D01*
X132757187Y-99532190D01*
X132757190Y-99532187D01*
X132843350Y-99417093D01*
X132843354Y-99417086D01*
X132893596Y-99282379D01*
X132893598Y-99282372D01*
X132899999Y-99222844D01*
X132900000Y-99222827D01*
X132900000Y-98525000D01*
X131933012Y-98525000D01*
X131965925Y-98467993D01*
X132000000Y-98340826D01*
X132000000Y-98209174D01*
X131965925Y-98082007D01*
X131933012Y-98025000D01*
X132900000Y-98025000D01*
X132900000Y-97327172D01*
X132899999Y-97327155D01*
X132893598Y-97267627D01*
X132893596Y-97267620D01*
X132843354Y-97132913D01*
X132843350Y-97132906D01*
X132757190Y-97017812D01*
X132757187Y-97017809D01*
X132642093Y-96931649D01*
X132642086Y-96931645D01*
X132507379Y-96881403D01*
X132507372Y-96881401D01*
X132447844Y-96875000D01*
X131750000Y-96875000D01*
X131750000Y-97841988D01*
X131692993Y-97809075D01*
X131565826Y-97775000D01*
X131434174Y-97775000D01*
X131307007Y-97809075D01*
X131250000Y-97841988D01*
X131250000Y-96875000D01*
X130552155Y-96875000D01*
X130492627Y-96881401D01*
X130492620Y-96881403D01*
X130357913Y-96931645D01*
X130357906Y-96931649D01*
X130242812Y-97017809D01*
X130242809Y-97017812D01*
X130156649Y-97132906D01*
X130156645Y-97132913D01*
X130137653Y-97183835D01*
X130095782Y-97239769D01*
X130030317Y-97264186D01*
X129962044Y-97249334D01*
X129933790Y-97228183D01*
X129912363Y-97206756D01*
X129912358Y-97206752D01*
X129734025Y-97077187D01*
X129734024Y-97077186D01*
X129734022Y-97077185D01*
X129668203Y-97043648D01*
X129537606Y-96977104D01*
X129537603Y-96977103D01*
X129327952Y-96908985D01*
X129219086Y-96891742D01*
X129110222Y-96874500D01*
X128889778Y-96874500D01*
X128817201Y-96885995D01*
X128672047Y-96908985D01*
X128462396Y-96977103D01*
X128462393Y-96977104D01*
X128265974Y-97077187D01*
X128087641Y-97206752D01*
X128087636Y-97206756D01*
X127931756Y-97362636D01*
X127931752Y-97362641D01*
X127850318Y-97474727D01*
X127794989Y-97517393D01*
X127725375Y-97523372D01*
X127663580Y-97490767D01*
X127649682Y-97474727D01*
X127568247Y-97362641D01*
X127568243Y-97362636D01*
X127412363Y-97206756D01*
X127412358Y-97206752D01*
X127234023Y-97077185D01*
X127168204Y-97043648D01*
X127117409Y-96995674D01*
X127100500Y-96933164D01*
X127100500Y-92894098D01*
X127120185Y-92827059D01*
X127172989Y-92781304D01*
X127242147Y-92771360D01*
X127305703Y-92800385D01*
G37*
%TD.AperFunction*%
%TA.AperFunction,Conductor*%
G36*
X130064802Y-113293314D02*
G01*
X130120737Y-113335185D01*
X130137653Y-113366164D01*
X130156645Y-113417086D01*
X130156649Y-113417093D01*
X130242809Y-113532187D01*
X130242812Y-113532190D01*
X130357906Y-113618350D01*
X130357913Y-113618354D01*
X130376501Y-113625287D01*
X130432435Y-113667158D01*
X130456852Y-113732622D01*
X130450000Y-113764122D01*
X130450000Y-114716988D01*
X130392993Y-114684075D01*
X130265826Y-114650000D01*
X130134174Y-114650000D01*
X130007007Y-114684075D01*
X129950000Y-114716988D01*
X129950000Y-113800000D01*
X129608385Y-113800000D01*
X129541346Y-113780315D01*
X129495591Y-113727511D01*
X129485647Y-113658353D01*
X129514672Y-113594797D01*
X129552090Y-113565515D01*
X129574053Y-113554324D01*
X129734022Y-113472815D01*
X129912365Y-113343242D01*
X129933790Y-113321816D01*
X129995110Y-113288331D01*
X130064802Y-113293314D01*
G37*
%TD.AperFunction*%
%TA.AperFunction,Conductor*%
G36*
X131389419Y-93147087D02*
G01*
X131423777Y-93207925D01*
X131427000Y-93236012D01*
X131427000Y-93863987D01*
X131407315Y-93931026D01*
X131354511Y-93976781D01*
X131285353Y-93986725D01*
X131221797Y-93957700D01*
X131208760Y-93943506D01*
X131208276Y-93943921D01*
X131205105Y-93940209D01*
X131054786Y-93789890D01*
X130882820Y-93664951D01*
X130882115Y-93664591D01*
X130874054Y-93660485D01*
X130823259Y-93612512D01*
X130806463Y-93544692D01*
X130828999Y-93478556D01*
X130874054Y-93439515D01*
X130882816Y-93435051D01*
X130904789Y-93419086D01*
X131054786Y-93310109D01*
X131054788Y-93310106D01*
X131054792Y-93310104D01*
X131205104Y-93159792D01*
X131205108Y-93159786D01*
X131208276Y-93156079D01*
X131209958Y-93157516D01*
X131258010Y-93120461D01*
X131327624Y-93114481D01*
X131389419Y-93147087D01*
G37*
%TD.AperFunction*%
%TA.AperFunction,Conductor*%
G36*
X131389419Y-90607087D02*
G01*
X131423777Y-90667925D01*
X131427000Y-90696012D01*
X131427000Y-91323987D01*
X131407315Y-91391026D01*
X131354511Y-91436781D01*
X131285353Y-91446725D01*
X131221797Y-91417700D01*
X131208760Y-91403506D01*
X131208276Y-91403921D01*
X131205105Y-91400209D01*
X131054786Y-91249890D01*
X130882820Y-91124951D01*
X130882115Y-91124591D01*
X130874054Y-91120485D01*
X130823259Y-91072512D01*
X130806463Y-91004692D01*
X130828999Y-90938556D01*
X130874054Y-90899515D01*
X130882816Y-90895051D01*
X130904789Y-90879086D01*
X131054786Y-90770109D01*
X131054788Y-90770106D01*
X131054792Y-90770104D01*
X131205104Y-90619792D01*
X131205108Y-90619786D01*
X131208276Y-90616079D01*
X131209958Y-90617516D01*
X131258010Y-90580461D01*
X131327624Y-90574481D01*
X131389419Y-90607087D01*
G37*
%TD.AperFunction*%
%TA.AperFunction,Conductor*%
G36*
X131675425Y-80545040D02*
G01*
X131677813Y-80545075D01*
X131703183Y-80556153D01*
X131795716Y-80609577D01*
X131948443Y-80650500D01*
X131948445Y-80650500D01*
X133231554Y-80650500D01*
X133231557Y-80650500D01*
X133343410Y-80620529D01*
X133413256Y-80622192D01*
X133471119Y-80661354D01*
X133498623Y-80725582D01*
X133499500Y-80740304D01*
X133499500Y-88634695D01*
X133479815Y-88701734D01*
X133427011Y-88747489D01*
X133357853Y-88757433D01*
X133343407Y-88754470D01*
X133261514Y-88732527D01*
X133231557Y-88724500D01*
X132106557Y-88724500D01*
X131948443Y-88724500D01*
X131795716Y-88765423D01*
X131795709Y-88765426D01*
X131658790Y-88844475D01*
X131658782Y-88844481D01*
X131546979Y-88956284D01*
X131521980Y-88999585D01*
X131471413Y-89047800D01*
X131402805Y-89061022D01*
X131337941Y-89035054D01*
X131314275Y-89010469D01*
X131205109Y-88860213D01*
X131091181Y-88746285D01*
X131057696Y-88684962D01*
X131062680Y-88615270D01*
X131104552Y-88559337D01*
X131135529Y-88542422D01*
X131267086Y-88493354D01*
X131267093Y-88493350D01*
X131382187Y-88407190D01*
X131382190Y-88407187D01*
X131468350Y-88292093D01*
X131468354Y-88292086D01*
X131518596Y-88157379D01*
X131518598Y-88157372D01*
X131524999Y-88097844D01*
X131525000Y-88097827D01*
X131525000Y-87450000D01*
X130608012Y-87450000D01*
X130640925Y-87392993D01*
X130675000Y-87265826D01*
X130675000Y-87134174D01*
X130640925Y-87007007D01*
X130608012Y-86950000D01*
X131525000Y-86950000D01*
X131525000Y-86302172D01*
X131524999Y-86302155D01*
X131518598Y-86242627D01*
X131518596Y-86242620D01*
X131468354Y-86107913D01*
X131468350Y-86107906D01*
X131382190Y-85992812D01*
X131382187Y-85992809D01*
X131267093Y-85906649D01*
X131267087Y-85906646D01*
X131266709Y-85906505D01*
X131266385Y-85906263D01*
X131259304Y-85902396D01*
X131259859Y-85901378D01*
X131210774Y-85864636D01*
X131186355Y-85799172D01*
X131201205Y-85730899D01*
X131222358Y-85702640D01*
X131250000Y-85674998D01*
X131250000Y-84708012D01*
X131307007Y-84740925D01*
X131434174Y-84775000D01*
X131565826Y-84775000D01*
X131692993Y-84740925D01*
X131750000Y-84708012D01*
X131750000Y-85675000D01*
X132447828Y-85675000D01*
X132447844Y-85674999D01*
X132507372Y-85668598D01*
X132507379Y-85668596D01*
X132642086Y-85618354D01*
X132642093Y-85618350D01*
X132757187Y-85532190D01*
X132757190Y-85532187D01*
X132843350Y-85417093D01*
X132843354Y-85417086D01*
X132893596Y-85282379D01*
X132893598Y-85282372D01*
X132899999Y-85222844D01*
X132900000Y-85222827D01*
X132900000Y-84525000D01*
X131933012Y-84525000D01*
X131965925Y-84467993D01*
X132000000Y-84340826D01*
X132000000Y-84209174D01*
X131965925Y-84082007D01*
X131933012Y-84025000D01*
X132900000Y-84025000D01*
X132900000Y-83327172D01*
X132899999Y-83327155D01*
X132893598Y-83267627D01*
X132893596Y-83267620D01*
X132843354Y-83132913D01*
X132843350Y-83132906D01*
X132757190Y-83017812D01*
X132757187Y-83017809D01*
X132642093Y-82931649D01*
X132642086Y-82931645D01*
X132507379Y-82881403D01*
X132507372Y-82881401D01*
X132447844Y-82875000D01*
X131750000Y-82875000D01*
X131750000Y-83841988D01*
X131692993Y-83809075D01*
X131565826Y-83775000D01*
X131434174Y-83775000D01*
X131307007Y-83809075D01*
X131250000Y-83841988D01*
X131250000Y-82875000D01*
X130925500Y-82875000D01*
X130858461Y-82855315D01*
X130812706Y-82802511D01*
X130801500Y-82751000D01*
X130801500Y-82290059D01*
X130801501Y-82290046D01*
X130801501Y-82121945D01*
X130801501Y-82121943D01*
X130760577Y-81969215D01*
X130731639Y-81919095D01*
X130711311Y-81883886D01*
X130694841Y-81815986D01*
X130717694Y-81749960D01*
X130762403Y-81711403D01*
X130882816Y-81650051D01*
X130904789Y-81634086D01*
X131054786Y-81525109D01*
X131054788Y-81525106D01*
X131054792Y-81525104D01*
X131205104Y-81374792D01*
X131205106Y-81374788D01*
X131205109Y-81374786D01*
X131330048Y-81202820D01*
X131330047Y-81202820D01*
X131330051Y-81202816D01*
X131426557Y-81013412D01*
X131492246Y-80811243D01*
X131518712Y-80644140D01*
X131532093Y-80615913D01*
X131543713Y-80586890D01*
X131546942Y-80584590D01*
X131548640Y-80581009D01*
X131575169Y-80564489D01*
X131600627Y-80546361D01*
X131604585Y-80546172D01*
X131607951Y-80544077D01*
X131639198Y-80544523D01*
X131670418Y-80543036D01*
X131675425Y-80545040D01*
G37*
%TD.AperFunction*%
%TA.AperFunction,Conductor*%
G36*
X130325129Y-85600087D02*
G01*
X130333595Y-85603606D01*
X130403176Y-85635597D01*
X130426205Y-85655654D01*
X130450643Y-85673948D01*
X130452295Y-85678379D01*
X130455863Y-85681486D01*
X130464391Y-85710807D01*
X130475061Y-85739412D01*
X130474055Y-85744033D01*
X130475377Y-85748576D01*
X130466699Y-85777852D01*
X130460210Y-85807685D01*
X130456314Y-85812889D01*
X130455521Y-85815565D01*
X130452110Y-85818505D01*
X130439059Y-85835940D01*
X130425000Y-85849999D01*
X130425000Y-86766988D01*
X130367993Y-86734075D01*
X130240826Y-86700000D01*
X130109174Y-86700000D01*
X129982007Y-86734075D01*
X129925000Y-86766988D01*
X129925000Y-85949066D01*
X129944685Y-85882027D01*
X129961313Y-85861392D01*
X130194120Y-85628585D01*
X130255438Y-85595103D01*
X130325129Y-85600087D01*
G37*
%TD.AperFunction*%
%TA.AperFunction,Conductor*%
G36*
X133442539Y-41520185D02*
G01*
X133488294Y-41572989D01*
X133499500Y-41624500D01*
X133499500Y-60578111D01*
X133479815Y-60645150D01*
X133427011Y-60690905D01*
X133357853Y-60700849D01*
X133294297Y-60671824D01*
X133287819Y-60665792D01*
X133227512Y-60605485D01*
X133227510Y-60605483D01*
X133036433Y-60466657D01*
X133036429Y-60466655D01*
X132825996Y-60359433D01*
X132601368Y-60286446D01*
X132368097Y-60249500D01*
X132368092Y-60249500D01*
X132131908Y-60249500D01*
X132131903Y-60249500D01*
X131898631Y-60286446D01*
X131674003Y-60359433D01*
X131463566Y-60466657D01*
X131354550Y-60545862D01*
X131272490Y-60605483D01*
X131272488Y-60605485D01*
X131272487Y-60605485D01*
X131105485Y-60772487D01*
X131105485Y-60772488D01*
X131105483Y-60772490D01*
X131045862Y-60854550D01*
X130966657Y-60963566D01*
X130859433Y-61174003D01*
X130786446Y-61398631D01*
X130749500Y-61631902D01*
X130749500Y-61868097D01*
X130786446Y-62101368D01*
X130859433Y-62325996D01*
X130966657Y-62536433D01*
X131105483Y-62727510D01*
X131272490Y-62894517D01*
X131463567Y-63033343D01*
X131562991Y-63084002D01*
X131674003Y-63140566D01*
X131674005Y-63140566D01*
X131674008Y-63140568D01*
X131794412Y-63179689D01*
X131898631Y-63213553D01*
X132131903Y-63250500D01*
X132131908Y-63250500D01*
X132368097Y-63250500D01*
X132601368Y-63213553D01*
X132825992Y-63140568D01*
X133036433Y-63033343D01*
X133227510Y-62894517D01*
X133287819Y-62834208D01*
X133349142Y-62800723D01*
X133418834Y-62805707D01*
X133474767Y-62847579D01*
X133499184Y-62913043D01*
X133499500Y-62921889D01*
X133499500Y-65302690D01*
X133479815Y-65369729D01*
X133463181Y-65390371D01*
X132773787Y-66079765D01*
X132762518Y-66037708D01*
X132690110Y-65912292D01*
X132587708Y-65809890D01*
X132462292Y-65737482D01*
X132420234Y-65726212D01*
X133119105Y-65027340D01*
X133119104Y-65027338D01*
X133036174Y-64967087D01*
X132825802Y-64859897D01*
X132601247Y-64786934D01*
X132601248Y-64786934D01*
X132368052Y-64750000D01*
X132131948Y-64750000D01*
X131898752Y-64786934D01*
X131674197Y-64859897D01*
X131463830Y-64967084D01*
X131380894Y-65027340D01*
X132079766Y-65726212D01*
X132037708Y-65737482D01*
X131912292Y-65809890D01*
X131809890Y-65912292D01*
X131737482Y-66037708D01*
X131726212Y-66079766D01*
X131027340Y-65380894D01*
X130967084Y-65463830D01*
X130859897Y-65674197D01*
X130786934Y-65898752D01*
X130750000Y-66131947D01*
X130750000Y-66368052D01*
X130786934Y-66601247D01*
X130859897Y-66825802D01*
X130967087Y-67036174D01*
X131027338Y-67119104D01*
X131027340Y-67119105D01*
X131726212Y-66420233D01*
X131737482Y-66462292D01*
X131809890Y-66587708D01*
X131912292Y-66690110D01*
X132037708Y-66762518D01*
X132079765Y-66773787D01*
X131380893Y-67472658D01*
X131463828Y-67532914D01*
X131674197Y-67640102D01*
X131898752Y-67713065D01*
X131898751Y-67713065D01*
X132131948Y-67750000D01*
X132368052Y-67750000D01*
X132601247Y-67713065D01*
X132825802Y-67640102D01*
X133036163Y-67532918D01*
X133036169Y-67532914D01*
X133119104Y-67472658D01*
X133119105Y-67472658D01*
X132420233Y-66773787D01*
X132462292Y-66762518D01*
X132587708Y-66690110D01*
X132690110Y-66587708D01*
X132762518Y-66462292D01*
X132773787Y-66420234D01*
X133463181Y-67109628D01*
X133496666Y-67170951D01*
X133499500Y-67197309D01*
X133499500Y-74359695D01*
X133479815Y-74426734D01*
X133427011Y-74472489D01*
X133357853Y-74482433D01*
X133343407Y-74479470D01*
X133261514Y-74457527D01*
X133231557Y-74449500D01*
X132106557Y-74449500D01*
X131948443Y-74449500D01*
X131795716Y-74490423D01*
X131795709Y-74490426D01*
X131658790Y-74569475D01*
X131658782Y-74569481D01*
X131546981Y-74681282D01*
X131546975Y-74681290D01*
X131538063Y-74696726D01*
X131487495Y-74744940D01*
X131418887Y-74758161D01*
X131354023Y-74732191D01*
X131330360Y-74707608D01*
X131205109Y-74535214D01*
X131205105Y-74535209D01*
X131091569Y-74421673D01*
X131058084Y-74360350D01*
X131063068Y-74290658D01*
X131104940Y-74234725D01*
X131135915Y-74217810D01*
X131267331Y-74168796D01*
X131382546Y-74082546D01*
X131468796Y-73967331D01*
X131519091Y-73832483D01*
X131525500Y-73772873D01*
X131525499Y-71977128D01*
X131519091Y-71917517D01*
X131468796Y-71782669D01*
X131468795Y-71782668D01*
X131468793Y-71782664D01*
X131382547Y-71667455D01*
X131382544Y-71667452D01*
X131268350Y-71581966D01*
X131226479Y-71526033D01*
X131221495Y-71456341D01*
X131250000Y-71404139D01*
X131250000Y-70433012D01*
X131307007Y-70465925D01*
X131434174Y-70500000D01*
X131565826Y-70500000D01*
X131692993Y-70465925D01*
X131750000Y-70433012D01*
X131750000Y-71400000D01*
X132447828Y-71400000D01*
X132447844Y-71399999D01*
X132507372Y-71393598D01*
X132507379Y-71393596D01*
X132642086Y-71343354D01*
X132642093Y-71343350D01*
X132757187Y-71257190D01*
X132757190Y-71257187D01*
X132843350Y-71142093D01*
X132843354Y-71142086D01*
X132893596Y-71007379D01*
X132893598Y-71007372D01*
X132899999Y-70947844D01*
X132900000Y-70947827D01*
X132900000Y-70250000D01*
X131933012Y-70250000D01*
X131965925Y-70192993D01*
X132000000Y-70065826D01*
X132000000Y-69934174D01*
X131965925Y-69807007D01*
X131933012Y-69750000D01*
X132900000Y-69750000D01*
X132900000Y-69052172D01*
X132899999Y-69052155D01*
X132893598Y-68992627D01*
X132893596Y-68992620D01*
X132843354Y-68857913D01*
X132843350Y-68857906D01*
X132757190Y-68742812D01*
X132757187Y-68742809D01*
X132642093Y-68656649D01*
X132642086Y-68656645D01*
X132507379Y-68606403D01*
X132507372Y-68606401D01*
X132447844Y-68600000D01*
X131750000Y-68600000D01*
X131750000Y-69566988D01*
X131692993Y-69534075D01*
X131565826Y-69500000D01*
X131434174Y-69500000D01*
X131307007Y-69534075D01*
X131250000Y-69566988D01*
X131250000Y-68600000D01*
X130552155Y-68600000D01*
X130492627Y-68606401D01*
X130492620Y-68606403D01*
X130357913Y-68656645D01*
X130357906Y-68656649D01*
X130242812Y-68742809D01*
X130242809Y-68742812D01*
X130156649Y-68857906D01*
X130156645Y-68857913D01*
X130137653Y-68908835D01*
X130095782Y-68964769D01*
X130030317Y-68989186D01*
X129962044Y-68974334D01*
X129933790Y-68953183D01*
X129912363Y-68931756D01*
X129912358Y-68931752D01*
X129734025Y-68802187D01*
X129734024Y-68802186D01*
X129734022Y-68802185D01*
X129671096Y-68770122D01*
X129537606Y-68702104D01*
X129537603Y-68702103D01*
X129327952Y-68633985D01*
X129219086Y-68616742D01*
X129110222Y-68599500D01*
X128889778Y-68599500D01*
X128846232Y-68606397D01*
X128672045Y-68633985D01*
X128462817Y-68701966D01*
X128392976Y-68703961D01*
X128333143Y-68667880D01*
X128302316Y-68605179D01*
X128300500Y-68584035D01*
X128300500Y-61781053D01*
X128300500Y-61781051D01*
X128264457Y-61646535D01*
X128264457Y-61646534D01*
X128264457Y-61646533D01*
X128259578Y-61628326D01*
X128259577Y-61628324D01*
X128259577Y-61628323D01*
X128230639Y-61578203D01*
X128180520Y-61491392D01*
X128068716Y-61379588D01*
X128068715Y-61379587D01*
X128064385Y-61375257D01*
X128064374Y-61375247D01*
X126205819Y-59516692D01*
X126172334Y-59455369D01*
X126169500Y-59429011D01*
X126169500Y-56394108D01*
X126829500Y-56394108D01*
X126829500Y-59625892D01*
X126833938Y-59642456D01*
X126863608Y-59753187D01*
X126895348Y-59808162D01*
X126929500Y-59867314D01*
X127022686Y-59960500D01*
X127136814Y-60026392D01*
X127264108Y-60060500D01*
X127264110Y-60060500D01*
X130745890Y-60060500D01*
X130745892Y-60060500D01*
X130873186Y-60026392D01*
X130987314Y-59960500D01*
X131080500Y-59867314D01*
X131146392Y-59753186D01*
X131180500Y-59625892D01*
X131180500Y-56394108D01*
X131146392Y-56266814D01*
X131080500Y-56152686D01*
X130987314Y-56059500D01*
X130930250Y-56026554D01*
X130873187Y-55993608D01*
X130809539Y-55976554D01*
X130745892Y-55959500D01*
X130310948Y-55959500D01*
X130243909Y-55939815D01*
X130198154Y-55887011D01*
X130188210Y-55817853D01*
X130217235Y-55754297D01*
X130236637Y-55736234D01*
X130322187Y-55672190D01*
X130322190Y-55672187D01*
X130408350Y-55557093D01*
X130408354Y-55557086D01*
X130458596Y-55422379D01*
X130458598Y-55422372D01*
X130464999Y-55362844D01*
X130465000Y-55362827D01*
X130465000Y-54650000D01*
X129556706Y-54650000D01*
X129586558Y-54577931D01*
X129610000Y-54460080D01*
X129610000Y-54339920D01*
X129586558Y-54222069D01*
X129556706Y-54150000D01*
X130465000Y-54150000D01*
X130465000Y-53437172D01*
X130464999Y-53437155D01*
X130458598Y-53377627D01*
X130458596Y-53377620D01*
X130408354Y-53242913D01*
X130408350Y-53242906D01*
X130322190Y-53127812D01*
X130322187Y-53127809D01*
X130207093Y-53041649D01*
X130207086Y-53041645D01*
X130072379Y-52991403D01*
X130072372Y-52991401D01*
X130012844Y-52985000D01*
X129657809Y-52985000D01*
X129590770Y-52965315D01*
X129545015Y-52912511D01*
X129535071Y-52843353D01*
X129564096Y-52779797D01*
X129601514Y-52750515D01*
X129820501Y-52638936D01*
X130019855Y-52494097D01*
X130194097Y-52319855D01*
X130338936Y-52120501D01*
X130450806Y-51900943D01*
X130526952Y-51666589D01*
X130565500Y-51423208D01*
X130565500Y-51176792D01*
X130526952Y-50933411D01*
X130526951Y-50933407D01*
X130526951Y-50933406D01*
X130450807Y-50699059D01*
X130338935Y-50479498D01*
X130194097Y-50280145D01*
X130019855Y-50105903D01*
X129820501Y-49961064D01*
X129600940Y-49849192D01*
X129366592Y-49773048D01*
X129184053Y-49744137D01*
X129123208Y-49734500D01*
X128876792Y-49734500D01*
X128795665Y-49747349D01*
X128633409Y-49773048D01*
X128633406Y-49773048D01*
X128399059Y-49849192D01*
X128179498Y-49961064D01*
X127980142Y-50105905D01*
X127805905Y-50280142D01*
X127661064Y-50479498D01*
X127549192Y-50699059D01*
X127473048Y-50933406D01*
X127473048Y-50933409D01*
X127434500Y-51176792D01*
X127434500Y-51423207D01*
X127473048Y-51666590D01*
X127473048Y-51666593D01*
X127549192Y-51900940D01*
X127549194Y-51900943D01*
X127661064Y-52120501D01*
X127805903Y-52319855D01*
X127980145Y-52494097D01*
X128179499Y-52638936D01*
X128398486Y-52750515D01*
X128449282Y-52798489D01*
X128466077Y-52866310D01*
X128443540Y-52932445D01*
X128388825Y-52975897D01*
X128342191Y-52985000D01*
X127987155Y-52985000D01*
X127927627Y-52991401D01*
X127927620Y-52991403D01*
X127792913Y-53041645D01*
X127792906Y-53041649D01*
X127677812Y-53127809D01*
X127677809Y-53127812D01*
X127591649Y-53242906D01*
X127591645Y-53242913D01*
X127541403Y-53377620D01*
X127541401Y-53377627D01*
X127535000Y-53437155D01*
X127535000Y-54150000D01*
X128443294Y-54150000D01*
X128413442Y-54222069D01*
X128390000Y-54339920D01*
X128390000Y-54460080D01*
X128413442Y-54577931D01*
X128443294Y-54650000D01*
X127535000Y-54650000D01*
X127535000Y-55362844D01*
X127541401Y-55422372D01*
X127541403Y-55422379D01*
X127591645Y-55557086D01*
X127591649Y-55557093D01*
X127677809Y-55672187D01*
X127677812Y-55672190D01*
X127763363Y-55736234D01*
X127805234Y-55792168D01*
X127810218Y-55861859D01*
X127776732Y-55923182D01*
X127715409Y-55956666D01*
X127689052Y-55959500D01*
X127264108Y-55959500D01*
X127136812Y-55993608D01*
X127022686Y-56059500D01*
X127022683Y-56059502D01*
X126929502Y-56152683D01*
X126929500Y-56152686D01*
X126863608Y-56266812D01*
X126829500Y-56394108D01*
X126169500Y-56394108D01*
X126169500Y-46731097D01*
X126189185Y-46664058D01*
X126205819Y-46643416D01*
X126898757Y-45950478D01*
X128344853Y-44504381D01*
X128406174Y-44470898D01*
X128470850Y-44474133D01*
X128603257Y-44517154D01*
X128633411Y-44526952D01*
X128876792Y-44565500D01*
X128876793Y-44565500D01*
X129123207Y-44565500D01*
X129123208Y-44565500D01*
X129366589Y-44526952D01*
X129366592Y-44526951D01*
X129366593Y-44526951D01*
X129600940Y-44450807D01*
X129600940Y-44450806D01*
X129600943Y-44450806D01*
X129820501Y-44338936D01*
X130019855Y-44194097D01*
X130194097Y-44019855D01*
X130338936Y-43820501D01*
X130450806Y-43600943D01*
X130526952Y-43366589D01*
X130565500Y-43123208D01*
X130565500Y-42876792D01*
X130526952Y-42633411D01*
X130526951Y-42633407D01*
X130526951Y-42633406D01*
X130450807Y-42399059D01*
X130338935Y-42179498D01*
X130194097Y-41980145D01*
X130019855Y-41805903D01*
X129908251Y-41724818D01*
X129865586Y-41669488D01*
X129859607Y-41599874D01*
X129892213Y-41538079D01*
X129953052Y-41503722D01*
X129981137Y-41500500D01*
X133375500Y-41500500D01*
X133442539Y-41520185D01*
G37*
%TD.AperFunction*%
%TA.AperFunction,Conductor*%
G36*
X125237482Y-66462292D02*
G01*
X125309890Y-66587708D01*
X125412292Y-66690110D01*
X125537708Y-66762518D01*
X125579765Y-66773787D01*
X124880893Y-67472658D01*
X124963828Y-67532914D01*
X125174197Y-67640102D01*
X125398752Y-67713065D01*
X125398751Y-67713065D01*
X125631948Y-67750000D01*
X125868052Y-67750000D01*
X126101247Y-67713065D01*
X126325802Y-67640102D01*
X126536163Y-67532918D01*
X126536169Y-67532914D01*
X126619104Y-67472658D01*
X126619105Y-67472658D01*
X125920233Y-66773787D01*
X125962292Y-66762518D01*
X126087708Y-66690110D01*
X126190110Y-66587708D01*
X126262518Y-66462292D01*
X126273787Y-66420234D01*
X126975175Y-67121622D01*
X127034148Y-67134011D01*
X127083905Y-67183063D01*
X127099500Y-67243265D01*
X127099500Y-68551544D01*
X127079815Y-68618583D01*
X127027011Y-68664338D01*
X126957853Y-68674282D01*
X126937183Y-68669475D01*
X126827953Y-68633985D01*
X126827954Y-68633985D01*
X126664654Y-68608121D01*
X126610222Y-68599500D01*
X126389778Y-68599500D01*
X126317201Y-68610995D01*
X126172047Y-68633985D01*
X125962396Y-68702103D01*
X125962393Y-68702104D01*
X125765974Y-68802187D01*
X125587641Y-68931752D01*
X125587636Y-68931756D01*
X125431756Y-69087636D01*
X125431752Y-69087641D01*
X125302187Y-69265974D01*
X125202104Y-69462393D01*
X125202103Y-69462396D01*
X125133985Y-69672047D01*
X125099500Y-69889778D01*
X125099500Y-70110221D01*
X125133985Y-70327952D01*
X125202103Y-70537603D01*
X125202104Y-70537606D01*
X125302187Y-70734025D01*
X125431752Y-70912358D01*
X125431756Y-70912363D01*
X125587636Y-71068243D01*
X125587641Y-71068247D01*
X125765976Y-71197814D01*
X125831794Y-71231350D01*
X125882591Y-71279324D01*
X125899500Y-71341835D01*
X125899500Y-74290500D01*
X125879815Y-74357539D01*
X125827011Y-74403294D01*
X125775500Y-74414500D01*
X124981557Y-74414500D01*
X124823443Y-74414500D01*
X124670716Y-74455423D01*
X124670714Y-74455423D01*
X124662865Y-74457527D01*
X124662438Y-74455936D01*
X124602468Y-74462376D01*
X124539992Y-74431093D01*
X124504348Y-74371000D01*
X124500500Y-74340349D01*
X124500500Y-67197307D01*
X124520185Y-67130268D01*
X124536819Y-67109626D01*
X125226212Y-66420233D01*
X125237482Y-66462292D01*
G37*
%TD.AperFunction*%
%TA.AperFunction,Conductor*%
G36*
X127018834Y-62705707D02*
G01*
X127074767Y-62747579D01*
X127099184Y-62813043D01*
X127099500Y-62821889D01*
X127099500Y-65256733D01*
X127079815Y-65323772D01*
X127027011Y-65369527D01*
X126974795Y-65378756D01*
X126273787Y-66079765D01*
X126262518Y-66037708D01*
X126190110Y-65912292D01*
X126087708Y-65809890D01*
X125962292Y-65737482D01*
X125920234Y-65726212D01*
X126619105Y-65027340D01*
X126619104Y-65027338D01*
X126536174Y-64967087D01*
X126325802Y-64859897D01*
X126101247Y-64786934D01*
X126101248Y-64786934D01*
X125868052Y-64750000D01*
X125631948Y-64750000D01*
X125398752Y-64786934D01*
X125174197Y-64859897D01*
X124963830Y-64967084D01*
X124880894Y-65027340D01*
X125579766Y-65726212D01*
X125537708Y-65737482D01*
X125412292Y-65809890D01*
X125309890Y-65912292D01*
X125237482Y-66037708D01*
X125226212Y-66079766D01*
X124536819Y-65390373D01*
X124522115Y-65363445D01*
X124505523Y-65337627D01*
X124504631Y-65331426D01*
X124503334Y-65329050D01*
X124500500Y-65302692D01*
X124500500Y-62921889D01*
X124520185Y-62854850D01*
X124572989Y-62809095D01*
X124642147Y-62799151D01*
X124705703Y-62828176D01*
X124712181Y-62834208D01*
X124772490Y-62894517D01*
X124963567Y-63033343D01*
X125062991Y-63084002D01*
X125174003Y-63140566D01*
X125174005Y-63140566D01*
X125174008Y-63140568D01*
X125294412Y-63179689D01*
X125398631Y-63213553D01*
X125631903Y-63250500D01*
X125631908Y-63250500D01*
X125868097Y-63250500D01*
X126101368Y-63213553D01*
X126325992Y-63140568D01*
X126536433Y-63033343D01*
X126727510Y-62894517D01*
X126887819Y-62734208D01*
X126949142Y-62700723D01*
X127018834Y-62705707D01*
G37*
%TD.AperFunction*%
%TD*%
M02*
