%TF.GenerationSoftware,KiCad,Pcbnew,9.0.6*%
%TF.CreationDate,2025-12-01T21:19:51-05:00*%
%TF.ProjectId,Pico 2HP Controls,5069636f-2032-4485-9020-436f6e74726f,rev?*%
%TF.SameCoordinates,Original*%
%TF.FileFunction,Legend,Bot*%
%TF.FilePolarity,Positive*%
%FSLAX46Y46*%
G04 Gerber Fmt 4.6, Leading zero omitted, Abs format (unit mm)*
G04 Created by KiCad (PCBNEW 9.0.6) date 2025-12-01 21:19:51*
%MOMM*%
%LPD*%
G01*
G04 APERTURE LIST*
%ADD10C,0.100000*%
%ADD11C,0.150000*%
%ADD12R,1.700000X1.700000*%
%ADD13C,1.700000*%
%ADD14R,1.930000X1.830000*%
%ADD15C,2.130000*%
%ADD16R,1.800000X1.800000*%
%ADD17C,1.800000*%
%ADD18C,2.000000*%
G04 APERTURE END LIST*
D10*
X125242657Y-124281265D02*
X125195038Y-124328884D01*
X125195038Y-124328884D02*
X125147419Y-124424122D01*
X125147419Y-124424122D02*
X125147419Y-124662217D01*
X125147419Y-124662217D02*
X125195038Y-124757455D01*
X125195038Y-124757455D02*
X125242657Y-124805074D01*
X125242657Y-124805074D02*
X125337895Y-124852693D01*
X125337895Y-124852693D02*
X125433133Y-124852693D01*
X125433133Y-124852693D02*
X125575990Y-124805074D01*
X125575990Y-124805074D02*
X126147419Y-124233646D01*
X126147419Y-124233646D02*
X126147419Y-124852693D01*
X126147419Y-125281265D02*
X125147419Y-125281265D01*
X125623609Y-125281265D02*
X125623609Y-125852693D01*
X126147419Y-125852693D02*
X125147419Y-125852693D01*
X126147419Y-126328884D02*
X125147419Y-126328884D01*
X125147419Y-126328884D02*
X125147419Y-126709836D01*
X125147419Y-126709836D02*
X125195038Y-126805074D01*
X125195038Y-126805074D02*
X125242657Y-126852693D01*
X125242657Y-126852693D02*
X125337895Y-126900312D01*
X125337895Y-126900312D02*
X125480752Y-126900312D01*
X125480752Y-126900312D02*
X125575990Y-126852693D01*
X125575990Y-126852693D02*
X125623609Y-126805074D01*
X125623609Y-126805074D02*
X125671228Y-126709836D01*
X125671228Y-126709836D02*
X125671228Y-126328884D01*
X126147419Y-127328884D02*
X125480752Y-127328884D01*
X125147419Y-127328884D02*
X125195038Y-127281265D01*
X125195038Y-127281265D02*
X125242657Y-127328884D01*
X125242657Y-127328884D02*
X125195038Y-127376503D01*
X125195038Y-127376503D02*
X125147419Y-127328884D01*
X125147419Y-127328884D02*
X125242657Y-127328884D01*
X126099800Y-128233645D02*
X126147419Y-128138407D01*
X126147419Y-128138407D02*
X126147419Y-127947931D01*
X126147419Y-127947931D02*
X126099800Y-127852693D01*
X126099800Y-127852693D02*
X126052180Y-127805074D01*
X126052180Y-127805074D02*
X125956942Y-127757455D01*
X125956942Y-127757455D02*
X125671228Y-127757455D01*
X125671228Y-127757455D02*
X125575990Y-127805074D01*
X125575990Y-127805074D02*
X125528371Y-127852693D01*
X125528371Y-127852693D02*
X125480752Y-127947931D01*
X125480752Y-127947931D02*
X125480752Y-128138407D01*
X125480752Y-128138407D02*
X125528371Y-128233645D01*
X126147419Y-128805074D02*
X126099800Y-128709836D01*
X126099800Y-128709836D02*
X126052180Y-128662217D01*
X126052180Y-128662217D02*
X125956942Y-128614598D01*
X125956942Y-128614598D02*
X125671228Y-128614598D01*
X125671228Y-128614598D02*
X125575990Y-128662217D01*
X125575990Y-128662217D02*
X125528371Y-128709836D01*
X125528371Y-128709836D02*
X125480752Y-128805074D01*
X125480752Y-128805074D02*
X125480752Y-128947931D01*
X125480752Y-128947931D02*
X125528371Y-129043169D01*
X125528371Y-129043169D02*
X125575990Y-129090788D01*
X125575990Y-129090788D02*
X125671228Y-129138407D01*
X125671228Y-129138407D02*
X125956942Y-129138407D01*
X125956942Y-129138407D02*
X126052180Y-129090788D01*
X126052180Y-129090788D02*
X126099800Y-129043169D01*
X126099800Y-129043169D02*
X126147419Y-128947931D01*
X126147419Y-128947931D02*
X126147419Y-128805074D01*
X126052180Y-130900312D02*
X126099800Y-130852693D01*
X126099800Y-130852693D02*
X126147419Y-130709836D01*
X126147419Y-130709836D02*
X126147419Y-130614598D01*
X126147419Y-130614598D02*
X126099800Y-130471741D01*
X126099800Y-130471741D02*
X126004561Y-130376503D01*
X126004561Y-130376503D02*
X125909323Y-130328884D01*
X125909323Y-130328884D02*
X125718847Y-130281265D01*
X125718847Y-130281265D02*
X125575990Y-130281265D01*
X125575990Y-130281265D02*
X125385514Y-130328884D01*
X125385514Y-130328884D02*
X125290276Y-130376503D01*
X125290276Y-130376503D02*
X125195038Y-130471741D01*
X125195038Y-130471741D02*
X125147419Y-130614598D01*
X125147419Y-130614598D02*
X125147419Y-130709836D01*
X125147419Y-130709836D02*
X125195038Y-130852693D01*
X125195038Y-130852693D02*
X125242657Y-130900312D01*
X126147419Y-131471741D02*
X126099800Y-131376503D01*
X126099800Y-131376503D02*
X126052180Y-131328884D01*
X126052180Y-131328884D02*
X125956942Y-131281265D01*
X125956942Y-131281265D02*
X125671228Y-131281265D01*
X125671228Y-131281265D02*
X125575990Y-131328884D01*
X125575990Y-131328884D02*
X125528371Y-131376503D01*
X125528371Y-131376503D02*
X125480752Y-131471741D01*
X125480752Y-131471741D02*
X125480752Y-131614598D01*
X125480752Y-131614598D02*
X125528371Y-131709836D01*
X125528371Y-131709836D02*
X125575990Y-131757455D01*
X125575990Y-131757455D02*
X125671228Y-131805074D01*
X125671228Y-131805074D02*
X125956942Y-131805074D01*
X125956942Y-131805074D02*
X126052180Y-131757455D01*
X126052180Y-131757455D02*
X126099800Y-131709836D01*
X126099800Y-131709836D02*
X126147419Y-131614598D01*
X126147419Y-131614598D02*
X126147419Y-131471741D01*
X125480752Y-132233646D02*
X126147419Y-132233646D01*
X125575990Y-132233646D02*
X125528371Y-132281265D01*
X125528371Y-132281265D02*
X125480752Y-132376503D01*
X125480752Y-132376503D02*
X125480752Y-132519360D01*
X125480752Y-132519360D02*
X125528371Y-132614598D01*
X125528371Y-132614598D02*
X125623609Y-132662217D01*
X125623609Y-132662217D02*
X126147419Y-132662217D01*
X125480752Y-132995551D02*
X125480752Y-133376503D01*
X125147419Y-133138408D02*
X126004561Y-133138408D01*
X126004561Y-133138408D02*
X126099800Y-133186027D01*
X126099800Y-133186027D02*
X126147419Y-133281265D01*
X126147419Y-133281265D02*
X126147419Y-133376503D01*
X126147419Y-133709837D02*
X125480752Y-133709837D01*
X125671228Y-133709837D02*
X125575990Y-133757456D01*
X125575990Y-133757456D02*
X125528371Y-133805075D01*
X125528371Y-133805075D02*
X125480752Y-133900313D01*
X125480752Y-133900313D02*
X125480752Y-133995551D01*
X126147419Y-134471742D02*
X126099800Y-134376504D01*
X126099800Y-134376504D02*
X126052180Y-134328885D01*
X126052180Y-134328885D02*
X125956942Y-134281266D01*
X125956942Y-134281266D02*
X125671228Y-134281266D01*
X125671228Y-134281266D02*
X125575990Y-134328885D01*
X125575990Y-134328885D02*
X125528371Y-134376504D01*
X125528371Y-134376504D02*
X125480752Y-134471742D01*
X125480752Y-134471742D02*
X125480752Y-134614599D01*
X125480752Y-134614599D02*
X125528371Y-134709837D01*
X125528371Y-134709837D02*
X125575990Y-134757456D01*
X125575990Y-134757456D02*
X125671228Y-134805075D01*
X125671228Y-134805075D02*
X125956942Y-134805075D01*
X125956942Y-134805075D02*
X126052180Y-134757456D01*
X126052180Y-134757456D02*
X126099800Y-134709837D01*
X126099800Y-134709837D02*
X126147419Y-134614599D01*
X126147419Y-134614599D02*
X126147419Y-134471742D01*
X126147419Y-135376504D02*
X126099800Y-135281266D01*
X126099800Y-135281266D02*
X126004561Y-135233647D01*
X126004561Y-135233647D02*
X125147419Y-135233647D01*
X126147419Y-137090790D02*
X125671228Y-136757457D01*
X126147419Y-136519362D02*
X125147419Y-136519362D01*
X125147419Y-136519362D02*
X125147419Y-136900314D01*
X125147419Y-136900314D02*
X125195038Y-136995552D01*
X125195038Y-136995552D02*
X125242657Y-137043171D01*
X125242657Y-137043171D02*
X125337895Y-137090790D01*
X125337895Y-137090790D02*
X125480752Y-137090790D01*
X125480752Y-137090790D02*
X125575990Y-137043171D01*
X125575990Y-137043171D02*
X125623609Y-136995552D01*
X125623609Y-136995552D02*
X125671228Y-136900314D01*
X125671228Y-136900314D02*
X125671228Y-136519362D01*
X126099800Y-137900314D02*
X126147419Y-137805076D01*
X126147419Y-137805076D02*
X126147419Y-137614600D01*
X126147419Y-137614600D02*
X126099800Y-137519362D01*
X126099800Y-137519362D02*
X126004561Y-137471743D01*
X126004561Y-137471743D02*
X125623609Y-137471743D01*
X125623609Y-137471743D02*
X125528371Y-137519362D01*
X125528371Y-137519362D02*
X125480752Y-137614600D01*
X125480752Y-137614600D02*
X125480752Y-137805076D01*
X125480752Y-137805076D02*
X125528371Y-137900314D01*
X125528371Y-137900314D02*
X125623609Y-137947933D01*
X125623609Y-137947933D02*
X125718847Y-137947933D01*
X125718847Y-137947933D02*
X125814085Y-137471743D01*
X125480752Y-138281267D02*
X126147419Y-138519362D01*
X126147419Y-138519362D02*
X125480752Y-138757457D01*
X126147419Y-140424124D02*
X126147419Y-139852696D01*
X126147419Y-140138410D02*
X125147419Y-140138410D01*
X125147419Y-140138410D02*
X125290276Y-140043172D01*
X125290276Y-140043172D02*
X125385514Y-139947934D01*
X125385514Y-139947934D02*
X125433133Y-139852696D01*
X126052180Y-140852696D02*
X126099800Y-140900315D01*
X126099800Y-140900315D02*
X126147419Y-140852696D01*
X126147419Y-140852696D02*
X126099800Y-140805077D01*
X126099800Y-140805077D02*
X126052180Y-140852696D01*
X126052180Y-140852696D02*
X126147419Y-140852696D01*
X125147419Y-141519362D02*
X125147419Y-141614600D01*
X125147419Y-141614600D02*
X125195038Y-141709838D01*
X125195038Y-141709838D02*
X125242657Y-141757457D01*
X125242657Y-141757457D02*
X125337895Y-141805076D01*
X125337895Y-141805076D02*
X125528371Y-141852695D01*
X125528371Y-141852695D02*
X125766466Y-141852695D01*
X125766466Y-141852695D02*
X125956942Y-141805076D01*
X125956942Y-141805076D02*
X126052180Y-141757457D01*
X126052180Y-141757457D02*
X126099800Y-141709838D01*
X126099800Y-141709838D02*
X126147419Y-141614600D01*
X126147419Y-141614600D02*
X126147419Y-141519362D01*
X126147419Y-141519362D02*
X126099800Y-141424124D01*
X126099800Y-141424124D02*
X126052180Y-141376505D01*
X126052180Y-141376505D02*
X125956942Y-141328886D01*
X125956942Y-141328886D02*
X125766466Y-141281267D01*
X125766466Y-141281267D02*
X125528371Y-141281267D01*
X125528371Y-141281267D02*
X125337895Y-141328886D01*
X125337895Y-141328886D02*
X125242657Y-141376505D01*
X125242657Y-141376505D02*
X125195038Y-141424124D01*
X125195038Y-141424124D02*
X125147419Y-141519362D01*
X126147419Y-143566981D02*
X126147419Y-142995553D01*
X126147419Y-143281267D02*
X125147419Y-143281267D01*
X125147419Y-143281267D02*
X125290276Y-143186029D01*
X125290276Y-143186029D02*
X125385514Y-143090791D01*
X125385514Y-143090791D02*
X125433133Y-142995553D01*
X126147419Y-144519362D02*
X126147419Y-143947934D01*
X126147419Y-144233648D02*
X125147419Y-144233648D01*
X125147419Y-144233648D02*
X125290276Y-144138410D01*
X125290276Y-144138410D02*
X125385514Y-144043172D01*
X125385514Y-144043172D02*
X125433133Y-143947934D01*
X125099800Y-145662219D02*
X126385514Y-144805077D01*
X125242657Y-145947934D02*
X125195038Y-145995553D01*
X125195038Y-145995553D02*
X125147419Y-146090791D01*
X125147419Y-146090791D02*
X125147419Y-146328886D01*
X125147419Y-146328886D02*
X125195038Y-146424124D01*
X125195038Y-146424124D02*
X125242657Y-146471743D01*
X125242657Y-146471743D02*
X125337895Y-146519362D01*
X125337895Y-146519362D02*
X125433133Y-146519362D01*
X125433133Y-146519362D02*
X125575990Y-146471743D01*
X125575990Y-146471743D02*
X126147419Y-145900315D01*
X126147419Y-145900315D02*
X126147419Y-146519362D01*
X125147419Y-147138410D02*
X125147419Y-147233648D01*
X125147419Y-147233648D02*
X125195038Y-147328886D01*
X125195038Y-147328886D02*
X125242657Y-147376505D01*
X125242657Y-147376505D02*
X125337895Y-147424124D01*
X125337895Y-147424124D02*
X125528371Y-147471743D01*
X125528371Y-147471743D02*
X125766466Y-147471743D01*
X125766466Y-147471743D02*
X125956942Y-147424124D01*
X125956942Y-147424124D02*
X126052180Y-147376505D01*
X126052180Y-147376505D02*
X126099800Y-147328886D01*
X126099800Y-147328886D02*
X126147419Y-147233648D01*
X126147419Y-147233648D02*
X126147419Y-147138410D01*
X126147419Y-147138410D02*
X126099800Y-147043172D01*
X126099800Y-147043172D02*
X126052180Y-146995553D01*
X126052180Y-146995553D02*
X125956942Y-146947934D01*
X125956942Y-146947934D02*
X125766466Y-146900315D01*
X125766466Y-146900315D02*
X125528371Y-146900315D01*
X125528371Y-146900315D02*
X125337895Y-146947934D01*
X125337895Y-146947934D02*
X125242657Y-146995553D01*
X125242657Y-146995553D02*
X125195038Y-147043172D01*
X125195038Y-147043172D02*
X125147419Y-147138410D01*
X125242657Y-147852696D02*
X125195038Y-147900315D01*
X125195038Y-147900315D02*
X125147419Y-147995553D01*
X125147419Y-147995553D02*
X125147419Y-148233648D01*
X125147419Y-148233648D02*
X125195038Y-148328886D01*
X125195038Y-148328886D02*
X125242657Y-148376505D01*
X125242657Y-148376505D02*
X125337895Y-148424124D01*
X125337895Y-148424124D02*
X125433133Y-148424124D01*
X125433133Y-148424124D02*
X125575990Y-148376505D01*
X125575990Y-148376505D02*
X126147419Y-147805077D01*
X126147419Y-147805077D02*
X126147419Y-148424124D01*
X125147419Y-149328886D02*
X125147419Y-148852696D01*
X125147419Y-148852696D02*
X125623609Y-148805077D01*
X125623609Y-148805077D02*
X125575990Y-148852696D01*
X125575990Y-148852696D02*
X125528371Y-148947934D01*
X125528371Y-148947934D02*
X125528371Y-149186029D01*
X125528371Y-149186029D02*
X125575990Y-149281267D01*
X125575990Y-149281267D02*
X125623609Y-149328886D01*
X125623609Y-149328886D02*
X125718847Y-149376505D01*
X125718847Y-149376505D02*
X125956942Y-149376505D01*
X125956942Y-149376505D02*
X126052180Y-149328886D01*
X126052180Y-149328886D02*
X126099800Y-149281267D01*
X126099800Y-149281267D02*
X126147419Y-149186029D01*
X126147419Y-149186029D02*
X126147419Y-148947934D01*
X126147419Y-148947934D02*
X126099800Y-148852696D01*
X126099800Y-148852696D02*
X126052180Y-148805077D01*
D11*
X133103333Y-114344819D02*
X133103333Y-115059104D01*
X133103333Y-115059104D02*
X133150952Y-115201961D01*
X133150952Y-115201961D02*
X133246190Y-115297200D01*
X133246190Y-115297200D02*
X133389047Y-115344819D01*
X133389047Y-115344819D02*
X133484285Y-115344819D01*
X132722380Y-114344819D02*
X132103333Y-114344819D01*
X132103333Y-114344819D02*
X132436666Y-114725771D01*
X132436666Y-114725771D02*
X132293809Y-114725771D01*
X132293809Y-114725771D02*
X132198571Y-114773390D01*
X132198571Y-114773390D02*
X132150952Y-114821009D01*
X132150952Y-114821009D02*
X132103333Y-114916247D01*
X132103333Y-114916247D02*
X132103333Y-115154342D01*
X132103333Y-115154342D02*
X132150952Y-115249580D01*
X132150952Y-115249580D02*
X132198571Y-115297200D01*
X132198571Y-115297200D02*
X132293809Y-115344819D01*
X132293809Y-115344819D02*
X132579523Y-115344819D01*
X132579523Y-115344819D02*
X132674761Y-115297200D01*
X132674761Y-115297200D02*
X132722380Y-115249580D01*
X132688333Y-72339819D02*
X132688333Y-73054104D01*
X132688333Y-73054104D02*
X132735952Y-73196961D01*
X132735952Y-73196961D02*
X132831190Y-73292200D01*
X132831190Y-73292200D02*
X132974047Y-73339819D01*
X132974047Y-73339819D02*
X133069285Y-73339819D01*
X131688333Y-73339819D02*
X132259761Y-73339819D01*
X131974047Y-73339819D02*
X131974047Y-72339819D01*
X131974047Y-72339819D02*
X132069285Y-72482676D01*
X132069285Y-72482676D02*
X132164523Y-72577914D01*
X132164523Y-72577914D02*
X132259761Y-72625533D01*
X133038333Y-86624819D02*
X133038333Y-87339104D01*
X133038333Y-87339104D02*
X133085952Y-87481961D01*
X133085952Y-87481961D02*
X133181190Y-87577200D01*
X133181190Y-87577200D02*
X133324047Y-87624819D01*
X133324047Y-87624819D02*
X133419285Y-87624819D01*
X132609761Y-86720057D02*
X132562142Y-86672438D01*
X132562142Y-86672438D02*
X132466904Y-86624819D01*
X132466904Y-86624819D02*
X132228809Y-86624819D01*
X132228809Y-86624819D02*
X132133571Y-86672438D01*
X132133571Y-86672438D02*
X132085952Y-86720057D01*
X132085952Y-86720057D02*
X132038333Y-86815295D01*
X132038333Y-86815295D02*
X132038333Y-86910533D01*
X132038333Y-86910533D02*
X132085952Y-87053390D01*
X132085952Y-87053390D02*
X132657380Y-87624819D01*
X132657380Y-87624819D02*
X132038333Y-87624819D01*
%LPC*%
%TO.C,RV4*%
D10*
X126100000Y-117165000D02*
X124730000Y-117165000D01*
X124730000Y-122475000D01*
X126100000Y-122475000D01*
X126100000Y-117165000D01*
G36*
X126100000Y-117165000D02*
G01*
X124730000Y-117165000D01*
X124730000Y-122475000D01*
X126100000Y-122475000D01*
X126100000Y-117165000D01*
G37*
X133270000Y-117165000D02*
X131860000Y-117165000D01*
X131860000Y-122475000D01*
X133270000Y-122475000D01*
X133270000Y-117165000D01*
G36*
X133270000Y-117165000D02*
G01*
X131860000Y-117165000D01*
X131860000Y-122475000D01*
X133270000Y-122475000D01*
X133270000Y-117165000D01*
G37*
%TO.C,RV2*%
X126100000Y-89165000D02*
X124730000Y-89165000D01*
X124730000Y-94475000D01*
X126100000Y-94475000D01*
X126100000Y-89165000D01*
G36*
X126100000Y-89165000D02*
G01*
X124730000Y-89165000D01*
X124730000Y-94475000D01*
X126100000Y-94475000D01*
X126100000Y-89165000D01*
G37*
X133270000Y-89165000D02*
X131860000Y-89165000D01*
X131860000Y-94475000D01*
X133270000Y-94475000D01*
X133270000Y-89165000D01*
G36*
X133270000Y-89165000D02*
G01*
X131860000Y-89165000D01*
X131860000Y-94475000D01*
X133270000Y-94475000D01*
X133270000Y-89165000D01*
G37*
%TO.C,RV3*%
X126100000Y-103165000D02*
X124730000Y-103165000D01*
X124730000Y-108475000D01*
X126100000Y-108475000D01*
X126100000Y-103165000D01*
G36*
X126100000Y-103165000D02*
G01*
X124730000Y-103165000D01*
X124730000Y-108475000D01*
X126100000Y-108475000D01*
X126100000Y-103165000D01*
G37*
X133270000Y-103165000D02*
X131860000Y-103165000D01*
X131860000Y-108475000D01*
X133270000Y-108475000D01*
X133270000Y-103165000D01*
G36*
X133270000Y-103165000D02*
G01*
X131860000Y-103165000D01*
X131860000Y-108475000D01*
X133270000Y-108475000D01*
X133270000Y-103165000D01*
G37*
%TO.C,RV1*%
X126100000Y-74890000D02*
X124730000Y-74890000D01*
X124730000Y-80200000D01*
X126100000Y-80200000D01*
X126100000Y-74890000D01*
G36*
X126100000Y-74890000D02*
G01*
X124730000Y-74890000D01*
X124730000Y-80200000D01*
X126100000Y-80200000D01*
X126100000Y-74890000D01*
G37*
X133270000Y-74890000D02*
X131860000Y-74890000D01*
X131860000Y-80200000D01*
X133270000Y-80200000D01*
X133270000Y-74890000D01*
G36*
X133270000Y-74890000D02*
G01*
X131860000Y-74890000D01*
X131860000Y-80200000D01*
X133270000Y-80200000D01*
X133270000Y-74890000D01*
G37*
%TD*%
D12*
%TO.C,J3*%
X130200000Y-115150000D03*
D13*
X130200000Y-117690000D03*
X130200000Y-120230000D03*
X130200000Y-122770000D03*
%TD*%
D14*
%TO.C,J5*%
X129000000Y-138780000D03*
D15*
X129000000Y-127380000D03*
X129000000Y-135680000D03*
%TD*%
D12*
%TO.C,J1*%
X130175000Y-72875000D03*
D13*
X130175000Y-75415000D03*
X130175000Y-77955000D03*
X130175000Y-80495000D03*
%TD*%
D14*
%TO.C,J4*%
X129000000Y-54400000D03*
D15*
X129000000Y-43000000D03*
X129000000Y-51300000D03*
%TD*%
D16*
%TO.C,RV4*%
X131500000Y-112275000D03*
D17*
X129000000Y-112275000D03*
X126500000Y-112275000D03*
%TD*%
D12*
%TO.C,J2*%
X130175000Y-87200000D03*
D13*
X130175000Y-89740000D03*
X130175000Y-92280000D03*
X130175000Y-94820000D03*
%TD*%
D16*
%TO.C,RV2*%
X131500000Y-84275000D03*
D17*
X129000000Y-84275000D03*
X126500000Y-84275000D03*
%TD*%
D16*
%TO.C,RV3*%
X131500000Y-98275000D03*
D17*
X129000000Y-98275000D03*
X126500000Y-98275000D03*
%TD*%
D16*
%TO.C,RV1*%
X131500000Y-70000000D03*
D17*
X129000000Y-70000000D03*
X126500000Y-70000000D03*
%TD*%
D14*
%TO.C,J6*%
X129000000Y-138720000D03*
D15*
X129000000Y-150120000D03*
X129000000Y-141820000D03*
%TD*%
D18*
%TO.C,SW1*%
X132250000Y-66250000D03*
X125750000Y-66250000D03*
X132250000Y-61750000D03*
X125750000Y-61750000D03*
%TD*%
%LPD*%
M02*
